<svg width="297" height="427" viewBox="0 0 297 427" fill="none" xmlns="http://www.w3.org/2000/svg">
<path fill-rule="evenodd" clip-rule="evenodd" d="M263.244 182.412L264.816 182.255C265.59 169.342 263.415 156.656 260.875 144.177L259.294 144.271C258.736 151.462 255.071 158.274 256.749 165.675C258.354 171.519 261.755 176.559 263.244 182.412ZM83.8596 117.379L84.7803 117.577C83.0652 114.317 84.6646 113.245 86.6052 110.551L86.8165 111.04L87.5632 109.403C87.7114 108.988 87.8629 108.635 88.2723 108.479C88.6723 106.443 89.863 104.578 91.4486 103.564L91.7523 103.907C92.3807 103.356 93.1382 103.146 93.8595 102.891C92.3114 100.547 91.3155 97.5056 90.2716 94.9921C89.4215 92.3523 88.0926 89.7905 87.8429 87.1138C88.0439 84.5412 90.4679 86.2123 91.6501 87.4954C95.2616 90.6719 98.3719 95.7028 100.703 101.813C104.705 100.768 107.001 101.87 108.113 107.355C109.136 111.081 110.183 114.903 110.32 118.766C110.859 118.581 111.811 117.886 112.327 118.432C121.222 128.193 131.725 135.714 141.883 143.945C149.559 138.281 153.554 127.076 157.776 118.665C165.141 104.227 172.506 83.091 191.45 83.1654C193.961 82.903 196.413 82.602 198.783 81.8707C199.701 81.6206 200.836 81.3194 201.147 80.7603C201.708 78.9596 201.814 77.0112 202.801 75.3598C205.51 70.9446 211.377 70.5976 215.975 71.5562C223.781 73.0071 223.585 72.1601 224.148 80.3948C224.318 82.3496 225.829 82.6295 227.441 83.0343C229.272 83.6134 231.138 84.0866 233.019 84.4678C232.824 84.4127 232.629 84.3582 232.433 84.3028C262.986 84.7883 283.272 120.333 287.296 145.479C291.97 171.206 285.924 199.838 276.366 221.445C276.777 229.315 275.238 237.219 274.264 244.975C273.652 246.916 271.535 247.104 270.929 244.857L270.182 241.898L269.384 244.843C268.877 246.665 268.063 246.882 267.331 246.894C266.422 246.894 265.924 246.445 265.894 244.075L264.389 243.713C263.809 244.821 263.233 245.801 262.322 246.483C260.49 259.841 259.34 273.733 254.892 286.66C253.119 291.456 250.395 295.812 248.395 300.519C257.826 321.868 259.407 345.526 261.671 368.383C261.488 368.398 260.553 368.48 260.353 368.497L260.87 369.874C261.574 370.173 261.989 370.804 262.203 371.502C262.678 371.462 264.663 371.477 264.552 371.933C264.503 372.514 245.557 372.84 245.457 373.351C245.363 373.838 245.122 377.058 246.896 377.509C251.881 378.774 262.973 377.124 262.149 377.933C262.13 378.364 262.103 378.803 262.071 379.211C264.893 389.088 266.961 399.617 268.218 410.475C269.815 412.017 270.215 417.088 267.832 418.441C261.254 422.983 252.418 425.14 244.098 424.321C235.094 423.467 224.357 419.869 228.665 409.57C228.721 409.251 229.158 409.235 229.503 409.304C230.267 408.562 231.094 408.001 231.989 407.685C233.767 403.231 235.366 398.56 236.762 393.896C237.441 391.755 238.144 389.54 238.086 387.19C237.75 381.423 237.158 379.039 233.162 374.496C230.688 375.689 225.973 367.05 224.893 365.237C223.377 361.66 222.649 362.701 222.707 368.358C221.761 371.673 221.388 377.209 219.022 379.675C217.735 388.262 226.541 392.196 220.867 401.718C222.788 401.85 222.966 402.62 222.933 404.96C222.939 406.639 222.983 408.402 222.667 409.971C222.285 411.899 220.509 412.417 217.844 412.986C215.686 413.465 213.607 414.011 211.464 414.528C209.297 415.251 207.014 415.192 206.123 412.994C195.392 416.641 164.457 416.224 154.226 411.391C151.4 410.256 149.408 409.616 152.002 406.422C153.431 397.309 179.222 407.581 182.516 397.584C182.987 396.286 189.19 388.158 190.872 387.19C190.186 386.2 190.9 378.223 190.872 377.933C190.797 377.133 197.018 379.095 200.569 378.308C202.287 377.927 203.08 375.403 202.805 374.47C202.695 374.1 189.093 370.876 188.977 370.486C186.463 362.126 182.296 349.592 181.673 342.998C180.772 327.237 181.617 313.95 176.829 297.932C170.134 272.57 157.13 248.769 156.953 221.932C157.178 217.483 155.948 212.746 157.062 208.38L155.678 207.658C155.478 207.888 155.118 207.881 155.046 207.569C154.138 206.09 155.157 204.318 155.365 202.698C154.889 202.189 155.127 201.723 155.701 201.444C161.852 179.669 172.141 176.489 169.309 149.27C164.687 159.089 154.45 169.029 143.166 167.568C131.798 169.272 105.28 141.504 100.159 132.528C99.2202 132.6 99.2086 131.926 99.0658 131.29C94.3881 131.841 90.0098 128.16 89.9226 123.656C85.8178 126.207 81.4312 122.564 83.606 118.113C83.6915 117.873 83.7782 117.628 83.8596 117.379Z" fill="#FFDBB4"/>
<path fill-rule="evenodd" clip-rule="evenodd" d="M230.289 408.905L229.183 412.511C228.19 415.746 229.377 418.47 232.413 420.179C241.848 425.195 254.297 424.839 264.459 419.678C265.32 419.233 266.152 418.759 266.953 418.256L267.193 418.105L267.394 417.977L267.495 417.911C267.909 417.637 268.175 417.388 268.358 417.037L268.383 416.986L268.396 416.96L268.405 416.932C268.449 416.801 268.49 416.668 268.528 416.533L268.556 416.429L268.584 416.322C268.769 415.579 268.829 414.905 268.871 413.591L268.891 412.967L268.942 411.429L268.027 412.665C267.652 413.17 267.144 413.602 266.309 414.166L265.941 414.409L265.226 414.879L265.205 414.893C263.401 416.103 261.386 417.118 259.163 417.962C251.116 420.957 241.95 420.584 234.819 416.762L234.608 416.647L234.046 416.31L233.872 416.203C232.788 415.538 232.144 415.041 231.642 414.422L231.604 414.374L231.567 414.325L231.416 414.13L231.169 414.139C230.505 414.165 230.095 413.566 230.117 412.72L230.119 412.673L230.289 408.905ZM221.112 401.454L220.42 401.895C212.724 406.804 205.703 409.898 198.544 411.158C194.456 411.838 190.137 412.025 185.193 411.816L184.617 411.79L184.141 411.766C181.175 411.615 178.438 411.366 173.404 410.832L171.518 410.63L169.163 410.323L168.159 410.189C163.712 409.592 160.882 409.132 157.938 408.492L157.622 408.422L157.613 408.416C157.533 408.358 157.445 408.305 157.319 408.233L157.209 408.171C156.911 408.005 156.799 407.921 156.743 407.818L156.735 407.803L156.594 407.513L156.156 407.543L156.149 407.54C156.059 407.49 155.967 407.442 155.873 407.394L155.733 407.322L155.589 407.251L155.531 407.223L155.36 407.192L155.178 407.156C154.836 407.088 154.509 407.009 154.024 406.879L153.637 406.773L153.495 406.734L153.356 406.782C152.226 407.166 151.927 408.238 152.583 409.062L152.611 409.097L152.632 409.121L152.635 409.144C152.675 409.414 152.862 409.613 153.143 409.793L153.183 409.819L153.244 409.855L153.294 409.884L153.313 409.908C153.354 409.962 153.402 410.011 153.455 410.056L153.495 410.089L153.538 410.121L153.557 410.134L153.943 410.384L154.069 410.463C154.356 410.641 154.571 410.753 154.801 410.833L154.854 410.851L154.856 410.854C155.801 411.772 157.256 412.271 159.438 412.688L159.667 412.731L159.781 412.752L160.127 412.814C171.411 414.836 182.993 415.392 194.496 414.472C196.284 414.327 198.063 414.15 199.828 413.936L200.416 413.865L201.115 413.776L201.878 413.684L202.078 413.658L202.275 413.632C204.022 413.391 205.048 413.048 205.966 412.232L206.016 412.186L206.084 412.124C206.459 411.766 207.177 412.013 207.187 412.477V412.503L207.185 412.534C207.136 413.227 207.561 413.665 208.247 413.791C208.709 413.875 209.301 413.83 210.016 413.686C210.293 413.631 210.582 413.562 210.888 413.48L211.104 413.421L211.402 413.334C211.445 413.322 211.488 413.309 211.532 413.296L212.184 413.099L212.986 412.879C213.292 412.794 213.629 412.699 214.056 412.578L216.342 411.932L216.894 411.778C217.379 411.645 217.788 411.535 218.219 411.422L218.426 411.369L218.927 411.272L219.105 411.235L219.267 411.2C220.963 410.822 221.251 410.356 221.286 408.224L221.289 408.033L221.379 407.218L221.434 406.746C221.496 406.221 221.555 405.778 221.62 405.355L221.658 405.112L221.671 405.031L221.722 404.73C221.726 404.708 221.8 404.362 221.83 404.213C221.87 404.007 221.902 403.814 221.924 403.63C221.974 403.204 221.968 402.859 221.876 402.581C221.763 402.239 221.514 402.02 221.191 401.981L221.154 401.977L221.14 401.976L221.112 401.454Z" fill="white"/>
<path fill-rule="evenodd" clip-rule="evenodd" d="M262.77 203.576L261.596 204.211C257.085 206.648 252.122 208.675 246.443 210.479L245.98 210.626C241.75 211.953 237.386 213.094 231.37 214.505L231.15 214.555L229.839 214.861L228.471 215.176C210.081 219.641 190.954 219.582 172.852 214.94L172.46 214.853C168.312 213.919 165.265 212.985 162.439 211.674C160.365 210.712 158.683 209.591 157.467 208.258L157.388 208.171L156.783 207.491L156.565 208.376C156.259 209.621 156.118 210.944 156.104 212.451V212.639L156.119 212.832L156.137 213.042C156.198 213.74 156.282 214.413 156.432 215.451L156.463 215.665L156.715 217.37C156.854 218.326 156.933 218.939 156.992 219.567L157.012 219.796L157.025 219.946L157.037 220.212C157.317 226.469 158.376 232.876 160.184 239.942L160.266 240.263L160.392 240.746L160.556 241.372C161.822 246.14 163.168 250.412 165.689 257.879L166.024 258.872L167.743 263.932C168.006 264.71 168.225 265.355 168.422 265.943L168.506 266.193L169.263 268.476L169.714 269.704L170.123 270.826C174.441 282.683 177.225 291.307 179.367 300.002L179.516 300.611C182.21 311.716 183.507 321.95 183.292 331.938C183.09 343.76 185.35 355.939 189.808 368.818L190.061 369.544L190.726 369.518C200.374 369.166 209.856 370.171 218.815 372.552L219.104 372.63L219.578 372.757L219.696 372.274C219.732 372.091 220.347 368.685 220.712 367.1L220.734 367.003L220.782 366.806L220.856 366.504C221.673 363.287 222.659 361.507 223.654 361.671C225.169 361.921 227.331 364.215 229.665 367.77C230.493 369.032 231.299 370.389 231.996 371.664L232.155 371.957L232.358 372.338C232.786 373.153 233.103 373.815 233.137 373.941L233.316 374.775L233.934 374.201C234.196 373.958 234.612 373.807 235.262 373.696L235.417 373.67L236.208 373.56L236.355 373.537L236.473 373.518L236.935 373.434C238.636 373.132 240.392 372.884 242.229 372.684L242.674 372.636L242.855 372.533C245.696 370.939 249.507 370.569 252.83 371.501L253.047 371.563L253.393 371.503C255.282 371.184 257.151 371.016 258.951 371.019L259.176 371.02L259.721 371.025L259.614 370.123C259.557 369.64 259.502 369.151 259.448 368.656L259.358 367.819C259.15 365.865 258.979 364.077 258.765 361.589L258.59 359.535L258.034 352.796C257.981 352.166 257.934 351.612 257.885 351.056L257.814 350.254L257.765 349.721C256.331 334.271 253.627 318.605 249.713 302.666L249.544 301.982L248.813 300.258L248.482 301.698C248.302 302.481 248.239 303.25 248.305 304.044C248.326 304.308 248.176 304.446 247.9 304.445C247.597 304.445 247.367 304.261 247.343 303.965C247.212 302.358 247.551 300.911 248.39 299.097L248.442 298.987L248.533 298.792L248.629 298.597L248.924 298.001L249.337 297.178L250.511 294.859C253.216 289.505 254.43 286.756 255.388 283.396L255.448 283.186L255.523 282.918L256.17 280.602L256.312 280.085C256.606 279.006 256.813 278.174 256.996 277.325L257.062 277.014C258.475 270.322 259.5 263.768 260.788 253.838L260.909 252.908L261.141 251.09L261.759 246.212L261.612 246.05C261.152 245.534 260.9 244.758 260.777 243.688L260.762 243.55C260.72 243.163 260.654 242.833 260.515 242.29L260.456 242.066L260.344 241.645L260.242 241.261C260.154 240.918 260.093 240.644 260.053 240.386L260.034 240.262L260.011 240.207C259.657 239.354 259.457 238.381 259.334 237.099L259.323 236.977C259.304 236.772 259.29 236.596 259.274 236.375L259.268 236.291L259.174 234.815L259.081 233.518L259.023 232.671C259.006 232.427 258.99 232.175 258.973 231.909L258.938 231.352L258.773 228.626L258.616 226.102L258.614 226.06V226.042L258.618 225.734L258.619 225.602L258.617 225.487C258.607 225.057 258.561 224.804 258.362 224.605C258.081 224.322 257.679 224.287 257.01 224.352L256.946 224.358C256.886 224.363 256.827 224.37 256.763 224.378L256.697 224.386L256.213 224.449L256.121 224.46L256.072 224.464L256.007 224.468C254.778 224.587 253.283 224.379 252.227 223.886C251.03 223.325 250.493 222.491 250.73 221.326L250.738 221.289L250.747 221.262C250.917 220.757 251.257 220.364 251.936 219.815L252.065 219.712L252.457 219.406L252.571 219.316L253.156 218.845C253.35 218.69 253.546 218.532 253.753 218.368L253.909 218.243L258.26 214.792L259.088 214.131L259.559 213.754L260.293 213.162L260.363 213.101C260.478 212.998 260.586 212.897 260.721 212.763L260.852 212.632L261.226 212.251C261.732 211.74 262.008 211.504 262.364 211.299L262.733 211.093L262.577 210.549L262.513 210.321C261.863 207.959 261.716 206.238 262.243 204.878L262.268 204.813L262.77 203.576Z" fill="#E86BBB"/>
<path fill-rule="evenodd" clip-rule="evenodd" d="M202.363 74.2386C202.231 76.0618 201.796 77.9853 201.131 79.7731C200.893 79.8115 200.664 79.9458 200.498 80.2067C200.275 80.5567 199.204 80.8012 198.646 80.9659L198.566 80.9901C196.249 81.707 193.831 81.9965 191.428 82.2522C180.124 82.8787 176.01 86.4286 169.634 95.3982C162.064 105.503 157.817 117.496 152.111 128.649C150.707 131.36 149.191 134.009 147.524 136.569L147.285 136.933C145.818 139.163 144.19 141.409 141.957 142.912C136.456 138.29 130.572 134.163 125.13 129.469L124.621 129.028C120.538 125.49 116.638 121.742 112.928 117.814C112.49 117.351 111.669 117.229 111.062 117.501C110.825 113.966 109.828 110.498 108.909 107.083C107.946 102.683 106.27 99.7094 101.216 100.798L101.087 100.475C99.067 95.4549 96.3715 90.5769 92.3343 86.9081L92.0695 86.6693C91.1914 85.8702 90.039 84.7245 88.8056 84.828C87.6858 84.9207 87.1107 85.9363 87.066 86.9692C87.0148 88.1944 87.5479 89.442 87.9297 90.5903L87.9621 90.6886C88.4542 92.1966 88.9845 93.6919 89.5454 95.1758C90.0852 96.6038 90.6636 98.0174 91.2689 99.4182C91.886 100.589 92.3399 102.531 93.464 103.238C94.0441 103.584 94.6418 103.119 94.7036 102.526C94.7913 101.747 94.3441 101.062 94.0151 100.384C93.7115 99.7604 93.4142 99.1336 93.1253 98.5036C91.9631 95.967 90.9204 93.3779 90.0245 90.7367L89.9977 90.6507C89.6928 89.7068 88.6804 87.5118 89.0469 86.7373C89.4254 86.7405 90.2044 87.5416 90.4798 87.7799C94.812 91.3759 97.6277 96.3446 100.849 100.879C98.8276 101.457 96.6333 101.729 94.9543 103.088C91.501 106.107 94.2741 112.086 98.9033 110.973C97.6113 113.725 96.5001 118.169 98.7899 120.654C99.4783 121.301 100.816 121.094 101.025 120.065C101.248 118.97 100.98 118.033 100.734 116.974C100.288 114.815 100.018 112.605 100.322 110.407L100.417 110.35C101.202 109.874 101.696 109.338 101.672 108.351C101.773 107.638 101.015 106.677 100.254 107.261C100.005 107.449 99.7034 107.463 99.4433 107.654C99.0016 108.075 98.4529 108.406 97.8268 108.4L97.766 108.399C96.9608 108.392 96.3665 107.906 96.1205 107.152C95.4464 105.081 97.7801 104.385 99.2977 103.987L99.6894 103.866C103.832 102.597 105.333 102.577 106.375 107.454L106.499 107.858C107.577 111.37 108.567 114.962 110.402 118.164L110.104 118.875C108.198 123.416 105.789 128.586 100.689 129.974C100.507 128.446 98.8575 128.391 97.6637 128.429C96.1228 128.346 94.5762 127.562 93.4878 126.437C92.5369 125.478 92.0588 124.141 91.007 123.285C91.483 122.201 90.408 121.004 89.2849 121.628C88.5277 122.047 88.0707 122.646 87.1569 122.767C86.3471 122.876 85.6011 122.593 84.9861 122.073C83.3806 120.713 84.1442 118.716 83.7513 116.936C84.2687 117.834 85.1281 118.521 86.0484 118.996C92.1926 122.517 92.1308 115.614 88.7353 116.747C85.0467 115.907 85.109 114.572 86.4878 111.436L86.5255 111.323C86.7553 110.659 87.2285 109.526 86.7721 108.831C86.7466 108.795 86.7002 108.784 86.6666 108.816C86.2448 109.232 86.0786 109.929 85.7225 110.418L85.3839 110.823C84.0697 112.401 82.641 114.286 83.4972 116.41C83.4078 116.391 83.3103 116.429 83.2801 116.538C82.8837 117.983 82.0962 119.401 82.2592 120.946C82.5998 124.331 86.2628 126.189 89.2961 124.779C89.8793 129.13 94.163 132.263 98.4561 132.069C98.5918 132.665 99.0327 133.19 99.7153 133.245C106.033 143.384 130.868 169.472 143.048 168.382C144.212 168.911 145.695 168.645 146.928 168.485C156.387 167.249 164.293 160.319 168.702 152.105C170.323 179.013 161.163 178.685 155.034 200.978C154.42 201.363 154.062 202.204 154.539 202.916C154.276 204.264 153.737 205.646 153.945 207.03C154.046 207.425 154.253 207.785 154.44 208.146C154.824 208.884 155.838 208.796 156.314 208.222C155.508 211.141 155.851 214.205 156.058 217.181C156.184 218.929 156.174 220.653 156.176 222.403C156.416 249.035 169.402 273.046 176.077 298.312C177.966 305.396 179.416 312.612 179.986 319.928C180.592 327.71 180.17 335.537 180.899 343.31C181.753 352.439 184.214 361.307 187.091 369.982L187.2 369.851L187.167 371.016C187.208 371.119 187.261 371.216 187.325 371.306L187.349 371.311C189.613 371.717 191.792 372.268 195.022 373.208L195.826 373.442L198.107 374.119L198.761 374.311L198.802 374.324L198.847 374.34C198.992 374.396 199.117 374.484 199.213 374.595L199.237 374.624L199.973 374.869L200.011 374.882L200.049 374.898C200.532 375.108 200.726 375.613 200.59 376.079C200.442 376.58 199.955 376.884 199.416 376.705L198.434 376.377L197.932 376.212L197.431 376.048C193.706 374.834 191.14 374.151 188.506 373.757L188.215 373.715L188.054 373.648L187.999 373.627C187.834 374.673 187.796 375.728 187.84 376.809C187.883 378.659 188.462 380.494 188.221 382.341C188.034 383.151 187.379 383.926 187.795 384.793L187.605 384.913C186.504 385.623 185.452 386.4 184.728 387.495C184.57 387.735 184.45 388.229 184.27 388.398C184.081 388.575 183.729 388.596 183.498 388.679C182.324 389.036 181.587 390.096 181.687 391.328C178.941 392.12 179.887 394.915 177.052 396.859C174.142 398.971 170.2 399.204 166.763 399.752L160.904 400.687L160.55 400.73C156.693 401.208 151.695 402.139 151.225 406.789C150.504 407.288 150.257 408.307 150.05 409.115C149.889 409.751 149.905 410.41 150.373 410.915C150.924 411.508 151.904 411.752 152.628 412.069C153.575 412.443 154.398 413.084 155.425 413.264C156.651 413.772 158.005 414.07 159.122 414.279C171.433 416.561 184.064 417.112 196.525 415.91C198.56 415.713 200.594 415.473 202.618 415.181L202.859 415.147C203.867 414.996 204.907 414.79 205.827 414.358C207.114 416.527 209.591 416.255 211.677 415.639C213.315 415.233 214.952 414.833 216.59 414.433C219.124 413.75 222.846 413.608 223.472 410.455C223.788 408.864 223.767 407.093 223.751 405.477L223.755 404.993V404.854C223.751 403.502 223.615 401.731 222.11 401.451C224.249 397.482 223.783 392.602 221.791 388.669L221.686 388.476C220.22 385.783 219.305 383.536 219.791 380.355C220.767 379.434 221.222 378.111 221.583 376.811C222.599 373.145 223.446 369.427 224.099 365.678C225.606 368.523 227.425 371.195 229.468 373.68C230.281 374.84 230.946 375.215 232.262 375.666C232.467 375.753 232.675 375.754 232.869 375.698C234.088 377.352 235.567 378.663 236.207 380.638C236.904 382.822 237.171 385.225 237.309 387.508C237.382 390.483 236.145 393.292 235.368 396.117C234.151 400.017 232.791 403.873 231.283 407.67C230.297 407.904 228.803 407.788 228.444 408.972C228.212 409.112 228.022 409.337 227.922 409.663L227.837 409.942C227.116 412.337 226.504 415.105 227.441 417.504C230.029 423.318 238.345 424.768 244.032 425.464C252.456 426.266 261.292 424.249 268.305 419.441C269.295 418.745 269.971 417.953 270.135 416.721L270.161 416.489C270.38 414.443 270.414 412.038 269.002 410.46C267.781 400.001 265.78 389.547 262.899 379.416C262.921 379.13 262.939 378.844 262.953 378.556C263.771 377.703 264.335 376.674 264.717 375.569C263.491 375.415 262.407 375.375 261.408 375.465L261.37 375.467L261.58 375.682L260.611 375.798L260.489 375.811C260.21 375.842 259.945 375.86 259.504 375.882L259.024 375.904C258.149 375.946 257.712 375.99 257.224 376.101L257.137 376.121L257.011 376.103C256.762 376.071 256.515 376.078 256.084 376.116L255.846 376.137C255.372 376.177 255.119 376.183 254.796 376.148L254.629 376.126L254.612 376.124L254.568 376.115L254.519 376.103C254.423 376.077 254.335 376.037 254.255 375.984L254.242 375.975L253.822 375.971C253.65 375.97 253.471 375.97 253.272 375.97L252.7 375.973L251.539 375.982L250.585 375.988C249.82 375.99 249.176 375.984 248.572 375.964L248.236 375.952L248.027 375.943C247.49 375.918 247.115 375.499 247.075 375.004C247.031 374.464 247.405 374.001 247.997 374.029C248.556 374.054 249.137 374.068 249.8 374.072L250.089 374.073H250.471L252.55 374.059C254.236 374.048 255.186 374.06 256.212 374.122L256.484 374.139L256.675 374.102C256.828 374.07 256.998 374.032 257.22 373.979L257.681 373.869C257.723 373.86 257.763 373.85 257.801 373.841L258.055 373.784L258.241 373.746L258.26 373.729L258.299 373.7C258.392 373.635 258.498 373.587 258.615 373.557C259.346 373.372 260.112 373.242 260.922 373.158C262.17 373.02 263.485 373.017 264.92 373.129L265.275 373.157C265.316 372.853 265.348 372.549 265.372 372.247C265.345 370.92 263.655 371.037 262.708 370.811C260.317 347.157 258.942 322.764 249.287 300.697C251.211 296.24 253.813 291.992 255.541 287.423L255.662 287.096C256.378 285.221 256.812 283.308 257.379 281.394C257.748 280.477 258.053 279.548 258.201 278.565C260.471 268.154 261.756 257.564 263.095 247.003C263.997 246.256 264.593 245.18 265.116 244.189L265.12 244.44C265.159 246.047 265.421 247.846 267.428 247.8C269.081 247.76 269.805 246.524 270.175 245.157C270.895 248.015 274.095 248.172 275.033 245.356C275.452 244.221 275.435 242.926 275.559 241.735C276.227 235.196 277.622 228.662 277.222 222.078C277.643 221.934 278.011 221.611 278.189 221.072C286.177 196.825 293.286 170.875 288.101 145.289C282.915 120.22 268.875 92.157 242.339 85.0486C236.967 83.6883 231.51 83.2266 226.003 82.8755C225.209 81.3349 224.695 79.5824 224.591 77.8383C224.559 77.3345 224.583 76.8357 224.585 76.3319C224.587 75.8665 224.389 75.3117 224.481 74.8768C224.503 74.7711 224.36 74.7359 224.322 74.8335C224.205 75.1389 223.967 75.2924 223.805 75.5499C223.404 76.2776 223.298 77.1417 223.192 77.955C222.789 81.1663 223.721 84.4715 225.682 87.0331L225.792 87.1781C226.409 87.9901 227.475 89.2317 228.577 88.5811C229.622 87.9623 228.909 86.6861 228.289 86.0416C227.467 85.1846 226.776 84.2683 226.216 83.2688C228.707 83.9342 231.18 84.6669 233.663 85.3604L233.841 85.4579C235.785 86.5104 238.615 87.6504 238.361 90.2555C233.189 105.899 210.304 109.919 196.161 106.184C193.38 105.441 190.57 104.234 188.678 101.982L188.602 101.89C185.332 98.0115 185.583 91.6029 189.676 88.418C192.108 86.4223 195.468 85.362 198.501 84.6714C197.619 86.1394 195.667 87.1761 195.312 88.9153C195.222 89.5117 195.551 90.0794 196.207 90.0923C197.875 90.1242 199.105 88.3396 199.981 87.1403C201.808 84.6312 202.844 81.5981 203.065 78.5083C203.176 77.0051 202.899 75.6507 202.524 74.2162C202.5 74.1219 202.369 74.1491 202.363 74.2386ZM229.561 412.658C229.518 413.606 229.982 414.668 231.107 414.626C231.926 415.688 233.154 416.388 234.293 417.072C241.818 421.202 251.282 421.384 259.25 418.419C261.402 417.602 263.477 416.583 265.392 415.298L265.572 415.18C266.537 414.54 267.647 413.883 268.332 412.958L268.309 413.716C268.274 414.79 268.213 415.781 267.871 416.784C267.663 417.218 267.247 417.456 266.856 417.707C265.981 418.265 265.081 418.781 264.16 419.258C254.553 424.137 242.208 424.893 232.558 419.762C229.788 418.202 228.615 415.738 229.561 412.658ZM220.597 402.306C220.604 402.424 220.722 402.522 220.843 402.486C221.807 402.207 221.228 404.314 221.169 404.655C220.976 405.768 220.853 406.887 220.73 408.011L220.728 408.226C220.696 410.461 220.475 410.477 218.241 410.908C216.383 411.386 214.542 411.934 212.692 412.447L211.953 412.65C211.164 412.876 207.545 414.143 207.581 412.622L207.583 412.574C207.654 411.578 206.364 411.167 205.699 411.76L205.674 411.782C204.393 413.003 202.566 413.104 200.895 413.317L200.811 413.327C198.674 413.603 196.526 413.828 194.379 414C183.075 414.904 171.656 414.381 160.488 412.412L159.761 412.282C158.787 412.105 157.387 411.822 156.263 411.282C155.833 411.246 153.653 410.185 153.732 409.727C153.695 409.658 153.661 409.591 153.632 409.521C153.205 409.057 153.218 408.079 153.778 407.71C154.711 407.954 155.643 408.194 156.579 408.425L156.58 408.428C157.526 409.159 158.817 409.157 159.958 409.411C161.192 409.632 162.427 409.839 163.663 410.037C170.747 411.152 177.891 411.941 185.055 412.276C197.729 413.383 210.132 409.337 220.597 402.306ZM261.828 204.634C261.068 206.506 261.613 208.927 262.172 210.86C261.311 211.341 260.719 212.163 259.984 212.8C257.43 214.867 254.831 216.88 252.274 218.944L252.164 219.031C251.412 219.623 250.578 220.207 250.278 221.165C249.576 224.314 253.722 225.172 256.057 224.947C256.489 224.929 257.729 224.645 258.026 224.944C258.198 225.117 258.127 225.891 258.142 226.12C258.304 228.62 258.436 231.123 258.611 233.622L258.68 234.56C258.822 236.454 258.826 238.594 259.573 240.393C259.734 241.477 260.185 242.573 260.295 243.645C260.395 244.603 260.621 245.656 261.259 246.37L260.669 251.031C259.557 259.77 258.382 268.508 256.552 277.129C256.142 279.064 255.576 280.933 255.052 282.837C253.542 288.332 250.707 293.305 248.203 298.384L248.107 298.583C247.264 300.333 246.706 302.013 246.87 304.005C246.97 305.229 248.887 305.237 248.786 304.005C248.718 303.177 248.802 302.416 248.982 301.688C252.958 317.666 255.849 333.893 257.342 350.298C257.943 357.056 258.384 363.798 259.184 370.541C257.128 370.522 255.06 370.724 253.078 371.072C249.671 370.084 245.605 370.401 242.527 372.17C240.628 372.371 238.736 372.628 236.856 372.963L236.453 373.036C235.576 373.199 234.299 373.212 233.612 373.849C233.343 372.586 232.424 371.69 231.615 370.745C230.878 369.852 230.182 368.929 229.524 367.979C227.711 365.389 226.209 362.597 224.938 359.704C224.956 359.249 224.765 358.888 224.466 358.634C219.31 346.755 216.11 334.142 213.27 321.54C206.75 293.23 201.149 264.689 197.787 235.816C197.773 235.683 197.58 235.677 197.578 235.816C196.893 257.202 200.597 278.384 205.064 299.218C209.631 319.804 213.172 340.853 221.546 360.331C220.929 364.306 220.195 368.26 219.233 372.167C209.855 369.641 200.094 368.668 190.4 369.051C186.23 357.11 183.558 344.642 183.775 331.946C184.252 309.864 177.241 288.785 169.718 268.311C164.523 252.53 158.2 236.696 157.509 219.918C157.187 216.031 156.002 212.11 156.793 208.209C158.214 209.931 160.249 211.186 162.242 212.111C165.586 213.661 169.166 214.615 172.753 215.409C191.042 220.099 210.252 220.094 228.588 215.644L229.951 215.33C240.863 212.802 251.932 209.981 261.828 204.634ZM263.041 213.155C265.417 217.491 270.382 220.159 275.113 221.128C275.285 221.695 275.825 222.062 276.415 222.147C275.505 229.362 274.031 236.5 273.246 243.732L273.2 244.001C273.121 244.459 273.009 244.951 272.661 245.263C272.189 245.075 272.181 244.29 272.123 243.857C271.937 241.35 271.719 238.845 271.504 236.34C271.418 235.245 269.622 234.823 269.449 236.062L268.681 241.542L268.668 241.599C268.483 242.491 268.422 245.568 267.551 245.701L267.522 245.705C266.983 245.786 267.188 244.7 267.189 244.307L267.14 241.461L267.079 237.798C267.068 237.187 267.057 236.577 267.044 235.966C267.015 234.62 265.127 234.679 264.996 235.966L264.94 236.511C264.68 238.973 264.327 241.583 263.114 243.748C262.888 243.592 262.571 243.554 262.276 243.634C262.173 242.02 261.825 240.48 261.183 239.003C261.371 237.433 261.196 235.757 261.118 234.242L261.11 234.082C261.016 232.134 260.9 230.189 260.789 228.242L260.723 227.075C260.628 225.379 260.774 223.228 258.853 222.513C256.98 221.925 254.854 222.897 253.062 221.891C255.158 220.02 257.306 218.306 259.446 216.489C260.21 215.851 261.009 215.236 261.736 214.552C262.196 214.122 262.567 213.574 263.041 213.155ZM260.111 144.297L260.751 147.6C261.813 153.105 262.836 158.617 263.477 164.193C264.149 170.186 264.324 176.213 264.039 182.236C262.575 176.404 259.148 171.275 257.549 165.493C255.912 158.311 259.592 151.397 260.111 144.297ZM92.0933 102.247C87.5596 104.13 85.709 110.874 89.1218 114.587C90.2546 115.785 91.9527 116.477 93.499 115.85C95.3778 115.53 96.4844 113.648 96.7445 111.893L96.7531 111.832C96.7696 111.749 96.6772 111.712 96.6249 111.764L96.6156 111.775C95.8976 112.662 94.7656 113.256 93.7338 113.71C93.4447 113.553 93.1283 113.428 92.8106 113.354C92.3585 113.252 91.8952 113.607 91.9383 114.07C89.8043 113.678 88.9489 111.134 88.884 109.202L88.8822 109.144C88.7961 106.472 90.0022 104.001 92.1732 102.439C92.2615 102.378 92.2128 102.199 92.0933 102.247Z" fill="black"/>
<path fill-rule="evenodd" clip-rule="evenodd" d="M182.516 26.4184C182.87 25.5221 183.496 24.3955 184.543 24.3506C185.352 21.8679 187.365 19.3397 190.165 19.4068C198.382 10.9772 208.727 11.3746 219.543 13.159C225.25 14.2207 231.043 16.2996 235.3 20.4019C240.397 25.2316 242.382 33.6587 238.39 39.7659C241.84 41.6204 241.907 46.0212 240.432 49.1968C242.205 50.427 242.312 53.4129 240.316 54.3513C240.422 54.7874 240.347 55.2384 240.144 55.626C241.134 56.4527 242.423 57.0635 243.488 57.5885C243.96 57.8204 244.231 58.1995 244.343 58.6266C247.842 60.9287 256.564 66.5547 256.461 71.0323C256.512 73.3683 254.784 74.9057 252.685 75.5179C253.934 78.0225 254.883 80.9481 253.687 83.6499C253.356 84.4663 250.88 86.8655 250.756 86.9098C250.537 87.0972 246.985 85.4613 245.259 84.6269C244.924 86.8112 242.596 87.9558 240.589 87.2072C238.685 86.6317 237.515 85.0154 236.315 83.5452C234.722 87.0317 230.035 87.0719 227.005 85.5687C224.284 84.3078 222.215 81.9968 221.063 79.2119C214.944 82.2165 207.786 83.0924 201.139 81.8923C200.712 82.6496 199.767 83.1583 198.926 82.8653C195.391 81.7993 191.483 81.7395 188.487 79.2971C182.241 74.8004 181.715 66.5099 182.151 59.4429C182.537 52.3967 182.2 45.2919 183.476 38.3219C182.922 36.2697 182 34.4556 181.147 32.5277C180.221 30.5061 180.24 27.5008 182.516 26.4184Z" fill="#FFDBB4"/>
<path fill-rule="evenodd" clip-rule="evenodd" d="M210.871 12.4316L210.628 12.4326C210.226 12.4353 209.826 12.4432 209.426 12.4565C207.314 12.5262 205.111 12.8011 202.631 13.2716L202.254 13.3442C201.637 13.4653 201.084 13.5869 200.203 13.7935L198.454 14.207C197.563 14.4152 196.908 14.5592 196.303 14.6751L196.223 14.6902C193.116 16.1843 191.061 17.4229 190.057 18.4059L189.907 18.5542L189.843 18.6184L189.188 18.639L189.182 18.7219L189.176 18.7228C188.526 18.8242 187.938 19.1619 187.391 19.6875L187.333 19.7445L187.277 19.8011C186.851 20.2357 186.511 20.6988 186.044 21.4328L185.937 21.6005L185.747 21.9033L185.593 22.1464C185.492 22.3054 185.397 22.4627 185.304 22.6186L185.213 22.774L185.148 22.8883L183.457 23.8771C183.214 24.0196 182.993 24.2041 182.79 24.4249L182.735 24.486L182.681 24.5489L182.22 25.0986L182.313 25.1954L182.268 25.2547L182.189 25.3652L182.11 25.4771L182.033 25.5905L182 25.6404L181.95 25.748L181.926 25.8017L181.908 25.846L181.85 25.8758L181.732 26.0883C181.123 27.191 180.795 28.4432 180.772 29.73C180.757 30.6177 180.867 31.4238 181.126 32.2014C181.305 32.7392 181.546 33.1617 181.96 33.7433L182.289 34.1951L182.356 34.2883L182.437 34.4017C182.449 34.4198 182.462 34.4378 182.474 34.4556C183.008 35.2311 187.57 36.6993 190.374 36.7703L190.459 36.772L190.566 36.773C190.834 36.7742 191.093 36.7647 191.342 36.7437C192.421 36.6532 193.43 36.4256 194.602 36.0531L194.844 35.9743L196.136 35.5393C196.176 35.5257 196.209 35.5148 196.232 35.5074L196.351 35.4704C196.635 35.383 196.841 35.3327 196.982 35.3145L197.011 35.311L197.014 35.3645L197.015 35.415V35.4561C197.007 36.0521 197.367 36.4866 197.927 36.7635C198.283 36.9397 198.743 37.0657 199.319 37.1602L199.412 37.1749C200.353 37.3209 201.478 37.3833 203.357 37.426C203.429 37.4276 203.501 37.4267 203.574 37.4234C203.977 37.4049 204.294 37.3358 204.884 37.166L205.163 37.0858L205.314 37.0439C205.595 36.9679 205.75 36.9376 205.898 36.9293L205.941 36.9275L205.983 36.9268C206.161 36.9265 206.288 36.9661 206.415 37.0625L206.479 37.1142L207.346 37.8425C207.458 37.9368 207.56 38.0203 207.634 38.0796L207.664 38.1035C208.854 39.039 209.988 39.5735 211.323 39.6243L211.413 39.627L211.507 39.6281C211.575 39.6282 211.642 39.627 211.711 39.6243C212.273 39.6028 212.857 39.3936 213.655 38.9902L213.82 38.9054L213.936 38.8449C213.994 38.8137 214.056 38.7809 214.123 38.745L214.718 38.4257L215.022 38.2663C215.386 38.079 215.588 37.9885 215.725 37.9513L215.747 37.9453L215.76 37.9577C216.075 38.2667 216.346 38.6557 216.638 39.1927L216.681 39.2743L216.745 39.396L217.159 40.2225L217.237 40.3762C217.545 40.9727 217.787 41.354 218.106 41.6885C218.567 42.174 219.126 42.4556 219.811 42.5008L219.88 42.5046L219.961 42.5066C220.284 42.5098 220.625 42.4601 220.996 42.3569L221.083 42.332L221.166 42.3063C221.718 42.1314 222.592 42.2402 223.284 42.6093C224.038 43.0101 224.452 43.6217 224.433 44.4033C224.424 44.7916 224.38 45.2077 224.302 45.6588L224.279 45.7827C224.176 46.3403 224.038 46.8998 223.822 47.6463L223.361 49.2074L223.309 49.3896L223.257 49.577C223.183 49.85 223.123 50.0879 223.073 50.3118C222.885 51.1682 222.854 51.8112 223.042 52.3591C223.874 54.7748 225.318 56.058 226.963 56.1121L227.02 56.1135L227.089 56.1136C228.352 56.1 229.497 55.2745 229.483 54.205C229.481 54.093 229.46 53.9886 229.424 53.8941L229.407 53.8543L229.399 53.8373L229.412 53.8054C229.799 52.8732 230.697 52.1928 231.752 52.0594L231.811 52.0525L231.87 52.0468C231.928 52.0417 231.986 52.0383 232.041 52.0364L232.095 52.035L232.158 52.0345C233.564 52.0366 234.953 52.9748 236.047 54.5093C236.274 54.8294 236.487 55.1787 236.677 55.5479L236.739 55.6717L237.043 56.2956L237.249 56.8991C238.38 60.2218 237.807 63.6989 235.599 65.4965L235.531 65.5504C234.736 66.1763 233.8 66.5568 232.801 66.6591C232.686 66.6709 232.57 66.6784 232.458 66.6814L232.377 66.6828L232.281 66.6826C231.956 66.6783 231.644 66.6377 231.365 66.5619C231.137 66.5001 230.977 66.4253 230.868 66.3295C230.838 66.3045 230.815 66.2817 230.795 66.2591L230.778 66.2387L230.771 66.2301L229.262 66.4546C229.005 68.0896 228.263 69.7836 227.056 71.7264L226.981 71.8482L226.848 72.0576L226.714 72.2673C225.293 74.4579 223.71 76.3024 221.97 77.7178L221.848 77.8158L221.685 77.9456L221.535 78.0631C221.244 78.2896 221.002 78.4658 220.76 78.6231L220.699 78.662L220.127 79.0258L220.392 79.651C221.012 81.1098 221.868 82.436 222.922 83.5652L223.022 83.6704L223.755 84.4286L224.319 83.7087C224.323 83.7033 224.336 83.6964 224.351 83.6936L224.361 83.6924H224.367L224.374 83.6932L224.382 83.6955L224.392 83.6997C224.814 83.9292 225.046 84.1047 225.379 84.448L225.427 84.4983L225.484 84.5576L225.561 84.6386C225.906 84.9942 226.276 85.297 226.68 85.549C227.611 86.1309 228.643 86.4543 229.713 86.4834L229.813 86.4853H229.915C229.951 86.485 229.987 86.4844 230.024 86.4833C232.255 86.4213 234.255 84.987 235.239 82.8847C235.278 82.801 235.314 82.7739 235.379 82.7684L235.398 82.7675L235.422 82.7672C235.586 82.7682 235.787 82.8661 235.899 82.9976L235.919 83.0226L236.295 83.5297L236.44 83.7212C237.781 85.4888 238.884 86.4557 240.364 86.7493C240.48 86.7724 240.604 86.7865 240.734 86.7924L240.814 86.7956H240.86C241.497 86.7974 242.23 86.6123 242.802 86.2866C243.559 85.8557 244.026 85.1929 243.967 84.3718L243.963 84.3191L243.952 84.2313C243.903 83.7928 244.253 83.5546 244.521 83.7698L244.539 83.7851L244.561 83.8054C245.663 84.8427 246.932 85.6387 248.298 86.13L248.419 86.1725L248.598 86.234C249.46 86.5256 250.067 86.6702 250.707 86.6816C251.26 86.691 251.72 86.4908 252.053 86.1057C252.276 85.8488 252.411 85.5634 252.547 85.1469L252.57 85.0762L252.619 84.9142L252.649 84.8088C253.046 83.4099 253.055 81.9139 252.743 80.2635C252.511 79.0306 252.141 77.8396 251.519 76.1701L251.398 75.8482L251.148 75.1917C251.123 75.1258 251.273 74.896 251.366 74.87L251.377 74.868L251.461 74.8771C251.521 74.8827 251.581 74.8867 251.642 74.889L251.734 74.8913H251.796C253.817 74.8705 255.361 72.8822 255.347 70.776C255.331 68.8029 254.342 67.1064 252.453 65.0926L252.29 64.9192L252.112 64.7348L251.937 64.5547C250.258 62.8407 248.542 61.3444 246.756 60.0611L246.608 59.9553L246.443 59.8387C245.842 59.4154 245.257 59.0315 244.447 58.5269L243.971 58.2317L242.039 55.9456C241.993 55.9192 241.947 55.893 241.902 55.8667L241.878 55.0736L240.017 55.1121C240.489 54.8692 240.881 54.5742 241.199 54.1964C242.254 52.9402 242.122 51.195 240.838 50.3374L240.792 50.3078L240.251 49.9725L239.809 50.3624C239.423 50.7019 239.013 50.9271 238.587 51.0309L238.519 51.0464L238.185 51.1173L238.12 51.2229L238.082 51.1682C238.082 51.1627 238.083 51.1574 238.085 51.1521L238.088 51.1443L238.095 51.1334L238.138 51.0815L238.184 51.0259C238.333 50.8507 238.5 50.6807 238.802 50.3882L239.015 50.1833L239.181 50.0219C239.614 49.5944 239.845 49.3296 240.091 48.9618C240.703 48.0466 241.047 47.0149 241.062 45.9669C241.092 43.7877 239.741 41.7273 237.739 40.7869C237.669 40.754 237.617 40.52 237.701 40.3653C239.64 36.797 240.177 32.5196 239.204 28.5406C238.295 24.8283 236.034 21.5515 232.798 19.0414C227.242 14.7321 219.534 12.5099 211.356 12.4333L211.108 12.4316H210.871Z" fill="#ECDCBF"/>
<path fill-rule="evenodd" clip-rule="evenodd" d="M240.583 56.3271C240.215 56.2343 240.018 56.7306 240.33 56.93C242.313 58.1956 244.363 59.3261 246.279 60.7033C248.102 62.0124 249.785 63.5037 251.355 65.107L251.529 65.2856C252.948 66.7503 254.52 68.6135 254.536 70.7741C254.548 72.4535 253.257 74.2865 251.456 74.0659C250.778 73.9828 250.155 74.8462 250.391 75.4688L250.64 76.1249C251.643 78.7802 252.661 81.7888 251.87 84.5823L251.841 84.6821C251.65 85.3217 251.448 85.887 250.708 85.8742C250.021 85.862 249.307 85.6297 248.663 85.4079C247.328 84.9475 246.119 84.1798 245.093 83.2142C244.185 82.3602 243.025 83.2279 243.147 84.3132L243.151 84.3479C243.319 85.5657 241.384 86.1312 240.505 85.957C238.769 85.6126 237.531 83.8676 236.546 82.5373C236.071 81.8981 234.92 81.6465 234.504 82.5373C233.679 84.302 231.978 85.6209 229.989 85.6762C228.955 85.7048 227.963 85.4098 227.088 84.8626C226.731 84.6391 226.412 84.3734 226.119 84.0722L226.046 83.9962C225.612 83.5352 225.312 83.2901 224.759 82.989C224.213 82.6923 223.507 83.0601 223.51 83.7073C223.515 84.5455 223.761 85.1028 224.337 85.7108C224.813 86.2143 225.38 86.6563 225.975 87.0095C227.172 87.7189 228.595 88.118 229.989 88.0719C232.185 87.9989 234.281 86.9008 235.641 85.193C237.028 86.8572 238.749 88.3862 240.986 88.3451C242.66 88.3144 244.221 87.44 244.968 86.0853C246.024 86.8153 247.182 87.386 248.422 87.7588L248.532 87.7915C250.286 88.3035 252.305 88.5071 253.434 86.7602C254.494 85.1202 254.573 82.849 254.33 80.9744C254.113 79.2998 253.599 77.7094 253.009 76.1409C254.688 75.638 255.992 74.056 256.44 72.3507C257.116 69.7719 255.803 67.2711 254.178 65.3551C252.414 63.2736 250.194 61.5132 247.957 59.9723C245.726 58.4357 243.226 56.9916 240.583 56.3271ZM183.216 36.1571C183.212 36.0855 183.095 36.0604 183.084 36.1391C182.313 41.7484 181.868 47.3464 181.498 52.9943C181.311 55.8556 181.098 58.714 180.865 61.5718C180.642 64.3122 180.27 67.1255 180.354 69.8771C180.485 74.1858 182.571 77.6891 185.992 80.2103C189.269 82.6263 193.334 83.8209 197.323 84.3255C199.639 84.6186 201.987 84.6327 204.306 84.3574C205.511 84.2144 206.713 84.0239 207.893 83.7381L208.403 83.6101C209.332 83.3722 210.37 83.0491 210.502 81.9453C210.566 81.4107 210.283 81.0164 209.826 80.748C209.23 80.3981 208.547 80.6041 207.932 80.7636C206.897 81.0321 205.851 81.2628 204.793 81.4222C202.521 81.765 200.185 81.7854 197.902 81.548C194.061 81.1486 190.008 79.8987 187.046 77.3174C185.759 76.1959 184.639 74.8291 184.051 73.2054C183.294 71.1179 183.406 68.8406 183.431 66.6546C183.49 61.5718 183.438 56.489 183.509 51.4057C183.58 46.307 183.518 41.2484 183.216 36.1571ZM221.847 12.4032C217.358 11.2419 212.802 10.9402 208.192 11.2898C203.844 11.6191 198.89 12.5951 195.338 15.2779C195.166 15.4081 195.27 15.6546 195.483 15.6204C197.857 15.2408 200.171 14.5503 202.535 14.0934C204.809 13.654 207.124 13.3241 209.44 13.2477C217.27 12.9888 225.983 14.7687 232.298 19.6661C235.258 21.9622 237.517 25.0498 238.417 28.7234C239.339 32.4914 238.84 36.5663 236.988 39.9748C236.722 40.4655 236.832 41.2419 237.388 41.5032C239.076 42.2961 240.279 44.0525 240.252 45.9479C240.24 46.8673 239.924 47.7488 239.416 48.5087C238.88 49.3123 238.061 49.8745 237.461 50.625C237.225 50.9205 237.216 51.3275 237.404 51.5997C237.052 51.754 236.673 51.8368 236.327 52.0191C236.034 52.1737 236.026 52.6565 236.327 52.8087C237.09 53.1936 237.914 52.7851 238.428 52.1645C238.52 52.0536 238.599 51.9384 238.671 51.8207C239.287 51.6897 239.839 51.3796 240.321 50.9555C241.24 51.5071 241.365 52.7348 240.576 53.673C240.173 54.152 239.601 54.4477 239.023 54.6602L238.953 54.6854C238.39 54.8859 237.875 54.9978 237.509 55.4496C237.268 54.9451 236.991 54.4698 236.682 54.0366C235.561 52.4619 233.836 51.0649 231.789 51.2422C230.186 51.3809 228.797 52.5323 228.468 54.1208C228.444 54.2384 228.62 54.3302 228.673 54.2075C229.442 52.4083 231.876 52.3422 233.325 53.2798C235.031 54.3826 235.963 56.4606 236.336 58.3961C236.704 60.3025 236.492 62.6212 235.07 64.0713C234.487 64.6647 233.695 65.075 232.869 65.1832C232.465 65.2362 232.108 65.1841 231.723 65.106L231.467 65.0524C231.288 65.0156 231.112 64.9857 230.925 65.0023L230.648 65.0397L230.491 65.1137C230.353 65.1754 230.366 65.1584 230.528 65.0628C230.056 65.0242 229.812 65.3737 229.786 65.7571C229.771 65.7667 229.757 65.7771 229.745 65.7919C227.955 67.9888 226.627 70.514 224.727 72.6388L224.172 73.2613C222.743 74.8561 221.112 76.5851 219.17 77.4124L218.939 77.5083C218.374 77.7475 217.807 78.0752 217.735 78.7582C217.67 79.3699 218.15 79.8304 218.705 79.9731C219.967 80.298 221.407 79.1726 222.33 78.4343C224.319 76.8472 225.989 74.824 227.368 72.6953L227.505 72.4833C228.639 70.7065 229.706 68.68 230.036 66.5712L230.096 66.6684C230.1 66.6753 230.104 66.6805 230.106 66.6836C230.174 66.7757 230.249 66.8535 230.334 66.928C230.567 67.1289 230.85 67.2463 231.144 67.3259C231.696 67.4755 232.302 67.5049 232.869 67.4467C234.022 67.3285 235.099 66.8885 236.01 66.1717C238.785 63.9891 239.112 59.9277 237.99 56.6327C238.911 56.8532 239.96 56.2316 240.679 55.699C241.503 55.0878 242.183 54.2056 242.345 53.1677C242.506 52.1379 241.853 50.7742 240.881 50.3768C241.889 49.1636 242.476 47.4418 242.535 46.0632C242.641 43.6652 241.371 41.3986 239.421 40.0902C241.255 36.1483 241.608 31.575 240.374 27.3895C237.923 19.0838 229.717 14.4392 221.847 12.4032ZM228.833 75.5079L228.81 75.435C228.614 74.7927 228.362 73.5149 227.405 74.0014C226.491 74.4659 227.074 75.841 227.394 76.5103C227.777 77.3114 228.437 77.9536 229.324 78.1257C230.045 78.2655 230.838 78.0858 231.342 77.5267C231.49 77.3636 231.572 77.1849 231.66 76.9875C231.694 76.9108 231.709 76.8582 231.716 76.824C231.724 76.8615 231.748 76.9175 231.808 76.9834C232.21 77.4248 232.591 77.9385 232.883 78.4607C232.952 78.5841 233.17 78.4976 233.115 78.3625C232.774 77.5275 232.832 76.2361 232.074 75.6321C231.405 75.0997 230.776 75.5188 230.422 76.1388L230.404 76.171C229.888 77.1126 229.064 76.2184 228.833 75.5079ZM236.106 72.4907L236.036 72.3934C235.321 71.4132 234.116 70.234 232.909 71.1457C232.525 71.4356 232.511 71.9195 232.909 72.2071L233.059 72.315C233.587 72.6898 234.112 73.0439 234.498 73.5814C234.919 74.1659 235.297 74.7848 235.863 75.2432C236.862 76.054 238.479 76.2139 239.347 75.1209L239.433 75.0124C239.506 74.9187 239.588 74.8057 239.656 74.693L239.709 74.7661C239.714 74.7735 239.719 74.7805 239.724 74.7871L239.736 74.8057C240.093 75.3776 240.543 75.8485 241.104 76.2201C242.171 76.9262 243.374 77.0243 244.581 76.6506C244.698 76.6138 244.666 76.4551 244.553 76.4445C243.122 76.3105 241.729 75.2914 241.147 73.979L241.081 73.8317C240.846 73.3096 240.582 72.8135 240.001 72.6086C239.435 72.4089 238.84 72.6197 238.452 73.0492C238.127 73.4082 238.045 74.1219 237.458 73.9646C236.818 73.7922 236.457 72.9867 236.106 72.4907ZM240.202 63.7718C239.885 63.5303 239.389 63.7893 239.302 64.1393C238.907 65.7233 240.548 67.59 242.126 67.6391C242.531 67.6516 242.922 67.553 243.282 67.3646C243.561 67.2184 243.891 66.8448 244.197 66.7829C244.592 66.7031 244.942 67.2315 245.221 67.5026C245.566 67.8392 245.908 68.1517 246.296 68.4386C246.45 68.5533 246.69 68.3607 246.625 68.1847L246.494 67.8347C246.02 66.5887 245.203 64.7697 243.676 65.2868C242.928 65.5401 242.364 66.3943 241.576 65.7179C240.945 65.1763 240.886 64.2932 240.202 63.7718ZM233.462 57.3947C232.039 55.7549 228.691 56.621 228.056 58.6159C227.916 59.0564 228.062 59.6291 228.405 59.9409C228.857 60.3518 229.501 60.4762 230.05 60.1539C230.523 59.8768 230.716 59.4233 231.063 59.0343C231.572 58.4641 232.265 58.1476 232.979 57.921C233.157 58.0149 233.322 58.1386 233.471 58.2876C233.548 58.3638 233.691 58.2593 233.624 58.1694C233.532 58.0473 233.42 57.9322 233.293 57.8263L233.353 57.8082C233.542 57.7558 233.582 57.5328 233.462 57.3947ZM224.207 39.2904C223.888 39.2909 223.516 39.5915 223.557 39.9426L223.569 40.04C223.661 40.7083 223.875 41.0866 224.542 41.3971C225.108 41.6602 225.702 41.8055 226.322 41.8631C226.557 41.8848 226.805 41.8861 227.058 41.8674L227.11 42.1741C227.216 42.7876 227.313 43.4016 227.332 44.0268C227.365 45.186 226.934 46.1414 226.471 47.1763C225.583 49.1643 225.484 51.1488 226.451 53.134C226.592 53.4242 226.993 53.6609 227.316 53.6314C227.734 53.5934 227.937 53.4718 228.18 53.134C228.384 52.8502 228.337 52.4492 228.196 52.1525L228.18 52.12C227.692 51.1735 227.539 50.1041 227.788 49.0637C228.021 48.0859 228.551 47.207 228.788 46.2321C229.172 44.6443 228.763 43.0691 227.961 41.7068C228.566 41.532 229.126 41.2206 229.499 40.7455L229.497 40.7448C229.64 40.5922 229.562 40.2731 229.312 40.2923L229.029 40.3152C228.22 40.383 227.475 40.4536 226.657 40.2273C226.237 40.1113 225.875 39.9176 225.516 39.6833L225.438 39.6325C224.987 39.3322 224.738 39.2898 224.207 39.2904ZM222.271 27.5541C220.242 27.4385 218.511 28.7812 217.669 30.5687C216.754 32.5094 217.138 34.736 217.945 36.6453L218.174 37.1797C218.576 38.1056 219.103 39.2066 219.926 39.7033C220.848 40.2614 221.647 39.6142 221.375 38.5856C221.212 37.973 220.773 37.5004 220.418 36.9948C220.086 36.5226 219.776 36.0338 219.505 35.5241C218.974 34.5243 218.577 33.4104 218.581 32.265C218.589 30.1743 219.965 27.7783 222.271 27.809C222.436 27.8109 222.433 27.5633 222.271 27.5541ZM212.012 24.1807C212.139 24.0844 212.026 23.8703 211.885 23.9606C209.533 25.4613 207.776 28.28 207.423 31.0492C207.226 32.5856 207.376 34.2276 208.029 35.6455C208.402 36.4591 209.044 37.2358 209.942 37.4589C210.768 37.6637 211.618 37.1909 211.875 36.3827C211.974 36.0691 211.803 35.7411 211.545 35.5699C210.709 35.0148 210.035 34.3145 209.64 33.3723C209.23 32.3926 209.066 31.353 209.061 30.2964C209.049 27.8217 210.034 25.689 212.012 24.1807ZM183.28 25.2532C183.389 25.1322 183.252 24.9537 183.107 25.0295C181.407 25.9266 180.327 27.645 180.018 29.527C179.714 31.3696 180.123 33.8779 181.544 35.2105C182.346 35.9626 183.783 34.9622 183.116 33.9933C182.646 33.31 182.138 32.7473 181.869 31.9399C181.628 31.2195 181.544 30.493 181.557 29.736C181.586 28.0844 182.174 26.4845 183.28 25.2532ZM204.07 22.946C201.165 22.8072 199.404 26.1341 199.001 28.6139C198.752 30.146 198.939 31.724 199.782 33.0528L199.832 33.1302C200.528 34.1917 201.793 35.414 203.156 34.9114C203.733 34.6989 203.887 34.0788 203.499 33.6085C202.906 32.8886 201.989 32.5952 201.432 31.8265C200.806 30.9644 200.602 29.8843 200.637 28.836L200.642 28.7202C200.739 26.7918 201.656 23.0904 204.07 23.156C204.205 23.1595 204.203 22.9523 204.07 22.946ZM194.982 22.3932C192.173 22.0329 190.461 25.3491 189.933 27.6337C189.604 29.0619 189.532 30.655 189.953 32.0725L189.984 32.1735C190.328 33.2313 191.341 35.0439 192.662 34.5033C193.025 34.3552 193.395 33.9517 193.22 33.5168C192.999 32.9608 192.68 32.8166 192.254 32.4607C191.926 32.1868 191.697 31.7936 191.528 31.4063C191.079 30.3741 190.979 29.1682 191.04 28.0558L191.049 27.9242C191.207 25.7515 192.382 22.5136 194.982 22.5732C195.101 22.5758 195.093 22.4072 194.982 22.3932ZM189.838 19.2756C188.274 18.6782 186.992 20.1783 186.093 21.2489C184.967 22.5903 183.946 24.0354 183.368 25.7054C182.853 27.1934 182.763 28.8479 183.226 30.3625C183.456 31.1125 183.813 31.8079 184.301 32.4201L184.363 32.4973C184.871 33.1183 185.361 33.4999 186.193 33.2775C186.531 33.1869 186.674 32.8512 186.616 32.5304C186.49 31.845 186.138 31.6671 185.682 31.1886C185.28 30.7666 184.981 30.2469 184.781 29.7005C184.367 28.5733 184.345 27.3521 184.623 26.1908C184.934 24.8907 185.546 23.6902 186.254 22.5653L186.406 22.3243C187.157 21.1349 188.226 19.3034 189.808 19.4964C189.943 19.513 189.945 19.3165 189.838 19.2756Z" fill="black"/>
<path fill-rule="evenodd" clip-rule="evenodd" d="M193.934 64.4571C193.386 63.489 191.751 63.6463 191.5 64.7755C190.993 67.0644 193.72 69.1782 195.791 69.231C197.849 69.2832 200.158 67.5298 199.86 65.315C199.786 64.7671 199.056 64.8337 198.807 65.1772L198.71 65.309C198.033 66.2192 197.139 67.1613 195.884 66.9394C195.363 66.8477 194.89 66.522 194.575 66.1029C194.196 65.5971 194.237 64.9931 193.934 64.4571ZM207.02 47.7111C206.742 47.6341 206.46 47.664 206.213 47.7691C205.662 47.8704 205.2 48.3309 205.039 48.8567C205.026 48.9023 205.011 48.9472 204.996 48.9917L204.971 49.058L205.037 48.8895C205.007 49.0555 204.871 49.2299 204.823 49.3965C204.764 49.6014 204.749 49.8341 204.769 50.0596C204.593 50.0614 204.418 50.0672 204.243 50.0824L204.074 50.0976C203.127 50.1857 202.089 50.3471 201.528 51.1655C201.213 51.6254 201.509 52.4535 202.088 52.5421C202.979 52.6784 203.746 52.185 204.633 52.0861C205.473 51.9925 206.351 52.0461 207.18 52.1979C208.89 52.5109 210.462 53.2049 212.129 53.6404L212.355 53.698V53.6968C212.641 53.766 212.965 53.3684 212.682 53.136C211.348 52.0378 209.637 51.1479 207.953 50.606C208.199 50.2153 208.275 49.7007 208.106 49.2813C208.081 49.1944 208.049 49.1098 208.015 49.0256L207.944 48.8522C207.937 48.7705 207.921 48.6898 207.898 48.6106L207.895 48.5864L207.893 48.5879C207.768 48.18 207.44 47.8269 207.02 47.7111ZM189.984 47.7742C189.619 47.4085 189.105 47.4625 188.725 47.7504L188.674 47.7901C188.315 47.9498 188.018 48.2989 187.823 48.6224C187.619 48.9583 187.485 49.3005 187.48 49.6705C186.596 49.6734 185.749 49.9387 185.1 50.6533C184.891 50.8838 184.747 51.2395 184.863 51.5522L184.931 51.7381C185.149 52.3286 186.128 52.6685 186.462 51.9741L186.477 51.9403C186.831 51.1157 188.189 51.2023 188.911 51.2865C189.414 51.3456 189.912 51.4708 190.397 51.611C190.568 51.6604 190.739 51.714 190.908 51.7688L191.078 51.8238C191.167 51.8531 191.639 52.1091 191.346 52.0485C191.267 52.0321 191.207 52.147 191.288 52.1856C191.637 52.3527 192.01 52.0199 191.987 51.6445C191.946 50.9927 190.912 50.6353 190.415 50.4105L190.385 50.397C190.194 50.3087 189.994 50.2241 189.788 50.1456C189.904 49.9729 190 49.7809 190.079 49.575C190.155 49.3806 190.206 49.1915 190.233 48.9848C190.261 48.8837 190.261 48.7827 190.233 48.6814L190.229 48.6525C190.243 48.5856 190.25 48.5166 190.249 48.4469L190.252 48.42H190.249C190.239 48.1764 190.142 47.9323 189.984 47.7742ZM195.82 54.7152C194.417 55.1491 192.101 56.3314 192.833 58.1561C193.853 59.832 196.561 58.6004 197.874 58.0589C199.052 57.668 199.666 59.3217 198.526 59.8201C189.107 63.5501 189.142 53.7061 195.478 53.8507C196.176 53.8665 196.198 54.5709 195.82 54.7152ZM208.281 41.8795L208.042 41.8096C206.798 41.449 205.528 40.8263 204.424 41.7979C203.99 42.1795 203.902 42.9724 204.212 43.4482C204.918 44.5326 205.967 44.3669 207.108 44.4594C207.977 44.5297 208.833 44.7852 209.644 45.1046C210.307 45.3658 210.922 45.7334 211.502 46.1433C212.072 46.5465 212.462 47.1767 213.047 47.5396C213.261 47.6726 213.509 47.5357 213.586 47.32C213.859 46.5548 213.398 45.6016 213.008 44.9496C212.532 44.1542 211.808 43.5037 211.031 43.0115C210.178 42.4724 209.237 42.1612 208.281 41.8795ZM190.159 41.0562C188.057 41.0556 186.035 42.2259 184.859 43.9416C184.459 44.5245 184.752 45.388 185.325 45.7237C185.969 46.1004 186.657 45.8292 187.08 45.2893L187.106 45.2566C187.78 44.3577 188.649 43.6498 189.679 43.189C190.183 42.964 190.738 42.7815 191.282 42.6889L191.458 42.6587C191.704 42.6174 191.99 42.578 192.213 42.6166C192.332 42.6323 192.441 42.6718 192.543 42.7319C192.494 42.8381 192.62 42.966 192.735 42.9023C193.257 42.6152 193.194 42.1028 192.762 41.7046C192.151 41.1413 190.947 41.0564 190.159 41.0562Z" fill="black"/>
<path fill-rule="evenodd" clip-rule="evenodd" d="M161.558 412.706C161.899 411.329 161.345 409.542 161.025 407.753C160.529 404.971 159.356 400.939 157.12 399.678C156.723 398.629 143.326 390.167 137.591 385.942C134.645 383.772 134.632 379.733 134.035 379.781C132.9 376.984 132.753 374.223 132.056 370.985C134.648 370.644 139.074 371.257 141.116 369.78C141.482 369.804 141.477 365.802 141.53 365.238C139.991 361.064 136.209 258.966 139.991 210.333C140.391 204.921 141.435 198.864 140.404 193.28C142.092 192.909 143.103 191.158 143.109 191.089C147.146 183.156 140.954 156.184 137.074 148.718C140.155 148.637 144.214 148.217 146.122 145.642C147.025 145.344 147.594 144.826 148.033 143.993C148.537 143.2 149.005 142.367 149.428 141.514C151.481 137.244 152.748 132.503 152.063 127.798C152.194 127.757 152.865 127.753 152.898 127.564C152.965 126.408 152.753 125.388 152.406 124.296C148.88 111.993 144.635 99.8791 139.025 88.2965C136.214 82.0968 130.398 79.8345 124.371 77.5071C121.472 76.3667 118.571 75.0505 115.545 74.3036C115.507 74.0916 115.688 73.4469 115.292 73.4994C114.802 73.6017 114.898 74.39 114.717 74.8324C107.72 69.0985 112.157 66.1439 107.939 63.0037C103.572 60.7352 100.985 60.643 96.1717 61.134C94.396 61.1855 92.9752 61.9867 92.5564 63.7761C91.0301 67.4783 87.4536 70.2032 83.5518 71.0386C83.2294 70.464 82.343 68.8163 81.8465 69.3365C76.2114 69.529 65.3218 73.9854 60.0475 75.5348C54.7527 76.8885 54.8198 78.331 53.4345 84.0905C50.921 94.3536 51.392 132.9 57.9511 141.023C60.329 142.612 62.115 143.603 63.3091 143.993C63.2688 147.79 63.9041 153.448 63.3091 157.161C61.9694 163.896 60.3366 170.659 58.8443 177.431C58.8378 178.185 52.866 189.368 55.6651 187.297C56.2429 187.582 57.2585 188.776 57.8808 189.042C54.9069 195.827 55.4543 204.156 55.6651 212.537C55.7179 217.529 54.553 222.999 53.4345 228.11C45.1599 271.42 39.547 320.596 36.4746 363.98C36.3493 365.757 36.2671 367.112 36.2078 368.375C36.1467 368.808 36.7306 368.8 36.9474 368.58L37.2464 368.289C37.5794 368.384 38.1118 368.53 38.4494 368.621C38.4923 370.042 38.3517 371.517 38.1802 372.812C38.0225 374.05 36.0132 379.456 36.4746 380.665C34.9428 380.583 32.0674 383.1 30.6955 385.823C29.9919 386.453 30.2524 387.567 29.7363 388.537C29.0398 389.209 25.0559 391.659 17.7845 395.888C15.1129 398.028 7.65812 404.312 8.35938 406.037C8.35938 406.037 8.28048 406.576 8.25398 406.755C6.77887 415.348 9.23519 414.988 17.1824 416.252C28.7918 418.302 39.7722 412.085 49.5837 406.815C52.8441 404.613 56.0199 405.198 55.6651 402.539C55.0216 399.257 54.9073 387.508 51.1858 387.773C51.7979 387.1 51.6445 380.933 51.1858 379.781C50.8945 376.812 53.5777 374.04 53.4345 370.985C54.9934 371.101 58.1781 371.832 58.8443 370.092C58.8144 369.917 58.0783 369.92 57.9511 369.878L57.9645 369.78L57.8808 369.76C64.3708 346.86 80.1814 241.694 97.3486 233.622C97.4546 234.485 99.3435 233.46 100.488 233.622C105.797 275.093 111.876 314.184 115.119 358.541C115.444 359.857 116.194 369.033 116.511 370.554C117.174 371.103 117.701 371.431 118.091 371.54C118.269 376.22 117.668 385.986 117.647 385.996L117.337 386.756C115.529 390.839 114.182 396.301 116.511 400.302C114.782 400.176 114.027 401.651 113.949 403.184C112.931 409.904 139.866 415.868 146.122 416.252C148.177 416.611 162.83 413.996 161.558 412.706Z" fill="#FFDBB4"/>
<path d="M57.7526 188.744L58.842 189.173C83.3624 198.835 111.466 200.878 138.927 195.482L139.76 195.317L141.176 195.03L140.964 197.445C138.153 229.525 136.557 256.682 136.169 282.674C135.714 313.029 136.959 341.124 140.166 367.987L140.265 368.8L140.365 369.63L139.589 369.936C137.625 370.714 135.567 371.147 132.682 371.496L132.135 371.561C128.179 372.026 123.983 372.161 119.317 372.021L119.042 372.013L118.665 372L118.651 372.025L118.121 371.98L117.801 371.969L117.794 371.953L117.568 371.935L117.49 371.93L117.383 371.924L115.941 371.862L116.365 370.516C116.668 369.558 116.739 368.517 116.587 367.425L116.565 367.275L116.562 367.232C116.414 365.118 111.483 325.373 101.767 247.996C101.502 245.965 99.1181 234.909 98.0237 233.409L97.9849 233.357L97.9842 233.356L97.9625 233.35C97.91 233.338 97.823 233.337 97.7021 233.355C97.3517 233.406 96.8696 233.598 96.3154 233.911C95.4579 234.396 94.4534 235.168 93.9269 235.676L93.8659 235.736L93.7892 235.846C91.198 239.566 88.9898 243.762 86.9719 248.649L86.8711 248.894L86.7723 249.136C85.7152 251.736 83.5134 258.361 80.1668 269.013C79.5125 271.168 72.5222 299.938 59.1961 355.324C58.2757 359.573 57.5607 362.849 56.8682 365.983L56.5331 367.497L55.6402 371.504L54.3885 371.445C53.2664 371.388 52.1756 371.315 50.6596 371.195L50.0381 371.145L47.4964 370.935C43.3631 370.6 41.2392 370.49 38.7889 370.531L38.6285 370.534L37.3395 370.562L37.3565 369.465L36.9796 369.359L36.8362 369.268L36.1655 368.95L36.2188 368.212C39.6876 320.18 45.5956 273.448 54.0499 228.05L54.2961 226.731L54.3141 226.502C54.5213 223.808 54.9011 205.513 55.1569 202.432L55.1864 202.085C55.5696 197.666 56.2498 193.764 57.3513 190.07L57.4129 189.866L57.7526 188.744Z" fill="#E86BBB"/>
<path fill-rule="evenodd" clip-rule="evenodd" d="M117.697 387.9C117.166 389.887 118.13 390.881 120.59 390.881C124.281 390.881 126.62 385.204 128.445 384.554L135.863 380.609C136.929 380.217 138.283 385.534 143.35 389.114C148.99 393.097 156.453 398.287 156.769 399.124C160.442 401.195 161.721 404.002 160.851 407.519C162.122 408.809 164.463 413.25 162.076 413.697C160.235 414.135 150.663 417.183 148.608 416.824C142.352 416.44 114.358 408.347 113.373 405.348L113.379 405.205C113.436 403.619 113.225 400.489 114.902 400.611C112.62 396.69 115.105 392.574 116.907 388.569L117.017 388.324L117.071 388.448C117.092 388.438 117.494 388.035 117.515 388.07C117.54 388.036 117.599 387.974 117.676 387.9H117.697ZM40.6571 384.228L40.6822 384.314C41.1077 385.783 42.2718 390.881 43.6453 390.881C44.5797 390.881 46.8845 392.608 48.2557 391.448L48.4141 391.303C49.618 390.197 50.59 389.453 51.3298 389.069C52.9414 389.149 53.4816 389.777 52.9506 390.952L52.9956 391.284C53.3756 394.022 53.0497 396.552 53.0897 396.845C53.6804 398.793 56.0655 401.601 55.2236 403.24C53.9157 405.785 48.6872 406.886 46.7035 408.226C36.8922 413.496 28.2157 417.439 16.6063 415.389L15.9058 415.279C8.51517 414.122 6.24695 413.94 7.67781 405.605L7.68777 405.528C7.72004 405.26 7.78321 404.597 7.78321 404.597C7.46945 403.826 9.75171 400.403 13.5774 397.563C18.302 394.055 28.5954 387.596 29.1727 387.04C29.6888 386.071 31.2618 384.692 31.9654 384.062C33.3372 381.34 32.748 380.239 34.0502 379.929C36.2463 380.289 40.2665 382.925 40.6571 384.228Z" fill="white"/>
<path fill-rule="evenodd" clip-rule="evenodd" d="M159.095 413.26C155.7 414.04 152.387 415.329 149.034 416.09C138.115 415.284 127.395 411.606 117.817 407.067C115.041 405.851 113.412 403.692 114.654 400.921C118.716 405.949 133.757 409.446 140.643 411.612C144.924 412.553 149.787 414.679 154.11 412.695C156.851 412.226 159.969 410.91 161.024 408.441C161.097 409.493 160.989 410.54 160.897 411.589C161.005 412.877 160.377 413.052 159.095 413.26ZM118.546 370.896C118.456 370.682 118.171 370.677 118.063 370.872C117.855 370.855 117.634 370.834 117.413 370.825C117.791 369.628 117.844 368.375 117.657 367.139C117.42 363.73 117.148 360.324 116.861 356.92C113.895 324.295 110.479 291.572 104.656 259.305C104.725 259.256 104.771 259.179 104.758 259.081C104.466 256.795 103.849 254.566 103.419 252.303C102.984 250.021 102.618 247.726 102.217 245.438C102.097 244.755 101.976 244.071 101.848 243.388C101.94 241.728 101.539 239.982 101.328 238.374C101.179 237.246 100.965 236.091 100.671 234.962C100.795 234.583 100.73 234.132 100.425 233.846C100.421 233.843 100.417 233.839 100.412 233.835C100.435 233.76 100.46 233.688 100.487 233.621C100.697 233.102 101.151 232.87 101.478 232.502C102.421 232.331 103.385 232.284 104.335 232.435C104.476 232.462 104.582 232.265 104.438 232.188C100.62 229.952 95.8675 232.108 93.0515 235.024C84.3972 247.336 81.267 262.968 76.485 277.095C67.8283 307.822 61.7561 339.253 54.802 370.364C49.3013 370.108 43.8134 369.304 38.3006 369.443C38.0936 368.975 37.7376 368.474 37.3138 368.273C40.7388 320.845 46.6239 273.594 55.386 226.856C56.3584 214.614 54.8372 202.132 58.4641 190.161C84.2058 200.304 112.989 201.814 139.991 196.359C134.942 253.681 132.275 311.602 139.21 368.913C136.993 369.791 134.613 370.167 132.256 370.443C127.723 370.991 123.103 371.061 118.546 370.896ZM50.0541 384.407C49.6464 385.2 50.0789 386.025 50.9333 386.25C48.3772 386.925 47.903 389.647 45.8882 390.889C45.6994 390.532 45.1656 390.472 44.8085 390.367C43.7321 386.36 42.4895 381.645 37.4468 380.172C37.7676 379.761 37.7233 379.277 37.7082 378.791C38.083 376.885 39.432 372.627 38.5963 370.44C43.2297 371.497 47.986 371.93 52.6841 372.616C51.7282 376.094 50.9182 381.349 50.0541 384.407ZM53.277 401.354C53.4285 401.312 53.58 401.27 53.7286 401.226C54.4679 404.471 49.4583 405.53 46.9874 406.682C43.2635 408.227 39.5442 409.778 35.8337 411.34C28.3206 415.113 21.2643 416.177 12.9122 413.487C7.59713 412.467 8.60828 411.451 7.82911 407.345C13.1583 414.52 24.0751 411.441 30.8521 408.339C37.0116 405.977 43.2158 403.71 49.5879 401.722C50.861 402.042 52.0743 401.708 53.277 401.354ZM107.384 139.056C104.174 139.926 100.92 140.376 97.6575 141.022C97.9419 138.926 98.3599 136.83 98.3674 134.706C101.223 136.45 104.258 137.875 107.384 139.056ZM77.1047 117.849C83.9626 116.419 91.2238 116.94 97.7036 119.66C99.9286 120.4 102.935 122.331 105.245 121.437C103.531 126.882 105.689 132.491 107.922 137.446C102.798 135.735 98.2865 132.727 93.6213 130.089C95.368 127.787 79.4827 124.997 77.7583 125.058C77.2688 122.678 76.6857 120.317 76.1743 117.94C76.4596 118.047 76.8139 117.904 77.1047 117.849ZM112.542 120.424C112.578 120.451 112.605 120.486 112.618 120.533C119.33 121.464 126.071 124.522 132.963 123.635C137.62 123.033 135.476 125.699 132.374 125.599C125.377 126.3 118.89 122.16 112.38 120.748L112.542 120.424ZM116.205 75.4239C116.189 75.4974 116.172 75.571 116.157 75.6449C116.088 75.6449 116.018 75.6378 115.947 75.6176C115.902 75.5742 115.86 75.5295 115.816 75.4854C115.944 75.4494 116.075 75.4271 116.205 75.4239ZM163.517 411.887C163.42 410.261 162.568 408.632 161.348 407.539C162.162 404.202 160.532 399.951 157.051 398.515C156.104 396.962 154.05 396.279 152.566 395.172C153.811 395.095 154.952 394.208 153.997 393.252C151.974 393.867 150.018 394.696 148.092 395.527C147.573 395.636 146.336 396.668 146.24 395.747C146.605 395.014 149.43 394.274 150.351 393.765C149.668 393.333 148.984 392.9 148.305 392.465C149.513 392.435 151.064 391.527 149.881 390.498C146.692 391.208 143.376 391.834 140.566 393.451C138.248 392.874 144.997 390.806 145.621 390.708C144.562 389.986 143.537 389.232 142.573 388.418C143.629 388.398 145.832 387.334 144.424 386.384C142.651 385.927 140.188 387.392 138.428 387.861H138.426C137.1 388.353 135.787 388.884 134.485 389.433C133.959 389.655 133.736 388.929 134.255 388.709C136.277 387.857 138.324 387.05 140.416 386.354C139.846 385.732 139.309 385.084 138.771 384.435C138.913 383.416 137.863 382.521 137.473 381.6C137.556 381.129 137.319 380.388 136.761 380.291C136.316 379.86 135.645 379.831 135.026 379.929C134.044 378.039 133.196 375.095 132.885 372.748C135.487 372.4 138.507 372.39 140.757 370.951C141.426 370.91 142.094 370.424 142.113 369.616C142.178 366.703 141.891 363.833 141.632 360.934C141.374 358.039 141.131 355.141 140.904 352.244C137.064 305.758 137.755 259.028 141.408 212.554C141.798 207.106 141.993 201.533 141.089 196.123C142.211 195.776 146.405 195.052 146.082 193.531C149.722 184.253 144.339 160.488 140.381 151.15C143.328 150.978 146.863 150.345 148.797 147.914C150.66 147.256 151.313 145.069 152.241 143.494C154.239 139.296 155.533 134.571 155.028 129.897C157.09 129.349 154.533 123.678 154.306 122.15C150.885 110.857 146.967 99.6249 141.832 88.9898C139.999 85.1015 136.786 82.0295 132.854 80.3125C128.126 78.2491 123.376 76.114 118.432 74.6043C118.462 73.7612 117.581 73.4312 116.98 73.7359C116.942 73.7235 116.903 73.7109 116.865 73.7015C116.257 73.557 115.337 73.7945 114.847 74.3032C113.245 71.9531 112.83 68.9797 112.239 66.2192C109.856 68.7148 112.057 77.0691 115.768 77.7884C113.35 95.2455 93.0829 91.1044 86.9154 78.3831C85.5773 75.9257 84.6748 73.509 83.3398 71.0078C87.1919 71.7976 91.1316 69.6687 92.5283 65.9697C92.8149 65.3703 93.0627 65.0359 93.5912 64.6612C94.2405 64.1998 94.0748 63.0265 93.1576 63.0562C89.5401 63.8693 91.916 69.6356 83.1166 70.646C82.7982 70.153 82.4226 69.686 82.0265 69.4453C81.8592 69.2609 81.3307 69.2092 81.0458 69.4208C74.4247 69.8195 67.9664 71.4951 61.6162 73.2996C56.1623 74.6417 50.4434 77.559 49.0929 83.4997C46.5081 92.9472 50.6312 139.899 57.7485 145.704C58.9221 146.841 60.3304 147.623 61.8553 148.174C60.3957 158.615 58.1206 168.989 56.1836 179.365C56.0388 181.154 52.936 191.085 56.8744 189.451C56.9812 189.502 57.0896 189.552 57.1974 189.602C56.9647 190.077 56.7456 190.558 56.5338 191.044C55.8537 192.605 55.3125 194.183 55.0642 195.874C54.8061 197.632 54.755 199.409 54.6769 201.182C54.6478 201.84 54.6239 202.489 54.6157 203.132C53.855 209.355 53.8703 215.706 53.8088 221.958C50.3679 245.592 45.4275 269.048 42.6193 292.807C39.2038 318.189 36.4944 343.675 34.9189 369.241C34.865 370.415 36.2228 370.646 36.883 369.996C36.9776 370.023 37.0726 370.048 37.1675 370.074C37.1691 371.1 37.0811 372.128 36.9623 373.146C36.7366 374.631 35.0382 378.367 35.466 379.714C33.92 379.499 31.4311 379.815 30.9824 381.083C29.2126 383.337 29.3258 386.412 27.2249 388.457C29.2471 388.9 31.2558 389.494 33.2169 390.117C33.6223 390.335 33.3769 390.929 32.8643 390.775C31.7754 390.45 30.6836 390.114 29.5858 389.809V389.808C28.5242 389.513 27.458 389.249 26.3781 389.047C26.3408 389.077 26.3536 389.143 26.4005 389.17C25.6277 389.769 24.7504 390.29 23.8703 390.791C24.4377 390.916 31.9757 392.935 29.7204 393.568C27.5337 392.661 25.2546 391.794 22.8904 391.344C21.8675 391.923 20.8667 392.528 19.8565 393.123C20.3441 393.226 28.4702 394.992 25.6539 395.503C23.4696 394.708 21.2055 394.174 18.924 393.676C16.1267 395.339 13.3249 396.998 10.5642 398.709C9.40963 399.421 8.1544 400.106 7.41296 401.177C6.42801 402.6 6.41634 404.376 7.09328 406.003C5.1172 414.518 8.6044 414.848 16.7325 416.635C28.2544 419.587 38.2468 412.508 48.2596 408.662C50.351 407.681 52.6628 406.945 54.5372 405.653C56.3072 404.392 57.4739 401.742 55.8529 399.925C56.9732 397.828 55.477 392.689 55.1195 390.232C54.8244 388.683 54.6259 386.184 52.3258 386.104C52.9408 385.704 52.9212 384.953 52.7166 384.347C52.4473 381.372 53.3714 376.088 53.5934 372.728C55.3515 372.855 57.9587 373.371 58.8711 371.42C59.2235 370.858 58.7687 370.253 58.1926 370.176L58.1933 370.173C58.3164 370.183 58.2816 370.169 58.1994 370.149C67.5201 331.642 73.5315 292.191 86.9816 254.797C90.0607 247.575 91.4322 238.26 98.3125 233.598C98.4064 234.181 98.5052 234.852 98.871 235.272C98.8908 235.347 98.9115 235.423 98.9306 235.498C99.171 236.436 99.4415 237.366 99.6805 238.306C105.063 279.767 111.278 321.141 114.264 362.88C114.717 364.813 113.981 371.694 116.684 371.384C117.019 371.573 117.456 371.664 117.818 371.754C117.259 374.234 117.416 377.981 117.433 380.243C117.394 382.502 117.021 384.843 117.273 387.081C117.562 388.552 120.311 387.666 119.863 386.187C119.799 381.947 119.543 376.715 118.815 372.007C123.028 372.83 127.345 373.03 131.636 372.832C131.406 375.318 132.141 378.427 132.997 380.466C130.429 381.329 127.941 382.491 125.956 384.244C124.076 385.953 122.348 389.873 119.034 388.578C118.115 388.169 117.109 387.46 116.792 386.545C116.485 386.316 116.645 386.867 116.705 386.999L116.581 387.042C115.818 386.555 114.418 391.603 114.301 392.233C113.715 394.935 113.037 398.014 114.423 400.541C111.445 401.778 111.766 405.804 113.974 407.49C122.741 413.173 137.359 417.812 148.239 418.59C150.164 418.724 152.191 418.159 154.022 417.552C156.175 416.976 158.335 416.36 160.464 415.684C162.339 415.253 163.75 413.644 163.517 411.887Z" fill="black"/>
<path fill-rule="evenodd" clip-rule="evenodd" d="M102.532 14.3726C110.69 14.3726 122.633 19.8381 123.531 25.0964C124.589 31.2932 126.94 54.5948 125.661 62.2199C124.38 69.8451 119.39 75.4793 108.355 75.4793C97.3191 75.4793 89.0824 69.4423 87.1911 67.3694C85.9304 65.9876 84.5361 63.1464 83.0083 58.8462C78.9803 58.1613 76.957 56.2083 76.9382 52.9872C76.9196 49.7662 77.9313 47.658 79.9735 46.6625C78.8713 33.3004 79.4785 24.9646 81.7951 21.6551C85.2698 16.6908 94.3723 14.3726 102.532 14.3726Z" fill="#FFDBB4"/>
<path fill-rule="evenodd" clip-rule="evenodd" d="M99.8437 3.0923L100.175 3.09459C101.675 3.1191 103.186 3.17531 104.692 3.29928C104.763 3.29207 104.835 3.2863 104.905 3.2791C107.739 3.00652 110.568 3.25157 113.4 3.37135C116.099 3.48523 118.948 3.76487 121.371 5.06059C121.682 5.22694 121.946 5.41606 122.172 5.62679C122.487 5.67134 122.788 5.76114 123.059 5.91206C123.839 5.75394 124.71 6.10449 124.894 7.01246C125.162 8.34292 125.265 9.68477 125.104 11.0341C125.1 11.0657 125.097 11.099 125.093 11.1335C125.419 12.3853 125.397 13.7524 125.126 14.987C125.24 16.547 125.305 18.1114 125.314 19.6731C125.32 20.7535 125.369 21.8535 125.268 22.9307C125.18 23.8777 124.792 24.6271 124.18 25.3465C124.065 25.4819 123.87 25.5044 123.708 25.4716C123.666 25.4631 123.63 25.4515 123.597 25.4378C123.965 26.2305 124.256 27.0714 124.555 27.8746C125.029 29.1518 125.489 30.4505 125.815 31.7737C126.476 34.4418 126.912 37.1604 127.165 39.8978C127.611 44.7684 127.78 49.6809 127.866 54.5703C127.949 59.2032 127.542 64.0349 124.911 67.996C122.611 71.4613 119.108 73.9766 115.206 75.3344C112.986 76.1085 110.528 76.3953 108.183 76.466C106.972 76.502 105.757 76.4501 104.553 76.3247C103.385 76.2022 102.176 76.2151 101.323 75.3272C101.089 75.0836 101.091 74.5835 101.437 74.4248C102.097 74.1236 102.544 74.0919 103.267 74.1914C103.866 74.2734 104.467 74.3384 105.07 74.3802C106.364 74.471 107.665 74.4739 108.959 74.3744C111.335 74.1914 113.767 73.5181 115.925 72.4976C119.309 70.8948 122.215 68.2682 123.785 64.8219C125.609 60.8219 125.49 56.1876 125.406 51.8892C125.312 47.1756 125.139 42.4766 124.731 37.7789C124.533 35.5013 124.227 33.2397 123.951 30.9723C123.805 29.7672 123.614 28.5678 123.379 27.3773C123.256 26.7473 123.095 26.1261 122.963 25.5005C122.867 25.5163 122.769 25.525 122.669 25.5292C122.068 25.5496 121.411 25.4025 120.966 24.9744C120.795 25.0912 120.578 25.1647 120.316 25.1777C117.846 25.3001 115.338 25.1488 112.863 25.1473C110.38 25.1459 107.896 25.1473 105.411 25.1546C102.929 25.1616 100.441 25.1848 97.9602 25.1185C95.6511 25.0565 93.2642 25.107 90.9853 24.6832C90.2195 27.4133 90.2466 30.413 91.8432 32.852C92.2943 33.5395 91.9278 34.3496 91.3403 34.7792C90.7394 35.2175 89.6596 35.8897 88.7357 35.9587C88.6462 36.1603 88.5542 36.361 88.4668 36.5611C88.0258 37.5691 87.6285 38.5835 87.3505 39.6507C87.2072 40.2008 87.084 40.7599 86.9802 41.3225C86.9887 41.4209 86.9974 41.5193 87.0079 41.6175C87.0079 41.6275 87.0093 41.6374 87.0108 41.649C87.0165 41.6895 87.0237 41.7356 87.028 41.7615C87.0812 42.0441 87.1328 42.3266 87.189 42.6077C87.3225 43.2923 87.4259 43.9828 87.4993 44.676C87.633 45.9446 87.62 47.5937 86.3871 48.3447C85.7276 48.7469 84.9373 48.7051 84.2402 48.4353C83.7719 48.2538 83.3738 47.9973 82.9428 47.745C82.6871 47.595 82.4196 47.4725 82.1696 47.3169C82.1007 47.2737 82.0347 47.2217 81.9729 47.167C81.5058 47.2664 81.0502 47.4524 80.7945 47.5793C80.109 47.9209 79.5071 48.4153 78.9954 48.9832C77.9077 50.1926 77.5815 51.8964 77.7338 53.4777C77.8759 54.9494 78.4523 56.6401 79.6118 57.619C80.1162 58.0455 80.7457 58.295 81.4111 58.2878C81.7384 58.2849 82.0404 58.2157 82.3565 58.1321C82.6683 58.05 83.0534 58.0745 83.3408 57.9592C83.7674 57.7876 84.2935 58.3109 84.1196 58.7405C83.9888 59.0633 83.9141 59.3487 83.7502 59.6009C84.9402 61.5498 86.2435 63.4382 87.6299 65.25C88.8801 66.8818 90.3516 68.254 91.7425 69.7488C92.3562 70.4089 92.6119 71.7092 91.5012 71.9915C90.3933 72.2757 89.5657 71.0822 88.9289 70.3571C86.2923 67.3488 84.2992 63.8949 83.3666 59.9959C82.9457 60.2957 82.4627 60.4586 81.954 60.5293C80.9409 60.669 79.9166 60.4687 79.0286 59.9541C75.666 58.0067 74.8526 52.744 76.4275 49.4459C76.8073 48.6519 77.3684 47.943 78.0522 47.3924C77.9982 47.2891 77.977 47.168 78.0116 47.0379C78.0724 46.81 78.1393 46.5848 78.2093 46.3606C78.1328 46.3263 78.0768 46.2557 78.0873 46.1507C78.1506 45.5022 78.2122 44.8535 78.2742 44.2048C78.2525 43.2246 78.205 42.2459 78.2165 41.2599C78.2339 39.6888 78.3287 38.1191 78.3345 36.5478C78.3531 31.0675 78.5758 25.5928 78.5917 20.1124C78.6002 17.4326 78.606 14.7488 78.5355 12.0706C78.5341 12.0344 78.5341 11.9999 78.5328 11.9638C78.4752 9.82041 77.9091 6.95192 79.9985 5.5651C80.3419 5.33749 80.7701 5.33461 81.1437 5.48164C82.2185 4.73064 83.5664 4.3687 84.8554 4.15969C87.3111 3.76199 89.7883 3.57013 92.2613 3.31788C93.5516 3.18671 94.9095 3.13639 96.2085 3.16523C97.522 3.19406 98.8526 3.07441 100.175 3.09459L99.8437 3.0923ZM80.2571 51.0632C80.7268 50.615 81.4282 50.7185 82.0045 50.8254C82.8063 50.9739 83.585 51.3256 84.2605 51.7768C84.9875 52.2625 85.8856 52.9357 86.0293 53.8568C86.1601 54.7029 85.3209 55.6355 84.4573 55.0691C83.6569 54.5429 83.2675 53.5786 82.5792 52.9184C82.2414 52.5955 81.8764 52.3115 81.49 52.0519C81.3147 51.9339 81.1423 51.8027 80.9511 51.7119C80.9325 51.7031 80.145 51.4466 80.2973 51.7854C80.349 51.8979 80.214 52.0232 80.1177 51.9238C79.8447 51.6456 79.997 51.3112 80.2571 51.0632Z" fill="black"/>
<path fill-rule="evenodd" clip-rule="evenodd" d="M114.542 60.945C114.763 60.5606 115.272 60.2045 115.737 60.259C117.822 60.5038 117.818 63.0341 117.013 64.5114C116.299 65.8212 114.822 66.59 113.343 66.4778C111.79 66.3597 110.467 65.4455 109.884 63.991C109.499 63.0287 109.321 61.2525 110.345 60.606C110.365 60.5938 110.396 60.5969 110.411 60.6144C110.902 61.1865 110.922 62.0454 111.352 62.6825C111.753 63.2749 112.373 63.7641 113.102 63.8396C113.645 63.8961 114.195 63.6998 114.409 63.2111C114.523 62.9468 114.51 62.8033 114.466 62.6214L114.428 62.4633C114.291 61.9096 114.23 61.4879 114.542 60.945ZM115.099 49.848C116.187 50.5097 117.844 52.0525 116.674 53.6927C115.297 55.139 113.314 53.4807 112.338 52.7308C111.432 52.1495 110.414 53.6444 111.254 54.3231C118.313 59.5549 121.179 50.021 115.649 49.0701C115.041 48.9653 114.814 49.6434 115.099 49.848ZM103.617 45.3111C104.284 44.3088 105.808 44.4563 106.175 45.6459C106.375 46.2901 106.1 46.8693 106.114 47.5128C106.126 48.0564 106.09 48.6621 105.923 49.1885C105.543 50.3889 104.465 51.2368 103.189 51.2016C101.918 51.1666 100.797 50.3608 100.264 49.226C99.7301 48.0867 99.8437 46.9078 100.233 45.7495C100.252 45.6938 100.325 45.6669 100.369 45.7137C100.83 46.2044 101.168 46.7224 101.517 47.2719L101.876 47.8351C102.149 48.2592 102.547 48.801 103.058 48.7669L103.135 48.7594C103.276 48.7472 103.255 48.7753 103.364 48.5817C103.415 48.492 103.406 48.3254 103.431 48.2195L103.439 48.1838L103.435 48.1646C103.424 48.1133 103.413 48.0167 103.404 47.8492L103.402 47.8122C103.365 47.0285 103.144 46.0214 103.617 45.3111ZM120.535 45.9785C120.415 44.6964 122.216 44.4117 122.814 45.3603C123.127 45.8551 123.218 46.4764 123.287 47.0652L123.319 47.3447C123.39 47.9494 123.418 48.5784 123.156 49.1425C122.743 50.0308 121.845 50.5004 120.876 50.4261C119.951 50.3548 119.107 49.8179 118.661 49.0028C118.265 48.2754 117.871 46.8553 118.352 46.0966C118.381 46.0507 118.44 46.0447 118.48 46.0802C118.934 46.4848 119.009 47.2229 119.279 47.75C119.559 48.2938 119.983 48.8236 120.624 48.9062C121.239 48.9851 121.473 48.6494 121.316 48.0635C121.114 47.3071 120.611 46.7925 120.535 45.9785ZM104.103 37.6892L104.397 37.5764C105.406 37.1948 106.791 36.7539 107.612 37.5751C108.118 38.0814 108.214 38.8273 107.853 39.4453C107.415 40.1938 106.63 40.2123 105.872 40.3226C105.01 40.448 104.133 40.6864 103.331 41.0263C102.427 41.4093 101.588 41.8867 100.766 42.4199C99.9842 42.9265 99.2054 43.7547 98.2702 43.9108C98.232 43.9171 98.1887 43.9007 98.1787 43.8587C97.9663 42.9435 98.5565 42.0427 99.0832 41.3286C99.7211 40.464 100.492 39.7544 101.356 39.1181C102.189 38.5039 103.141 38.0601 104.103 37.6892ZM122.43 40.9435L122.519 40.9277C123.131 40.8257 123.685 40.8493 124.147 41.3343C124.499 41.7043 124.634 42.1839 124.466 42.6731C124.311 43.1245 123.965 43.583 123.463 43.6775C121.767 43.9969 119.888 43.9441 118.183 43.7023C117.404 43.5916 116.616 43.4561 115.857 43.2425L115.507 43.141C114.873 42.9597 114.147 42.7703 113.686 42.3034C113.521 42.1356 113.616 41.8954 113.815 41.8177C114.618 41.5027 115.72 41.6703 116.577 41.6456C117.574 41.6171 118.573 41.5423 119.565 41.4392C120.535 41.3383 121.473 41.1191 122.43 40.9435Z" fill="black"/>
</svg>
