<svg width="634" height="649" viewBox="0 0 634 649" fill="none" xmlns="http://www.w3.org/2000/svg">
<path d="M475.184 153.212C524.952 185.228 570.283 232.462 582.012 287.302C594.058 342.144 572.502 404.592 540.486 461.97C508.468 519.346 465.674 571.018 414.32 582.747C362.966 594.159 302.736 564.995 244.724 539.952C186.713 514.592 130.604 493.352 96.0511 451.192C61.8151 409.03 49.1351 345.63 57.0601 283.498C64.6681 221.05 92.8811 159.869 139.48 127.218C186.396 94.567 251.698 90.446 311.294 97.103C371.208 103.76 425.414 121.195 475.184 153.212Z" fill="#FFDBB4"/>
<path fill-rule="evenodd" clip-rule="evenodd" d="M323.579 193.44L318.114 206.962L321.125 249.821L323.365 250.171C347.028 253.842 363.107 255.696 371.603 255.734L371.866 255.734C380.422 255.734 390.674 253.822 402.622 249.996L403.167 249.821L404.546 217.729H401.293L395.409 203.923L395.414 203.919C395.479 204.029 395.547 204.136 395.617 204.24C398.07 207.872 399.492 204.939 405.255 206.223C412.155 207.761 415.219 214.741 421.294 219.957C424.114 222.379 430.034 223.521 432.867 225.186L435.843 226.936C445.168 232.441 455.885 239.127 461.512 247.838C468.109 258.049 472.656 267.74 476.855 279.1C485.906 303.584 492.188 328.57 496.676 354.265C501.226 380.307 503.96 406.672 506.049 433.017C507.016 445.226 507.836 457.444 508.517 469.672L508.685 472.729C509.042 479.382 508.731 485.892 502.687 489.989C498.357 492.923 492.61 493.37 487.529 493.672L487.253 493.688C449.69 495.893 412.126 498.081 374.563 500.275L318.218 503.572C308.843 504.122 299.468 504.667 290.092 505.21L267.207 506.533C256.422 507.147 245.623 507.678 234.823 507.616C221.235 507.536 207.704 506.532 194.241 504.719L193.054 504.557C184.584 503.387 172.303 500.426 170.781 490.259C170.563 488.8 171.847 487.888 172.925 488.097C172.57 486.443 172.35 484.785 172.139 483.346C171.237 477.194 170.67 471.004 170.39 464.793C169.828 452.366 170.301 439.881 171.543 427.508C173.596 407.039 176.475 386.604 179.449 366.242L180.112 361.718C183.275 340.144 187.042 318.606 192.937 297.591C198.382 278.179 206.876 257.983 218.564 245.708C230.253 233.433 246.917 222.768 264.041 216.235C265.524 215.669 294.987 209.213 296.972 210.153L297.328 209.874C303.202 205.232 311.582 197.079 320.21 199.647L320.23 199.615C320.433 199.24 321.23 196.735 322.331 193.44H323.579Z" fill="#8FA7DF"/>
<path fill-rule="evenodd" clip-rule="evenodd" d="M329.81 175.444C336.946 166.389 344.468 163.511 355.583 164.185C363.121 163.916 370.639 165.874 377.021 170.199C382.869 173.258 388.055 177.468 391.757 182.887C394.923 187.52 392.517 198.969 395.409 203.923C395.381 204.462 395.366 204.953 395.366 205.397C395.366 209.684 398.347 214.468 404.309 219.748L404.545 219.957V251.108C394.523 254.192 382.114 255.734 367.318 255.734C352.744 255.734 337.585 253.285 321.841 248.387L321.125 248.162L318.114 214.307L321.125 204.939L321.124 197.092L322.288 193.582C324.348 187.411 327.502 178.373 329.81 175.444Z" fill="#694D3D"/>
<path fill-rule="evenodd" clip-rule="evenodd" d="M321.125 248.163C338.767 253.304 353.61 255.875 365.654 255.875C377.698 255.875 390.202 253.304 403.166 248.163L400.012 502.05L349.236 502.671L321.125 248.163Z" fill="#9FD8E5"/>
<path fill-rule="evenodd" clip-rule="evenodd" d="M234.01 359.018C233.815 358.651 234.269 358.322 234.57 358.586C241.41 364.593 244.991 374.241 245.742 383.159C246.537 392.615 245.409 402.406 244.978 411.859C244.498 422.388 244.067 432.921 243.482 443.445C242.887 454.122 242.247 464.796 241.698 475.476L240.463 499.5C240.331 502.06 240.616 505.209 239.634 507.598C238.113 511.302 233.593 510.729 232.644 507.633L232.614 507.531L232.527 507.598C231.689 504.808 232.317 501.494 232.459 498.61L233.753 472.362C234.667 453.809 235.482 435.256 236.464 416.707L236.798 410.524C237.257 402.201 237.609 393.898 237.892 385.577L237.984 382.803C238.252 374.449 238.039 366.561 234.01 359.018ZM399.822 205.001C403.633 204.639 406.511 205.904 409.97 207.236C411.477 207.816 412.904 208.486 414.35 209.18C416.16 210.049 417.324 211.584 418.439 213.208L419.035 214.083C423.676 220.889 426.799 228.741 430.322 236.151C434.443 244.819 438.605 253.468 442.638 262.177L444.628 266.468C445.623 268.614 446.615 270.76 447.593 272.914L449.281 276.662C450.978 280.463 452.498 284.485 450.081 288.406C447.832 292.053 443.847 294.875 440.691 297.694C438.058 300.046 435.425 302.398 432.791 304.75C438.236 310.207 441.891 317.077 444.039 324.446C447.092 323.173 450.818 322.929 453.974 322.378C458.392 321.607 458.933 328.301 454.764 328.22C451.684 328.159 448.071 328.474 444.912 327.825C445.461 330.246 445.86 332.704 446.113 335.169C447.441 348.086 444.54 361.079 441.515 373.578L441.266 374.604C437.98 388.132 434.865 401.695 432.078 415.335C429.285 429.004 426.773 442.731 424.543 456.503C422.273 470.521 420.666 484.617 418.94 498.709C418.679 500.842 417.338 502.67 414.983 502.67C413.021 502.67 410.779 500.838 411.025 498.709C412.806 483.363 415.333 468.097 417.843 452.856C422.166 426.608 427.607 400.588 433.866 374.74L434.96 370.238C437.776 358.564 440.331 346.534 438.918 334.492C437.768 324.686 433.671 314.231 425.575 308.14L425.328 307.957C423.437 306.569 422.709 303.914 424.572 302.086C425.757 300.923 426.944 299.761 428.132 298.6L435.259 291.635L436.696 290.229C437.894 289.058 439.098 287.894 440.338 286.767C441.088 286.084 443.123 284.783 443.271 283.661C443.368 282.929 442.502 281.643 442.15 280.968L440.542 277.718C439.628 275.865 438.743 273.999 437.851 272.135C436.003 268.274 434.127 264.425 432.319 260.545L421.456 237.248C418.391 230.676 415.661 223.737 411.654 217.661L410.864 216.476C410.205 215.479 409.622 214.519 409.205 213.299C408.805 212.126 408.302 210.837 407.561 209.836C405.826 207.486 402.509 206.153 399.733 205.66C399.332 205.589 399.478 205.034 399.822 205.001ZM316.269 198.882C316.511 198.882 316.547 199.227 316.325 199.294C312.976 200.302 309.777 201.928 307.166 204.275C305.918 205.398 304.66 206.672 303.889 208.184C303.594 208.763 303.431 209.374 303.311 210.008L303.273 210.22C303.074 211.364 302.789 212.002 302.208 212.918L302.108 213.074C298.791 218.201 296.466 223.896 294.34 229.598L289.711 242.031L285.084 254.466C283.594 258.472 282.102 262.479 280.611 266.486C279.788 268.698 278.941 270.901 278.094 273.104C277.728 274.058 277.334 275.005 276.999 275.971C276.953 276.103 276.806 276.899 276.697 277.092L276.734 277.157C277.667 278.728 280.156 280.041 281.566 281.182L286.423 285.112C289.887 287.915 293.439 290.639 296.798 293.567C298.908 295.405 297.595 298.697 295.242 299.465C291.299 300.75 287.435 302.289 283.551 303.744C281.982 304.331 280.348 304.843 278.797 305.49L277.853 305.899C277.485 306.065 277.662 306.063 277.677 306.744C277.691 307.458 277.894 308.203 278.01 308.905C279.318 316.822 280.705 324.726 282.169 332.616C287.347 360.517 293.533 388.214 300.588 415.699C304.152 429.578 307.974 443.389 311.615 457.249C315.248 471.071 320.028 484.695 324.592 498.232C325.88 502.049 319.832 503.693 318.576 499.892C313.315 483.97 308.503 467.91 303.534 451.898C294.705 423.448 287.747 394.379 281.594 365.241C278.544 350.799 275.755 336.302 273.228 321.76C272.75 319.007 272.281 316.252 271.821 313.495L271.152 309.441C270.693 306.551 270.431 303.541 272.676 301.254C274.867 299.021 278.629 298.23 281.513 297.183L281.723 297.106C283.558 296.421 285.406 295.761 287.247 295.08C284.535 292.943 281.856 290.759 279.151 288.623C276.968 286.9 274.751 285.212 272.6 283.45C270.826 281.996 269.38 280.13 269.195 277.765C269.006 275.349 270.041 273.107 270.875 270.891L270.955 270.677C271.775 268.465 272.596 266.253 273.439 264.049L278.651 250.406C281.964 241.736 285.137 232.996 288.621 224.394C289.999 220.99 291.501 217.639 293.276 214.421C294.132 212.869 295.05 211.351 296.048 209.886C297.165 208.244 298.18 207.443 299.911 206.537C302.68 205.088 304.854 202.659 307.634 201.165C310.363 199.699 313.171 198.916 316.269 198.882ZM325.258 183.415C325.364 183.233 325.645 183.314 325.648 183.521C325.721 187.83 324.698 192.233 324.069 196.493C323.436 200.769 323.234 205.282 322.319 209.512C322.3 209.709 322.262 209.903 322.208 210.094L322.165 210.239C321.779 211.424 320.775 212.428 319.544 212.742C319.931 214.89 320.296 217.041 320.603 219.204C321.13 222.921 321.611 226.645 322.084 230.369L322.65 234.838C323.185 239.05 323.705 243.264 324.219 247.479C325.526 248.026 326.861 248.477 328.227 248.869C331.374 249.77 334.597 250.136 337.845 250.455C344.458 251.104 351.122 251.405 357.759 251.774L359.18 251.854C366.642 252.282 374.144 252.358 381.586 251.592C385.277 251.212 388.938 250.574 392.537 249.671C394.366 249.212 396.143 248.526 397.968 248.077C398.573 247.928 399.114 247.585 399.721 247.218C399.99 246.877 400.368 246.619 400.86 246.52L400.994 246.497L401.126 246.477L401.171 246.457L401.168 246.471C401.541 246.421 401.896 246.421 402.23 246.467C402.364 243.181 402.508 239.895 402.689 236.61C403.174 227.787 404.515 218.583 402.725 209.837C402.665 209.543 403.065 209.439 403.169 209.714C406.681 218.973 406.286 229.098 406.463 238.843C406.636 248.372 406.531 257.909 406.484 267.441C407.166 267.732 407.775 268.125 408.257 268.678C409.219 269.782 409.496 271.702 408.257 272.768C407.707 273.24 407.099 273.568 406.454 273.796C406.42 282.077 406.361 290.358 406.278 298.64C407.852 299.856 407.999 302.744 406.219 303.945C405.923 330.763 405.436 357.581 405.032 384.395L404.186 440.651C404.073 448.147 403.887 455.642 403.82 463.136L403.873 463.157L404.06 463.244C404.375 463.392 404.844 463.632 404.942 463.877C404.967 463.941 404.974 463.985 404.971 464.018C405.487 464.091 405.999 464.335 406.441 464.755C407.534 465.794 407.312 467.36 406.441 468.418L406.209 468.701C405.666 469.36 404.635 469.614 403.794 469.48C403.802 474.158 403.832 478.836 403.817 483.514C403.813 484.942 403.791 486.371 403.766 487.8L403.708 491.226C403.668 493.18 403.495 495.665 401.495 496.543C399.238 497.534 397.214 496.722 396.3 494.428C396.052 493.807 396.106 493.228 396.196 492.613C396.168 491.69 396.023 490.62 396.041 489.764L396.116 486.192C396.127 485.642 396.15 485.091 396.165 484.541L396.1 484.547C388.08 484.937 380.004 484.747 371.971 484.742L368.398 484.747C365.418 484.75 362.43 484.734 359.454 484.62L358.338 484.572C356.109 484.468 353.766 484.434 351.455 484.235C351.75 486.608 352.025 488.983 352.27 491.361C352.502 493.615 350.177 495.531 348.103 495.531C345.64 495.531 344.232 493.593 343.937 491.361C342.545 480.83 341.975 470.201 340.646 459.663C339.455 450.225 338.422 440.765 337.372 431.309L337.021 428.157C333.18 393.745 329.45 359.319 325.883 324.877L324.221 308.777C322.544 292.549 320.856 276.32 319.433 260.068C318.619 250.776 317.869 241.483 317.164 232.182C316.646 225.35 316.321 218.555 316.109 211.735C315.274 210.876 314.856 209.62 315.226 208.324C315.442 207.568 315.693 206.815 315.959 206.064C315.942 205.326 315.925 204.588 315.91 203.849C315.897 203.15 316.606 202.79 317.174 202.906C318.206 200.406 319.342 197.927 320.291 195.451C321.825 191.442 323.09 187.123 325.258 183.415ZM239.543 226.735C255.587 216.672 274.685 209.431 293.814 210.21C294.249 210.228 294.371 210.892 293.919 210.992C283.716 213.272 273.401 216.049 263.742 220.091C254.054 224.145 244.843 229.603 236.638 236.163C221.501 248.266 209.736 264.008 201.989 281.753C197.451 292.148 194.27 303.122 191.492 314.1C188.553 325.719 186.131 337.462 184.117 349.277C180.139 372.613 177.823 396.207 176.59 419.841C175.337 443.883 175.853 467.942 174.959 491.987C174.805 496.153 168.855 496.072 168.552 491.987C166.526 464.649 167.649 436.875 169.523 409.556C171.207 384.998 174.15 360.491 178.888 336.328L179.3 334.233C183.73 311.878 189.072 288.981 199.78 268.735C208.922 251.45 223.035 237.09 239.543 226.735ZM462.342 333.58C462.426 333.34 462.742 333.343 462.826 333.58C464.655 338.704 464.721 344.486 465.207 349.887L465.245 350.302C465.712 355.229 466.063 360.162 466.389 365.098L466.51 366.95C467.821 387.09 469.458 407.207 471.926 427.241C474.385 447.199 477.71 467.018 481.305 486.798C481.706 489.001 480.731 491.244 478.423 491.878C476.389 492.438 473.778 491.184 473.348 488.994C471.116 477.641 469.311 466.272 467.7 454.821C464.866 434.655 462.75 414.397 461.39 394.079C460.708 383.874 460.287 373.673 460.12 363.446C460.043 358.701 460.166 353.945 460.419 349.205L460.479 348.111C460.758 343.266 460.729 338.2 462.342 333.58ZM288.973 461.858C289.188 461.742 289.453 461.981 289.317 462.203C286.211 467.256 282.008 471.613 277.946 475.907C273.699 480.396 269.558 485.02 265.225 489.421C262.095 492.6 257.059 487.472 260.363 484.555C265.008 480.454 269.863 476.558 274.591 472.549L276.658 470.795C280.535 467.517 284.526 464.269 288.973 461.858ZM436.53 459.328C436.298 458.886 436.828 458.527 437.188 458.82C439.694 460.859 441.94 463.292 444.36 465.444C446.756 467.576 449.242 469.565 451.796 471.504C454.36 473.451 456.98 475.321 459.671 477.09C461.903 478.557 464.203 479.733 466.541 480.951C467.623 481.09 468.626 481.622 469.428 482.63C470.696 484.224 470.831 487.23 469.072 488.614L468.756 488.862C466.703 490.477 464.265 490.674 462.244 488.862C459.987 486.84 457.854 484.614 455.686 482.476L455.035 481.838C452.706 479.572 450.434 477.233 448.291 474.789L446.352 472.581C442.754 468.475 439.009 464.049 436.53 459.328ZM424.987 222.598C424.57 222.321 424.827 221.577 425.342 221.755L426.286 222.081C430.229 223.453 434.287 224.974 437.867 227.085C441.715 229.354 445.267 232.057 448.661 234.956C455.686 240.958 461.663 248.338 466.742 256.031C476.933 271.467 483.236 289.146 488.324 306.834C493.75 325.694 497.928 344.961 501.339 364.281C504.804 383.916 507.478 403.729 509.235 423.591C510.101 433.375 510.682 443.165 510.974 452.983C511.125 458.034 511.12 463.081 511.078 468.134C511.067 469.433 511.076 470.732 511.091 472.031L511.14 475.927C511.166 478.391 511.461 480.98 510.876 483.387C509.934 487.261 503.534 486.539 503.744 482.579C503.551 481.261 503.543 479.899 503.593 478.535C503.563 478.359 503.53 478.18 503.493 477.997C503.388 477.474 503.478 476.989 503.683 476.572C503.716 475.918 503.746 475.267 503.757 474.628C503.799 472.027 503.796 469.436 503.724 466.835C503.573 461.352 503.355 455.868 503.135 450.387C502.695 439.434 502.083 428.477 501.196 417.551C498.109 379.52 491.592 341.272 480.644 304.684C475.559 287.693 468.55 271.014 458.497 256.332C454.035 249.814 449 243.793 443.419 238.206C437.802 232.583 431.613 226.989 424.987 222.598ZM349.236 467.762L349.994 473.254C350.374 476 350.749 478.747 351.106 481.497C353.527 481.165 356.004 481.026 358.338 480.819C362.423 480.457 366.536 480.281 370.633 480.112C379.105 479.762 387.619 479.156 396.1 479.198C396.187 479.199 396.269 479.204 396.352 479.211L396.772 468.375L390.814 468.366C385.765 468.358 380.718 468.315 375.669 468.271C371.123 468.232 366.574 468.226 362.028 468.131L360.08 468.085C356.633 467.992 352.826 468.184 349.236 467.762ZM397.272 452.033C397.029 452.062 396.782 452.086 396.519 452.097C395.339 452.147 394.149 452.112 392.968 452.122C390.453 452.144 387.939 452.161 385.424 452.16C380.394 452.16 375.365 452.19 370.336 452.251C365.159 452.314 359.986 452.404 354.808 452.414C352.3 452.418 349.799 452.352 347.291 452.282C347.697 455.848 348.121 459.412 348.589 462.968C352.483 462.441 356.671 462.706 360.477 462.67L360.971 462.664C366.166 462.575 371.365 462.64 376.561 462.647C381.906 462.653 387.25 462.67 392.596 462.714L396.987 462.75L396.995 462.529C397.124 459.034 397.207 455.534 397.272 452.033ZM345.36 434.971C345.846 439.181 346.303 443.398 346.769 447.613C347.079 447.566 347.392 447.524 347.712 447.491C350.224 447.228 352.731 447.003 355.252 446.846C360.277 446.535 365.302 446.37 370.336 446.235C375.512 446.096 380.689 445.99 385.867 445.916C388.383 445.881 390.896 445.885 393.412 445.902C394.592 445.91 395.784 445.873 396.962 445.952C397.103 445.962 397.237 445.976 397.37 445.992L397.459 439.662C397.474 438.607 397.49 437.553 397.507 436.498C393.619 436.738 389.666 436.647 385.781 436.648L384.885 436.65C380.004 436.672 375.12 436.605 370.239 436.504C365.204 436.399 360.179 436.234 355.152 435.911C353.116 435.781 351.094 435.607 349.069 435.384L348.056 435.268C347.174 435.164 346.267 435.08 345.36 434.971ZM397.908 417.109C388.544 417.853 379.23 418.164 369.842 418.256L368.433 418.268C360.136 418.331 351.771 418.674 343.455 418.454C343.952 422.768 344.448 427.083 344.948 431.397C346.139 431.341 347.335 431.341 348.499 431.299C350.867 431.213 353.227 431.192 355.596 431.186C360.477 431.175 365.358 431.218 370.239 431.208C375.27 431.197 380.299 431.112 385.329 431.017C389.407 430.941 393.528 430.634 397.617 430.645L397.908 417.109ZM398.304 398.702C397.219 399.063 395.938 399.086 394.534 399.15L390.909 399.331C389.229 399.414 387.548 399.491 385.867 399.553C380.265 399.758 374.664 399.949 369.061 400.128C363.32 400.31 357.551 400.416 351.809 400.235C348.996 400.146 346.207 399.999 343.403 399.764C342.709 399.706 342.003 399.668 341.295 399.618C341.947 405.334 342.603 411.05 343.26 416.765C351.537 415.749 359.877 415.116 368.143 414.064L375.618 413.109C383.089 412.155 390.554 411.219 398.052 410.429L398.304 398.702ZM398.703 380.092C397.111 380.485 395.296 380.466 393.768 380.562L393.484 380.582C390.588 380.802 387.683 380.912 384.78 380.983C379.089 381.124 373.395 381.194 367.702 381.229L364.279 381.25C359.716 381.277 355.155 381.288 350.591 381.182C347.663 381.114 344.741 380.97 341.816 380.824C340.939 380.779 340.043 380.75 339.144 380.705C339.756 386.117 340.374 391.528 340.99 396.939C341.951 396.786 342.917 396.67 343.838 396.514C346.196 396.116 348.549 395.797 350.924 395.512C356.068 394.896 361.239 394.452 366.407 394.077C371.713 393.692 377.023 393.367 382.329 392.994L386.088 392.729C387.34 392.642 388.593 392.558 389.847 392.481C391.987 392.35 394.475 392.498 396.598 392.032C397.173 391.792 397.811 391.737 398.451 391.874L398.703 380.092ZM399.185 358.308C398.634 359.008 397.811 359.375 396.83 359.502C391.721 360.166 386.48 360.272 381.327 360.585L380.419 360.642C375.098 360.993 369.775 361.269 364.45 361.552C358.981 361.842 353.512 362.079 348.038 362.27C345.714 362.351 343.378 362.36 341.051 362.331L340.054 362.316C339.098 362.3 338.097 362.302 337.094 362.269C337.649 367.33 338.21 372.39 338.778 377.449C339.801 377.338 340.824 377.253 341.816 377.148C344.74 376.838 347.66 376.532 350.591 376.301C356.144 375.863 361.701 375.6 367.264 375.324C372.956 375.042 378.651 374.855 384.344 374.589C387.104 374.459 389.864 374.299 392.616 374.045C394.544 373.867 396.835 373.21 398.848 373.452C398.958 368.404 399.072 363.356 399.185 358.308ZM399.634 338.794C399.547 338.929 399.445 339.06 399.321 339.181C397.072 341.406 394.299 341.234 391.318 341.468L391.135 341.482C388.214 341.728 385.291 341.962 382.366 342.173C376.519 342.596 370.661 342.891 364.806 343.154C358.814 343.424 352.783 343.61 346.785 343.487C342.944 343.408 338.921 343.422 335.003 343.048C335.605 348.621 336.21 354.194 336.82 359.767C337.921 359.559 339.03 359.399 340.08 359.234C342.727 358.817 345.376 358.399 348.038 358.092C353.357 357.479 358.677 356.906 364.007 356.389C368.564 355.946 373.12 355.497 377.681 355.093L380.419 354.857C385.86 354.398 391.371 353.643 396.83 353.531C397.73 353.513 398.748 354.003 399.263 354.776C399.384 349.449 399.509 344.121 399.634 338.794ZM400.012 322.997C398.622 323.166 397.125 323.07 395.842 323.112C392.6 323.218 389.357 323.316 386.114 323.412L366.656 323.987C360.032 324.182 353.384 324.329 346.756 324.235C343.841 324.194 340.913 324.189 337.999 324.03L337.028 323.971C335.828 323.891 334.356 323.88 332.919 323.734L334.616 339.464C338.515 338.901 342.533 338.69 346.398 338.359L347.224 338.286C352.926 337.767 358.655 337.423 364.366 337.036C370.225 336.639 376.076 336.157 381.927 335.664C384.851 335.418 387.775 335.172 390.698 334.903L391.059 334.868C393.819 334.579 396.415 333.965 398.859 335.594C399.217 335.832 399.497 336.15 399.689 336.507C399.796 332.004 399.9 327.5 400.012 322.997ZM400.465 304.639C388.615 305.116 376.763 305.478 364.904 305.637C358.229 305.727 351.563 305.664 344.888 305.524C341.994 305.463 339.076 305.325 336.184 305.103L335.101 305.016C333.726 304.9 332.282 304.816 330.843 304.677C331.438 310.086 332.027 315.495 332.613 320.905C334.027 320.642 335.506 320.521 336.746 320.362L337.028 320.325C340.108 319.901 343.218 319.653 346.314 319.381C352.342 318.849 358.401 318.507 364.445 318.216C370.635 317.917 376.828 317.665 383.018 317.389L389.209 317.112C390.241 317.066 391.273 317.021 392.305 316.978C393.779 316.916 395.253 316.856 396.727 316.795C397.454 316.765 398.21 316.666 398.938 316.704L399.146 316.676C399.241 316.664 399.325 316.654 399.403 316.646C399.601 316.495 399.814 316.37 400.04 316.275L400.177 316.221L400.465 304.639ZM328.9 287.241C329.451 292.11 329.995 296.98 330.532 301.851C332.222 301.658 333.932 301.551 335.546 301.405C338.8 301.114 342.069 300.858 345.333 300.708L351.856 300.404C356.205 300.203 360.553 300.009 364.904 299.85C376.814 299.415 388.723 298.916 400.625 298.308C400.709 295.005 400.796 291.701 400.884 288.398C400.313 289.01 399.487 289.413 398.403 289.411C385.907 289.377 373.402 289.449 360.908 289.244C354.654 289.141 348.407 288.989 342.16 288.668C339.104 288.511 336.03 288.191 332.997 287.77C331.703 287.591 330.288 287.463 328.9 287.241ZM326.9 269.891C327.488 274.879 328.064 279.868 328.631 284.858C330.183 284.581 331.786 284.433 333.234 284.236C336.344 283.813 339.474 283.475 342.607 283.298C348.703 282.953 354.803 282.779 360.908 282.65C373.401 282.384 385.907 282.386 398.403 282.287C399.577 282.278 400.448 282.743 401.02 283.437C401.107 280.322 401.199 277.207 401.293 274.092C400.086 273.965 398.889 273.784 397.782 273.707C394.379 273.469 390.974 273.252 387.568 273.056C380.461 272.648 373.346 272.3 366.234 271.99C359.12 271.68 352.003 271.378 344.887 271.114L341.774 271C336.825 270.816 331.792 270.583 326.9 269.891ZM324.663 251.107C325.274 256.159 325.876 261.211 326.477 266.264L326.66 267.828C332.612 266.67 338.884 266.331 344.887 266.075C352.004 265.772 359.11 265.616 366.234 265.638C373.351 265.659 380.457 265.828 387.568 266.122C391.121 266.269 394.674 266.439 398.225 266.632C399.202 266.685 400.347 266.656 401.525 266.673C401.551 265.879 401.572 265.085 401.6 264.292C401.708 261.076 401.814 257.86 401.924 254.644C399.522 255.879 396.399 256.377 393.985 256.903L393.71 256.964C389.724 257.86 385.655 258.44 381.586 258.795C373.597 259.493 365.524 259.232 357.543 258.557L356.145 258.437C349.135 257.829 341.869 257.058 335.074 255.322C331.838 254.495 328.492 253.338 325.591 251.661C325.29 251.487 324.978 251.302 324.663 251.107ZM392.15 191.079C392.22 190.806 392.628 190.744 392.763 190.999C393.707 192.793 394.058 194.947 394.713 196.87C395.418 198.937 396.076 201.02 396.854 203.062C398.48 207.328 400.397 211.428 402.684 215.381C404.948 219.294 398.608 222.088 396.942 217.803C395.222 213.382 393.808 208.81 392.953 204.138C392.535 201.859 392.163 199.548 392.042 197.232C391.938 195.242 391.659 193.02 392.15 191.079Z" fill="black"/>
<path fill-rule="evenodd" clip-rule="evenodd" d="M429.234 63.5416C413.552 22.1636 385.285 -8.13182 337.63 10.8966C336.263 9.96312 334.479 9.71277 332.77 10.8058C306.81 27.1541 288.116 53.3644 280.015 82.9196C275.085 83.8597 270.294 85.4995 266.015 88.1886C256.715 94.0329 250.458 103.333 244.593 112.39C242.83 115.113 244.463 119.621 247.777 120.239C249.217 120.508 250.644 120.668 252.063 120.71C251.717 121.968 251.262 123.183 250.683 124.298C248.587 128.332 252.548 132.615 256.259 131.512C256.671 131.731 257.103 131.91 257.55 132.045C257.6 134.331 258.771 137.39 261.089 137.852C264.837 138.658 269.817 135.781 268.933 131.577C270.065 131.777 271.193 131.802 272.293 131.664C272.416 133.853 272.377 136.137 272.679 138.157C273.664 147.674 283.145 154.066 292.186 151.171C292.741 154.137 293.392 158.303 296.304 159.912C299.708 169.491 305.587 180.422 315.216 184.787C314.359 186.99 314.824 189.669 317.405 191.143C335.03 201.221 356.185 204.631 376.111 200.885C384.075 200.409 391.834 198.604 399.281 194.759C404.712 191.955 409.705 188.394 414.579 184.724C419.455 181.051 424.669 177.476 428.561 172.708C432.788 167.53 434.756 161.437 436.033 154.953C441.885 125.519 439.864 96.6187 429.234 68.5804C416.075 33.8734 442.388 98.2505 429.234 63.5416Z" fill="#694D3D"/>
<path fill-rule="evenodd" clip-rule="evenodd" d="M265.969 86.496C280.606 77.8363 299.274 80.0777 308.068 93.4917C309.586 95.8074 310.634 98.3549 311.375 101.304L311.494 101.794L311.613 102.31C311.997 104.015 312.248 105.619 312.589 108.347L312.967 111.442L313.075 112.286C313.441 115.087 313.762 116.857 314.263 118.661L314.362 119.011L314.941 121.009L312.757 121.818C308.574 123.333 307.698 123.469 305.284 122.203C303.398 121.215 302.414 119.884 301.105 117.188L300.915 116.793L300.498 115.914L300.271 115.45C299.418 113.742 298.734 111.92 297.769 111.258C296.458 110.359 292.325 110.002 289.451 110.356L289.302 110.375L289.178 110.401L288.965 110.449C284.132 111.595 279.727 115.508 276.821 119.643C274.482 122.972 273.137 127.166 272.972 131.525L272.963 131.815L272.906 134.04L268.221 133.94L268.267 133.074L268.197 133.228C266.721 136.349 263.012 138.427 259.91 136.361L259.799 136.286L259.686 136.205C257.067 134.271 256.752 130.357 258.902 127.979L259.001 127.872L259.098 127.774L259.078 127.765L259.056 127.757L259.042 127.756C258.309 127.891 257.666 128.267 256.796 129.069L256.572 129.279L256.122 129.767L255.657 130.265L255.457 130.471C255.33 130.6 255.213 130.714 255.103 130.814C254.954 130.95 254.816 131.064 254.666 131.168C254.528 131.264 254.385 131.348 254.212 131.424C253.785 131.61 253.329 131.698 252.745 131.554C251.944 131.357 251.493 130.871 251.22 130.299C251.113 130.077 251.053 129.872 251.01 129.657C250.965 129.431 250.943 129.201 250.931 128.936C250.923 128.762 250.921 128.572 250.922 128.365L250.928 128.041L250.939 127.689L250.95 127.408L251.003 126.365C251.193 122.942 252.09 119.58 253.626 116.406L253.782 116.09L253.84 115.975L253.679 116.191C252.632 117.575 251.62 118.535 250.358 119.168L250.184 119.253L250.015 119.33C248.263 120.102 246.499 119.802 245.434 118.372C244.696 117.382 244.479 116.079 244.63 114.709C244.923 112.05 245.972 109.616 248.024 106.064L248.312 105.57L249.439 103.653C253.781 96.3244 259.362 90.404 265.969 86.496Z" fill="#E8E1E1"/>
<path fill-rule="evenodd" clip-rule="evenodd" d="M353.422 2.83327C361.447 2.26506 369.619 3.62187 377.261 6.04893C389.451 9.91862 400.645 16.7478 409.842 25.6384C419.32 34.8007 426.33 46.0973 430.593 58.5742C435.733 73.6211 436.503 89.6873 437.95 105.395C438.68 113.331 439.885 121.145 441.137 129.005L441.335 130.246C442.558 137.903 443.246 145.647 441.556 153.292C438.747 165.998 430.326 176.784 420.331 184.754C399.797 201.126 367.831 211.107 343.923 196.042C340.225 193.711 343.729 187.75 347.34 190.179C349.882 191.889 352.574 193.388 355.461 194.423C367.523 198.747 380.771 197.206 392.693 193.185C404.441 189.222 415.714 182.525 424.383 173.589C433.489 164.204 438.535 152.61 437.806 139.418C437.371 131.57 435.588 123.866 434.598 116.081C433.722 109.186 433.196 102.253 432.591 95.3305L432.369 92.8403C431.084 78.7355 429.239 64.2437 422.841 51.4405C417.459 40.6692 409.577 31.0866 400.101 23.6861C390.18 15.9382 378.33 10.5195 365.896 8.49833C351.275 6.1218 337.279 10.4435 325.082 18.4886C314.265 25.6236 304.965 35.1584 297.835 45.9771C294.377 51.2228 291.431 56.8248 288.887 62.5699C286.49 67.9829 284.837 73.656 282.909 79.2352C284.495 79.1878 286.108 79.2491 287.746 79.4306C296.145 80.364 303.971 84.7299 308.953 91.6141C315.041 100.026 313.396 110.352 315.774 119.919C315.958 120.662 315.645 121.389 315.011 121.8C311.405 124.137 306.579 124.215 303.09 121.583C300.061 119.299 298.639 115.169 299.865 111.561C300.025 111.091 300.708 111.174 300.727 111.678C300.958 117.819 306.638 122.547 312.206 119.625C309.817 111.376 311.074 102.162 306.189 94.7109C297.543 81.5228 279.652 80.9778 267.085 88.4123C260.471 92.3243 255.236 98.2067 251.338 104.786L250.215 106.696C248.721 109.248 247.139 112.135 246.829 114.946C246.65 116.568 247.247 118.092 249.102 117.275C250.603 116.614 251.765 115.072 252.656 113.746C254.177 111.486 257.67 113.439 256.415 115.846L256.372 115.925C254.544 119.172 253.419 122.751 253.212 126.48L253.16 127.512C253.125 128.265 253.101 129.335 253.259 129.374C253.45 129.421 254.772 127.889 254.992 127.677C256.053 126.656 257.146 125.82 258.623 125.548C260.564 125.191 262.522 127.6 260.837 129.18L260.767 129.243C259.263 130.554 259.33 133.169 260.991 134.395C263.336 136.126 266.222 133.301 266.563 130.975L266.574 130.89C266.875 128.377 270.355 128.288 270.544 130.89C270.954 136.536 264.252 141.268 259.152 138.42C257.136 137.294 255.854 135.233 255.452 133.023C254.808 133.364 254.114 133.601 253.38 133.666C250.99 133.879 249.291 132.193 248.904 129.931C248.454 127.296 248.721 124.474 249.413 121.737C248.115 122.051 246.75 121.931 245.377 121.137C241.225 118.734 242.418 113.389 243.985 109.78C250.678 94.3774 264.544 80.4011 281.723 79.2915C281.817 76.5739 282.184 74.0047 282.785 71.2835C288.661 44.6663 307.696 20.0194 332.476 8.49968C339.098 5.42126 346.121 3.35051 353.422 2.83327ZM288.436 109.159L288.671 109.105C291.349 108.527 298.394 107.847 297.545 112.366C297.505 112.578 297.197 112.552 297.142 112.366C296.31 109.525 290.66 111.797 289.01 112.481C286.736 113.423 284.493 114.813 282.636 116.43C278.57 119.968 275.845 124.956 275.431 130.372C275.02 135.745 276.574 141.549 280.438 145.436C282.333 147.341 284.751 148.634 287.467 148.729C289.908 148.814 292.604 146.909 294.856 148.025C295.3 148.245 295.651 148.849 295.611 149.346C295.536 150.287 295.116 151.019 294.491 151.588C298.261 158.478 301.346 165.771 306.155 172.037C308.569 175.181 311.303 178.092 314.4 180.57C315.871 181.748 317.472 182.782 319.122 183.691C321.055 184.757 322.729 185.424 324.109 187.23C325.285 188.77 324.108 191.748 322.168 192.014C317.6 192.638 313.161 188.934 309.807 186.159C306.456 183.386 303.56 179.966 301.167 176.337C296.571 169.369 293.428 161.149 292.171 152.832C290.711 153.296 289.068 153.438 287.832 153.441C284.544 153.448 281.403 152.262 278.819 150.257C269.358 142.917 268.306 127.849 274.983 118.346C278.178 113.799 283.033 110.439 288.436 109.159ZM288.495 126.636C290.689 126.443 292.881 126.79 294.943 127.54L295.793 127.849C297.589 128.508 299.5 129.282 300.797 130.632C302.778 132.696 300.806 136.271 297.983 135.48C294.863 134.606 292.326 131.97 289.207 130.864C286.418 129.876 283.26 130.016 280.785 131.718C280.458 131.943 280.028 131.499 280.242 131.173C282.135 128.282 285.124 126.932 288.495 126.636Z" fill="black"/>
<path fill-rule="evenodd" clip-rule="evenodd" d="M397.043 159.778C397.729 158.585 399.306 157.481 400.75 157.65C407.217 158.409 407.206 166.257 404.709 170.838C402.495 174.901 397.912 177.285 393.326 176.937C388.507 176.571 384.402 173.736 382.595 169.224C381.4 166.24 380.848 160.731 384.027 158.726C384.086 158.689 384.183 158.698 384.23 158.752C385.754 160.527 385.814 163.191 387.148 165.166C388.389 167.003 390.317 168.521 392.575 168.755C394.262 168.93 395.968 168.321 396.628 166.806C396.985 165.986 396.944 165.541 396.81 164.977L396.688 164.487C396.266 162.769 396.076 161.462 397.043 159.778ZM398.772 125.361C402.145 127.413 407.285 132.198 403.656 137.285C399.385 141.771 393.235 136.628 390.205 134.302C387.395 132.499 384.238 137.136 386.845 139.24C408.743 155.466 417.629 125.898 400.478 122.949C398.59 122.624 397.889 124.727 398.772 125.361ZM363.153 111.291C365.223 108.182 369.949 108.64 371.089 112.329C371.707 114.327 370.854 116.123 370.898 118.119C370.935 119.805 370.825 121.683 370.309 123.316C369.131 127.039 365.785 129.668 361.827 129.559C357.882 129.451 354.408 126.952 352.755 123.432C351.097 119.899 351.448 116.243 352.659 112.65C352.717 112.477 352.943 112.394 353.079 112.539C354.51 114.061 355.558 115.668 356.641 117.372L357.752 119.119C358.601 120.434 359.835 122.114 361.42 122.008L361.657 121.985C362.098 121.947 362.03 122.035 362.37 121.434C362.527 121.156 362.499 120.639 362.575 120.311L362.601 120.2L362.587 120.14C362.553 119.981 362.52 119.682 362.493 119.162L362.487 119.047C362.372 116.617 361.686 113.493 363.153 111.291ZM415.634 113.36C415.263 109.384 420.848 108.501 422.705 111.443C423.673 112.977 423.955 114.905 424.169 116.731L424.27 117.597C424.489 119.473 424.577 121.424 423.763 123.173C422.482 125.928 419.696 127.385 416.691 127.154C413.821 126.933 411.202 125.268 409.822 122.74C408.592 120.484 407.368 116.08 408.863 113.727C408.953 113.584 409.133 113.566 409.257 113.676C410.67 114.931 410.9 117.22 411.739 118.854C412.605 120.541 413.919 122.184 415.91 122.44C417.815 122.685 418.542 121.644 418.056 119.827C417.43 117.481 415.87 115.885 415.634 113.36ZM364.661 87.6518L365.575 87.3017C368.704 86.1185 373.001 84.7509 375.545 87.2978C377.115 88.8683 377.414 91.1818 376.293 93.0983C374.936 95.4198 372.501 95.477 370.15 95.819C367.475 96.208 364.756 96.9474 362.266 98.0016C359.461 99.1894 356.858 100.67 354.308 102.324C351.885 103.895 349.469 106.463 346.568 106.948C346.45 106.967 346.315 106.916 346.284 106.786C345.626 103.947 347.457 101.154 349.091 98.939C351.068 96.2576 353.463 94.0568 356.14 92.0835C358.725 90.1786 361.677 88.8021 364.661 87.6518ZM421.509 97.7448L421.788 97.6958C423.686 97.3797 425.406 97.4525 426.836 98.9567C427.927 100.104 428.348 101.592 427.828 103.109C427.348 104.509 426.274 105.931 424.715 106.224C419.454 107.215 413.626 107.051 408.338 106.301C405.919 105.958 403.478 105.537 401.122 104.875L400.037 104.56C398.07 103.998 395.818 103.41 394.389 101.962C393.875 101.442 394.171 100.697 394.786 100.456C397.279 99.4789 400.697 99.9988 403.356 99.9224C406.448 99.8339 409.546 99.6018 412.624 99.2822C415.632 98.9693 418.543 98.2893 421.509 97.7448Z" fill="black"/>
<path fill-rule="evenodd" clip-rule="evenodd" d="M450.641 91.3249C450.273 91.2637 449.905 91.206 449.537 91.1519C449.25 90.9888 448.913 90.8631 448.52 90.7876C447.625 90.56 446.735 90.4067 445.847 90.324C433.103 87.4535 403.619 91.5293 402.402 102.414C398.343 103.77 394.832 102.556 390.128 102.677C386.547 87.698 324.645 89.8121 321.668 98.8426C321.657 98.8395 321.645 98.8368 321.634 98.8332C318.773 97.9472 314.556 98.1608 311.282 98.0205C304.291 97.8738 297.292 98.4975 290.452 99.9732C277.643 102.01 260.163 104.395 269.071 120.404C269.072 120.406 269.074 120.409 269.076 120.412L269.077 120.411C270.613 121.986 273.218 120.717 273.315 118.585C270.32 111.002 277.085 110.091 282.289 107.912C295.24 103.255 308.425 102.609 321.819 104.05C322.827 105.237 324.356 106.273 325.972 106.814C334.927 108.302 330.208 114.951 335.869 115.918C334.829 139.094 362.943 151.745 379.233 136.51C385.737 130.145 387.288 120.717 388.796 112.219C389.593 112.04 390.1 111.604 390.396 111.026C392.314 109.11 393.518 107.341 397.31 106.814C401.102 106.289 404.021 107.344 404.416 107.667C404.516 107.868 404.622 108.069 404.747 108.271C404.92 108.57 405.156 108.81 405.424 108.998C401.679 132.077 419.581 146.672 437.653 134.702C445.506 127.309 447.165 115.991 447.493 105.888C448.557 105.245 449.231 103.999 448.863 102.433C448.355 100.274 449.546 98.404 451.443 97.4652C453.907 96.2461 453.471 91.7939 450.641 91.3249ZM372.987 102.274C370.743 101.78 369.785 105.241 372.036 105.737C373.629 106.087 374.98 106.891 375.892 108.254L375.988 108.402C377.213 110.352 380.309 108.552 379.076 106.589C377.689 104.381 375.533 102.834 372.987 102.274ZM438.687 100.128C437.896 99.5701 436.699 99.9839 436.24 100.772C435.735 101.639 436.066 102.605 436.807 103.173L436.882 103.228C437.562 103.707 438.223 104.566 438.306 105.446L438.314 105.557C438.403 107.86 441.979 107.872 441.89 105.557C441.803 103.292 440.493 101.4 438.687 100.128Z" fill="black"/>
</svg>
