<svg width="392" height="500" viewBox="0 0 392 500" fill="none" xmlns="http://www.w3.org/2000/svg">
<g clip-path="url(#clip0_30_423)">
<path fill-rule="evenodd" clip-rule="evenodd" d="M88.999 271.931C93.2472 270.562 97.3417 268.981 101.072 266.655C111.826 259.419 118.838 248.531 125.464 238.214C134.797 223.21 141.446 207.221 146.041 190.542C148.016 183.376 148.687 175.068 153.174 168.714C163.345 155.411 193.171 157.135 209.009 159.47C219.614 161.166 221.806 171.895 224.215 179.833C226.221 186.429 227.534 193.1 228.636 199.86C231.258 201.418 234.218 202.684 237.04 203.786C267.79 212.309 273.195 228.11 284.94 252.517C304.777 287.993 358.605 301.883 366.736 343.868C371.975 371.586 357.078 397.663 341.719 420.706C327.414 445.875 307.445 457.955 275.643 452.009C245.815 445.961 217.148 435.843 187.844 428.025C173.651 424.871 159.481 416.667 144.551 419.527C113.788 425.772 82.1807 428.708 50.6541 427.898C6.38986 429.516 6.39671 391.114 10.9399 361.376C14.1221 315.097 39.9466 285.381 88.999 271.931Z" fill="#AE5D29"/>
<path fill-rule="evenodd" clip-rule="evenodd" d="M86.0396 338.897C82.3408 341.108 79.23 344.46 76.7327 347.988C87.1584 347.007 97.566 345.877 107.951 344.59C106.591 343.805 105.219 343.037 103.815 342.312C98.6951 339.704 91.7573 335.48 86.0396 338.897ZM259.256 366.753C261.166 366.077 261.905 363.444 262.65 361.935C264.984 357.203 267.115 352.39 269.331 347.611C260.915 345.442 252.731 343.036 244.013 341.881C234.638 340.639 225.125 340.338 215.664 340.617C196.501 341.182 177.515 344.013 158.674 347.049C139.855 350.081 121.038 352.994 102.087 355.28C83.5208 357.52 64.8957 359.159 46.2359 360.598C42.6105 360.878 36.5655 362.056 33.6499 359.477C31.3414 357.435 31.2666 353.668 34.1553 352.007C35.9545 350.972 38.5614 350.957 40.617 350.718C43.2058 350.417 45.8049 350.217 48.4094 350.061C49.4705 349.998 50.5315 349.939 51.5931 349.881C43.0728 346.977 34.1738 345.394 24.9369 345.835C24.4144 348.703 22.0609 351.655 20.7729 354.02C18.5236 358.15 16.7703 362.33 15.6192 366.821C13.2133 376.208 13.1087 385.95 13.7882 395.523C14.4124 403.506 15.7532 412.335 22.6802 417.988C27.9249 422.269 35.3244 423.853 42.1893 424.352C50.168 424.931 58.2701 424.312 66.1818 423.346C77.2787 421.99 88.4274 420.196 99.3061 417.792C120.376 413.137 140.572 405.73 159.205 395.687C168.292 390.79 176.962 385.28 186.174 380.569C195.56 375.768 205.547 372.044 216.035 369.731C227.771 367.143 240.04 366.038 252.102 366.677C254.196 366.787 257.22 367.474 259.256 366.753ZM272.856 361.948C271.623 365.565 270.679 369.696 268.047 372.735C265.44 375.747 261.506 376.81 257.431 377.078C252.518 377.401 247.546 377.194 242.622 377.359C232.523 377.699 222.562 379.181 212.907 381.901C203.91 384.436 195.558 388.39 187.513 392.776C180.073 396.833 172.851 401.188 165.409 405.232C167.39 406.053 169.348 406.941 171.317 407.714C175.447 409.335 179.602 410.899 183.776 412.424C192.007 415.431 200.272 418.365 208.622 421.09C225.459 426.586 242.573 431.388 259.893 435.478C268.154 437.429 276.532 439.707 285.114 440.032C292.724 440.319 299.772 438.375 305.91 434.285C318.64 425.802 328.767 413.559 336.954 401.481C341.819 394.306 346.063 386.767 349.574 378.972C351.35 375.03 352.96 371.027 354.41 366.977C355.09 365.076 355.735 363.164 356.345 361.243C356.614 360.399 356.871 359.551 357.126 358.703C344.109 355.113 330.937 351.872 317.457 350.072C310.259 349.112 302.966 348.625 295.69 348.696C292.078 348.731 288.468 348.907 284.875 349.244C282.942 349.426 281.016 349.659 279.098 349.948C278.306 350.067 277.491 350.243 276.674 350.373C275.426 354.238 274.168 358.1 272.856 361.948ZM3.77924 346.58C3.07774 345.297 2.78178 344.035 2.53034 342.639C2.33857 341.574 1.82981 340.074 2.27547 338.691C2.77445 337.142 4.13392 335.757 5.10986 334.436C6.18756 332.976 7.26427 331.515 8.33951 330.053C10.4905 327.13 12.6366 324.204 14.7793 321.275C23.5295 309.318 32.22 297.327 40.9242 285.343C48.6486 274.708 56.2429 263.978 64.2025 253.486C71.0087 244.514 78.4273 235.69 87.7435 228.713C99.5228 219.89 113.549 215.734 128.2 212.491C129.8 210.99 131.937 210.17 134.222 210.336C137.449 207.028 140.015 204.716 141.178 200.509C141.735 198.493 141.56 192.83 143.732 191.637C146.311 190.221 147.658 192.096 148.37 194.209C150.75 201.28 148.018 210.786 141.732 217.868C144.38 226.142 147.892 237.9 154.156 244.528C160.864 251.626 170.14 253.835 180.149 253.981C199.237 254.258 218.304 247.846 232.863 236.733C237.288 233.356 241.398 229.584 245.116 225.572C247.905 222.562 251.204 217.917 253.386 214.406C253.386 213.038 255.173 211.607 236.978 210.501C218.784 209.396 217.404 186.877 216.999 183.812C216.671 181.324 215.272 177.461 217.213 175.432C218.036 174.57 219.726 174.431 220.769 175.016C222.738 176.121 223.385 178.947 224.004 180.866C224.87 183.554 227.704 200.236 233.074 202.167C235.588 203.071 238.471 203.088 241.131 203.255C244.415 203.463 247.705 203.614 250.976 203.96C252.183 204.087 253.498 204.44 254.689 204.45C255.463 204.457 256.262 204.117 257.01 203.878C259.537 203.071 262.061 203.676 264.663 203.992C287.673 206.787 311.365 213.167 330.992 224.645C348.291 234.762 360.478 249.312 368.52 266.324C376.725 283.685 381.428 302.458 385.369 320.94C386.69 327.132 387.843 333.353 388.833 339.595C389.791 345.627 390.988 351.794 391.275 357.887C391.389 360.297 390.751 362.537 389.77 364.739C388.666 367.218 386.055 368.195 383.551 369.352C378.054 371.894 372.255 373.865 366.28 375.261C362.63 381.263 359.559 387.499 357.09 393.971C358.006 395.611 358.025 398.06 358.201 399.654C358.638 403.624 358.825 407.614 358.864 411.601C358.943 419.594 358.411 427.578 357.994 435.558C357.572 443.652 356.167 475.586 355.938 479.485C355.76 482.515 355.999 486.752 354.234 489.442C351.521 493.575 344.825 493.436 341.723 490.084C264.663 505.058 119.813 500.548 61.4743 493.014C53.8839 492.034 56.2673 493.121 54.3369 491.388C52.8884 490.086 51.6557 487.857 51.255 486.066C50.7198 483.675 51.5838 481.511 53.0983 479.576C54.6906 477.542 54.9807 474.247 55.5722 471.829C56.9708 466.111 57.6659 440.999 58.3195 438.217C58.523 437.35 58.7201 436.433 58.9579 435.516C48.2568 436.432 37.1066 436.432 26.926 433.197C21.153 431.362 15.7689 428.481 11.6245 424.366C6.60631 419.384 3.81447 413.112 2.37869 406.566C0.526112 398.124 0.132807 389.38 0.496768 380.799C1.00259 370.657 2.86347 360.372 7.48244 351.06C5.96251 349.785 4.68865 348.245 3.77924 346.58Z" fill="black"/>
<path fill-rule="evenodd" clip-rule="evenodd" d="M183.61 5.86304C155.892 5.86304 127.222 25.3243 117.062 37.743C105.313 52.1028 96.0457 121.037 100.393 144.428C104.741 167.819 126.337 193.314 163.827 193.314C201.317 193.314 224.132 189.131 225.047 183.056C225.657 179.005 233.9 165.708 249.775 143.162C266.011 139.026 274.161 132.017 274.225 122.136C274.288 112.255 269.937 105.517 261.174 101.922C264.298 62.9283 261.926 38.3551 254.056 28.2029C242.251 12.9745 211.328 5.86304 183.61 5.86304Z" fill="#AE5D29"/>
<path fill-rule="evenodd" clip-rule="evenodd" d="M197.722 0.000128315L197.228 0.00209342C166.56 0.181574 135.368 12.9645 117.123 35.2947L116.574 35.9742C116.544 36.0096 115.998 36.7458 115.869 36.9556C115.113 38.1849 114.222 39.3352 113.538 40.5854C112.961 41.6466 112.578 42.8321 112.154 43.9625L112.025 44.2997C110.936 47.1208 110.019 49.9685 109.208 52.8648C107.636 58.5026 106.411 64.2288 105.22 69.9418C100.963 90.3989 98.1791 111.148 96.7765 131.925L96.4997 136.102C96.2168 140.435 96.0028 144.787 96.5401 149.105C97.1605 154.133 98.7563 158.851 101.173 163.405C103.399 167.606 106.27 171.497 109.554 175.075C111.312 176.989 113.177 178.851 115.471 180.252C117.297 181.367 119.43 182.101 121.486 182.808C124.829 185.833 129.12 188.119 133.313 189.945C140.226 192.948 147.719 194.606 155.3 195.437C163.052 196.281 170.882 196.078 178.571 194.871C185.918 193.721 193.792 190.781 198.317 185.178C198.707 184.696 197.981 184.241 197.502 184.44C184.37 189.945 169.614 191.382 155.3 189.644C148.623 188.835 142.052 187.164 135.954 184.568C130.809 182.379 126.47 179.196 121.852 176.313C120.953 175.229 120.046 174.164 119.01 173.173L117.395 171.639C116.188 170.486 115.002 169.318 113.924 168.057C110.594 164.17 107.837 159.762 106.015 155.123C102.473 146.094 103.431 136.293 104.057 126.884L104.111 126.054C104.756 115.99 105.806 105.962 107.26 95.9685C108.715 85.962 110.565 75.9952 112.752 66.0992C113.831 61.222 115.042 56.3757 116.111 51.4984C116.663 48.9824 117.048 46.431 117.468 43.8885C117.722 42.3409 117.717 40.8507 117.722 39.3385C117.77 39.4092 117.829 39.4755 117.888 39.5419C117.712 39.9177 117.834 40.3997 118.263 40.6208C119.889 41.4609 121.763 41.1779 123.594 41.1824C125.537 41.1912 127.48 41.1956 129.423 41.2C131.447 41.2067 133.47 41.2067 135.493 41.2039L141.564 41.1912L165.845 41.1249C181.747 41.0817 197.918 41.6544 213.768 40.2966L214.978 40.1884C216.224 40.0585 230.28 38.5014 234.081 38.0993L234.197 38.0871C241.144 37.3619 247.992 36.2874 254.744 34.6779C252.538 35.4782 250.414 36.5572 248.227 37.3752C245.405 38.4276 242.511 39.3473 239.615 40.2273C233.675 42.0358 227.724 43.7912 221.808 45.6572C220.111 46.1913 216.257 59.3541 215.285 61.4364L215.257 61.4961C214.764 62.4999 214.085 63.6009 214.461 64.7417C215.29 67.2622 219.689 69.1282 221.871 70.552L224.114 72.0184L227.048 73.9409C228.251 74.7216 229.362 75.3189 230.936 74.8721C230.941 74.8677 230.946 74.8677 230.951 74.8677C229.603 80.532 228.949 98.8515 228.749 102.066C228.574 104.865 227.666 108.451 229.111 111.003C229.452 111.608 230.34 112.086 231.098 112.037C234.397 111.812 237.697 111.591 240.997 111.37C241.881 111.308 242.686 110.852 242.931 110.039L242.94 109.994C243.047 110.021 243.169 110.003 243.272 109.906C243.452 109.742 243.638 109.583 243.829 109.428C248.173 105.918 254.968 105.051 260.329 106.877C263.14 107.832 266.337 109.442 268.32 111.529C270.521 113.846 270.994 117.083 271 120.041C271.01 125.745 268.734 131.52 264.092 135.477C259.827 139.11 254.323 140.167 248.786 141.207L248.192 141.319C246.929 141.557 246.528 143.264 247.48 143.98C244.946 146.227 242.759 148.906 240.626 151.378C237.793 154.657 235.084 158.066 232.449 161.483L231.177 163.136C226.643 168.997 220.081 177.069 222.935 184.396C223.316 185.382 224.907 185.736 225.528 184.701C227.563 181.296 228.701 177.546 230.634 174.102C232.532 170.724 234.895 167.593 237.239 164.462L238.59 162.648C240.841 159.618 243.07 156.555 245.137 153.434L246.576 151.273C247.928 149.233 249.266 147.124 250.263 144.931C256.926 146.386 264.17 143.149 268.852 138.838C274.739 133.408 277.507 125.409 276.746 117.887C276.345 113.952 275.061 110.145 271.879 107.315C271.556 107.032 271.219 106.762 270.872 106.492C270.994 106.435 271.097 106.347 271.146 106.24C273.28 101.651 273.734 96.1808 273.914 91.2372C274.104 86.1256 273.982 81.0007 273.553 75.8979C272.767 66.5414 270.902 57.2335 267.943 48.2396C263.565 34.9476 256.042 21.9342 244.024 13.0155C231.207 3.50297 214.037 -0.0245336 197.722 0.000128315ZM261.519 116.26C259.709 115.516 256.886 116.841 255.274 117.686L255.169 117.741C250.409 120.249 247.021 124.52 245.454 129.251C244.449 132.303 250.097 133.518 250.575 130.529C250.965 128.093 251.864 125.811 253.342 123.773C253.694 123.879 254.036 124.016 254.343 124.193C255.52 124.883 256.204 126.068 257.838 125.891C259.05 125.763 260.289 125.002 260.206 123.746C260.074 121.672 258.229 120.846 256.252 120.739C256.534 120.511 256.819 120.284 257.11 120.066L257.43 119.834C257.791 119.597 261.66 117.18 261.771 117.802L261.773 117.839C261.769 118.086 262.135 118.228 262.32 118.042C263.067 117.317 262.373 116.614 261.519 116.26Z" fill="black"/>
<path fill-rule="evenodd" clip-rule="evenodd" d="M152.274 161.363C155.563 160.151 158.497 158.128 160.642 155.544C161.388 154.646 161.581 153.697 161.425 152.83C161.249 151.854 160.61 150.97 159.74 150.377C158.866 149.782 157.774 149.489 156.717 149.638C155.799 149.768 154.886 150.222 154.163 151.165L154.011 151.353C152.736 152.912 151.074 154.192 149.181 155.017C147.356 155.812 145.314 156.183 143.202 155.967C139.179 155.556 136.406 153.59 133.459 150.919C133.093 150.582 132.728 150.234 132.361 149.881C132.129 149.56 131.807 149.355 131.449 149.247C131.052 149.127 130.603 149.133 130.192 149.263C129.796 149.388 129.441 149.625 129.203 149.941C128.977 150.241 128.849 150.611 128.891 151.037C129.161 153.805 130.762 156.275 133.035 158.214C135.561 160.369 138.908 161.859 142.06 162.381C145.532 162.957 149.07 162.545 152.274 161.363ZM140.422 118.667C136.728 120.696 131.099 125.429 135.073 130.461C139.751 134.897 146.486 129.81 149.805 127.51C152.882 125.727 156.34 130.312 153.485 132.394C129.503 148.443 119.77 119.197 138.554 116.28C140.622 115.959 141.39 118.039 140.422 118.667ZM183.398 99.9974C182.99 95.418 175.274 94.3781 174.507 98.9096C173.819 102.969 174.629 106.698 176.651 110.352C178.584 113.844 183.442 112.215 183.81 109.036C184.302 104.774 183.652 102.846 183.398 99.9974ZM124.664 97.97C123.588 96.6965 122.035 95.8272 120.174 96.3185C114.36 97.8542 116.074 105.315 118.116 108.947C119.225 110.919 122.811 111.419 124.432 109.682C127.074 106.851 128.339 101.196 124.98 98.4064C124.889 98.2623 124.788 98.1168 124.664 97.97ZM176.733 79.9596L175.815 79.8143C172.974 79.3701 169.441 78.9433 167.431 81.008C166.365 82.1028 165.998 84.1377 167.431 85.1857C169.952 87.0296 172.738 86.315 175.758 86.4711C178.247 86.6002 180.639 86.9725 183.037 87.592C188.297 88.9509 192.583 91.4315 197.075 94.1553C197.664 94.5126 198.266 93.8312 197.985 93.3329C195.392 88.7417 190.366 84.9704 185.332 82.6715C182.646 81.4444 179.706 80.4265 176.733 79.9596ZM129.964 77.9029L129.261 78.033C121.611 79.4783 111.673 82.3654 108.05 89.1571C107.912 90.1174 108.058 90.3233 108.177 90.4577L108.216 90.5025C108.314 90.6173 108.392 90.7756 108.852 90.9063C108.98 90.8788 109.109 90.8496 109.24 90.8188C110.9 90.4254 112.214 89.8836 113.486 89.3213L114.865 88.7072C116.465 87.9981 118.079 87.3148 119.789 86.8104C123.44 85.7342 127.194 84.976 131.007 84.5712C131.834 84.4835 132.63 84.2314 133.257 83.7993C133.853 83.3892 134.309 82.8213 134.516 82.0666C134.785 81.0898 134.708 80.3502 134.128 79.469C133.692 78.8072 133.068 78.3485 132.352 78.0851C131.622 77.8166 130.79 77.7533 129.964 77.9029Z" fill="black"/>
</g>
<defs>
<clipPath id="clip0_30_423">
<rect width="390.914" height="500" fill="white" transform="translate(0.374023)"/>
</clipPath>
</defs>
</svg>
