<svg width="392" height="500" viewBox="0 0 392 500" fill="none" xmlns="http://www.w3.org/2000/svg">
<path fill-rule="evenodd" clip-rule="evenodd" d="M31.4708 320.462C33.071 316.832 30.7344 313.211 29.4383 309.699C24.8338 297.519 37.428 266.798 46.2362 266.349C49.4574 259.462 58.0547 256.606 64.8212 252.64C72.4997 248.679 79.969 244.131 87.9546 240.659C88.3987 237.378 93.2126 236.565 96.1562 238.912C104.241 234.756 113.937 235.528 122.603 232.805C129.189 224.009 129.683 214.76 131.426 206.274C132.186 202.575 131.379 199.006 134.437 195.708C144.712 183.767 185.311 178.589 200.279 185.666C208.337 181.513 208.531 189.034 209.811 193.675C211.233 195.997 212.003 198.627 211.765 201.398C215.58 207.982 218.814 216.217 226.83 221.134C237.002 227.374 252.652 229.745 262.569 232.805C264.052 231.626 265.021 230.184 265.474 228.479C280.845 231.24 295.762 236.093 308.64 243.672C323.271 247.208 333.575 257.041 341.026 267.585C341.847 268.696 342.04 269.829 341.8 270.87C364.713 298.624 375.648 331.85 377.184 365.407C391.919 372.714 370.181 438.358 365.121 451.986C365.116 451.984 365.111 451.982 365.105 451.98C361.823 456.783 358.095 470.487 349.879 469.427C344.243 474.693 335.262 473.658 327.614 474.062C328.86 478.01 328.248 482.528 326.765 486.43C325.012 491.074 316.407 491.232 315.186 486.168C239.025 498.395 160.88 488.639 83.863 490.475C61.5948 490.605 39.3287 491.175 17.114 492.486C13.9859 492.67 10.8146 490.029 11.0274 487.455C15.8036 445.466 20.2889 390.229 25.6298 348.652C26.8964 339.169 27.8982 329.583 31.4708 320.462Z" fill="#EDB98A"/>
<path fill-rule="evenodd" clip-rule="evenodd" d="M265.474 228.479C265.449 228.572 265.423 228.665 265.395 228.758L265.686 229.303C267.531 232.82 268.454 235.732 268.454 238.039C268.454 243.299 240.125 295.346 177.279 290.563C135.381 287.374 109.843 271.645 100.664 243.377L100.127 237.269C98.7696 237.714 97.4426 238.251 96.1564 238.912C93.2127 236.565 88.3989 237.378 87.9548 240.659C79.9691 244.131 72.4999 248.679 64.8213 252.64L64.3519 252.911C57.6625 256.739 49.3836 259.621 46.2364 266.349L44.9763 266.416C36.5653 266.871 24.834 297.519 29.4384 309.699C30.7346 313.211 33.0712 316.832 31.471 320.462C27.8984 329.583 26.8966 339.169 25.63 348.652C20.2891 390.229 15.8038 445.466 11.0277 487.455C10.8148 490.029 13.9931 492.249 17.1142 492.486C81.7436 497.383 325.012 493.6 326.765 488.955C328.248 485.053 328.86 478.01 327.614 474.062C335.262 473.658 344.243 474.693 349.879 469.427C358.095 470.487 361.823 456.783 365.105 451.98L365.121 451.986C370.181 438.358 391.919 372.715 377.184 365.407C375.648 331.85 364.713 298.624 341.8 270.87C342.03 269.873 341.862 268.791 341.125 267.724L341.026 267.585C333.575 257.041 323.271 247.208 308.64 243.672C295.762 236.093 280.845 231.24 265.474 228.479ZM79.3478 316.342C82.6369 314.234 108.48 318.449 127.259 322.238C139.779 324.764 148.501 328.179 153.424 332.483L175.462 352.471L181.039 355.45C181.039 361.673 180.609 368.216 179.748 375.081C178.888 381.947 175.097 389.211 168.375 396.875C148.568 392.378 136.725 389.827 132.844 389.22C127.024 388.309 122.414 380.413 119.678 377.699C116.943 374.985 106.451 374.683 98.4572 372.592C93.128 371.198 89.4215 367.637 87.3378 361.909C75.6896 359.832 67.9894 358.446 64.2373 357.753C60.4851 357.06 60.4851 355.299 64.2373 352.471L107.86 351.21C90.4491 348.135 79.8789 346.386 76.1495 345.963C70.5554 345.328 55.5283 341.472 55.5283 338.485C55.5283 335.558 78.4045 335.611 90.5984 335.614L91.5799 335.615C99.5857 335.627 112.348 336.247 129.868 337.474L119.678 333.442C96.6893 329.763 83.6623 327.924 80.5969 327.924C77.5316 327.924 75.3601 326.029 74.0822 322.238C75.3999 319.712 77.1551 317.747 79.3478 316.342Z" fill="#FFCF77"/>
<path fill-rule="evenodd" clip-rule="evenodd" d="M107.57 317.041L85.1845 275.141C82.9295 270.395 79.8875 268.022 76.0585 268.022C72.2295 268.022 52.9547 268.471 18.2343 269.369C11.1286 270.118 8.72302 272.042 11.0174 275.141C13.3117 278.239 31.5171 308.619 65.6336 366.279H87.3376V361.909L63.1744 356.327C60.2425 353.756 61.0622 352.471 65.6336 352.471C70.2049 352.471 85.7884 352.051 112.384 351.21L74.3447 346.598L55.5281 340.618L58.2959 337.474L74.3447 335.58L126.609 337.474L112.384 333.499L80.5968 327.924C76.4287 325.499 74.3447 323.097 74.3447 320.718C74.3447 318.34 79.9274 316.693 91.0928 315.778L107.57 317.041Z" fill="white"/>
<path fill-rule="evenodd" clip-rule="evenodd" d="M208.555 188.257C208.336 187.765 207.446 187.83 207.429 188.383C207.078 200.189 210.635 214.616 222.068 222.591C227.936 226.684 235.695 228.558 242.821 230.711L243.624 230.956L256.213 234.831C259.552 235.859 263.154 237.44 266.103 235.988C263.716 240.878 261.713 245.903 258.806 250.616C255.188 256.483 250.814 261.851 245.46 266.733C224.25 286.075 190.683 291.975 160.56 286.308C145.049 283.389 129.955 277.858 119.372 267.771C111.33 260.103 106.709 249.811 105.62 239.66C105.938 239.702 106.272 239.7 106.615 239.638C110.426 238.951 114.274 237.263 117.628 235.607L117.951 235.447C121.177 233.842 124.541 232.003 126.856 229.509C128.39 227.858 129.961 224.339 131.57 218.953C132.228 215.917 132.844 209.868 132.739 206.799C132.729 206.509 131.174 206.338 131.008 206.639C129.572 209.245 129.107 214.97 127.998 217.681L127.774 218.223C126.59 221.055 125.575 224.503 123.119 226.792C118.51 231.091 111.555 232.911 105.347 235.067C104.902 230.208 95.5102 230.321 95.6294 235.389C95.636 235.664 95.6508 235.937 95.6625 236.211C94.9219 236.548 94.2096 236.932 93.5438 237.304L92.894 237.668C90.4352 239.05 87.9575 240.364 85.3392 241.536C80.2702 243.807 74.9039 245.607 69.7101 247.668C64.4558 249.753 59.5417 252.237 54.9535 255.21C52.7985 256.607 50.7321 258.094 48.7723 259.674L48.2405 260.107C46.375 261.642 43.9477 263.359 42.8848 265.376C42.6506 265.821 41.4769 266.856 40.8401 266.89C30.9721 267.425 21.1251 268.18 11.3191 269.312C8.78027 269.605 7.77674 270.686 8.71515 272.435C11.94 278.443 24.5647 302.441 27.9219 308.881C27.5297 313.612 28.0594 319.182 27.706 323.914C27.189 330.821 26.5122 337.724 25.7009 344.611C22.798 369.246 18.3972 393.761 14.4206 418.289C12.4303 430.564 10.6157 442.858 8.82457 455.154C7.92007 461.367 7.15257 467.588 6.5618 473.828C6.31571 476.428 6.09243 479.03 5.89562 481.633L5.72603 483.942C5.49252 486.848 4.95366 489.623 7.12965 492.117C8.11615 493.248 10.3693 493.885 11.6664 492.6C13.2972 490.984 13.9032 489.777 14.0591 487.655C14.1782 486.03 14.2067 484.398 14.2964 482.772C14.4899 479.247 14.7333 475.724 15.0185 472.203C15.5874 465.164 16.2368 458.126 16.989 451.098C19.6256 426.456 24.6365 402 27.9708 377.419C29.6515 365.026 30.8452 352.611 31.4773 340.15C31.7935 333.927 31.9081 327.705 31.8338 321.477C31.8058 319.15 31.6723 316.835 31.4793 314.524C36.4744 323.901 41.7257 333.188 47.2158 342.351L48.5172 344.521C51.9964 350.313 55.5692 356.126 59.7507 361.586L60.4693 362.517C62.1636 364.735 64.4778 368.231 67.567 368.931C69.7188 369.419 72.3483 369.076 74.5545 369.041C76.7439 369.006 78.9359 368.999 81.1238 368.925C83.5781 368.844 85.9198 368.577 88.2916 368.049C88.6857 367.961 89.0586 367.866 89.3983 367.745C91.7878 370.976 95.8479 373.437 99.9991 374.871C103.324 376.02 106.809 376.807 110.3 377.536L111.532 377.791C115.274 378.562 119.555 378.928 121.666 381.914L122.156 382.606C123.725 384.809 125.231 386.744 127.828 388.323C130.623 390.024 133.935 391.093 137.234 391.926C140.612 392.778 144.069 393.43 147.499 394.128L148.434 394.32C150.698 394.789 152.983 395.218 155.234 395.728C156.194 395.945 157.171 396.169 158.114 396.437C159.217 396.75 160.018 397.239 160.889 397.771C161.671 400.029 165.015 401.256 167.764 401.098C169.207 401.016 170.503 400.611 171.681 400.017C173.738 401.464 176.003 402.76 178.1 404.101C181.036 405.978 183.984 407.842 186.948 409.688C193.059 413.495 199.217 417.251 205.439 420.933C216.483 427.469 227.766 433.705 239.241 439.711C244.026 442.215 248.843 444.715 253.707 447.155L253.188 447.314L252.159 447.636C249.725 448.386 247.013 449.6 246.541 451.946C246.167 453.807 247.425 455.09 249.649 455.317C252.291 455.587 254.348 454.044 255.993 452.571C256.72 451.922 257.533 451.318 258.228 450.649C258.512 450.376 258.73 450.061 258.922 449.731C263.722 452.069 268.574 454.328 273.502 456.44L274.736 456.965C286.957 462.129 298.853 467.787 311.178 472.804C314.393 474.113 318.313 475.529 322.399 476.495C321.315 479.968 321.332 483.781 321.304 487.306C321.278 490.741 327.884 490.724 327.745 487.306L327.678 485.655C327.557 482.879 327.361 479.997 326.564 477.296C338.603 478.946 350.629 475.36 352.869 474.283C355.34 473.096 357.584 471.195 359.451 469.432C363.446 465.658 366.219 461.135 368.678 456.585C373.947 446.839 377.681 436.422 380.41 426.005C390.472 387.596 386.144 346.486 369.803 309.668C365.721 300.469 360.901 291.472 355.378 282.801L354.692 281.729C349.18 273.155 343.055 264.613 335.274 257.316C327.169 249.716 317.171 243.805 306.285 239.217C300.973 236.978 295.507 235.037 289.92 233.318C289.022 233.041 288.119 232.794 287.213 232.557C281.391 229.49 274.325 226.556 267.257 226.671C266.777 226.679 266.388 226.829 266.097 227.056C265.757 227.105 265.416 227.165 265.075 227.247C264.321 227.428 263.526 228.11 263.634 228.811L263.671 229.044C263.69 229.158 263.716 229.268 263.759 229.375C263.506 229.406 263.258 229.456 263.015 229.524C256.252 227.946 249.598 225.533 242.999 223.586L241.496 223.147C235.969 221.547 230.298 219.978 225.764 216.81C221.253 213.659 217.861 209.577 215.409 205.164C212.388 199.728 211.035 193.838 208.555 188.257ZM73.1554 474.99C71.8165 474.167 70.2331 475.122 69.7319 476.141C68.0869 479.485 68.8997 484.681 71.2185 487.637C73.6214 490.7 79.3728 489.491 79.5118 485.781C79.657 481.912 76.9353 477.315 73.1554 474.99ZM59.324 382.661C59.2038 382.227 58.3869 382.231 58.2647 382.661C57.1499 386.585 57.1759 390.81 56.8485 394.833L56.8107 395.279C56.418 399.715 56.088 404.163 55.8527 408.607C55.3907 417.35 54.8387 426.094 54.2199 434.83C53.9128 439.162 53.5838 443.494 53.2329 447.825C52.1338 447.318 51.0017 446.874 49.8283 446.482C48.0702 445.895 46.3585 445.827 44.4696 445.843C42.1691 445.863 40.437 447.535 40.7415 449.397C41.0736 451.425 43.2345 452.294 45.4784 452.005C47.9638 451.683 50.4598 451.185 52.9691 450.979C52.6895 454.327 52.4007 457.675 52.0946 461.02C51.6887 465.449 51.1596 469.873 50.7878 474.305C50.7521 474.727 50.7139 475.15 50.6747 475.575C49.1784 474.932 47.5894 474.603 45.7886 474.198L45.3201 474.089C42.7055 473.469 39.9083 472.611 37.4882 474.063C35.8615 475.04 35.5366 476.648 36.8842 477.936C38.9274 479.891 41.9506 479.512 44.7729 479.412L46.2913 479.366C47.7223 479.32 49.0425 479.244 50.3651 478.946C50.1222 481.832 49.9943 484.73 50.4226 487.574C50.6543 489.112 53.1035 489.515 53.7518 487.946C55.4452 483.848 55.7951 479.428 56.4149 475.134C56.9937 471.125 57.3455 467.086 57.7246 463.059L57.8394 461.851C58.6919 452.99 59.3739 444.125 59.872 435.246C60.3706 426.369 60.67 417.493 60.7892 408.607C60.8434 404.572 60.7624 400.523 60.5713 396.489L60.5106 395.279C60.2906 391.13 60.4444 386.727 59.324 382.661ZM283.118 475.644C283.053 475.077 282.503 474.373 281.686 474.461C280.932 474.542 280.156 474.503 279.411 474.606C278.428 474.74 277.636 475.22 276.722 475.523C275.235 476.014 273.615 476.268 272.089 476.669C269.227 477.424 267.668 479.913 268.853 482.238C270.099 484.682 273.231 485.237 275.937 484.211C278.07 483.403 279.659 482.111 281.094 480.616L281.5 480.189C282.118 479.547 282.819 478.83 283.079 478.052C283.331 477.294 283.206 476.416 283.118 475.644ZM144.083 464.155C140.519 463.741 137.474 464.747 134.176 465.697L133.908 465.773C130.551 466.731 125.653 467.394 123.933 470.233C122.895 471.945 123.701 474.218 126.144 474.725C130.012 475.526 133.481 473.19 136.68 471.617L136.848 471.535C139.935 470.041 143.122 468.785 145.093 466.207C145.619 465.519 145.163 464.281 144.083 464.155ZM268.512 229.914C269.94 230.178 271.368 230.411 272.795 230.636C278.221 233.04 283.489 235.534 289.091 237.675C295.036 239.947 300.958 242.294 306.605 245.042C318.012 250.595 327.416 257.815 335.187 266.666C348.61 281.953 358.594 299.583 365.74 317.471C367.576 322.066 369.219 326.714 370.673 331.4C368.103 329.436 365.06 328.229 361.649 327.195C360.203 326.757 358.403 327.498 357.67 328.533C357.341 328.997 357.155 329.457 357.189 330.002C357.265 331.205 358.212 332.571 359.775 332.809C363.42 333.365 366.965 334.445 370.479 335.396C371.012 335.541 371.47 335.486 371.835 335.316C375.325 347.529 377.507 359.993 378.281 372.532C378.934 383.147 378.531 393.846 377.108 404.447C376.015 404.041 374.945 403.66 373.746 403.429C372.191 403.13 370.662 402.767 369.145 402.356C364.769 401.17 362.772 407.141 367.246 408.051C368.911 408.389 370.586 408.67 372.282 408.876C373.761 409.056 375.068 408.976 376.462 408.789C375.397 415.402 373.943 421.968 372.09 428.44L371.681 429.857C369.275 438.123 366.47 446.467 362.413 454.279C360.423 458.111 357.789 461.75 354.536 464.946C352.938 466.517 351.164 467.863 349.23 469.139C347.619 470.202 342.145 472.506 335.662 472.506C329.179 472.506 327.424 471.999 324.153 471.069C317.685 469.229 311.543 466.292 305.477 463.676L304.85 463.406C302.167 462.26 299.495 461.096 296.83 459.922C297.166 457.677 296.577 455.791 295.161 453.717C293.631 451.474 289.839 452.591 289.557 454.886L289.548 454.974C289.505 455.491 289.4 456.018 289.27 456.544C271.449 448.477 254.006 439.846 236.841 430.851C225.783 425.057 214.844 419.09 204.064 412.949C198.675 409.879 193.334 406.753 188.045 403.567C185.274 401.897 182.516 400.215 179.771 398.517C178.628 397.81 177.506 397.068 176.36 396.357C176.639 396.069 176.91 395.782 177.173 395.497C181.452 390.868 184.228 385.35 185.612 379.657C186.447 376.222 186.85 372.656 186.973 369.154L187.027 367.631C187.112 365.065 187.134 362.38 186.562 359.894C187.34 360.248 188.136 360.595 188.929 360.966C191.774 362.298 194.622 363.627 197.475 364.95C203.187 367.597 208.916 370.215 214.718 372.726C225.081 377.213 235.546 381.48 246.293 385.305L251.523 387.168C260.599 390.394 269.749 393.561 279.186 395.959C284.508 397.311 292.489 398.985 297.888 400.017C293.55 403.395 292.951 405.664 296.09 406.826C300.799 408.569 304.7 401.884 304.855 401.279C306.513 401.565 309.71 402.055 314.445 402.748C321.194 403.824 327.738 405.956 333.771 408.684C335.868 409.632 336.452 407.79 334.23 406.506C327.733 402.753 320.154 400.629 312.334 398.846L311.95 398.759C309.081 398.11 306.218 397.433 303.36 396.732C303.674 395.792 303.856 394.818 303.819 393.743C303.739 391.349 303.483 388.946 303.329 386.554C303.006 381.532 302.594 376.526 302.111 371.514C301.926 369.583 301.718 367.647 301.48 365.712C303.013 365.033 304.334 364.132 306.043 363.689L306.331 363.619C308.158 363.212 307.542 361.267 305.919 361.1C304.448 360.95 302.985 361.019 301.536 361.276C301.311 361.317 301.099 361.362 300.896 361.412C300.63 359.621 300.334 357.833 299.999 356.056C299.111 351.36 298.483 346.413 296.635 341.901C296.498 341.567 295.898 341.447 295.675 341.797C292.987 346.023 292.894 351.206 292.591 355.912L292.553 356.474C292.196 361.607 292.176 366.791 292.291 371.932C292.409 377.229 292.629 382.513 292.916 387.806C293.032 389.938 293.027 392.149 293.467 394.187C277.471 389.89 261.758 384.747 246.697 378.657C236.073 374.361 225.54 369.893 215.128 365.258C209.91 362.936 204.669 360.651 199.457 358.32C197.631 357.503 195.807 356.683 193.983 355.862L191.248 354.63C188.688 353.475 186.551 352.327 183.57 352.246C182.681 352.222 181.884 352.566 181.318 353.086C179.716 352.147 177.864 351.571 175.921 351.584C172.996 348.245 170.025 344.934 166.937 341.694L164.655 339.295C160.706 335.157 156.523 330.956 151.488 327.806C149.24 326.401 146.768 325.347 144.19 324.476C144.797 324.353 145.391 324.107 145.92 323.701C148.382 321.815 148.721 318.31 149.221 315.678C149.74 312.948 149.54 310.504 149.027 307.783C148.828 306.725 146.709 306.505 146.191 307.476C145.101 309.524 143.946 311.487 142.954 313.558L142.661 314.183C141.596 316.515 139.328 318.967 139.478 321.497C139.518 322.19 139.8 322.794 140.233 323.279C138.07 322.686 135.874 322.156 133.713 321.604C126.91 319.867 120.082 318.179 113.148 316.832C111.303 316.473 109.448 316.14 107.585 315.835C106.61 312.007 105.188 308.249 103.511 304.56C105.099 303.887 106.126 302.761 107.493 301.759C108.773 300.82 109.652 299.678 110.743 298.6C111.737 297.62 111.179 295.849 109.393 295.907L108.887 295.924C107.037 295.995 105.246 296.153 103.568 296.866L102.971 297.121C102.151 297.473 101.254 297.876 100.455 298.352C99.4104 296.366 98.3242 294.399 97.2264 292.451L95.8019 289.934C92.1084 283.38 88.425 276.577 83.7879 270.475C81.7263 267.762 78.9828 266.068 75.045 265.806C70.99 265.536 66.7741 265.885 62.7135 266.005C58.0062 266.144 53.3003 266.309 48.5975 266.513C49.803 265.47 50.9031 264.308 52.1137 263.307C54.1233 261.647 56.2465 260.073 58.4782 258.618C62.8953 255.739 67.7519 253.367 72.7964 251.324C77.842 249.281 83.0357 247.499 87.7721 244.975C90.7693 243.378 93.4481 241.368 95.8922 239.193C97.4308 252.908 105.445 265.651 117.486 275.224C129.992 285.167 147.274 290.629 164.181 292.953C181.425 295.323 199.423 294.453 215.92 289.5C224.425 286.946 232.583 283.297 239.858 278.721C239.938 279.119 240.034 279.512 240.223 279.882C240.477 280.379 240.787 280.803 241.143 281.239L241.777 282.006C242.177 282.487 242.585 282.965 243.039 283.412C244.138 284.494 245.696 284.968 247.374 284.963C250.587 284.954 253.021 282.351 252.156 279.776C251.613 278.158 250.45 277.184 248.635 276.55C248.061 276.35 247.476 276.182 246.888 276.017L246.447 275.893C245.853 275.726 245.263 275.565 244.651 275.472C248.096 272.96 251.292 270.228 254.154 267.279C263.132 258.033 271.986 245.083 268.985 232.803C268.933 232.592 268.703 232.459 268.456 232.426C268.282 231.564 267.726 230.73 266.966 230.17C267.478 230.058 267.994 229.973 268.512 229.914ZM175.293 442.23C173.515 441.413 171.678 443.354 173.123 444.553L175.28 446.337C177.282 447.999 179.231 449.68 180.945 451.574L181.36 452.037C183.673 454.638 186.14 457.651 189.93 458.623C194.515 459.798 198.921 455.184 196.266 451.813C193.946 448.867 189.48 447.755 185.63 446.537C181.988 445.385 178.698 443.794 175.293 442.23ZM323.191 428.635C322.146 427.505 319.422 428.1 320.136 429.699C322.454 434.892 323.399 441.972 329.252 445.422C331.141 446.534 334.107 446.023 335.662 444.738C337.429 443.279 337.5 441.223 336.489 439.442C335.257 437.269 332.226 435.694 330.101 434.039L329.911 433.888C327.625 432.054 325.153 430.758 323.191 428.635ZM78.5345 434.611C76.6701 433.947 71.8108 432.656 70.3707 434.184C70.3035 434.24 70.246 434.301 70.1996 434.369C69.8467 434.876 69.7942 435.591 70.1996 436.094C71.8777 438.178 73.6254 439.734 76.0113 441.217L76.279 441.382C78.8764 442.959 81.3164 444.813 84.4811 445.524C88.8676 446.511 91.9315 441.972 88.8508 439.322C86.3689 437.188 82.58 436.079 79.2913 434.889L78.5345 434.611ZM254.69 404.942C255.424 403.846 253.924 402.502 252.566 403.187C248.693 405.143 244.181 406.611 239.831 407.665C238.071 408.092 236.482 409.566 236.613 411.158L236.633 411.399C236.685 411.961 236.779 412.519 237.211 412.986C238.726 414.624 240.894 415.255 243.209 414.285C248.367 412.126 251.898 409.11 254.69 404.942ZM141.486 401.623C141.58 401.162 141.172 400.807 140.606 400.895C137.332 401.408 134.309 402.714 131.498 404.216C129.991 405.021 128.537 405.906 127.033 406.72C125.175 407.724 124.479 408.553 124.205 410.396C124.024 411.613 125.398 412.724 126.659 413.06C130.094 413.975 134.03 410.971 136.358 409.019L136.462 408.932C138.899 406.879 140.909 404.453 141.486 401.623ZM43.1774 398.435C43.9235 396.77 41.3521 395.39 39.6704 396.207C38.087 396.977 36.3692 397.616 34.8755 398.498C33.5029 399.309 32.2514 400.269 30.935 401.149L30.2845 401.574C27.8705 403.178 23.8859 407.144 27.3374 409.444C30.6226 411.634 34.9781 408.838 37.1831 406.793L37.3368 406.648C38.6055 405.437 40.1695 404.122 41.0898 402.707C41.9561 401.376 42.5438 399.848 43.1774 398.435ZM75.5736 269.551C79.6881 270.211 81.3652 274.408 83.0978 277.143C87.1869 283.599 90.9475 290.173 94.7244 296.756C95.8871 298.78 97.0192 300.821 98.1616 302.857C98.2314 303.017 98.321 303.174 98.4264 303.329C100.767 307.492 103.177 311.629 105.993 315.581C103.415 315.182 100.824 314.842 98.2232 314.574C98.3544 312.55 96.6775 309.842 95.8481 308.139L95.7791 307.995C94.7448 305.812 93.6605 302.372 90.9979 301.24C90.1107 300.862 89.1619 301.335 89.0937 302.142C88.892 304.545 91.7364 307.296 93.1268 309.335C93.9676 310.569 94.787 311.808 95.5856 313.061C95.8851 313.53 96.1351 313.991 96.4422 314.404C95.1008 314.284 93.7578 314.177 92.4112 314.099L91.5337 314.05C86.5415 313.778 81.2394 313.7 76.7291 315.734C72.5443 317.621 70.4053 321.649 72.7043 325.317C75.5685 329.886 81.8755 330.491 87.4217 330.862C94.3491 331.323 101.292 332.157 108.171 332.97C115.285 333.811 121.985 335.978 128.994 337.092C129.646 337.196 130.052 336.491 129.454 336.191C123.925 333.41 117.204 331.88 111.023 330.321L110.523 330.194C107.17 329.343 103.894 328.371 100.425 327.889C97.0585 327.42 93.6707 327.04 90.2747 326.752L89.9449 326.727C86.2059 326.468 76.6673 326.556 77.0704 321.981C77.3373 318.954 83.2929 318.431 86.0115 318.395C98.4758 318.23 111.03 320.964 122.875 323.893L125.52 324.548C130.37 325.754 135.228 326.995 139.987 328.409C145.38 330.01 149.629 332.508 153.558 335.927C157.913 339.717 162.131 343.593 166.65 347.256C169.498 349.565 172.383 351.833 175.292 354.083C175.949 354.785 176.475 355.55 176.839 356.542C177.454 358.218 177.312 359.775 177.08 361.497C176.494 365.844 176.365 370.236 175.631 374.569C174.951 378.584 173.999 382.745 171.982 386.469C171.183 387.944 170.144 389.393 168.96 390.688L168.004 391.715C167.588 392.161 167.122 392.649 166.633 393.107C165.914 392.384 164.875 391.913 163.668 392.03C161.102 392.28 159.084 392.22 156.567 391.733C154.618 391.356 152.685 390.915 150.745 390.506C146.936 389.703 143.092 388.973 139.321 388.051L138.673 387.889C135.864 387.177 133.053 386.285 130.714 384.786C127.997 383.044 127.162 380.531 125.149 378.358C120.851 373.719 111.565 373.816 105.277 372.545C99.9338 371.465 94.7915 369.761 91.0936 366.557L90.8778 366.367C91.0417 365.795 90.7759 365.15 90.1332 364.853L89.9931 364.789C89.7425 364.673 89.4726 364.625 89.2078 364.63C88.8645 364.213 88.5335 363.783 88.2325 363.325C87.985 362.948 87.3662 363.226 87.4472 363.598C87.4956 363.821 87.5628 364.038 87.6264 364.256C84.0443 363.494 80.1104 363.64 76.4735 363.642L71.7538 363.628C70.937 363.62 69.7196 363.586 69.6113 363.545L69.5004 363.505C69.2061 363.399 69.6239 363.573 69.4183 363.348C69.1917 363.099 68.9696 362.848 68.7506 362.594C67.9684 361.689 67.2284 360.758 66.5031 359.817C74.4068 361.481 82.5941 362.516 90.6643 363.38C99.3223 364.307 108.094 364.95 116.83 364.956C119.238 364.959 119.216 361.955 116.83 361.879C107.58 361.588 98.3786 361.183 89.191 360.203C84.4398 359.696 79.7085 359.06 75.0037 358.316C73.1873 358.03 71.3753 357.725 69.5677 357.403L68.2128 357.159C67.3628 357.004 64.961 356.78 63.7896 356.131C63.5594 355.804 63.3292 355.478 63.1011 355.151C63.2131 354.004 66.7415 354.158 67.5686 354.156C69.9138 354.152 72.2596 354.168 74.6054 354.173C79.2965 354.184 83.987 354.151 88.6786 354.12C98.0516 354.056 107.46 353.786 116.826 354.117C119.099 354.197 120.293 351.184 118.046 350.392C108.126 346.892 97.1145 346.131 86.5223 345.055C80.9522 344.49 75.379 343.837 69.9337 342.692L68.5874 342.409C65.1667 341.685 61.3893 340.801 58.5088 339.074C62.8383 337.627 68.2198 337.793 72.7076 337.588L73.0511 337.571C79.3352 337.252 85.6305 337.089 91.9264 337.082C104.808 337.067 117.694 337.444 130.562 337.948C130.885 337.961 130.952 337.54 130.638 337.483C117.412 335.099 103.971 333.95 90.4357 333.773C84.1322 333.691 77.8257 333.764 71.5276 333.995L69.2167 334.083C63.8468 334.274 57.8882 334.326 53.3955 337.005C52.7106 337.414 52.3495 337.935 52.2929 338.487C46.2675 328.562 40.7025 318.43 35.1151 308.364C30.7714 300.538 26.5896 292.647 22.0875 284.882L20.63 282.369C18.6784 279.017 16.6789 275.665 14.4588 272.435C22.7608 271.517 31.1091 270.881 39.4624 270.393C47.074 269.949 71.9092 268.964 75.5736 269.551ZM79.2498 377.118C78.303 376.683 76.8526 377.038 76.6193 378.002C76.4456 378.721 76.1492 379.518 76.1492 380.253C76.1492 381.133 76.5302 382.09 76.7334 382.951C77.2004 384.932 77.7754 386.541 78.9941 388.305C79.7565 389.409 81.2961 390.159 82.8433 390.129C84.0687 390.106 85.1545 389.834 85.9953 389.05C87.0027 388.112 87.6943 386.731 87.1417 385.466C85.6943 382.154 83.0338 378.855 79.2498 377.118ZM280.061 373.814C277.846 370.607 272.594 367.742 268.012 368.025C261.131 368.451 259.727 376.107 266.389 377.934C270.371 379.026 275.849 377.905 279.333 376.108C280.272 375.624 280.616 374.617 280.061 373.814ZM350.781 362.859C351.284 362.255 350.452 361.564 349.702 361.7C348.04 362.002 346.247 362.134 344.618 362.544C342.95 362.963 341.336 363.658 339.684 364.137C336.223 365.138 332.526 365.641 329.176 366.851C327.837 367.334 326.784 368.937 326.908 370.118L326.939 370.394C327.013 370.98 327.136 371.492 327.533 372.028C328.599 373.466 330.711 374.209 332.704 373.767C336.402 372.946 340.016 370.837 343.169 369.085L343.751 368.765C345.129 368.015 346.61 367.231 347.72 366.266C348.879 365.258 349.831 364.001 350.781 362.859ZM223.663 351.198C224.089 349.931 222.182 349.094 221.07 349.95C218.848 351.66 216.526 353.246 214.35 355L214.204 355.119C212.646 356.413 210.379 358.906 212.405 360.58C215.002 362.726 218.617 359.543 220.01 357.884C221.777 355.779 222.837 353.659 223.663 351.198ZM53.6599 340.724C56.9555 343.609 62.0331 344.935 66.5037 346.034C71.8043 347.336 77.2659 348.113 82.7332 348.753C88.016 349.371 93.2582 349.923 98.457 350.632C94.5242 350.673 90.592 350.697 86.6685 350.755C82.1434 350.823 77.6209 350.903 73.0974 351.012C69.8028 351.091 65.9373 350.718 62.8067 351.73C62.2424 351.911 61.7153 352.164 61.2549 352.471C58.6229 348.604 56.1004 344.683 53.6599 340.724ZM256.938 313.751C253.498 312.848 250.264 311.65 246.617 311.961C245.648 312.043 244.954 312.823 245.483 313.593C247.211 316.106 250.021 317.524 252.787 319.205L253.031 319.354C256.059 321.215 259.31 322.911 262.602 324.438C268.271 327.067 273.352 319.543 267.627 317.335C264.182 316.007 260.563 314.703 256.938 313.751ZM195.009 307.219C189.746 307.505 184.487 307.699 179.218 307.875C173.114 308.079 175.166 315.84 180.265 314.27C185.302 312.718 190.339 311.185 195.421 309.738C196.968 309.297 196.844 307.197 195.107 307.216L195.009 307.219ZM329.984 293.412C328.62 293.333 327.244 293.579 325.879 293.688L324.425 293.805C321.429 294.051 318.62 294.355 315.762 295.362C310.49 297.222 313.322 304.225 318.615 304.064C322.526 303.946 325.871 302.557 329.175 300.941C332.062 299.528 333.833 297.761 335.783 295.543C336.428 294.808 335.529 293.984 334.649 293.91C333.1 293.78 331.534 293.501 329.984 293.412ZM65.7046 279.11C66.577 283.608 68.7426 287.824 72.0056 291.495C73.6455 293.34 76.5245 293.409 78.1496 291.495C80.4487 288.787 79.031 285.684 77.2991 283.083L76.7867 282.321C76.0111 281.179 74.82 279.513 73.4591 278.363L73.4361 278.245C72.7068 273.535 64.8057 274.475 65.7046 279.11ZM278.554 250.24C277.242 249.264 274.826 249.557 274.401 251.146C273.805 253.372 273.442 255.879 273.832 258.138C274.044 259.363 274.123 260.738 274.706 261.879C275.332 263.105 276.537 264.049 277.672 264.971C279.939 266.813 284.716 266.204 285.323 263.302L285.4 262.946C285.706 261.573 286.096 260.106 285.644 258.745C285.303 257.718 284.54 256.671 283.909 255.718L283.776 255.516C282.512 253.571 280.542 251.718 278.554 250.24ZM94.145 254.975L93.6705 254.979C90.0085 255.039 83.3139 255.776 83.2781 259.515C83.2696 260.396 84.0595 261.309 85.1183 261.512C87.3073 261.931 88.7221 260.863 90.282 259.783C91.5578 258.9 93.0449 258.195 94.5896 257.687C96.258 257.139 96.149 254.973 94.145 254.975Z" fill="black"/>
<path fill-rule="evenodd" clip-rule="evenodd" d="M99.7753 76.0721C101.738 66.2415 95.2974 64.2018 99.7753 54.8569C109.727 37.5417 136.848 38.2877 156.75 36.9564C178.948 36.2519 201.415 38.6786 221.879 46.046C226.767 47.8056 231.468 49.875 235.975 52.2261C239.872 54.2595 239.336 58.1254 236.879 60.2343C254.598 81.0124 244.464 108.903 258.602 130.774C261.213 134.684 264.668 138.189 266.938 142.257C270.389 148.441 270.61 157.301 262.784 161.407C251.763 166.306 245.612 156.607 240.197 170.667C213.15 219.692 158.772 222.453 107.15 196.893C102.683 194.836 98.1251 192.511 94.7526 189.279C87.0974 182.145 87.999 172.112 87.8297 163.204C87.7352 157.983 87.7194 152.761 87.7809 147.54C88.0218 126.389 96.4872 97.0489 99.7753 76.0721Z" fill="#EDB98A"/>
<path fill-rule="evenodd" clip-rule="evenodd" d="M209.727 17.2738C178.558 5.56576 143.206 1.1258 109.206 4.03808C92.4248 5.47326 75.8642 8.55233 60.1039 13.554L58.7225 13.9961C54.832 15.236 50.6383 16.4668 47.6818 18.9908C44.2407 21.9242 43.2756 26.3599 45.7354 29.9834C47.6463 32.7989 51.0818 34.8185 54.746 35.8963C53.4552 36.7717 52.2304 37.7481 51.0818 38.8381C49.1455 40.6646 48.9981 43.2692 51.0818 45.0708C55.0967 48.5428 60.3059 51.0549 65.9166 52.2589C65.2864 54.7798 65.6269 57.57 66.9788 60.0825C70.8579 67.2946 81.7852 68.1541 90.1941 67.7259L90.4481 67.7125L90.9157 72.144C91.1647 74.505 92.8723 76.3357 95.7692 76.6976C95.8708 76.7102 95.973 76.7187 96.0741 76.7267C91.49 90.4552 88.7202 104.608 86.1639 118.677C84.8283 126.022 83.6327 133.383 82.4881 140.749L82.1083 143.204C80.8886 151.146 79.364 159.167 78.8354 167.168C78.3628 174.427 80.0348 181.359 85.4371 187.217C90.2855 192.469 96.8974 196.404 104.007 199.325C120.072 205.927 136.98 210.843 154.748 213.124L155.932 213.275C162.791 214.142 169.857 214.873 176.641 213.301C182.602 211.921 188.854 208.36 187.507 202.641C187.055 200.709 183.792 200.625 182.674 202.119L182.416 202.461C181.075 204.223 179.606 205.86 177.266 206.769C174.527 207.838 171.351 208.137 168.358 208.167C159.997 208.247 151.292 206.521 143.242 204.791C128.209 201.56 112.769 196.29 100.455 188.307C95.2152 184.915 91.0072 180.673 89.5232 175.214C87.6885 168.485 89.3758 161.128 90.2093 154.365C91.9245 140.41 93.9658 126.481 96.1196 112.567L96.5518 109.785C98.3656 98.1525 100.271 86.516 101.177 74.8164C101.553 74.3914 101.807 73.9074 101.908 73.3771L102.05 72.6154C102.173 71.9631 102.193 71.3655 102.107 70.8142C102.102 68.7015 102.03 66.6015 101.883 64.4884C101.858 64.11 101.837 63.7313 101.822 63.3567C104.475 63.8407 107.148 64.2321 109.831 64.5646C128.696 66.9171 147.856 67.5063 166.874 66.3363C176.362 65.7509 185.779 64.7455 195.166 63.4872C199.944 62.8475 204.705 62.1405 209.452 61.3493C212.882 60.7811 216.242 60.011 219.616 59.2871C223.097 63.483 224.978 68.6468 224.612 73.718C224.2 79.5047 219.545 84.7527 220.851 90.6656C222.077 96.1993 227.802 97.9151 233.454 99.2857L235.858 99.8608C237.708 100.308 239.051 100.739 239.386 102.58C239.96 105.74 239.254 109.297 239.106 112.474C238.928 116.232 238.695 119.99 238.588 123.749C238.532 125.693 238.441 127.646 238.445 129.59C238.451 130.97 238.7 131.913 239.345 132.805C238.847 133.323 238.4 133.883 238.003 134.476C237.876 134.67 238.191 134.875 238.379 134.716C238.883 134.282 239.417 133.891 239.98 133.541C240.265 133.832 240.595 134.127 240.982 134.442L241.012 134.409C242.222 135.406 244.143 135.503 245.642 134.442L246.036 134.16C247.134 133.363 247.888 132.7 248.193 131.383C248.208 131.315 248.224 131.248 248.234 131.181C251.024 131.101 253.86 131.647 256.37 132.797C260.35 134.619 263.15 137.216 264.806 140.423C264.146 141.062 263.373 141.635 262.474 142.114C262.347 142.186 262.459 142.342 262.596 142.287C263.516 141.929 264.339 141.487 265.076 140.97C265.671 142.232 266.087 143.587 266.341 145.022C267.236 150.089 265.64 156.28 260.111 159.167C257.717 160.417 254.983 161.095 252.147 161.103C250.765 161.107 249.57 160.914 248.229 160.64C247.319 160.455 246.414 160.186 245.464 160.186C244.651 160.186 243.899 160.354 243.202 160.691L243.395 160.705C243.865 160.741 243.774 160.758 243.121 160.758C241.088 160.83 239.925 162.538 240.859 164.024L240.982 164.253C241.008 164.3 241.03 164.338 241.047 164.368L241.121 164.762C241.128 164.8 241.136 164.839 241.144 164.878L241.172 164.958C241.177 164.971 241.183 164.983 241.19 164.996L238.141 168.846C234.403 173.556 230.582 178.248 226.233 182.55C223.184 185.567 219.952 188.526 216.536 191.265C213.467 193.727 209.787 194.914 206.311 196.85C204.456 197.877 203.912 200.027 205.599 201.412C210.55 205.482 217.558 202.249 221.618 198.942C225.461 195.806 228.779 192.035 231.64 188.26C236.718 181.548 240.758 174.41 242.526 166.662C243.263 167.222 244.204 167.572 245.154 167.845C247.06 168.392 249.159 168.619 251.171 168.678C255.029 168.784 258.891 168.009 262.362 166.637C276.485 161.061 278.559 144.362 269.924 134.514C271.089 131.718 271.739 128.684 272.445 126.097L272.767 124.941C276.337 112.024 278.735 98.424 272.404 85.7669C271.591 84.134 270.676 82.5432 269.594 81.0197C268.725 79.7951 267.231 78.4904 266.819 77.0974C265.904 74.0379 271.551 70.8226 273.197 68.3943C275.134 65.5451 275.408 62.1825 272.77 59.5771C272.435 59.2492 272.069 58.9458 271.673 58.6811C274.173 54.9271 274.29 50.2052 270.997 46.5017C268.832 44.0608 265.528 42.3522 261.92 41.8345C259.714 41.5189 257.061 41.6367 254.637 42.2006C241.363 31.9951 226.218 23.4687 209.727 17.2738ZM260.7 144.972C257.158 142.384 253.244 141.029 248.416 141.37C243.563 141.714 237.718 143.377 234.868 146.824C232.616 149.547 237.205 153.54 240.509 151.495C243.517 149.631 245.525 147.527 249.26 146.525C252.615 145.629 256.767 145.052 260.279 145.565C260.665 145.62 261.051 145.224 260.7 144.972Z" fill="black"/>
<path fill-rule="evenodd" clip-rule="evenodd" d="M150.425 164.059C147.576 160.187 141.503 169.673 140.858 171.305C140.287 172.75 139.909 174.23 139.718 175.727C137.509 176.136 135.215 176.137 132.952 175.779C129.588 175.245 127.532 173.751 124.609 172.468C122.589 171.581 120.045 172.621 118.995 174.091C117.759 175.822 118.546 177.619 120.171 178.909C123.252 181.356 129.313 181.918 133.334 181.268C135.638 180.896 137.75 180.182 139.615 179.144C139.627 179.338 139.635 179.532 139.654 179.725L139.689 180.06C139.998 182.774 140.901 186.186 143.452 187.952C147.635 190.848 152.798 185.278 148.733 182.385L148.607 182.298C146.08 180.611 145.529 176.085 145.665 173.592C145.754 171.964 146.113 170.316 146.735 168.767L146.863 168.458C147.05 168.02 149.09 163.868 149.828 164.396L149.863 164.426C150.167 164.726 150.658 164.377 150.425 164.059ZM127.678 142.207C123.832 144.138 117.972 148.643 122.109 153.432C126.979 157.654 133.991 152.813 137.446 150.623C140.65 148.926 144.249 153.291 141.277 155.272C116.31 170.547 106.177 142.712 125.733 139.935C127.886 139.63 128.685 141.609 127.678 142.207ZM168.745 124.351C164.986 123.801 161.136 124.573 158.026 126.39L157.79 126.53C154.793 128.341 151.441 131.521 153.16 134.642C153.85 135.895 155.917 136.092 157.229 135.524C159.412 134.578 159.808 132.25 161.756 130.962C163.353 129.906 165.505 129.265 167.562 129.42C172.396 129.782 175.369 133.722 176.87 137.117C177.062 137.551 177.834 137.72 178.135 137.254C181.675 131.786 175.409 125.329 168.745 124.351ZM108.541 122.288C101.341 121.798 92.9142 127.966 94.8097 134.246C95.7188 137.259 101.128 137.173 102.09 134.246C102.619 132.635 102.566 131.21 103.969 129.873C105.127 128.768 106.772 128.127 108.541 128.225C110.491 128.334 112.289 129.139 113.655 130.271C114.89 131.292 115.627 132.788 116.906 133.692C117.221 133.914 117.642 133.929 117.952 133.692C120.153 132.016 118.832 128.526 117.437 126.776C115.441 124.272 112.19 122.537 108.541 122.288ZM182.455 113.214C177.836 109.835 169.444 106.572 163.216 108.235C159.635 109.191 158.074 113.958 162.071 115.47C166.7 117.22 172.037 116.508 176.749 118.321C178.727 119.084 180.588 120.036 181.966 121.433C183.051 122.534 184.155 123.982 185.725 124.617C186.137 124.784 186.696 124.788 187.027 124.478C190.467 121.262 185.459 115.411 182.455 113.214ZM116.48 108.067C113.625 107.405 110.459 107.419 107.559 107.835C104.66 108.25 101.717 109.243 99.3499 110.691L99.0752 110.861C96.4915 112.47 93.4083 114.81 93.5736 117.66C93.7116 120.04 96.7413 121.65 99.357 120.403C101.489 119.386 102.493 117.348 104.298 115.991C105.788 114.871 107.538 113.988 109.405 113.37C111.479 112.682 113.556 112.36 115.782 112.33C117.495 112.306 119.219 112.771 120.901 112.919C120.762 113.154 122.092 113.045 122.854 112.836C123.418 112.638 123.421 112.048 123.225 111.665C122.255 109.77 118.725 108.587 116.48 108.067Z" fill="black"/>
</svg>
