<svg width="392" height="500" viewBox="0 0 392 500" fill="none" xmlns="http://www.w3.org/2000/svg">
<path fill-rule="evenodd" clip-rule="evenodd" d="M23.9134 429.081C25.8231 419.5 27.5736 409.895 29.1645 400.268C29.9197 395.698 30.6564 391.123 31.3187 386.541C31.7825 383.331 32.4889 379.66 30.0301 377.282C26.5702 373.936 23.4273 371.071 23.0038 366.278C22.6053 361.767 24.3222 356.85 25.3958 352.472C27.6471 343.291 30.4498 334.224 33.5468 325.242C36.693 316.116 40.1429 307.077 43.6425 298.055C46.9143 289.619 50.0596 281.108 54.321 273.015C62.4086 257.655 76.0907 246.281 93 238.687C97.2056 236.798 105.783 230.055 110.177 228.546C114.216 227.157 114.202 231.211 118.177 229.684C121.355 228.463 124.314 226.836 126.093 224.11C128.025 221.15 132.87 217.011 133.608 213.566C135.171 206.264 133.478 200.048 139.345 194.552C144.553 189.672 151.554 186.328 158.798 184.533C174.733 180.585 195.985 183.345 205.599 196.499C210.192 202.781 211.796 210.373 217.992 215.5C223.403 219.976 222.192 223.037 229.2 225.344C229.597 225.475 240.355 223.425 240.752 223.556C248.418 222.099 255.746 226.178 262.779 228.546C273.265 232.074 283.248 236.667 292.627 242.126C311.539 253.133 327.737 267.427 341.09 283.601C354.555 299.909 365.001 318.187 372.44 337.291C374.246 341.931 375.869 346.628 377.3 351.371C378.101 354.025 378.957 356.778 377.982 359.495C377.184 361.718 375.409 363.374 373.325 364.707C370.5 366.516 364.834 367.691 364.944 371.328C365.028 374.093 366.084 377.003 366.6 379.736C367.213 382.99 367.717 386.263 368.222 389.532C370.514 404.409 372.299 419.369 373.088 434.373C373.865 449.145 374.51 464.22 373.357 478.988C373.28 479.962 372.953 480.856 372.426 481.611C372.918 481.779 372.956 482.594 372.344 482.709C371.914 482.79 371.486 482.871 371.057 482.951C370.165 483.551 369.053 483.918 367.774 483.954C366.906 483.978 366.039 484.013 365.173 484.053C356.029 485.751 346.886 487.354 337.623 488.569C326.363 490.045 315.069 491.249 303.741 492.227C280.463 494.237 257.368 493.571 234.059 492.487C210.786 491.405 187.527 491.152 164.23 491.69C140.913 492.229 117.604 493.13 94.2811 493.499C68.2249 493.91 42.2085 493.278 16.2276 491.438C12.6654 491.186 10.4615 488.669 11.1641 485.526C15.3734 466.696 20.1437 447.992 23.9134 429.081Z" fill="#FFDBB4"/>
<path fill-rule="evenodd" clip-rule="evenodd" d="M262.779 228.545L262.27 228.371C255.392 225.984 248.234 222.134 240.752 223.556C240.487 223.468 235.619 224.35 232.285 224.909L235.45 227.843L241.035 228.798C221.766 257.049 198.976 271.174 172.665 271.174C146.354 271.174 126.39 257.049 112.771 228.798L110.912 228.341C110.683 228.388 110.438 228.456 110.177 228.545C105.783 230.055 97.2056 236.798 93.0001 238.686C76.0907 246.281 62.4086 257.655 54.3211 273.014C50.2017 280.838 47.1253 289.052 43.9694 297.211L43.6426 298.055C40.143 307.077 36.693 316.116 33.5468 325.242C30.5845 333.833 27.8914 342.503 25.6926 351.275L25.3958 352.472C24.3223 356.85 22.6054 361.767 23.0038 366.278C23.1547 367.985 23.6507 369.448 24.3833 370.775L62.4954 382.957L44.3382 492.965C60.9703 493.598 77.6176 493.762 94.2811 493.499C117.604 493.13 140.913 492.229 164.23 491.69C186.821 491.168 209.376 491.39 231.943 492.391L237.674 492.652C259.757 493.632 281.667 494.133 303.741 492.227L305.245 492.096L305.245 476.004L297.491 386.401L336.787 379.83L375.361 363.187C376.526 362.152 377.462 360.944 377.982 359.495C378.885 356.978 378.218 354.431 377.478 351.96L377.3 351.371C375.869 346.628 374.246 341.931 372.44 337.291C365.001 318.187 354.555 299.909 341.09 283.601C327.737 267.426 311.539 253.133 292.627 242.126C283.248 236.667 273.265 232.074 262.779 228.545Z" fill="#EC7495"/>
<path fill-rule="evenodd" clip-rule="evenodd" d="M248.022 223.093C245.613 223 243.156 223.346 240.752 223.556C240.543 223.574 240.463 223.861 240.699 223.905C245.001 224.703 249.256 225.795 253.481 226.905L255.29 227.38C260.055 228.632 264.68 229.924 269.292 231.594C278.485 234.922 287.216 239.414 295.251 244.575C326.193 264.448 348.588 294.536 362.72 325.687C366.558 334.147 369.81 342.818 372.444 351.634C373.084 353.779 373.687 355.933 374.258 358.093C374.426 358.726 375.157 360.348 374.756 360.996C374.402 361.569 373.024 361.923 372.384 362.221L370.223 363.216C366.008 365.146 358.987 368.318 358.283 368.627L357.185 369.107C339.225 376.929 320.034 383.561 299.823 384.021L299.665 382.487C298.764 374.011 297.581 365.49 295 357.274C294.861 356.832 294.229 356.981 294.171 357.374C292.733 367.1 293.193 376.902 293.694 386.673C294.583 403.979 295.762 421.276 296.811 438.575C297.336 447.229 298.014 455.877 298.627 464.526C299.24 473.193 299.439 482.068 300.84 490.663C301.152 492.578 303.678 493.621 305.591 493.419C307.708 493.195 309.336 491.539 309.346 489.64C309.372 484.633 308.663 479.567 308.27 474.572C307.896 469.827 307.494 465.084 307.083 460.341C305.581 443.031 303.852 425.741 302.253 408.439C301.686 402.302 301.074 396.17 300.444 390.039C321.855 389.426 341.857 382.382 360.939 374.151C361.215 379.722 361.882 385.282 362.528 390.83C364.331 406.311 365.92 421.787 367.11 437.316C367.711 445.159 368.148 453.012 368.529 460.866C368.716 464.726 368.868 468.587 368.985 472.449C369.025 473.737 369.06 475.024 369.091 476.311L369.156 479.261C369.21 481.13 369.423 482.861 371.194 484.221C372.991 485.603 375.42 485.677 377.199 484.221C379.581 482.273 379.16 479.618 379.09 477.001C379.031 474.794 378.96 472.587 378.878 470.38C378.714 465.967 378.504 461.555 378.249 457.145C377.355 441.727 375.57 426.37 373.237 411.075L372.326 405.171C370.625 394.195 368.757 382.97 364.955 372.397C366.436 371.743 367.912 371.084 369.382 370.422C371.991 369.249 374.688 368.148 377.224 366.853C379.235 365.826 380.97 364.417 381.53 362.338C382.155 360.021 381.2 357.487 380.565 355.227L380.51 355.028C379.888 352.752 379.218 350.486 378.511 348.23C375.645 339.081 372.101 330.111 367.953 321.359C359.648 303.839 348.928 287.194 335.834 272.144C324.048 258.597 310.124 246.311 293.805 237.097C285.827 232.592 277.325 228.894 268.333 226.278C264.13 225.056 259.558 223.993 255.158 223.555C252.784 223.32 250.407 223.185 248.022 223.093ZM205.33 195.329C202.467 192.598 196.778 195.424 198.153 199.041C201.387 207.55 206.536 215.312 214.573 220.903C222.128 226.16 231.136 229.573 240.838 228.845C240.913 228.839 240.978 228.822 241.035 228.798L240.199 229.805C233.635 237.693 226.711 245.471 218.365 251.917C201.36 265.053 178.208 272.137 155.851 267.097C138.261 263.133 122.765 250.777 118.207 235.03C118.86 235.291 119.637 235.379 120.489 235.215C124.136 234.512 127.746 231.105 130.098 228.662C132.642 226.02 134.629 223.166 136.085 219.941C138.75 214.038 139.605 206.438 135.965 200.72C135.516 200.015 134.481 200.41 134.393 201.098L134.254 202.172C133.552 207.531 132.678 212.715 129.834 217.6C128.442 219.991 126.774 222.324 124.743 224.326C123.656 225.397 122.478 226.42 121.206 227.318C119.966 228.193 118.466 228.826 117.355 229.83L117.151 230.023L117.145 229.988C116.865 227.867 115.19 226.932 113.551 226.991C111.965 227.047 110.102 227.667 109.381 227.964L109.313 227.993C98.2496 232.71 88.0604 238.86 78.4717 245.682C58.642 259.79 43.7845 278.234 36.5858 299.953C33.0526 310.613 31.0251 321.596 28.885 332.529L27.5675 339.227C25.5699 349.32 23.3386 359.611 18.8293 369C17.6629 371.428 18.5621 373.706 21.4222 374.661C24.9934 375.854 28.5779 377.008 32.168 378.149C30.4051 384.867 29.3302 391.818 28.0093 398.569C25.2019 412.919 21.7619 427.178 18.8123 441.51C17.3043 448.838 15.9437 456.19 14.4371 463.519C13.7118 467.048 12.9547 470.572 12.2185 474.1C11.822 476.002 11.4624 477.91 11.0839 479.815L11.018 480.131C10.8012 481.136 10.5287 482.175 10.8399 483.181C11.1947 484.327 12.2024 485.138 13.1021 485.96C13.8426 486.637 14.9128 486.641 15.82 486.272L16.1184 486.149C17.7388 485.476 19.0082 484.804 19.5831 483.181C19.9469 482.153 20.0782 480.994 20.316 479.935C20.7722 477.904 21.2048 475.871 21.6131 473.832C22.4299 469.753 23.2277 465.671 24.0066 461.585L24.734 457.76C27.2309 444.575 29.6021 431.31 30.8007 417.986C31.3325 412.075 31.896 406.169 32.4648 400.262L32.8919 395.831C33.432 390.223 34.0919 384.473 34.1852 378.79L36.332 379.467L46.8071 382.756C49.4043 383.572 52.7111 385.242 55.5063 384.939C56.8745 384.79 57.9177 384.407 58.7231 383.712C57.7585 395.804 56.4528 407.875 54.7127 419.885C53.1294 430.813 51.3741 441.726 49.301 452.589C48.2743 457.968 47.2193 463.343 46.0733 468.703C45.5005 471.383 44.9092 474.06 44.3 476.734C43.9963 478.068 43.6348 479.403 43.3979 480.748C43.1269 482.288 43.6045 483.236 44.5733 484.503C45.3688 485.544 46.9601 486.079 48.2502 485.36C49.9585 484.408 50.8497 483.583 51.3523 481.849C51.809 480.273 52.0867 478.629 52.4401 477.033C53.0924 474.088 53.723 471.14 54.3318 468.187C55.6048 462.012 56.7783 455.823 57.8262 449.614C61.5192 427.743 63.8624 405.689 65.0458 383.599C65.63 372.7 65.8105 361.792 65.7067 350.882C65.6537 345.289 65.4481 339.681 65.0027 334.103C64.5517 328.456 63.6137 322.923 62.7761 317.33C62.7467 317.133 62.434 317.122 62.4207 317.33C62.0242 323.6 61.4026 329.863 61.098 336.149C60.8071 342.147 60.6797 348.155 60.4485 354.156C60.1448 362.043 59.7236 369.935 59.166 377.822C58.1564 376.841 56.6347 376.275 55.1121 376.496C52.9063 376.085 50.5318 375.057 48.4288 374.433L40.5009 372.08C36.3333 370.844 32.1656 369.616 27.9833 368.425C31.7226 357.25 34.2841 345.908 36.4713 334.402L37.4468 329.227C39.3777 319.04 41.4596 308.849 44.9571 298.985C48.6339 288.615 54.1361 278.973 61.4353 270.242C68.6303 261.637 77.3839 254.06 86.3967 246.972C94.1128 240.906 102.367 235.428 110.237 229.527C110.155 229.918 110.137 230.349 110.21 230.822C111.883 241.701 118.272 251.832 127.175 259.367C145.062 274.506 171.539 277.646 194.431 270.548C216.576 263.681 236.155 247.419 243.073 227.295C243.191 226.951 242.672 226.814 242.463 227.067C242.08 227.534 241.694 228.001 241.308 228.468C241.334 228.283 241.225 228.081 240.968 227.992C232.897 225.224 224.971 221.298 218.921 215.744C215.973 213.036 213.399 209.969 211.368 206.661C210.395 205.077 209.521 203.436 208.823 201.74L208.646 201.302C207.801 199.178 207.095 197.012 205.33 195.329Z" fill="black"/>
<path fill-rule="evenodd" clip-rule="evenodd" d="M101.932 76.0721C103.757 66.2415 97.7662 64.2018 101.932 54.8569C111.189 37.5417 136.418 38.2877 154.931 36.9564C175.58 36.2519 196.48 38.6786 215.516 46.046C220.063 47.8056 224.437 49.875 228.629 52.2261C232.254 54.2595 231.756 58.1254 229.47 60.2343C245.953 81.0124 236.525 108.903 249.677 130.774C252.107 134.684 255.32 138.189 257.432 142.257C260.642 148.441 260.847 157.301 253.568 161.407C243.315 166.306 237.594 156.607 232.556 170.667C207.397 219.692 156.812 222.453 108.791 196.893C104.637 194.836 100.397 192.511 97.2594 189.279C90.1382 182.145 90.9769 172.112 90.8195 163.204C90.7315 157.983 90.7169 152.761 90.7741 147.54C90.9982 126.389 98.8729 97.0489 101.932 76.0721Z" fill="#FFDBB4"/>
<path fill-rule="evenodd" clip-rule="evenodd" d="M204.212 17.2738C175.218 5.56576 142.332 1.1258 110.705 4.03808C95.0937 5.47326 79.6885 8.55233 65.0278 13.554L63.7428 13.9961C60.1237 15.236 56.2226 16.4668 53.4724 18.9908C50.2714 21.9242 49.3736 26.3599 51.6618 29.9834C53.4393 32.7989 56.6352 34.8185 60.0437 35.8963C58.8429 36.7717 57.7036 37.7481 56.6352 38.8381C54.834 40.6646 54.6969 43.2692 56.6352 45.0708C60.37 48.5428 65.2157 51.0549 70.435 52.2589C69.8488 54.7798 70.1655 57.5701 71.423 60.0825C75.0316 67.2946 85.1965 68.1541 93.0187 67.7259L93.255 67.7125L93.6899 72.144C93.9216 74.505 95.5101 76.3357 98.2048 76.6976C98.2993 76.7103 98.3944 76.7187 98.4884 76.7267C94.2242 90.4552 91.6476 104.608 89.2697 118.677C88.0272 126.022 86.915 133.383 85.8503 140.749L85.497 143.204C84.3624 151.146 82.9441 159.167 82.4525 167.168C82.0128 174.427 83.5682 181.359 88.5936 187.217C93.1037 192.469 99.2543 196.404 105.868 199.325C120.812 205.927 136.541 210.843 153.068 213.124L154.171 213.275C160.55 214.142 167.124 214.873 173.435 213.301C178.98 211.921 184.795 208.36 183.542 202.641C183.122 200.709 180.086 200.625 179.046 202.119L178.806 202.461C177.559 204.223 176.192 205.86 174.016 206.769C171.468 207.838 168.513 208.137 165.729 208.167C157.952 208.247 149.854 206.521 142.365 204.791C128.381 201.56 114.019 196.29 102.564 188.307C97.6895 184.915 93.775 180.673 92.3946 175.214C90.6879 168.485 92.2575 161.128 93.0328 154.365C94.6284 140.41 96.5272 126.481 98.5308 112.567L98.9328 109.785C100.62 98.1525 102.393 86.516 103.235 74.8164C103.585 74.3914 103.821 73.9074 103.916 73.3771L104.048 72.6154C104.162 71.9631 104.18 71.3655 104.1 70.8142C104.095 68.7015 104.029 66.6015 103.892 64.4884C103.869 64.11 103.85 63.7313 103.835 63.3567C106.303 63.8407 108.79 64.2321 111.286 64.5646C128.835 66.9171 146.658 67.5063 164.348 66.3363C173.175 65.7509 181.935 64.7455 190.667 63.4872C195.111 62.8475 199.54 62.1405 203.956 61.3493C207.147 60.7811 210.272 60.011 213.411 59.2871C216.65 63.483 218.399 68.6468 218.058 73.718C217.676 79.5047 213.345 84.7527 214.56 90.6656C215.7 96.1993 221.026 97.9151 226.284 99.2857L228.52 99.8608C230.241 100.308 231.49 100.739 231.802 102.58C232.336 105.74 231.679 109.297 231.542 112.474C231.376 116.232 231.159 119.99 231.059 123.749C231.007 125.693 230.923 127.646 230.927 129.59C230.932 130.97 231.163 131.913 231.764 132.805C231.3 133.323 230.885 133.883 230.516 134.476C230.397 134.67 230.691 134.875 230.865 134.716C231.333 134.282 231.83 133.891 232.355 133.541C232.619 133.832 232.927 134.127 233.286 134.442L233.314 134.409C234.44 135.406 236.227 135.503 237.622 134.442L237.988 134.16C239.009 133.363 239.71 132.7 239.994 131.383C240.009 131.315 240.023 131.248 240.032 131.181C242.628 131.101 245.266 131.647 247.601 132.797C251.303 134.619 253.908 137.216 255.448 140.423C254.834 141.062 254.116 141.635 253.279 142.114C253.161 142.186 253.265 142.342 253.392 142.287C254.248 141.929 255.014 141.487 255.699 140.97C256.253 142.232 256.64 143.587 256.877 145.022C257.709 150.089 256.224 156.28 251.081 159.167C248.854 160.417 246.31 161.095 243.672 161.103C242.387 161.107 241.276 160.914 240.028 160.64C239.181 160.455 238.34 160.186 237.456 160.186C236.699 160.186 236 160.354 235.352 160.691L235.532 160.705C235.968 160.741 235.884 160.758 235.276 160.758C233.385 160.83 232.303 162.538 233.173 164.024L233.287 164.253C233.311 164.3 233.331 164.338 233.347 164.368L233.416 164.763C233.423 164.8 233.43 164.839 233.437 164.878L233.464 164.958C233.468 164.971 233.474 164.983 233.48 164.996L230.644 168.846C227.166 173.556 223.612 178.248 219.567 182.55C216.73 185.567 213.723 188.526 210.546 191.265C207.691 193.727 204.268 194.914 201.034 196.85C199.308 197.877 198.803 200.027 200.372 201.412C204.977 205.482 211.497 202.249 215.274 198.942C218.848 195.806 221.935 192.035 224.597 188.26C229.32 181.548 233.078 174.41 234.723 166.662C235.409 167.222 236.283 167.572 237.167 167.845C238.94 168.392 240.893 168.619 242.765 168.678C246.353 168.784 249.946 168.009 253.175 166.637C266.313 161.061 268.242 144.362 260.21 134.514C261.293 131.718 261.898 128.684 262.555 126.097L262.854 124.941C266.175 112.024 268.405 98.424 262.517 85.7669C261.76 84.134 260.909 82.5432 259.902 81.0197C259.094 79.7951 257.704 78.4904 257.321 77.0974C256.47 74.0379 261.722 70.8226 263.254 68.3943C265.055 65.5451 265.311 62.1826 262.857 59.5771C262.545 59.2492 262.205 58.9458 261.836 58.6811C264.162 54.9271 264.271 50.2052 261.207 46.5017C259.193 44.0608 256.12 42.3522 252.764 41.8345C250.712 41.5189 248.244 41.6367 245.989 42.2007C233.641 31.9951 219.552 23.4687 204.212 17.2738ZM251.629 144.972C248.334 142.384 244.693 141.029 240.202 141.37C235.687 141.714 230.251 143.377 227.599 146.824C225.504 149.547 229.773 153.54 232.846 151.495C235.645 149.631 237.513 147.527 240.987 146.525C244.108 145.629 247.97 145.052 251.237 145.565C251.596 145.62 251.955 145.224 251.629 144.972Z" fill="black"/>
<path fill-rule="evenodd" clip-rule="evenodd" d="M129.721 174.606C128.994 173.483 127.321 172.443 125.79 172.603C118.93 173.317 118.942 180.705 121.591 185.018C123.939 188.842 128.8 191.087 133.664 190.759C138.775 190.414 143.129 187.745 145.045 183.499C146.313 180.689 146.898 175.503 143.527 173.616C143.464 173.581 143.361 173.589 143.311 173.64C141.695 175.311 141.631 177.818 140.216 179.678C138.9 181.408 136.855 182.836 134.46 183.057C132.671 183.222 130.861 182.649 130.162 181.222C129.783 180.45 129.826 180.031 129.969 179.5L130.098 179.039C130.546 177.422 130.747 176.191 129.721 174.606ZM127.887 142.207C124.31 144.138 118.859 148.643 122.707 153.432C127.238 157.654 133.76 152.813 136.974 150.623C139.954 148.926 143.303 153.291 140.538 155.272C117.313 170.547 107.887 142.712 126.078 139.935C128.081 139.63 128.825 141.609 127.887 142.207ZM165.666 128.961C163.47 126.034 158.458 126.465 157.248 129.938C156.593 131.819 157.498 133.51 157.451 135.389C157.412 136.976 157.529 138.744 158.077 140.281C159.325 143.786 162.874 146.261 167.072 146.159C171.256 146.056 174.941 143.704 176.694 140.391C178.452 137.065 178.08 133.622 176.796 130.24C176.735 130.078 176.495 129.999 176.35 130.136C174.833 131.569 173.722 133.081 172.572 134.686L171.394 136.33C170.494 137.568 169.185 139.15 167.504 139.05L167.252 139.028C166.785 138.993 166.857 139.075 166.496 138.509C166.329 138.248 166.36 137.761 166.279 137.452L166.251 137.348L166.267 137.292C166.302 137.142 166.337 136.86 166.366 136.371L166.372 136.263C166.494 133.975 167.222 131.034 165.666 128.961ZM110.004 130.909C110.397 127.166 104.473 126.335 102.504 129.104C101.477 130.549 101.178 132.363 100.951 134.082L100.844 134.898C100.611 136.663 100.519 138.5 101.382 140.147C102.74 142.74 105.695 144.111 108.883 143.894C111.927 143.686 114.704 142.119 116.168 139.739C117.473 137.615 118.771 133.469 117.185 131.254C117.09 131.12 116.898 131.103 116.767 131.206C115.269 132.387 115.025 134.542 114.134 136.081C113.216 137.669 111.822 139.216 109.711 139.457C107.691 139.687 106.919 138.707 107.434 136.997C108.099 134.788 109.753 133.286 110.004 130.909ZM164.066 106.708L163.097 106.378C159.778 105.264 155.221 103.977 152.523 106.374C150.858 107.853 150.541 110.031 151.729 111.835C153.169 114.02 155.751 114.074 158.245 114.396C161.081 114.762 163.966 115.458 166.607 116.451C169.582 117.569 172.342 118.963 175.047 120.519C177.618 121.999 180.179 124.416 183.256 124.872C183.382 124.891 183.524 124.843 183.557 124.72C184.256 122.048 182.314 119.418 180.581 117.333C178.484 114.809 175.943 112.737 173.104 110.879C170.363 109.086 167.231 107.79 164.066 106.708ZM103.772 116.209L103.476 116.163C101.464 115.865 99.6396 115.934 98.1227 117.35C96.9649 118.43 96.5186 119.83 97.0705 121.259C97.5798 122.576 98.7187 123.915 100.372 124.191C105.952 125.124 112.133 124.97 117.742 124.264C120.307 123.94 122.896 123.545 125.396 122.921L126.546 122.625C128.632 122.096 131.021 121.542 132.536 120.179C133.081 119.689 132.767 118.988 132.115 118.761C129.471 117.841 125.846 118.331 123.026 118.259C119.746 118.176 116.46 117.957 113.196 117.656C110.006 117.362 106.919 116.722 103.772 116.209Z" fill="black"/>
</svg>
