<svg width="391" height="505" viewBox="0 0 391 505" fill="none" xmlns="http://www.w3.org/2000/svg">
<g clip-path="url(#clip0_30_523)">
<path d="M59.1357 315.102H173.344V442.023H59.1357V315.102Z" fill="#FDEA6B"/>
<path fill-rule="evenodd" clip-rule="evenodd" d="M206.655 190.96C194.344 182.5 163.437 178.695 150.297 186.841C137.319 195.021 135.905 208.249 129.857 220.419C124.151 217.99 114.728 221.468 113.074 226.246C111.022 228.499 110.93 234.831 109.515 237.86C47.9513 246.704 38.6047 290.018 31.1946 339.193C21.3917 389.092 -0.862063 438.882 8.79879 490.229C7.54 491.873 6.54753 493.471 5.62987 495.368C3.43098 498.745 6.26324 503.524 10.6984 503.339C16.4393 502.884 22.1233 502.263 27.8911 502.069C43.8801 501.568 59.8838 501.628 75.8789 501.811L78.06 501.837C158.671 502.742 239.277 504.527 319.891 505C322.816 505.004 324.248 502.637 323.857 500.302C323.071 495.601 322.341 490.898 321.58 486.194C340.647 490.739 360.917 491.883 379.931 486.672C381.261 485.45 376.832 486.113 376.129 485.927C393.627 475.136 388.402 452.404 386.852 436.031C377.213 379.929 373.815 317.856 336.576 269.983C320.466 250.446 296.846 234.978 269.706 231.497L268.953 231.404C261.017 230.449 252.173 230.142 245.234 226.246C237.431 220.624 234.105 210.236 225.896 210.139C223.185 210.107 219.497 213.201 215.528 215.303C215.232 210.68 212.472 206.779 211.862 203.195L211.813 202.889C211.177 198.71 212.048 194.951 206.655 190.96ZM74.3489 340.675C91.6501 329.828 136.343 335.278 137.366 335.885C139.618 337.223 140.588 337.341 141.807 339.077C143.01 339.221 144.212 339.371 145.413 339.525C147.822 340.235 146.037 342.909 143.254 341.955C144.928 348.47 140.002 353.103 138.041 359.543C137.404 361.634 138.018 365.395 138.041 367.531C137.85 370.256 134.513 373.474 135.069 376.207C137.047 385.923 147.778 395.402 143.254 404.825C140.256 410.147 131.241 412.861 125.248 414.67C112.83 418.971 91.1929 414.508 83.9778 404.825C80.1294 399.66 75.6708 386.632 73.3762 382.59L72.8676 376.18C71.6133 360.244 70.4976 343.089 74.3489 340.675Z" fill="#D08B5B"/>
<path fill-rule="evenodd" clip-rule="evenodd" d="M226.536 210.168L221.584 212.91L192.829 225.738C187.254 227.147 184.467 228.835 184.467 230.803V250.839C184.467 253.521 179.235 259.598 168.772 269.07L159.106 260.374L159.322 259.236C160.242 254.33 160.702 251.048 160.702 249.39C160.702 247.608 151.245 240.841 132.332 229.089L124.057 222.059L124.94 219.638C119.838 219.855 114.305 222.691 113.074 226.246C111.022 228.5 110.93 234.831 109.515 237.861C47.9513 246.704 38.6047 290.019 31.1946 339.193C21.3917 389.092 -0.862063 438.883 8.79879 490.23C7.54 491.873 6.54753 493.471 5.62987 495.369C3.43098 498.745 6.26324 503.524 10.6984 503.339C16.4393 502.884 22.1233 502.263 27.8911 502.069C43.8801 501.568 59.8838 501.628 75.8789 501.811L78.06 501.837C158.671 502.743 239.277 504.527 319.891 505C322.816 505.004 324.248 502.637 323.857 500.302C323.071 495.601 322.341 490.898 321.58 486.195C340.647 490.74 360.917 491.883 379.931 486.673C381.261 485.45 376.832 486.113 376.129 485.927C393.627 475.136 388.402 452.405 386.852 436.032C377.213 379.93 373.815 317.856 336.576 269.983C320.466 250.446 296.846 234.978 269.706 231.498L268.953 231.405L268.195 231.316C260.458 230.427 251.953 230.019 245.234 226.246C237.637 220.773 234.284 210.781 226.536 210.168ZM157.633 327.775C160.453 327.775 166.229 331.727 174.961 339.633L175.731 339.954C186.286 344.378 193.279 348.216 196.709 351.468L196.831 351.585C200.296 354.94 207.158 363.86 217.416 378.347L232.272 386.275H237.893L241.894 412.471L232.272 431.175L210.475 424.55L174.961 416.102L154.582 397.444L143.087 393.961C144.481 397.598 144.987 401.216 143.254 404.825C140.256 410.148 131.241 412.861 125.248 414.671C112.83 418.972 91.1929 414.509 83.9778 404.825C80.1294 399.661 75.6708 386.632 73.3762 382.591L72.7181 374.263C71.532 358.896 70.6517 342.993 74.3489 340.675C91.6501 329.828 136.343 335.278 137.366 335.886C139.618 337.223 140.588 337.341 141.807 339.078L142.438 339.154L138.891 334.813L140.147 334.208C149.108 329.919 154.936 327.775 157.633 327.775ZM143.254 341.955C144.856 348.192 140.41 352.704 138.307 358.729L143.68 349.447L143.68 342.076C143.541 342.045 143.399 342.005 143.254 341.955Z" fill="#9DDADB"/>
<path fill-rule="evenodd" clip-rule="evenodd" d="M228.91 209.199C227.716 208.244 225.948 209.444 226.707 210.733C228.413 213.631 230.162 216.377 232.452 218.939C233.84 220.492 235.326 221.961 236.833 223.414C232.966 226.433 229.65 230.18 226.519 233.693C222.514 238.185 218.729 242.868 214.234 246.978C209.801 251.032 204.899 253.866 198.972 255.755L197.775 256.131C191.821 258.017 185.458 260.564 182.102 265.652C181.44 266.655 182.772 267.894 183.893 267.268C189.724 264.01 196.576 263.354 202.924 261.201C209.056 259.121 214.401 255.921 219.124 251.835C223.839 247.757 227.798 243.116 231.927 238.574C236.011 234.083 240.408 230.247 245.238 226.447C252.692 230.972 261.2 232.941 269.851 234.875L270.796 235.086C279.458 237.021 288.073 239.269 296.199 242.639C303.364 245.61 310.411 249.158 316.247 253.993C322.442 259.124 327.264 265.677 331.677 272.085C341.549 286.423 348.49 302.131 354.599 318.029C360.954 334.566 366.27 351.434 370.561 368.502C372.743 377.184 374.516 385.927 375.972 394.732C376.674 398.973 377.297 403.222 377.844 407.481C378.428 412.029 378.562 416.708 380.108 421.081C380.771 422.955 382.336 423.733 383.902 423.667L384.22 427.258C384.642 432.046 385.036 436.835 385.168 441.653C385.389 449.663 385.289 457.651 384.65 465.644L384.56 466.734C384.058 472.568 382.937 479.123 378.076 483.394C373.042 487.819 365.3 489.21 358.515 489.289C342.712 489.475 327.5 482.737 313.515 476.825C299.113 470.737 285.104 463.979 271.431 456.65C264.468 452.918 257.58 449.061 250.78 445.092C247.443 443.143 244.129 441.162 240.841 439.149C238.957 437.996 237.172 436.732 235.254 435.709C236.194 434.919 236.614 433.678 235.827 432.594C241.37 428.252 243.677 420.503 243.947 414.233C244.165 409.172 243.339 404.125 242.688 399.112C242.359 396.584 241.953 394.06 241.532 391.543C241.365 390.549 241.238 389.486 241.044 388.436C256.012 395.859 271.4 402.47 287.195 408.343C295.291 411.353 303.491 414.06 311.805 416.54L313.49 417.041C321.366 419.368 329.432 421.566 337.575 422.896C338.01 422.967 338.364 422.387 337.899 422.202C329.963 419.042 321.753 416.377 313.698 413.466L312.374 412.98C312.526 412.972 312.684 412.953 312.848 412.918C317.572 411.889 322.259 410.303 326.893 408.968C331.193 407.729 336.024 406.951 340.043 405.081C340.352 404.937 340.179 404.549 339.878 404.53C335.361 404.248 330.457 405.436 326.027 406.135L324.363 406.398C321.576 406.841 318.727 407.318 315.953 407.94C315.853 407.101 315.334 406.259 314.595 405.766C306.467 400.334 307.293 389.363 306.423 381.273L305.779 375.266C304.645 364.755 303.445 354.245 301.623 343.812C301.526 343.254 300.571 343.414 300.567 343.94C300.473 356.873 301.555 369.746 302.097 382.659L302.181 384.777C302.481 392.745 302.716 401.018 308.276 407.149C307.499 406.739 306.447 406.739 305.817 407.415C305.043 408.246 304.597 409.179 304.611 410.095C299.586 408.194 294.583 406.244 289.605 404.253C273.599 397.854 257.929 390.693 242.674 382.945C241.032 382.111 239.471 382.766 238.659 383.865L238.542 383.85C238.523 383.848 238.503 383.846 238.482 383.846L238.366 383.841C238.362 383.841 238.357 383.842 238.353 383.842C236.206 382.777 233.28 383.535 231.437 385.088C231.383 385.135 231.336 385.186 231.288 385.235C228.955 384.29 226.777 383.014 224.8 381.397C220.754 378.088 217.327 373.996 214.34 369.893C208.838 362.337 204.165 353.933 196.734 347.713C190.696 342.659 183.21 339.512 175.356 337.537C175.389 337.33 175.301 337.109 175.143 336.963C174.739 336.59 174.452 336.46 173.93 336.687C173.889 336.705 173.864 336.731 173.847 336.758L173.081 335.576C172.663 334.935 172.233 334.289 172.084 334.119C171.192 333.106 170.275 332.101 169.343 331.116C167.764 329.45 165.964 327.805 163.88 326.649C159.316 324.119 154.519 325.551 149.827 326.934C146.993 327.77 144.167 328.632 141.338 329.481L141.046 329.567C138.936 330.179 136.467 330.714 135.523 332.731C135.149 333.53 135.092 334.358 135.266 335.162C115.225 330.563 92.9656 332.676 73.409 338.075C72.6584 338.282 71.9088 338.839 71.7507 339.571C69.5099 349.941 68.512 360.576 69.5259 371.123C70.4007 380.227 72.636 389.149 76.8482 397.484L77.0877 397.954C81.0463 405.679 87.3205 415.201 96.9025 417.622C102.688 419.084 109.087 418.222 114.988 417.954C120.723 417.693 126.585 417.656 132.266 416.842C137.325 416.117 141.758 414.071 144.884 410.359C147.581 407.156 149.002 403.285 150.165 399.435C150.698 399.588 151.227 399.75 151.748 399.934C153.945 400.709 155.808 401.959 157.491 403.431C161.047 406.538 163.805 410.312 167.525 413.277C170.892 415.961 174.729 418.049 178.845 419.654C187.374 422.979 196.524 424.308 205.545 426.071L206.175 426.194C212.966 427.539 219.899 429.191 225.893 432.382C226.011 433.321 226.485 434.205 227.245 434.784C226.188 435.68 225.74 437.099 226.669 438.43C229.264 442.147 233.735 444.262 237.748 446.639L238.009 446.794C241.957 449.156 245.939 451.472 249.954 453.739C258.116 458.351 266.448 462.709 274.898 466.874C288.489 473.575 302.371 479.895 316.505 485.628C315.657 489.395 315.967 493.278 315.329 497.07L315.231 497.611C314.959 499.018 315.327 500.195 316.401 501.115L316.515 501.209L316.513 501.196L316.613 501.279L316.647 501.305L316.636 501.297C316.76 501.399 316.887 501.495 317.018 501.576L317.183 501.672C318.218 502.24 319.55 502.233 320.609 501.732L320.73 501.672L320.933 501.567C322.333 500.841 323.298 499.041 322.717 497.611C321.29 494.097 320.751 490.346 319.434 486.809L320.479 487.23L321.857 487.772C336.758 493.587 353.31 498.484 369.545 494.52C376.719 492.768 383.424 489.062 387.013 483.021C390.545 477.078 391.044 470.176 391.232 463.565C391.463 455.404 390.979 447.119 389.786 439.029C388.986 433.599 388.018 428.065 386.524 422.691C387.293 422.079 387.857 421.202 388.006 420.116C388.711 414.983 387.478 409.646 386.722 404.54C385.985 399.554 385.17 394.578 384.248 389.617C382.388 379.599 380.226 369.602 377.708 359.701C373.229 342.08 367.314 324.772 360.192 307.879L359.568 306.407C352.987 290.965 345.367 275.853 334.757 262.288C329.682 255.798 324.316 249.913 317.145 245.237C310.426 240.855 302.847 237.7 295.026 235.288C287.196 232.875 279.149 231.258 270.959 230.252C262.642 229.23 253.863 228.604 246.104 225.525C247.086 223.937 246.243 221.794 244.592 220.809C239.033 217.495 233.892 213.183 228.91 209.199ZM50.9614 353.322C50.7285 353.003 50.1754 353.205 50.2776 353.582C52.9812 363.578 55.5193 373.594 57.1765 383.781C60.1682 402.166 59.6179 420.791 59.3733 439.313L59.361 440.271C59.2353 450.247 59.0607 460.224 58.6952 470.197C58.5106 475.237 58.1456 480.326 58.3441 485.369C58.4523 488.104 59.2602 490.692 59.5465 493.394C59.7974 495.758 59.5739 498.157 59.4488 500.524C59.365 502.097 61.9384 502.03 62.1134 500.524L62.3373 498.575C62.628 496.11 62.9875 493.659 63.8829 491.299C64.9597 488.46 65.4764 485.672 65.8499 482.692C66.4221 478.125 66.6765 473.512 66.8973 468.913L67.0484 465.732C67.9705 446.512 67.9382 427.202 66.4453 408.002L66.3362 406.63C64.858 388.482 62.293 368.872 50.9614 353.322ZM108.592 238.937C109.298 238.675 109.051 237.712 108.269 237.88L106.846 238.186C96.4258 240.438 86.1942 242.879 76.4678 247.07C66.7351 251.264 58.4951 257.525 51.9478 265.224C39.2203 280.189 33.9313 298.377 29.756 316.547C25.1158 336.738 20.8911 357.003 16.2105 377.187L15.3414 380.947C11.0104 399.746 6.92135 418.556 3.90841 437.578L3.69198 438.958C0.653643 458.519 -1.1739 478.757 2.14144 498.369C2.79726 502.249 9.95199 501.283 9.67221 497.45C8.86427 486.367 8.28575 475.343 8.84482 464.236C9.40439 453.127 10.5589 442.067 12.2801 431.055C13.7284 421.787 15.8875 412.636 17.7982 403.442L18.0977 401.99C19.6976 394.171 21.347 386.359 22.9928 378.547L25.4522 366.851C29.1383 349.337 32.8965 331.808 37.1431 314.404L37.3951 313.38C41.5509 296.636 47.6778 279.097 60.1434 265.801C72.7936 252.307 90.9029 245.512 108.592 238.937ZM154.558 416.536C154.254 415.924 153.189 415.991 152.862 416.536C151.58 418.67 151.438 421.395 151.196 423.804L151.17 424.052C150.862 426.993 150.589 429.943 150.422 432.893C150.105 438.491 149.954 444.082 149.973 449.688C149.993 455.433 150.121 461.171 150.464 466.907L150.558 468.444C150.871 473.429 151.396 478.989 154.021 483.347C154.975 484.932 157.57 484.466 158.122 482.863C159.933 477.617 159.003 471.397 158.539 466.024L158.178 461.832C157.821 457.639 157.481 453.444 157.211 449.247C156.841 443.503 156.535 437.755 156.242 432.009C156.146 430.142 156.043 428.275 155.934 426.409L155.766 423.61C155.623 421.269 155.635 418.7 154.558 416.536ZM358.112 423.971L357.311 423.272C354.851 421.099 351.742 417.753 348.105 417.96C346.655 418.043 345.73 419.13 346.031 420.417C346.674 423.17 349.785 424.599 352.025 426.279C354.479 428.12 356.791 430.087 359.099 432.073C361.147 433.834 363.116 435.645 365.038 437.513L365.757 438.216C366.446 438.895 371.352 442.899 370.821 443.938L370.792 443.985C370.645 444.184 370.891 444.457 371.136 444.387C373.254 443.783 373.122 442.145 372.321 440.484C370.782 437.294 368.087 434.343 365.733 431.619C363.386 428.901 360.846 426.37 358.112 423.971ZM146.881 343.969C148.519 340.474 154.554 340.548 157.981 340.756C166.609 341.283 175.944 343.253 183.621 346.892C191.58 350.665 196.941 356.71 201.738 363.395L201.962 363.709C206.638 370.268 211.141 378.032 218.462 382.542C222.191 384.839 226.546 386.937 231.07 387.846C231.381 388.339 231.884 388.729 232.544 388.871L232.851 388.934C234.139 389.191 236.141 389.475 237.87 389.305C237.859 390.068 237.868 390.826 237.846 391.549C237.786 393.622 237.76 395.703 237.76 397.777C237.759 402.123 238.017 406.477 237.816 410.822C237.638 414.665 237.037 418.68 234.992 422.116C233.492 424.636 231.513 426.304 229.124 427.897C223.246 424.664 216.599 422.693 209.853 421.212C201.695 419.42 193.342 418.224 185.369 415.795C181.532 414.625 177.843 413.094 174.501 411.015C170.953 408.808 168.243 405.821 165.456 402.9L165.02 402.446C162.175 399.501 159.07 396.683 155.049 395.087C151.586 393.711 147.023 393.466 143.995 391.338C142.412 390.225 142.279 388.609 142.113 386.955C144.052 387.205 146.104 386.804 148.037 386.6L149.038 386.494C150.866 386.298 152.651 386.082 154.45 385.663C154.784 385.585 154.784 385.13 154.45 385.052C152.324 384.557 150.217 384.346 148.037 384.115L147.525 384.058C145.553 383.824 143.48 383.472 141.546 383.864C141.198 382.672 140.697 381.534 139.994 380.394C139.007 378.794 137.139 376.978 136.887 375.108C136.812 374.55 136.956 373.891 137.248 373.398L137.348 373.229C137.471 373.031 137.616 372.831 137.829 372.707C137.852 372.732 137.902 372.76 138.01 372.79C139.499 373.214 140.798 372.556 141.487 371.542C144.413 371.87 147.606 371.76 150.35 371.869L153.125 371.99C156.089 372.113 159.188 372.167 161.974 371.626C162.363 371.551 162.481 370.967 162.091 370.816C158.666 369.495 154.512 369.073 150.845 368.565C148.798 368.281 146.735 368.065 144.681 367.815C143.314 367.649 141.862 367.374 140.445 367.308C136.893 363.317 138.807 357.021 143.751 355.303C145.552 356.017 147.171 355.602 149.139 355.449C151.103 355.297 153.072 355.194 155.044 355.202C158.995 355.217 163.182 356.155 167.095 355.752C167.732 355.685 168.323 354.921 167.69 354.455C164.695 352.249 160.402 351.53 156.6 351.06L155.812 350.965C154.537 350.814 152.987 350.594 151.38 350.463C151.016 349.823 150.364 349.339 149.384 349.219C149.092 349.183 148.8 349.162 148.507 349.139L148.512 349.113C146.122 349.009 146.226 345.367 146.881 343.969ZM310.498 412.121C310.54 412.18 310.586 412.236 310.636 412.29L310.711 412.369L310.318 412.225L310.498 412.121ZM105.176 336.16C115.236 335.185 125.31 335.391 135.399 335.653C136.206 338.034 139.015 340.064 141.736 340.141C139.605 343.068 139.385 347.031 140.879 350.136C137.706 351.276 134.972 353.324 133.312 356.24C131.01 360.283 131.312 364.782 133.586 368.519C131.645 370.105 130.499 372.681 130.614 375.108C130.742 377.816 132.53 380.128 134.016 382.369C135.621 384.794 135.675 386.928 136.168 389.643C136.89 393.616 139.859 396.026 143.68 397.531L143.477 398.252C142.492 401.712 141.266 405.363 138.451 407.893C134.829 411.148 129.211 411.118 124.426 411.324L124.195 411.334C119.813 411.532 115.434 411.764 111.053 411.988L107.768 412.154C102.725 412.404 97.882 412.434 93.765 409.425C87.0437 404.514 82.4359 396.386 79.5194 389.191C73.398 374.088 73.3247 357.514 76.1345 341.785C85.558 339.044 95.3355 337.114 105.176 336.16ZM188.832 361.217L188.758 361.221C186.687 361.435 185.264 362.948 184.758 364.744C184.021 367.353 184.383 369.712 182.612 372.068C180.79 374.49 179.67 376.43 179.405 379.422C179.296 380.654 179.346 381.882 179.042 383.087L178.822 383.932C178.588 384.832 178.397 385.7 178.513 386.666C178.619 387.548 179.095 388.235 180.075 388.518C183.268 389.439 185.734 387.316 186.559 384.63C187.272 382.311 186.32 379.546 187.326 377.368C187.883 376.16 188.91 375.15 189.491 373.935C190.066 372.73 190.354 371.471 190.447 370.161C190.622 367.684 188.194 364.708 189.548 362.463C189.837 361.984 189.51 361.202 188.832 361.217ZM231.25 335.653C229.088 335.257 226.635 334.348 224.502 335.103C223.406 335.492 222.864 336.698 223.79 337.537C225.398 338.991 227.735 339.072 229.901 339.415L230.092 339.446C232.653 339.874 235.218 340.279 237.787 340.664C242.62 341.386 247.465 342.025 252.327 342.568C257.32 343.125 262.327 343.622 267.341 343.995L269.283 344.139C273.518 344.445 277.925 344.675 282.081 344.09C282.685 344.005 282.588 343.211 282.081 343.072C277.528 341.829 272.534 341.495 267.827 340.969C262.823 340.409 257.827 339.817 252.844 339.115C247.87 338.413 242.901 337.661 237.951 336.829C235.714 336.454 233.48 336.062 231.25 335.653ZM153.222 331.66C155.12 331.054 157.208 330.156 159.264 330.456C162.81 330.975 165.966 334.093 168.773 336.146L167.363 335.899C160.152 334.648 150.602 333.3 144.549 337.438C144.533 337.414 144.522 337.39 144.504 337.366C144.015 336.697 143.449 336.174 142.831 335.601C142.772 335.551 142.715 335.499 142.659 335.446L142.326 335.126L143.088 334.888C144.721 334.367 146.656 333.694 146.962 333.596L146.983 333.589C149.065 332.953 151.15 332.323 153.222 331.66ZM212.472 195.254C212.769 191.81 206.828 191.838 206.534 195.254C205.892 202.712 207.752 210.099 211.755 216.637C211.784 216.685 211.817 216.728 211.848 216.773C209.344 217.948 206.812 219.076 204.224 220.084C200.912 221.374 197.539 222.549 194.105 223.545C190.999 224.447 187.173 224.803 184.561 226.68C179.055 230.637 181.123 238.849 182.183 244.172L182.348 245.012C182.875 247.752 183.257 250.562 181.977 253.191C180.611 255.999 177.847 258.082 175.382 260.091L174.884 260.498C172.7 262.294 170.205 264.475 168.603 266.909C167.141 264.181 165.147 261.951 163.04 259.441C161.536 257.65 162.606 257.06 163.686 255.31C164.726 253.626 165.234 251.83 164.909 249.909C164.309 246.36 161.166 243.797 158.038 241.871C154.344 239.598 150.221 237.914 146.403 235.799C138.556 231.454 130.914 226.486 124.029 220.969C123.839 220.816 123.509 221.016 123.662 221.224C129.1 228.69 135.477 235.14 143.315 240.616C146.493 242.836 149.831 244.678 153.192 246.614L154.158 247.174C155.508 247.962 157.191 249.017 157.801 250.36C158.415 251.71 157.106 252.73 156.401 253.849C154.163 257.402 155.243 260.718 157.896 263.731L158.019 263.87C160.656 266.801 162.654 269.528 163.609 273.273C165.662 281.319 162.803 289.7 159.809 297.254L159.691 297.551C158.071 301.623 156.35 305.664 154.943 309.801L154.556 310.945C153.281 314.751 152.238 318.505 153.668 322.418C154.154 323.748 156.165 324.063 157.001 322.81C159.947 318.393 160.682 313.078 162.529 308.222C164.33 303.489 166.397 298.841 168.136 294.089C170.375 287.97 171.874 281.384 171.061 274.966C171.085 274.928 171.111 274.893 171.131 274.854L171.701 273.728C173.255 270.682 174.757 268.021 177.583 265.592C180.532 263.059 183.732 260.816 186.052 257.749C191.092 251.087 187.975 243.677 187.366 236.393L187.297 235.5C187.186 233.988 187.126 231.932 188.22 230.885C189.452 229.707 192.339 229.407 193.973 228.885C198.195 227.536 202.356 225.965 206.319 224.079C210.092 222.283 213.746 220.299 217.148 217.975L218.873 216.804C221.593 214.951 224.415 212.928 226.238 210.406C226.449 210.116 226.091 209.647 225.71 209.786C222.666 210.901 219.885 212.675 217.036 214.217C216.992 214.123 216.941 214.028 216.882 213.933C213.358 208.177 211.909 201.801 212.472 195.254ZM115.228 234.688C114.016 231.686 108.488 231.918 108.708 235.484C108.877 238.224 110.166 240.697 111.345 243.185L111.47 243.452C112.687 246.044 114.093 248.477 115.775 250.853C118.988 255.394 122.752 259.608 126.772 263.586C130.417 267.192 135.2 269.397 140.713 269.03C143.035 268.876 145.38 268.343 147.415 267.296C149.833 266.052 152.458 262.317 155.542 263.221C155.84 263.308 156.119 262.914 155.861 262.727C152.3 260.14 148.259 264.152 144.85 265.119C139.714 266.575 134.443 264.965 131.137 261.217C127.685 257.305 124.508 252.924 121.607 248.664C120.134 246.501 118.79 244.256 117.629 241.943C116.457 239.607 116.191 237.069 115.228 234.688ZM123.508 216.216C123.658 215.801 123.087 215.407 122.684 215.644C120.344 217.018 118.317 218.834 116.159 220.426C113.764 222.192 111.352 223.922 108.903 225.626C105.333 228.11 109.474 232.683 112.617 229.969C116.918 226.257 121.628 221.404 123.508 216.216ZM136.353 201.688C135.402 198.38 129.781 199.744 130.6 203.013L130.627 203.112C132.178 208.512 129.969 214.009 125.251 217.509L125.077 217.636C122.093 219.792 126.321 223.56 129.276 221.425C135.727 216.766 138.411 208.851 136.353 201.688Z" fill="black"/>
<path fill-rule="evenodd" clip-rule="evenodd" d="M88.058 47.9655C89.1633 45.4428 91.1182 42.2721 94.3854 42.1456C96.9126 35.1582 103.196 28.0421 111.936 28.2311C137.591 4.50586 169.888 5.6243 203.655 10.6467C221.47 13.6347 239.559 19.4857 252.846 31.0319C268.759 44.625 274.956 68.3435 262.494 85.5323C273.264 90.7518 273.473 103.138 268.867 112.076C274.404 115.538 274.74 123.942 268.506 126.583C268.837 127.811 268.603 129.08 267.971 130.171C271.062 132.498 275.085 134.217 278.411 135.694C279.881 136.347 280.729 137.414 281.082 138.616C292.003 145.096 319.235 160.93 318.91 173.533C319.07 180.107 313.678 184.434 307.124 186.157C311.023 193.207 313.983 201.441 310.251 209.045C309.219 211.343 301.489 218.095 301.1 218.22C300.419 218.748 289.33 214.143 283.94 211.795C282.895 217.943 275.625 221.164 269.359 219.057C263.417 217.437 259.765 212.888 256.017 208.751C251.043 218.563 236.408 218.676 226.949 214.446C218.454 210.897 211.997 204.392 208.4 196.554C189.298 205.011 166.949 207.476 146.196 204.098C144.865 206.23 141.916 207.661 139.29 206.837C128.255 203.837 116.053 203.668 106.699 196.794C87.2005 184.138 85.5587 160.804 86.9183 140.914C88.1242 121.082 87.0686 101.086 91.055 81.4681C89.325 75.6923 86.4475 70.5862 83.7849 65.1601C80.8924 59.4703 80.9532 51.012 88.058 47.9655Z" fill="#D08B5B"/>
<path fill-rule="evenodd" clip-rule="evenodd" d="M176.579 8.60092L175.821 8.60362C174.568 8.61109 173.317 8.63348 172.069 8.67067C165.475 8.86693 158.598 9.64055 150.855 10.9648L149.677 11.1693C147.752 11.5103 146.026 11.8524 143.275 12.4337L137.814 13.5976C135.033 14.1835 132.986 14.5889 131.098 14.9151L130.851 14.9573C121.149 19.1628 114.731 22.6489 111.598 25.4156L111.129 25.8329L110.93 26.0134L108.886 26.0717L108.866 26.305L108.849 26.3074C106.82 26.5929 104.985 27.5432 103.278 29.0227L103.095 29.1832L102.92 29.3422C101.59 30.5654 100.53 31.8689 99.0686 33.9348L98.7371 34.4067L98.1432 35.2589L97.6622 35.9432C97.3498 36.3908 97.0494 36.8336 96.7611 37.2723L96.4767 37.7097L96.2721 38.0313L90.996 40.8145C90.2358 41.2156 89.544 41.7345 88.9111 42.3561L88.74 42.5281L88.5717 42.7052L87.1341 44.2521L87.4239 44.525L87.2838 44.6916L87.0327 45.0025L86.7879 45.3176L86.5496 45.6369L86.4469 45.7772L86.2919 46.0801L86.2165 46.2314L86.1563 46.3559L85.9762 46.4397L85.6097 47.0377C83.7076 50.1412 82.6832 53.6658 82.6138 57.2877C82.566 59.7859 82.9069 62.0548 83.7159 64.2435C84.2757 65.7569 85.026 66.9461 86.3231 68.5833L87.348 69.8547L87.5573 70.117L87.8074 70.4362C87.847 70.4873 87.8858 70.5377 87.924 70.5877C89.5909 72.7708 103.835 76.9029 112.59 77.1026L112.854 77.1075L113.191 77.1105C114.026 77.1137 114.834 77.0866 115.612 77.0278C118.98 76.7731 122.128 76.1322 125.786 75.0841L126.545 74.8624L130.576 73.638C130.704 73.5995 130.808 73.5689 130.879 73.5482L131.247 73.4441C132.135 73.1979 132.78 73.0564 133.219 73.0051L133.309 72.9953L133.318 73.1461L133.321 73.2881L133.321 73.4037C133.295 75.0812 134.422 76.3041 136.169 77.0834C137.282 77.5796 138.716 77.934 140.515 78.2001L140.803 78.2413C143.744 78.6523 147.253 78.8279 153.121 78.9482C153.345 78.9528 153.57 78.9502 153.797 78.9408C155.058 78.8886 156.048 78.6944 157.889 78.2164L158.759 77.9906L159.231 77.8726C160.106 77.6588 160.594 77.5734 161.055 77.55L161.189 77.545L161.322 77.5429C161.875 77.5422 162.274 77.6536 162.668 77.925L162.869 78.0707L165.575 80.1205C165.927 80.3857 166.243 80.621 166.474 80.7877L166.568 80.8549C170.282 83.4881 173.823 84.9922 177.994 85.1353L178.273 85.1428L178.564 85.1458C178.776 85.1462 178.988 85.1427 179.201 85.1353C180.958 85.0749 182.781 84.4861 185.271 83.3506L185.787 83.112L186.148 82.9416C186.333 82.8539 186.525 82.7616 186.733 82.6607L188.591 81.7619L189.54 81.3133C190.674 80.786 191.307 80.5313 191.732 80.4264L191.802 80.4098L191.842 80.4446C192.827 81.3145 193.672 82.4091 194.582 83.9203L194.719 84.1502L194.918 84.4927L196.21 86.8188L196.454 87.2514C197.413 88.9304 198.172 90.0036 199.165 90.9451C200.606 92.3114 202.351 93.1042 204.49 93.2315L204.705 93.242L204.959 93.2477C205.967 93.2566 207.034 93.1168 208.191 92.8261L208.459 92.7564L208.721 92.6838C210.445 92.1915 213.17 92.4979 215.334 93.5367C217.685 94.6649 218.979 96.3861 218.921 98.5859C218.893 99.6786 218.754 100.85 218.51 102.12L218.44 102.468C218.119 104.038 217.685 105.613 217.015 107.713L215.574 112.107L215.412 112.62L215.249 113.148C215.015 113.916 214.828 114.585 214.675 115.216C214.087 117.626 213.989 119.436 214.578 120.978C217.176 127.777 221.685 131.388 226.817 131.541L226.994 131.545L227.214 131.545C231.157 131.506 234.729 129.183 234.686 126.173C234.682 125.858 234.616 125.564 234.5 125.298L234.447 125.186L234.422 125.138L234.463 125.048C235.675 122.425 238.477 120.51 241.768 120.134L241.955 120.115L242.139 120.099C242.32 120.085 242.5 120.075 242.671 120.069L242.838 120.065L243.038 120.064C247.424 120.07 251.764 122.711 255.178 127.03C255.89 127.93 256.551 128.914 257.145 129.953L257.34 130.301L258.289 132.057L258.93 133.756C262.463 143.108 260.674 152.894 253.779 157.953L253.569 158.105C251.084 159.867 248.163 160.937 245.044 161.226C244.685 161.259 244.324 161.28 243.976 161.288L243.718 161.292L243.422 161.292C242.406 161.279 241.434 161.165 240.561 160.952C239.848 160.778 239.353 160.567 239.008 160.298C238.917 160.227 238.844 160.163 238.781 160.1L238.728 160.042L238.708 160.018L233.996 160.65C233.194 165.252 230.878 170.02 227.111 175.488L226.874 175.83L226.46 176.42L226.039 177.01C221.607 183.175 216.663 188.367 211.23 192.35L210.85 192.626L210.341 192.992L209.873 193.323C208.965 193.96 208.209 194.456 207.452 194.899L207.262 195.008L205.475 196.032L206.305 197.792C208.241 201.898 210.911 205.63 214.203 208.808L214.514 209.104L216.802 211.238L218.562 209.212C218.575 209.197 218.615 209.177 218.662 209.17L218.694 209.166H218.712L218.735 209.168L218.764 209.175L218.792 209.187C220.11 209.833 220.833 210.327 221.873 211.293L222.024 211.434L222.199 211.601L222.441 211.829C223.521 212.83 224.675 213.682 225.934 214.392C228.839 216.029 232.065 216.94 235.404 217.022L235.718 217.027L236.033 217.027C236.146 217.026 236.26 217.024 236.373 217.021C243.341 216.847 249.586 212.81 252.655 206.893C252.776 206.658 252.889 206.581 253.095 206.566L253.154 206.563L253.228 206.562C253.739 206.565 254.367 206.841 254.716 207.211L254.779 207.281L255.953 208.708L256.404 209.247C260.594 214.222 264.035 216.944 268.656 217.77C269.019 217.835 269.404 217.875 269.813 217.891L270.061 217.9H270.206C272.193 217.905 274.484 217.384 276.269 216.468C278.63 215.255 280.09 213.389 279.905 211.078L279.891 210.93L279.858 210.683C279.704 209.449 280.796 208.778 281.632 209.384L281.688 209.427L281.757 209.484C285.2 212.404 289.16 214.644 293.425 216.027L293.802 216.147L294.363 216.32C297.053 217.14 298.949 217.547 300.946 217.579C302.675 217.606 304.112 217.042 305.151 215.958C305.845 215.236 306.268 214.432 306.691 213.26L306.762 213.061L306.916 212.605L307.012 212.309C308.249 208.371 308.276 204.161 307.305 199.515C306.579 196.046 305.424 192.693 303.481 187.995L303.104 187.089L302.326 185.241C302.248 185.055 302.715 184.408 303.004 184.335L303.038 184.33L303.302 184.355C303.487 184.371 303.674 184.382 303.865 184.389L304.156 184.395H304.347C310.657 184.337 315.477 178.741 315.433 172.813C315.383 167.259 312.295 162.485 306.399 156.817L305.887 156.329L305.333 155.809L304.785 155.303C299.546 150.478 294.19 146.267 288.612 142.655L288.15 142.358L287.636 142.029C285.758 140.838 283.932 139.757 281.404 138.337L279.917 137.506L273.887 131.072C273.743 130.998 273.6 130.924 273.46 130.85L273.383 128.618L267.574 128.726C269.048 128.042 270.269 127.212 271.261 126.149C274.559 122.613 274.145 117.701 270.136 115.288L269.994 115.204L268.304 114.261L266.921 115.358C265.717 116.314 264.439 116.947 263.107 117.24L262.896 117.283L261.853 117.483L261.651 117.78L261.533 117.626C261.534 117.611 261.537 117.595 261.543 117.581L261.553 117.559L261.575 117.528L261.706 117.382L261.851 117.225C262.315 116.732 262.836 116.254 263.781 115.43L264.444 114.854L264.961 114.4C266.315 113.196 267.037 112.451 267.804 111.416C269.713 108.84 270.791 105.936 270.836 102.987C270.93 96.8532 266.711 91.0544 260.46 88.4077C260.241 88.315 260.08 87.6563 260.342 87.2208C266.395 77.1777 268.074 65.139 265.034 53.94C262.197 43.4915 255.139 34.2689 245.035 27.2041C227.689 15.0754 203.626 8.821 178.096 8.6056L177.321 8.60092H176.579Z" fill="#ECDCBF"/>
<path fill-rule="evenodd" clip-rule="evenodd" d="M269.34 132.144C268.191 131.883 267.574 133.28 268.55 133.841C274.743 137.403 281.14 140.585 287.123 144.461C292.813 148.146 298.069 152.343 302.97 156.856L303.513 157.358C307.944 161.481 312.851 166.725 312.9 172.806C312.939 177.532 308.909 182.692 303.287 182.071C301.169 181.837 299.222 184.267 299.961 186.019L300.739 187.866C303.867 195.339 307.049 203.807 304.578 211.67L304.488 211.95C303.89 213.75 303.26 215.341 300.949 215.305C298.805 215.271 296.573 214.617 294.566 213.993C290.4 212.697 286.624 210.536 283.42 207.819C280.585 205.415 276.964 207.857 277.345 210.912L277.359 211.009C277.881 214.437 271.843 216.029 269.098 215.539C263.677 214.569 259.813 209.658 256.735 205.914C255.255 204.115 251.662 203.406 250.362 205.914C247.786 210.88 242.476 214.592 236.264 214.748C233.038 214.829 229.943 213.998 227.21 212.458C226.094 211.829 225.097 211.081 224.182 210.234L223.955 210.02C222.601 208.722 221.667 208.032 219.938 207.185C218.235 206.35 216.031 207.385 216.041 209.206C216.055 211.566 216.82 213.134 218.619 214.845C220.107 216.263 221.876 217.507 223.735 218.501C227.472 220.497 231.914 221.621 236.264 221.491C243.121 221.286 249.666 218.195 253.909 213.388C258.241 218.072 263.614 222.376 270.597 222.26C275.825 222.174 280.696 219.713 283.031 215.9C286.326 217.954 289.942 219.56 293.811 220.61L294.156 220.702C299.632 222.143 305.935 222.716 309.46 217.799C312.769 213.183 313.016 206.791 312.258 201.515C311.58 196.802 309.977 192.326 308.135 187.911C313.377 186.495 317.445 182.043 318.843 177.243C320.957 169.985 316.856 162.946 311.785 157.554C306.277 151.696 299.345 146.741 292.361 142.404C285.396 138.079 277.593 134.015 269.34 132.144ZM90.2422 75.3754C90.2292 75.1737 89.8639 75.1031 89.8301 75.3245C87.4243 91.1122 86.0313 106.868 84.8782 122.764C84.2935 130.817 83.6296 138.862 82.903 146.906C82.2057 154.619 81.0451 162.537 81.3074 170.281C81.718 182.408 88.2296 192.268 98.9067 199.364C109.137 206.164 121.829 209.526 134.281 210.947C141.513 211.772 148.845 211.811 156.085 211.036C159.845 210.634 163.6 210.098 167.283 209.293L168.876 208.933C171.776 208.263 175.014 207.354 175.428 204.247C175.628 202.743 174.744 201.633 173.317 200.878C171.456 199.893 169.323 200.473 167.405 200.921C164.174 201.677 160.908 202.326 157.606 202.775C150.512 203.74 143.22 203.797 136.091 203.129C124.098 202.005 111.447 198.487 102.2 191.222C98.1811 188.065 94.6869 184.219 92.849 179.649C90.486 173.773 90.8359 167.364 90.915 161.211C91.0987 146.906 90.9369 132.6 91.1569 118.293C91.3779 103.942 91.1853 89.7048 90.2422 75.3754ZM210.846 8.51925C196.832 5.25081 182.61 4.40152 168.215 5.38538C154.64 6.31253 139.176 9.05934 128.089 16.6102C127.551 16.9766 127.873 17.6702 128.539 17.5743C135.951 16.5058 143.176 14.5624 150.557 13.2765C157.656 12.0397 164.882 11.1112 172.111 10.8961C196.558 10.1674 223.76 15.1772 243.473 28.9607C252.716 35.4233 259.77 44.1134 262.578 54.4529C265.457 65.058 263.899 76.5268 258.117 86.1202C257.285 87.5014 257.628 89.6866 259.365 90.422C264.636 92.6535 268.389 97.5971 268.308 102.932C268.269 105.519 267.282 108.001 265.697 110.139C264.021 112.401 261.469 113.983 259.595 116.096C258.856 116.927 258.828 118.073 259.413 118.839C258.317 119.273 257.134 119.506 256.055 120.019C255.14 120.455 255.114 121.813 256.055 122.242C258.434 123.325 261.006 122.175 262.611 120.428C262.898 120.117 263.146 119.792 263.372 119.461C265.295 119.092 267.018 118.219 268.522 117.026C271.389 118.578 271.782 122.034 269.319 124.674C268.062 126.022 266.275 126.855 264.469 127.453L264.252 127.523C262.495 128.088 260.886 128.403 259.744 129.674C258.991 128.255 258.126 126.917 257.163 125.697C253.66 121.266 248.275 117.334 241.885 117.833C236.88 118.223 232.544 121.464 231.518 125.935C231.443 126.265 231.994 126.524 232.158 126.179C234.559 121.115 242.158 120.929 246.683 123.568C252.006 126.671 254.915 132.52 256.082 137.967C257.231 143.333 256.567 149.859 252.126 153.941C250.309 155.611 247.837 156.766 245.257 157.07C243.996 157.219 242.883 157.072 241.677 156.853L240.878 156.702C240.324 156.598 239.772 156.514 239.191 156.561L238.324 156.666L237.832 156.874C237.405 157.048 237.444 157 237.948 156.731C236.476 156.623 235.715 157.606 235.634 158.685C235.587 158.712 235.542 158.741 235.504 158.783C229.917 164.966 225.769 172.074 219.84 178.054L218.105 179.806C213.643 184.295 208.549 189.161 202.488 191.489L201.767 191.759C200.003 192.433 198.233 193.355 198.008 195.277C197.806 196.999 199.307 198.295 201.038 198.697C204.978 199.611 209.47 196.444 212.356 194.366C218.562 189.899 223.778 184.204 228.085 178.213L228.511 177.616C232.052 172.615 235.38 166.912 236.414 160.977L236.6 161.25C236.614 161.269 236.625 161.284 236.632 161.293C236.843 161.552 237.076 161.771 237.345 161.981C238.07 162.546 238.954 162.877 239.872 163.101C241.596 163.522 243.485 163.605 245.257 163.441C248.856 163.108 252.219 161.869 255.064 159.852C263.726 153.709 264.748 142.278 261.245 133.004C264.12 133.625 267.394 131.876 269.639 130.376C272.213 128.656 274.335 126.173 274.842 123.252C275.346 120.354 273.303 116.515 270.272 115.397C273.416 111.982 275.247 107.136 275.437 103.256C275.765 96.507 271.8 90.1276 265.712 86.4451C271.437 75.3503 272.54 62.4787 268.686 50.6984C261.037 27.322 235.415 14.2496 210.846 8.51925ZM232.654 186.129L232.583 185.924C231.973 184.116 231.186 180.52 228.199 181.889C225.346 183.196 227.167 187.067 228.165 188.951C229.359 191.205 231.421 193.013 234.19 193.497C236.443 193.891 238.916 193.385 240.492 191.811C240.951 191.352 241.21 190.849 241.483 190.294C241.589 190.078 241.636 189.93 241.656 189.833C241.682 189.939 241.756 190.097 241.944 190.282C243.201 191.524 244.388 192.97 245.301 194.44C245.517 194.787 246.198 194.544 246.025 194.163C244.963 191.813 245.141 188.179 242.773 186.479C240.685 184.98 238.724 186.16 237.62 187.905L237.563 187.996C235.949 190.646 233.377 188.129 232.654 186.129ZM255.363 177.637L255.145 177.363C252.913 174.604 249.148 171.286 245.381 173.852C244.183 174.668 244.139 176.029 245.381 176.839L245.851 177.143C247.497 178.198 249.136 179.194 250.344 180.707C251.658 182.352 252.837 184.094 254.603 185.384C257.726 187.666 262.773 188.116 265.482 185.04L265.749 184.735C265.976 184.471 266.236 184.153 266.447 183.836L266.611 184.042C266.628 184.062 266.643 184.082 266.657 184.101L266.694 184.153C267.808 185.762 269.215 187.088 270.967 188.134C274.298 190.121 278.051 190.397 281.819 189.345C282.187 189.242 282.088 188.795 281.732 188.765C277.267 188.388 272.917 185.52 271.101 181.826L270.896 181.411C270.161 179.942 269.337 178.546 267.522 177.969C265.755 177.407 263.899 178 262.688 179.209C261.674 180.22 261.414 182.228 259.586 181.785C257.584 181.3 256.457 179.033 255.363 177.637ZM268.151 153.098C267.162 152.418 265.613 153.147 265.341 154.132C264.107 158.59 269.231 163.844 274.155 163.982C275.423 164.017 276.642 163.74 277.765 163.209C278.636 162.798 279.666 161.747 280.622 161.572C281.857 161.348 282.951 162.835 283.82 163.598C284.899 164.546 285.966 165.425 287.174 166.233C287.657 166.555 288.406 166.013 288.202 165.518L287.793 164.533C286.314 161.026 283.765 155.906 278.996 157.362C276.66 158.074 274.901 160.479 272.44 158.575C270.47 157.051 270.287 154.565 268.151 153.098ZM247.109 135.149C242.664 130.534 232.213 132.972 230.231 138.586C229.793 139.826 230.25 141.438 231.321 142.316C232.732 143.472 234.745 143.822 236.458 142.915C237.932 142.135 238.537 140.859 239.62 139.764C241.21 138.159 243.371 137.268 245.598 136.63C246.155 136.895 246.673 137.243 247.138 137.662C247.376 137.877 247.825 137.583 247.614 137.33C247.327 136.986 246.977 136.662 246.578 136.364L246.77 136.313C247.356 136.165 247.483 135.538 247.109 135.149ZM218.216 84.1941C217.219 84.1955 216.059 85.0416 216.186 86.0295L216.225 86.3038C216.511 88.1846 217.18 89.2496 219.261 90.1234C221.028 90.8638 222.883 91.2729 224.819 91.4349C225.552 91.4961 226.327 91.4997 227.113 91.4471L227.278 92.3104C227.607 94.0371 227.911 95.765 227.968 97.5249C228.075 100.787 226.729 103.476 225.285 106.389C222.513 111.984 222.202 117.57 225.219 123.157C225.661 123.974 226.91 124.64 227.918 124.557C229.226 124.45 229.857 124.108 230.618 123.157C231.257 122.358 231.111 121.23 230.668 120.395L230.618 120.303C229.097 117.639 228.618 114.629 229.395 111.701C230.124 108.949 231.777 106.475 232.515 103.732C233.717 99.2626 232.437 94.8294 229.935 90.9952C231.823 90.5033 233.57 89.6265 234.736 88.2893L234.731 88.2875C235.176 87.8577 234.933 86.9598 234.152 87.0138L233.269 87.0783C230.743 87.2693 228.418 87.4679 225.863 86.8311C224.554 86.5043 223.423 85.9595 222.299 85.2999L222.058 85.1568C220.652 84.3116 219.872 84.1923 218.216 84.1941ZM212.17 51.1619C205.838 50.8365 200.432 54.6158 197.803 59.6467C194.949 65.1086 196.146 71.3756 198.666 76.7494L199.382 78.2534C200.635 80.8592 202.28 83.9581 204.847 85.3563C207.729 86.9271 210.221 85.1056 209.371 82.2103C208.864 80.486 207.493 79.1561 206.384 77.7329C205.349 76.4039 204.383 75.0284 203.536 73.5936C201.876 70.7797 200.638 67.6445 200.651 64.4206C200.675 58.5364 204.973 51.7929 212.17 51.8793C212.684 51.8847 212.676 51.1876 212.17 51.1619ZM180.143 41.6673C180.538 41.3964 180.185 40.7937 179.744 41.048C172.401 45.2715 166.918 53.205 165.814 60.9989C165.201 65.3232 165.669 69.9446 167.706 73.9354C168.874 76.2254 170.878 78.4114 173.681 79.0392C176.258 79.6158 178.914 78.2849 179.714 76.0102C180.024 75.1276 179.491 74.2045 178.685 73.7225C176.072 72.1603 173.968 70.189 172.738 67.5371C171.457 64.78 170.946 61.854 170.931 58.88C170.893 51.9151 173.967 45.9124 180.143 41.6673ZM90.4423 44.686C90.7822 44.3453 90.3547 43.843 89.9048 44.0564C84.5961 46.5813 81.2229 51.4178 80.2564 56.7147C79.3093 61.9005 80.5833 68.9603 85.0221 72.7108C87.5269 74.8279 92.014 72.0123 89.9317 69.2853C88.4635 67.3621 86.8765 65.7783 86.0359 63.5059C85.2864 61.4783 85.0211 59.4336 85.0619 57.3029C85.151 52.6546 86.9874 48.1516 90.4423 44.686ZM155.348 38.1922C146.278 37.8016 140.781 47.1654 139.522 54.1447C138.744 58.4568 139.329 62.8982 141.961 66.6383L142.117 66.856C144.289 69.8438 148.239 73.2838 152.494 71.8691C154.295 71.2709 154.775 69.526 153.565 68.2023C151.713 66.1761 148.852 65.3502 147.111 63.1867C145.158 60.7603 144.518 57.7205 144.631 54.7698L144.646 54.4439C144.949 49.0163 147.812 38.5988 155.348 38.7832C155.77 38.7931 155.765 38.2098 155.348 38.1922ZM126.977 36.6364C118.204 35.6224 112.861 44.956 111.214 51.3858C110.184 55.4054 109.959 59.8895 111.276 63.879L111.374 64.1632C112.445 67.1406 115.607 72.2422 119.734 70.7206C120.865 70.3038 122.019 69.1683 121.477 67.9441C120.786 66.3791 119.788 65.9732 118.458 64.9718C117.434 64.2008 116.719 63.094 116.192 62.004C114.79 59.0987 114.477 55.7047 114.669 52.574L114.695 52.2035C115.191 46.0884 118.857 36.9752 126.977 37.1428C127.348 37.1504 127.322 36.676 126.977 36.6364ZM110.916 27.8617C106.033 26.1802 102.032 30.4024 99.2256 33.4156C95.7095 37.1913 92.5199 41.2586 90.7169 45.9587C89.1109 50.1467 88.8282 54.8031 90.2749 59.0662C90.9911 61.1771 92.1069 63.1345 93.6298 64.8574L93.8242 65.0747C95.4091 66.8224 96.9393 67.8964 99.5357 67.2707C100.592 67.0155 101.039 66.0708 100.856 65.1679C100.465 63.2389 99.3655 62.7379 97.9416 61.3913C96.686 60.2036 95.7543 58.7408 95.1277 57.2029C93.8358 54.0304 93.7686 50.5931 94.6361 47.3247C95.6064 43.6657 97.5166 40.2869 99.7265 37.1207L100.203 36.4425C102.545 33.095 105.883 27.94 110.822 28.4832C111.245 28.53 111.251 27.9769 110.916 27.8617Z" fill="black"/>
<path fill-rule="evenodd" clip-rule="evenodd" d="M128.487 166.286C127.722 165.086 125.96 163.973 124.348 164.144C117.127 164.908 117.14 172.809 119.928 177.421C122.4 181.511 127.517 183.912 132.638 183.561C138.017 183.193 142.601 180.338 144.619 175.796C145.953 172.792 146.569 167.246 143.02 165.227C142.954 165.19 142.846 165.199 142.793 165.253C141.092 167.04 141.025 169.722 139.535 171.711C138.15 173.56 135.997 175.088 133.476 175.324C131.592 175.5 129.687 174.887 128.951 173.362C128.552 172.536 128.597 172.088 128.747 171.52L128.883 171.027C129.355 169.298 129.567 167.981 128.487 166.286ZM126.556 131.637C122.79 133.703 117.052 138.52 121.103 143.642C125.872 148.157 132.739 142.98 136.122 140.638C139.259 138.823 142.785 143.491 139.874 145.61C115.424 161.945 105.502 132.177 124.652 129.208C126.76 128.881 127.543 130.998 126.556 131.637ZM166.326 117.471C164.015 114.341 158.738 114.802 157.465 118.516C156.775 120.528 157.728 122.336 157.678 124.346C157.637 126.043 157.76 127.934 158.337 129.578C159.651 133.326 163.387 135.973 167.806 135.863C172.211 135.754 176.09 133.238 177.935 129.695C179.787 126.138 179.395 122.457 178.043 118.84C177.978 118.666 177.726 118.582 177.574 118.728C175.976 120.26 174.807 121.878 173.596 123.594L172.356 125.352C171.409 126.676 170.031 128.368 168.261 128.261L167.996 128.238C167.504 128.2 167.58 128.288 167.2 127.683C167.025 127.403 167.057 126.883 166.972 126.552L166.942 126.441L166.958 126.381C166.996 126.221 167.033 125.919 167.063 125.396L167.07 125.28C167.198 122.833 167.964 119.689 166.326 117.471ZM107.73 119.555C108.145 115.552 101.908 114.663 99.8352 117.625C98.7539 119.169 98.4391 121.11 98.2 122.948L98.0882 123.821C97.8428 125.709 97.7455 127.673 98.6537 129.434C100.084 132.208 103.195 133.674 106.55 133.442C109.754 133.219 112.678 131.543 114.219 128.998C115.593 126.727 116.959 122.293 115.29 119.924C115.19 119.78 114.988 119.762 114.85 119.873C113.273 121.136 113.016 123.44 112.078 125.086C111.111 126.784 109.645 128.438 107.422 128.696C105.295 128.943 104.483 127.895 105.025 126.065C105.725 123.703 107.467 122.096 107.73 119.555ZM164.642 93.6727L163.622 93.3202C160.128 92.129 155.331 90.7522 152.49 93.3163C150.737 94.8974 150.404 97.2265 151.655 99.156C153.17 101.493 155.889 101.551 158.514 101.895C161.5 102.287 164.537 103.031 167.317 104.092C170.448 105.288 173.354 106.779 176.202 108.444C178.908 110.026 181.604 112.611 184.843 113.099C184.976 113.119 185.126 113.067 185.16 112.936C185.896 110.078 183.851 107.266 182.027 105.036C179.82 102.337 177.145 100.121 174.156 98.1343C171.271 96.2165 167.974 94.8308 164.642 93.6727ZM101.17 103.834L100.859 103.785C98.7399 103.466 96.8198 103.54 95.223 105.054C94.0041 106.209 93.5343 107.707 94.1153 109.234C94.6514 110.643 95.8504 112.075 97.5904 112.37C103.465 113.368 109.972 113.203 115.876 112.448C118.577 112.102 121.302 111.679 123.933 111.012L125.144 110.695C127.34 110.129 129.855 109.538 131.451 108.08C132.024 107.556 131.693 106.806 131.007 106.564C128.223 105.58 124.408 106.103 121.439 106.026C117.986 105.937 114.527 105.703 111.09 105.382C107.732 105.067 104.482 104.382 101.17 103.834Z" fill="black"/>
<path fill-rule="evenodd" clip-rule="evenodd" d="M82.9414 133.759C87.5195 138.92 105.442 144.65 114.981 138.43C124.52 132.21 128.29 127.876 129.565 120.104C129.701 119.275 131.361 118.724 132.063 119.312C135.993 122.607 138.538 126.803 141.058 131.01C143.901 135.755 146.702 140.529 151.868 143.741C161.019 148.167 177.574 148.798 182.464 146.845C191.834 143.105 199.245 135.105 200.93 124.096C202.073 120.841 203.145 118.87 204.146 118.185C205.57 117.211 213.426 116.344 214.287 116.2C229.797 113.602 249.413 111.947 263.227 121.084C265.096 122.104 271.497 125.935 271.593 124.993C271.658 121.303 267.024 112.951 256.485 108.976C243.453 104.062 224.079 103.774 212.856 104.859C212.292 104.913 210.368 104.487 210.232 104.434C193.228 97.7901 173.664 99.5545 155.47 102.347C152.863 102.803 129.524 108.019 120.241 104.859C104.892 99.2041 88.5272 95.1074 71.9521 96.7191C71.8135 96.7326 69.7211 108.194 71.3511 108.976C72.6482 109.599 74.8555 111.193 75.6396 112.066C76.3406 112.846 76.7823 113.816 76.7432 115.159C76.428 122.932 78.8854 129.185 82.9414 133.759ZM146.05 126.823C144.104 124.283 143.489 118.575 144.304 114.412C144.717 112.303 145.518 110.625 146.523 109.79C147.191 109.235 147.954 108.973 148.785 109.012C149.241 109.033 149.735 109.15 150.258 109.405C157.337 105.949 165.912 104.705 174.04 105.063C180.511 105.062 185.128 106.44 188.259 108.586C192.026 111.168 193.724 114.879 193.822 118.904C193.938 123.68 191.764 128.905 188.198 133.039C184.784 136.996 180.115 139.93 175.049 140.607C169.299 141.637 163.438 140.64 158.343 138.202C153.118 135.702 148.703 131.686 146.05 126.823ZM89.305 129.518C86.0251 126.02 83.8442 121.47 83.5122 116.961C83.2101 112.858 84.4276 108.794 87.7938 105.435C90.8456 103.071 96.2382 103.032 101.911 104.348C109.246 106.05 116.835 109.854 119.364 112.311C119.96 112.593 120.513 113.084 120.995 114.137L120.999 114.512C121.765 117.702 121.31 120.939 119.985 123.924C118.545 127.168 116.075 130.112 113.064 132.359C109.063 135.333 104.887 136.243 100.978 135.763C96.5506 135.219 92.4334 132.854 89.305 129.518Z" fill="white"/>
<path fill-rule="evenodd" clip-rule="evenodd" d="M120.768 103.595C105.226 97.8687 88.6114 93.7411 71.7914 95.3767C70.4004 94.8991 68.6738 95.3015 68.0574 97.0766C62.0662 113.547 75.4266 108.967 75.247 115.124C73.8466 149.646 125.263 155.541 131.044 120.301L131.15 120.358C139.468 127.363 141.22 138.761 151.019 144.852C170.785 157.898 198.804 147.562 202.403 124.338L202.482 124.024C203.69 119.284 205.134 118.109 211.092 118.132L212.033 117.964C227.513 115.211 248.127 112.738 262.385 122.203C265.486 123.831 265.632 128.015 268.252 129.833C271.123 130.336 272.891 127.22 273.086 125.064C273.541 103.567 230.914 102.02 211.824 103.865C211.459 103.524 210.681 103.567 210.419 103.991C193.154 97.2454 173.703 98.1788 155.217 101.016C143.766 103.016 132.456 107.573 120.768 103.595ZM73.3389 99.3454C82.6656 98.9246 91.2926 99.385 100.447 101.408C105.272 102.459 108.974 103.787 113.593 105.384C142.398 116.901 145.721 96.4294 210.29 104.454C209.455 107.683 209.301 110.88 209.256 113.913C196.072 113.434 199.176 124.795 194.237 132.774L194.085 133.015C186.886 144.658 169.9 150.088 156.197 142.366C144.765 136.353 143.65 121.102 132.268 115.049C122.402 114.699 126.343 126.716 120.973 131.655C113.416 140.756 97.3511 142.029 87.8743 133.468C83.4282 129.349 81.0652 124.119 80.9345 118.501C80.6867 114.911 81.3689 111.263 78.3616 108.738C76.2535 106.805 72.508 107.45 72.0781 104.529C71.8048 102.802 72.6008 100.928 73.3389 99.3454ZM174.701 104.051C165.436 103.639 155.633 105.091 147.678 109.191C141.789 104.962 140.346 121.769 144.255 126.63C149.886 137.028 162.996 143.864 175.619 141.594C195.312 139.019 209.033 104.02 174.701 104.051ZM148.243 110.318L148.747 110.252C157.281 109.077 180.52 103.632 189.482 112.225C198.181 126.479 176.113 150.42 153.15 131.35C146.758 125.478 144.281 118.358 148.243 110.318ZM121.197 112.14C116.778 107.417 94.2526 97.8515 86.4011 103.99C72.0712 118.483 94.7967 147.798 113.831 133.515C120.171 128.741 124.342 121.135 122.516 113.77L122.514 113.461C122.51 113.349 122.487 113.375 122.354 113.235C122.119 112.678 121.696 112.323 121.197 112.14ZM86.6011 120.924C81.7685 97.2696 101.966 106.262 118.554 112.576C117.664 113.31 117.668 114.312 117.924 115.136C119.673 132.687 96.0351 142.633 86.6011 120.924ZM212.159 105.015C219.078 107.129 264.842 103.347 269.069 122.707C264.607 116.182 255.364 113.593 247.056 112.188C235.754 110.276 224.514 111.383 213.371 113.394L213.141 111.313C212.894 109.106 212.633 107.041 212.159 105.015Z" fill="black"/>
</g>
<defs>
<clipPath id="clip0_30_523">
<rect width="391" height="505" fill="white"/>
</clipPath>
</defs>
</svg>
