<svg width="391" height="505" viewBox="0 0 391 505" fill="none" xmlns="http://www.w3.org/2000/svg">
<g clip-path="url(#clip0_30_561)">
<path fill-rule="evenodd" clip-rule="evenodd" d="M46.7976 293.614C53.6528 265.022 77.9645 242.836 110.662 231.784C116.947 228.654 123.039 215.226 131.486 212.767C132.84 212.373 130.703 215.51 131.486 215.697C134.279 216.366 137.409 216.435 140.494 214.022C146.006 209.709 147.735 197.108 151.087 191.413C168.762 161.376 212.894 173.128 218.807 206.333C222.929 208.699 228.757 210.782 233.244 212.689C237.865 214.652 241.93 219.406 246.692 221.106C250.941 222.622 257.942 221.548 262.223 222.87C281.915 228.951 298.594 236.625 311.67 252.172C314.425 255.451 317.531 259.482 320.038 262.795C332.964 275.895 341.942 290.578 350.211 306.331C373.347 352.569 379.639 403.765 385.285 453.583C385.157 462.3 391.727 486.471 382.009 490.65C382.59 491.18 382.38 492.244 381.302 492.235C356.662 492.016 332.08 493.957 307.822 497.732C296.118 499.553 284.477 502.05 272.555 502.461C247.808 502.31 223.149 498.659 198.434 502.114C168.723 502.114 132.614 501.352 99.5608 500.233C68.669 499.188 37.6117 501.549 7.10259 496.924C4.68764 496.588 3.50829 493.995 4.01449 492.137C7.59395 480.654 9.35111 468.836 11.3596 457.084C10.9596 449.546 11.6752 441.677 14.8428 434.656C23.1188 387.258 33.7312 340.169 46.7976 293.614Z" fill="#FFDBB4"/>
<path fill-rule="evenodd" clip-rule="evenodd" d="M131.485 215.871C130.702 215.684 132.839 212.546 131.485 212.94C123.039 215.4 116.946 228.828 110.661 231.957C77.964 243.01 53.6523 265.196 46.7971 293.787C33.7307 340.343 23.1183 387.432 14.8422 434.829C11.6747 441.85 10.9591 449.72 11.3591 457.258L11.0438 459.114C9.16058 470.253 7.40508 481.432 4.01401 492.31C3.50781 494.168 4.68713 496.761 7.10208 497.098C37.2645 501.67 67.9627 499.414 98.5071 500.373L104.874 500.583C136.447 501.605 170.307 502.288 198.434 502.288C223.149 498.833 247.807 502.484 272.555 502.634C284.476 502.224 296.118 499.727 307.821 497.905C332.079 494.131 356.662 492.19 381.302 492.409C382.379 492.418 382.59 491.353 382.009 490.823C391.726 486.644 385.156 462.474 385.285 453.757L384.774 449.27C379.246 400.871 372.652 351.355 350.211 306.504L349.539 305.229C341.454 289.959 332.614 275.714 320.037 262.968L319.268 261.954C316.913 258.857 314.149 255.297 311.669 252.345C298.593 236.798 281.915 229.125 262.223 223.044C257.941 221.722 250.94 222.796 246.691 221.279C242.238 219.69 238.394 215.428 234.134 213.277L234.134 229.32L172.501 282.77L137.544 235.582L133.989 216.255C133.132 216.208 132.295 216.065 131.485 215.871Z" fill="#8FA7DF"/>
<path fill-rule="evenodd" clip-rule="evenodd" d="M56.767 355.915C57.4189 358.702 58.3325 361.488 59.5474 364.128C60.7178 366.675 62.4809 368.958 63.6953 371.475C63.8583 371.814 64.1249 372.071 64.4464 372.266L64.3462 372.951L64.2538 373.636C63.6481 378.257 62.9668 382.865 62.3769 387.485L62.0903 389.797C60.9302 399.444 59.098 409.044 57.6757 418.665C56.283 428.086 54.8651 437.508 53.3495 446.916C51.784 456.616 50.1888 466.303 48.327 475.963C47.541 480.043 46.7206 484.12 45.866 488.193L45.2059 491.311C38.4104 492.75 36.5535 501.089 43.4724 504.167C46.6128 505.558 50.6476 505.223 53.2359 503.037C55.9256 500.758 56.0372 496.649 56.6614 493.563L57.2628 490.694C61.7625 469.128 65.6678 447.314 67.4935 425.443C67.9627 419.796 68.3578 414.144 68.6146 408.487C68.8586 403.167 68.742 397.846 68.8353 392.526L68.8664 391.075C69.0091 385.401 68.8911 379.736 68.7232 374.062C68.7035 373.371 68.6689 372.679 68.6294 371.984C68.8561 371.749 69.0195 371.471 69.0882 371.201L69.1775 370.845C69.3998 369.927 69.1479 368.853 68.3474 368.197C68.0022 364.332 67.5478 360.471 67.4244 356.61C67.4145 356.293 66.896 356.302 66.8658 356.61C66.5745 359.897 65.9922 363.193 65.4094 366.484C61.6611 363.832 58.8906 359.458 57.2559 355.797C57.1374 355.532 56.6973 355.628 56.767 355.915ZM145.453 202.258C144.831 204.762 143.602 207.01 141.952 209.102C141.166 210.102 140.273 211.032 139.201 211.81C138.282 212.475 137.235 212.91 136.258 213.489C134.836 213.292 133.349 213.767 132.352 214.688L132.509 213.341C132.559 212.906 131.739 212.819 131.645 213.24C127.324 232.423 123.384 251.618 119.973 270.94L118.478 279.473L117.071 287.483C114.735 300.831 112.476 314.174 110.775 327.62C108.508 345.563 106.602 363.554 105.209 381.57C103.812 399.714 102.952 417.869 102.34 436.047C102.187 440.63 102.023 445.208 101.866 449.79L100.811 444.312C99.7582 438.832 98.7258 433.347 97.841 427.843C94.6655 408.144 92.1266 388.305 90.8875 368.436C89.7511 350.254 90.1314 331.711 95.386 313.998C96.71 309.542 98.3299 305.155 100.285 300.881C102.182 296.725 104.769 292.873 106.809 288.778C109.18 284.013 109.891 279.517 108.671 274.387C107.604 269.917 105.732 265.713 105.397 261.113C104.769 252.574 107.925 244.305 112.384 236.831C113.56 234.862 114.8 232.918 116.094 230.992C120.01 225.171 124.425 219.562 129.008 214.184C129.255 213.897 128.732 213.58 128.464 213.815C124.287 217.449 119.719 221.023 115.96 224.993C114.133 226.923 112.35 228.892 110.661 230.914C92.1315 233.64 76.2096 243.8 65.3256 257.218C52.9743 272.443 46.727 290.769 42.104 308.816C36.963 328.872 32.627 349.111 28.0094 369.266C23.2294 390.123 18.4736 410.978 13.6634 431.83C11.2732 442.181 8.88244 452.534 6.49761 462.89C5.28767 468.133 4.01799 473.364 2.69001 478.59C2.008 481.268 1.2771 483.942 0.644965 486.628C-0.065692 489.659 0.596071 491.597 2.92657 493.824C3.78637 494.65 5.14447 494.637 6.2112 494.198L6.54466 494.06L6.86695 493.923C8.1869 493.351 9.22176 492.76 10.043 491.489C10.9473 490.094 11.0905 488.546 11.4011 486.994C11.9745 484.137 12.5419 481.281 13.1148 478.42C13.9708 474.142 14.9015 469.876 15.8487 465.611L20.6015 444.297C21.8689 438.614 23.1381 432.932 24.4147 427.252C28.973 406.939 33.5362 386.631 38.0989 366.323C42.4799 346.823 46.3566 327.19 51.3441 307.803L51.6276 306.711L51.916 305.62C56.3758 288.907 62.6071 272.741 73.9137 258.579C82.6154 247.688 94.6996 237.962 108.933 233.04C107.93 234.31 106.967 235.605 106.048 236.927C100.28 245.222 96.068 255.07 97.0557 264.948C97.5392 269.774 99.6233 274.517 99.4263 279.382C99.2435 283.704 96.2058 287.499 94.107 291.26C89.3418 299.782 85.8942 308.838 83.6718 318.129C79.2123 336.785 79.2271 355.98 80.7635 374.918C82.4327 395.505 85.6028 416.087 89.2128 436.473C91.0648 446.929 93.5291 457.299 95.4162 467.738C96.3491 472.885 97.6187 478.02 98.7299 483.142L99.2595 485.589C99.556 486.946 99.8636 488.3 100.219 489.639L100.438 490.441V490.584C100.448 491.572 100.755 492.389 101.249 493.041C101.925 494.95 102.764 496.811 103.88 498.598C104.453 499.511 105.283 500.023 106.187 500.211C107.096 502.041 109.155 503.449 111.614 503.441L143.957 503.332C162.743 503.267 181.53 503.158 200.316 503.067C205.056 503.045 209.792 502.967 214.528 502.858C218.968 502.75 223.225 502.28 227.616 501.793C232.574 501.245 235.26 498.154 234.52 493.793C234.357 492.832 234.179 491.876 234.011 490.92C234.999 491.207 236.174 491.072 236.969 490.389L237.715 489.747C238.748 488.847 239.672 487.963 240.327 486.763C241.004 485.528 241.553 484.224 242.15 482.963C243.439 480.25 244.693 477.529 245.913 474.794C248.357 469.325 250.802 463.833 253.074 458.307C257.573 447.364 261.554 436.256 265.015 425.022C271.188 404.979 275.653 384.549 278.468 363.936L279.141 359.024L279.337 357.573C280.404 349.583 281.303 341.47 280.878 333.498C280.616 328.507 279.738 323.477 277.618 318.816C275.663 314.516 272.646 310.838 269.776 306.995L269.448 306.551L269.118 306.096C266.609 302.606 264.612 298.956 264.512 294.717C264.411 290.415 265.834 286.228 267.426 282.2L267.823 281.207L268.089 280.549C271.475 272.225 275.329 264.019 274.058 254.961C272.181 241.623 262.996 230.871 251.439 222.58C261.717 224.371 271.89 227.909 280.868 232.397C291.472 237.701 301.018 244.701 309.25 252.6C324.807 267.53 335.913 285.443 345.005 303.938C354.522 323.294 361.579 343.576 366.897 364.123C372.246 384.788 375.826 405.783 378.271 426.861C379.491 437.352 380.449 447.868 381.244 458.39C381.649 463.781 381.955 469.181 382.429 474.564C382.903 479.942 383.116 485.402 384.608 490.637C385.304 493.076 390 493.324 390.504 490.637C391.621 484.636 391.308 478.431 390.997 472.355L390.968 471.803C390.662 465.751 390.262 459.703 389.788 453.655C388.82 441.295 387.526 428.952 385.837 416.648C379.916 373.458 368.996 330.494 347.578 291.069C337.493 272.5 324.549 254.457 306.543 241.049C297.971 234.67 288.306 229.579 277.89 225.893C268.576 222.593 259.114 221.032 249.217 221.036C244.254 217.688 238.925 214.771 233.602 212.279C233.281 212.128 232.945 212.493 233.211 212.728C233.349 212.845 233.483 212.966 233.621 213.08C233.018 213.115 232.397 213.362 231.839 213.88C229.882 215.684 228.233 217.941 226.757 220.284C224.51 222.754 222.366 225.305 220.124 227.749C216.534 231.662 212.86 235.518 209.14 239.344C202.895 245.774 196.445 252.082 189.72 258.137L188.596 259.143C185.11 262.252 181.578 265.974 177.455 268.434L177.235 268.563C175.496 269.561 174.262 269.742 172.778 268.252C171.43 266.896 170.307 265.322 169.153 263.826L168.886 263.483C162.995 255.948 157.533 248.135 152.589 240.092C150.336 236.432 148.192 232.718 146.159 228.964L145.552 227.836C144.446 225.766 143.245 223.736 142.332 221.605C142.12 221.106 141.913 220.606 141.71 220.11C144.821 218.315 147.231 214.428 148.105 211.384C149.014 208.224 148.554 204.98 146.935 202.089C146.629 201.545 145.602 201.68 145.453 202.258ZM298.938 330.702C299.368 342.72 299.629 354.75 300.272 366.758L300.494 370.858C299.492 371.841 298.904 372.975 299.373 374.532C299.555 375.127 300.094 375.667 300.766 375.867L300.975 379.678C301.928 396.828 303.046 413.941 305.087 431.048C307.64 452.456 310.594 473.828 313.541 495.198C313.961 498.224 316.352 500.623 320.071 500.18C323.833 499.732 325.359 496.85 324.865 493.845C322.925 482.059 321.058 470.263 319.423 458.438L317.561 444.965C315.227 428.123 312.837 411.284 310.084 394.496C308.934 387.479 307.739 380.466 306.539 373.453L306.958 372.975C308.672 371.015 310.445 369.097 312.199 367.167C315.566 363.445 318.89 359.754 321.976 355.858C322.13 355.662 321.818 355.375 321.597 355.524C317.27 358.337 313.176 361.345 309.057 364.402L305.452 367.088C303.378 354.971 301.323 342.85 299.492 330.702C299.447 330.398 298.928 330.376 298.938 330.702ZM236.707 215.697C239.311 217.858 241.972 219.971 244.595 222.119L245.556 222.909L246.512 223.703C251.121 227.552 255.538 231.557 259.217 236.157C265.973 244.605 269.998 254.904 267.189 265.218C264.857 273.76 259.509 281.504 258.072 290.26C257.351 294.647 257.701 299.056 259.578 303.199C261.495 307.425 264.556 311.047 267.307 314.86C273.283 323.146 274.098 332.242 273.505 341.841C272.882 351.867 271.574 361.897 269.959 371.832C266.69 391.962 261.761 411.883 255.237 431.391C251.973 441.16 248.116 450.721 244.278 460.321C242.368 465.099 240.14 469.764 237.844 474.407C236.634 476.85 235.394 479.28 234.134 481.706C234.599 478.281 234.599 474.764 234.826 471.359C235.152 466.481 235.567 461.612 235.947 456.738C236.722 446.847 237.414 436.947 238.031 427.048C240.219 391.744 241.829 356.411 241.711 321.051C241.651 303.369 241.241 285.686 240.377 268.021C239.972 259.703 239.187 251.392 238.478 243.085L238.327 241.305C237.7 233.849 236.949 226.375 235.661 218.984C236.042 218.226 236.374 217.459 236.619 216.672L236.707 216.375L236.643 216.384C236.703 216.153 236.722 215.923 236.707 215.697ZM214.197 185.315C214.144 185.111 213.813 185.128 213.754 185.315C212.287 189.663 212.805 194.446 214.069 198.819C214.751 201.189 215.719 203.489 216.889 205.706L217.299 206.482C218.301 208.37 219.431 210.316 221.384 211.493C222.198 211.984 223.655 212.015 224.47 211.493L224.886 211.215C224.954 211.168 225.022 211.12 225.087 211.071C225.848 210.51 226.223 209.271 225.873 208.454C224.969 206.345 222.919 204.797 221.502 202.919C220.247 201.25 219.136 199.489 218.213 197.659C216.223 193.698 215.329 189.494 214.197 185.315Z" fill="black"/>
<path fill-rule="evenodd" clip-rule="evenodd" d="M223.038 20.7979L218.782 25.2636C221.139 26.7289 223.364 28.2012 225.456 29.6806L225.458 29.6761C215.764 24.0962 205.028 20.7979 193.43 20.7979C171.092 20.7979 125.717 37.7265 115.46 49.9371C110.37 55.9968 100.911 74.5996 96.0038 94.8241C92.0613 111.074 86.1976 156.983 92.0613 174.234C99.566 196.312 124.256 216.717 149.715 216.717C175.174 216.717 214.7 200.502 242.831 164.967C244.117 163.342 258.888 161.459 269.426 155.36L266.659 182.25L264.557 197.892L265.021 199.005C272.568 217.012 278.548 226.406 282.962 227.188C287.467 227.985 296.639 221.472 310.481 207.646L312.249 201.097C316.742 184.391 318.988 175.424 318.988 174.195L318.985 173.971C318.918 171.144 317.814 155.14 317.792 150.834L317.791 86.286C302.905 42.6272 288.7 20.7979 275.175 20.7979H223.038Z" fill="#FFDBB4"/>
<path fill-rule="evenodd" clip-rule="evenodd" d="M258.31 5.92967C253.933 4.43407 248.863 4.71667 244.709 6.96878C236.552 6.66009 228.44 10.8687 224.188 17.012C224.099 17.0989 224.005 17.1859 223.921 17.2728L223.02 18.1995C222.166 19.0845 221.266 20.0599 220.553 21.0671C224.046 21.1375 226.956 22.3935 228.988 24.9304C230.437 26.7406 227.117 28.4607 225.636 26.7486L225.583 26.686C224.364 25.163 222.523 24.5731 220.473 24.5422C219.885 24.5335 219.438 24.3348 219.123 24.0418C218.997 24.4457 218.885 24.8539 218.782 25.2639C208.461 21.7227 197.335 20.7849 186.255 21.6249C186.74 22.3188 187.147 23.0622 187.459 23.8435C187.813 24.7291 187.057 25.7461 186.082 25.9826C185.027 26.2382 184.074 25.6929 183.693 24.8503L183.657 24.7678C183.232 23.7035 182.536 22.7901 181.603 22.0818C176.386 22.7057 171.207 23.6979 166.154 24.977C160.081 26.5156 154.065 28.3934 148.182 30.5433C149.179 30.8881 150.04 31.4707 150.642 32.4433C151.846 34.3846 148.538 36.1235 147.282 34.2675L147.238 34.1989C147.115 33.9998 147.006 33.8802 146.926 33.812L146.897 33.7889L146.724 33.7184L146.401 33.6367L146.277 33.6098C146.167 33.5881 146.122 33.5894 145.834 33.5754C145.45 33.5563 145.066 33.558 144.682 33.5576C143.779 33.5571 143.203 33.1132 142.943 32.5454C140.04 33.7015 137.173 34.9188 134.358 36.194L133.689 36.4997C124.998 40.5055 116.765 45.7661 111.989 53.5066C111.673 54.0239 111.575 54.5891 111.653 55.1283C110.634 56.2065 109.648 57.3195 108.702 58.4499C105.814 61.9107 103.7 65.8453 101.699 69.7452C97.6729 77.5885 94.9624 85.6448 92.8483 94.0445C90.8026 102.14 89.1522 110.322 87.619 118.505C85.9193 127.596 84.5049 136.765 84.2087 145.987C83.6864 162.425 87.3287 178.959 97.7912 192.798C107.125 205.146 121.18 214.95 137.847 218.089C154.8 221.28 172.738 218.167 186.098 208.202C188.252 206.598 187.956 203.359 186.098 201.715C183.993 199.863 180.889 200.12 178.746 201.715C166.164 211.102 147.851 212.55 132.692 207.767C118.676 203.341 107.697 193.133 100.96 181.668C92.7398 167.686 91.3545 151.625 92.6166 136.156C93.3061 127.661 94.7407 119.235 96.2191 110.822L97.1115 105.758C98.0851 100.273 99.1079 94.7956 100.442 89.3664L100.754 88.1015C102.385 81.5543 104.295 74.8393 107.248 68.6844C108.796 65.454 110.658 62.3411 112.565 59.2673C112.935 58.6716 113.315 58.0673 113.704 57.4586C114.226 57.6195 114.823 57.6456 115.449 57.4717C120.835 55.9934 126.369 55.0022 132.002 54.6717C134.568 54.5204 137.138 54.497 139.705 54.5852C144.099 54.3596 148.616 54.7004 152.802 55.8891C153.212 55.5791 153.627 55.2756 154.042 54.9722C154.154 54.9643 154.266 54.9539 154.378 54.9343C155.446 54.7491 156.197 54.0796 156.65 53.234C156.673 53.1892 156.695 53.1444 156.715 53.0996C157.251 52.7383 157.791 52.3827 158.336 52.0318C159.664 52.3357 160.828 51.3605 161.142 50.2919C161.437 50.1158 161.738 49.9454 162.037 49.7728C162.271 49.8232 162.503 49.8649 162.73 49.8797C163.708 49.9419 164.653 49.8097 165.52 49.398C166.617 48.8767 167.319 48.0359 167.788 47.0807C169.448 47.1707 171.127 46.6955 172.611 45.8363C173.815 45.1394 174.738 44.1773 175.655 43.2169C186.831 38.8192 198.98 36.2227 211.157 35.5575C212.357 35.761 213.548 36.0032 214.724 36.2849C215.003 36.3518 215.398 36.4831 215.853 36.6405C213.138 36.351 210.388 36.3223 207.599 36.6766C194.365 38.3648 184.058 47.1063 175.187 55.3578C173.077 54.9817 170.944 57.3925 172.897 58.989L188.123 71.4369C187.75 72.829 189.559 74.2012 191.145 73.8668C193.803 73.3034 196.466 72.7556 199.13 72.2169C201.91 73.4034 205.404 73.2003 207.925 71.4804C208.043 71.4004 208.298 71.2726 208.519 71.1456C208.726 71.2965 209.004 71.4478 209.115 71.5121C210.012 72.0356 211.104 72.1895 212.151 72.0425C213.228 71.8917 214.2 71.4095 215.039 70.8091C215.572 70.4266 216.816 68.8308 217.508 68.7133L217.575 68.7066C217.113 68.7183 218.598 69.9352 218.997 70.1869C219.927 70.7726 220.955 71.0804 222.113 70.9682C224.131 70.7724 225.865 69.1502 226.852 67.6524L226.926 67.5375L226.957 67.4662L226.984 67.5433C226.989 67.5569 226.994 67.5715 227.001 67.5879C227.149 67.9405 227.613 68.3413 227.928 68.5879C228.827 69.2891 229.94 69.5974 231.129 69.4144C232.135 69.2599 232.981 68.7236 233.661 68.0747L233.767 67.9714C233.968 67.7711 235.293 66.2001 235.084 65.8236L235.06 65.7919L235.126 65.7797C235.932 65.9545 236.609 65.7792 237.104 65.4127C239.871 64.878 242.602 64.2549 245.245 63.4628C245.452 63.9758 245.655 64.4889 245.851 65.0062C244.408 65.7932 243.072 66.9149 241.845 67.7148C239.519 69.2278 237.193 70.7408 234.872 72.2582L225.675 78.2432L224.623 77.9941C223.279 77.6758 222.127 78.366 221.633 79.421L221.593 79.5123C221.397 79.9745 221.161 80.4019 220.884 80.811C218.585 80.7301 216.639 81.9753 216.01 83.7613C215.442 83.75 214.868 83.7692 214.282 83.8261C212.676 83.9817 211.593 85.0339 211.884 86.4787L211.906 86.5778L211.945 86.7386C211.014 87.0873 210.339 87.7608 210.189 88.779C209.94 89.1099 209.739 89.4699 209.61 89.8707C208.938 91.9507 210.245 94.5219 210.941 96.5144L210.995 96.6705C211.441 97.9801 211.904 99.2833 212.372 100.586L213.537 103.82C216.768 112.834 219.918 122.337 217.303 131.787C216.746 133.787 219.644 134.691 220.901 133.126C223.947 129.337 227.239 125.766 230.695 122.338L230.862 122.315C233.283 121.885 234.222 120.377 235.333 118.84C235.988 119.01 236.691 119.05 237.372 118.934C238.356 118.767 239.238 118.271 239.935 117.644C240.525 117.113 241.065 115.75 241.762 115.413C242.635 114.99 244.388 115.594 245.43 115.458C246.277 115.348 247.068 115.092 247.835 114.77C249.246 116.466 250.181 118.459 250.41 120.609C250.499 121.426 250.775 122.118 251.174 122.692C249.706 122.644 248.232 122.735 246.778 122.974C241.396 123.857 237.538 126.787 235.369 131.152C235.276 131.343 235.557 131.5 235.685 131.317C238.903 126.948 245.906 126.726 250.992 128.265C256.393 129.9 259.424 134.096 260.503 138.882C261.685 144.13 260.168 149.786 256.93 154.256C255.427 156.334 253.377 158.23 250.652 158.995C247.414 159.903 244.423 158.277 241.106 159.117C238.849 159.686 237.853 161.612 238.263 163.538C238.425 164.295 238.726 164.956 239.13 165.529C237.937 167.616 236.833 169.764 235.429 171.738C233.26 174.786 230.638 177.307 227.78 179.851C224.828 182.477 221.822 185.051 218.663 187.485C215.637 189.82 212.168 191.481 208.994 193.62C206.766 195.12 205.663 197.224 206.762 199.633C207.668 201.624 210.724 203.32 213.198 202.42C217.934 200.698 222.079 197.768 225.853 194.75C229.352 191.95 232.398 188.603 234.699 184.968C236.871 181.541 238.47 177.65 239.82 173.901L239.987 173.434C240.623 171.651 241.293 169.647 241.726 167.625C244.324 168.877 247.848 169.06 250.627 168.721C255.117 168.177 259.212 166.182 262.307 163.273C263.749 161.92 265.024 160.376 266.125 158.702C266.025 159.721 265.965 160.707 265.901 161.603C263.328 164.089 262.297 167.677 263.21 170.951C261.057 172.905 260.454 175.84 261.577 178.338C259.221 180.399 259.31 183.68 260.329 186.66C257.543 189.406 257.28 193.685 259.454 196.784L259.52 197.006C257.324 200.248 257.819 204.437 260.571 207.3C258.692 210.516 258.982 214.841 263.678 216.088C265.39 216.543 267.049 216.155 268.29 215.309C267.157 220.282 266.65 225.331 268.161 230.328C268.763 232.31 270.961 233.758 273.272 233.758C275.204 233.758 276.608 232.901 277.579 231.641C277.465 234.149 277.638 236.671 278.244 239.214C278.61 240.75 280.225 241.948 281.939 242.319C281.321 242.934 281.074 243.824 281.667 244.751C284.181 248.677 290.255 247.048 290.665 243.287C292.381 242.158 293.178 240.303 293.508 238.299C293.989 235.377 294.164 232.502 294.709 229.617L294.917 229.789L295.025 229.871L295.059 230.08C295.372 231.506 296.283 232.504 297.467 233.1C297.209 235.588 297.685 238.121 299.474 240.01C300.666 241.269 302.696 241.765 304.436 241.492C304.545 241.497 304.657 241.496 304.774 241.483C308.715 241.021 310.995 237.723 309.957 234.696C311.544 232.981 312.213 230.804 311.743 228.652C314.814 226.859 314.751 222.919 313.688 219.754C316.907 217.513 318.117 213.323 316.5 209.993C319.401 206.814 319.805 202.385 317.834 198.765C321.025 196.452 321.007 191.986 317.841 189.62C319.527 186.667 320.544 183.129 318.859 180.427C320.048 179.27 320.7 177.62 320.563 176.026C320.361 173.686 318.606 172.068 316.428 170.991L316.277 170.258C315.765 170.314 315.22 170.188 314.74 169.781C314.264 169.378 313.775 169.054 313.269 168.786C312.695 168.779 312.202 168.554 311.855 168.208C310.906 167.923 309.885 167.798 308.753 167.786C306.309 167.763 306.222 164.537 308.498 164.328C308.857 164.009 309.352 163.807 309.888 163.807L310.309 163.809C311.291 163.817 312.283 163.87 313.195 164.215C313.787 164.439 314.244 164.776 314.579 165.188C314.641 165.811 315.025 166.433 315.858 166.946C316.819 167.539 318.134 167.608 319.163 167.072C320.604 166.321 320.618 165.148 320.452 163.873C320.089 161.085 321.906 158.46 321.473 155.608C321.282 154.346 320.806 153.257 320.03 152.378C321.666 150.216 321.955 147.426 320.695 145.054C323.32 142.562 323.774 138.721 322.1 135.723C322.076 135.65 322.057 135.576 322.031 135.504C321.842 134.995 321.581 134.535 321.294 134.096C322.763 131.85 322.752 129.094 321.259 126.857C323.521 124.53 323.593 120.827 321.581 118.32C321.569 118.113 321.544 117.905 321.524 117.697C322.448 115.582 322.226 113.177 321.055 111.21C321.472 110.36 321.795 109.445 322.001 108.47C322.529 105.957 322.257 103.514 321.469 101.062C321.341 100.675 321.198 100.288 321.045 99.9009C321.02 98.2214 320.947 96.5492 320.852 94.8801C321.226 93.4672 321.287 91.9146 321.295 90.4731L321.297 89.5384C321.316 87.1597 321.504 83.6769 319.799 81.6549C320.893 79.4706 320.443 76.7185 318.617 74.9872C319.899 73.0416 320.168 70.6526 318.879 68.494C318.672 68.1466 318.432 67.8231 318.169 67.517C318.276 65.5401 317.804 63.5015 316.61 61.5368C315.834 60.2577 314.676 59.1503 313.298 58.2642C313.321 58.0021 313.336 57.7404 313.331 57.4825C313.307 56.3321 313.017 55.1769 312.53 54.0992C313.404 52.7835 313.809 51.3005 313.298 49.7023C312.727 47.8937 311.223 46.3372 309.346 45.459C309.195 43.7538 308.892 42.0586 308.461 40.3861C309.614 38.1196 308.696 35.1284 306.088 33.7932C306.428 31.982 306.122 30.1038 304.628 28.689C304.061 28.1529 303.394 27.7464 302.676 27.4769C303.022 25.6556 302.632 23.7609 301.204 22.2779C300.038 21.0671 298.31 20.3314 296.552 20.2232C295.875 17.0554 292.444 14.6868 288.825 14.8755C288.373 13.4808 287.292 12.2647 285.615 11.6482C285.186 11.4904 284.753 11.3865 284.32 11.3286C281.377 8.70959 276.996 6.93443 273.202 6.02532C269.398 5.11707 265.541 5.02915 262.274 6.08514L262.036 6.16445L261.77 6.13402C260.616 6.02098 259.463 5.95576 258.31 5.92967ZM287.223 220.591C288.24 220.312 289.373 220.922 289.649 221.806C289.939 222.74 289.292 223.665 288.272 223.945C287.001 224.295 285.666 224.382 284.341 224.383C283.276 224.384 282.37 223.583 282.37 222.644C282.37 221.7 283.272 220.906 284.341 220.905C285.418 220.904 286.214 220.869 287.223 220.591ZM296.263 202.123C297.782 202.124 299.085 202.444 300.212 203.383C300.963 204.01 300.982 205.22 300.212 205.843C299.435 206.472 298.307 206.509 297.508 205.91L297.355 205.788C297.336 205.773 297.322 205.762 297.31 205.752C297.246 205.715 297.182 205.678 297.114 205.647L297.242 205.721C297.34 205.783 297.113 205.681 296.986 205.633L296.946 205.619L296.933 205.616L296.831 205.609C296.642 205.6 296.452 205.601 296.263 205.601C295.232 205.6 294.245 204.802 294.292 203.862C294.34 202.92 295.158 202.122 296.263 202.123ZM267.592 191.089C265.458 189.935 267.364 186.982 269.504 188.046L269.582 188.086C270.679 188.68 272.028 188.599 273.271 188.6C275.807 188.601 275.812 192.079 273.271 192.078L272.851 192.076C271.029 192.064 269.186 191.952 267.592 191.089ZM284.385 178.394C285.997 178.127 287.803 177.888 289.499 178.051L289.781 178.082H290.303C290.756 178.082 291.195 178.243 291.547 178.496C292.105 178.7 292.634 178.974 293.116 179.342C295.036 180.811 292.237 183.262 290.328 181.802C290.222 181.721 290.099 181.654 289.962 181.599L289.857 181.56H287.748C287.556 181.56 287.369 181.525 287.187 181.474C286.503 181.557 285.865 181.676 285.433 181.748C282.953 182.16 281.891 178.808 284.385 178.394ZM286.185 145.013C289.275 143.748 292.697 143.757 295.555 145.513C297.598 146.768 295.7 149.729 293.639 148.56L293.565 148.516C293.309 148.359 293.046 148.227 292.78 148.108C291.329 148.478 289.869 148.495 288.466 148.04L288.284 147.978L288.175 148.016C285.888 148.951 283.883 145.954 286.185 145.013ZM252.537 139.563C255.659 139.254 255.684 134.904 252.537 135.215C245.894 135.873 239.866 138.478 235.45 142.953C233.397 145.034 236.779 148.078 238.871 146.09L238.935 146.027C242.446 142.469 247.184 140.092 252.537 139.563ZM287.507 117.228C288.201 117.161 288.893 117.127 289.575 117.156C291.212 117.226 293.206 118.189 292.487 119.93C291.911 121.325 290.023 121.38 289.09 120.636C288.702 120.645 288.315 120.667 287.929 120.702C286.9 120.795 285.88 120.969 284.865 121.145C282.387 121.575 281.326 118.223 283.817 117.791L284.919 117.598C285.29 117.534 285.665 117.472 286.041 117.414C286.266 117.316 286.508 117.249 286.766 117.232L286.896 117.228H287.507ZM307.094 90.2438L307.325 90.2161C310.654 89.8403 315.998 90.1861 316.402 93.9245C316.625 95.9949 313.235 96.1249 312.565 94.3545C310.107 93.9636 307.629 93.8889 305.187 94.1263C304.256 93.2915 304.249 91.6868 305.799 91.2863C306.018 90.7672 306.475 90.3225 307.094 90.2438ZM231.001 83.9296C231.77 83.3066 233.032 83.224 233.789 83.9296C234.225 84.3357 234.589 84.787 234.877 85.2835L235.069 85.6187C235.102 85.6744 235.135 85.7297 235.17 85.7843C235.234 85.8856 235.307 85.9821 235.377 86.0804L235.425 86.1215C235.443 86.1383 235.466 86.1587 235.492 86.1834C236.201 86.8447 236.291 87.9956 235.492 88.6429C234.723 89.266 233.462 89.3486 232.704 88.6429C232.268 88.2369 231.904 87.786 231.615 87.2891L231.424 86.9541C231.392 86.8985 231.358 86.8433 231.324 86.7886C231.259 86.6869 231.186 86.5904 231.116 86.4921L231.038 86.423C231.026 86.4128 231.014 86.4015 231.001 86.3891C230.292 85.7282 230.202 84.577 231.001 83.9296ZM271.424 79.4006C274.202 77.6641 277.505 77.5833 280.058 79.6723C281.901 81.1802 279.193 83.5961 277.335 82.1833L277.27 82.1318C277.203 82.0762 277.134 82.0275 277.066 81.981C276.733 82.2314 276.31 82.3901 275.826 82.3905C275.699 82.3908 275.573 82.3905 275.447 82.3929L275.257 82.3988L275.156 82.4062L275.143 82.4083L275.054 82.4416C274.892 82.5061 274.669 82.6057 274.976 82.4362C274.907 82.4679 274.843 82.5053 274.778 82.5418L274.665 82.6327C273.921 83.2527 272.636 83.3344 271.898 82.6488C270.592 82.2592 269.898 80.354 271.424 79.4006ZM244.269 73.703L244.219 73.689C241.783 73.0756 242.819 69.7187 245.267 70.3348C247.864 70.9891 249.105 73.1216 249.624 75.3059C249.843 76.2246 249.319 77.1859 248.247 77.4454C247.269 77.6824 246.042 77.1541 245.822 76.2307C245.668 75.5813 245.49 75.0304 245.209 74.5191L245.039 74.2272C244.959 74.0942 244.931 74.0721 244.663 73.8651C244.618 73.8303 244.412 73.7461 244.269 73.703ZM285.52 56.1856L285.901 56.109C288.274 55.6504 291.423 55.411 292.856 57.486C294.162 59.3764 290.867 61.0972 289.511 59.3103C289.49 59.3097 289.466 59.3099 289.438 59.3119L289.394 59.3164L288.786 59.2729C288.028 59.2681 287.303 59.3864 286.569 59.5399C284.101 60.0551 283.048 56.7021 285.52 56.1856ZM200.345 42.8147C198.548 41.23 201.335 38.7696 203.132 40.3556C204.553 41.6091 205.923 42.8712 206.847 44.4638C207.331 45.2994 207.094 46.3507 206.14 46.8433C205.259 47.2976 203.929 47.0585 203.442 46.2194C202.642 44.839 201.632 43.9512 200.345 42.8147ZM223.011 38.6548C224.786 39.5817 225.934 41.1087 226.632 42.876C226.982 43.7629 226.233 44.7781 225.255 45.0151C224.203 45.2699 223.243 44.7266 222.865 43.8829L222.83 43.8003C222.643 43.3277 222.345 42.7695 221.976 42.3482C221.66 41.9886 221.17 41.6286 220.8 41.5091C219.912 41.2213 219.282 40.5109 219.364 39.6813C220.825 40.1269 222.182 39.5909 223.011 38.6548ZM276.135 31.0898C277.925 29.6238 280.327 29.4294 282.497 30.3168C283.464 30.7116 283.706 31.9407 283.205 32.6963C282.625 33.5706 281.477 33.7167 280.508 33.3202C280.757 33.4219 280.307 33.2876 280.113 33.2385C280.088 33.2486 279.763 33.2356 279.651 33.237L279.516 33.2445C279.515 33.2453 279.548 33.2448 279.615 33.2428C279.52 33.2616 279.427 33.2842 279.335 33.3101L279.217 33.346C279.276 33.3351 279.01 33.4882 278.936 33.5391L278.923 33.5489C277.065 35.0701 274.27 32.6163 276.135 31.0898Z" fill="black"/>
<path fill-rule="evenodd" clip-rule="evenodd" d="M137.968 172.104C137.211 170.945 135.466 169.87 133.87 170.035C126.72 170.773 126.732 178.405 129.493 182.861C131.941 186.812 137.008 189.131 142.079 188.792C147.406 188.436 151.945 185.679 153.943 181.291C155.264 178.389 155.874 173.031 152.36 171.082C152.295 171.045 152.187 171.054 152.135 171.107C150.45 172.832 150.384 175.423 148.909 177.344C147.537 179.131 145.405 180.607 142.908 180.835C141.044 181.005 139.157 180.413 138.428 178.939C138.033 178.142 138.078 177.709 138.226 177.16L138.361 176.684C138.828 175.013 139.038 173.742 137.968 172.104ZM136.057 138.633C132.328 140.629 126.645 145.282 130.657 150.23C135.379 154.592 142.179 149.59 145.529 147.328C148.636 145.575 152.126 150.084 149.244 152.131C125.033 167.911 115.208 139.155 134.171 136.287C136.258 135.971 137.034 138.016 136.057 138.633ZM175.438 124.949C173.149 121.926 167.924 122.371 166.663 125.959C165.98 127.902 166.924 129.649 166.875 131.59C166.834 133.229 166.956 135.056 167.527 136.644C168.828 140.265 172.527 142.822 176.903 142.716C181.265 142.61 185.107 140.18 186.934 136.757C188.767 133.321 188.379 129.765 187.04 126.271C186.976 126.104 186.726 126.022 186.576 126.164C184.994 127.644 183.836 129.206 182.637 130.863L181.409 132.562C180.471 133.841 179.107 135.475 177.354 135.373L177.091 135.35C176.604 135.313 176.679 135.398 176.303 134.814C176.13 134.543 176.161 134.041 176.077 133.722L176.048 133.614L176.064 133.556C176.101 133.401 176.138 133.11 176.168 132.605L176.174 132.493C176.301 130.129 177.06 127.091 175.438 124.949ZM117.414 126.962C117.825 123.095 111.65 122.236 109.597 125.098C108.526 126.59 108.214 128.464 107.977 130.24L107.867 131.083C107.624 132.907 107.527 134.804 108.427 136.505C109.843 139.185 112.923 140.601 116.246 140.377C119.419 140.162 122.314 138.543 123.84 136.084C125.201 133.89 126.553 129.607 124.901 127.318C124.801 127.18 124.601 127.162 124.465 127.269C122.903 128.489 122.649 130.715 121.72 132.305C120.763 133.945 119.31 135.543 117.109 135.793C115.003 136.031 114.199 135.018 114.736 133.251C115.429 130.969 117.154 129.417 117.414 126.962ZM173.77 101.96L172.76 101.619C169.3 100.469 164.55 99.1388 161.737 101.616C160.002 103.143 159.671 105.393 160.91 107.257C162.411 109.515 165.103 109.57 167.702 109.903C170.659 110.281 173.666 111 176.419 112.025C179.52 113.181 182.397 114.621 185.217 116.229C187.896 117.757 190.567 120.255 193.774 120.726C193.905 120.745 194.054 120.695 194.088 120.569C194.816 117.808 192.792 115.091 190.986 112.937C188.8 110.329 186.151 108.189 183.191 106.27C180.334 104.417 177.07 103.079 173.77 101.96ZM110.919 111.776L110.61 111.728C108.512 111.421 106.611 111.491 105.03 112.954C103.823 114.07 103.357 115.517 103.933 116.992C104.464 118.354 105.651 119.737 107.374 120.022C113.191 120.985 119.634 120.826 125.481 120.097C128.155 119.763 130.854 119.354 133.46 118.71L134.658 118.404C136.833 117.857 139.323 117.286 140.903 115.877C141.471 115.371 141.144 114.647 140.464 114.413C137.707 113.462 133.929 113.968 130.989 113.893C127.57 113.807 124.145 113.582 120.742 113.271C117.416 112.966 114.198 112.305 110.919 111.776Z" fill="black"/>
</g>
<defs>
<clipPath id="clip0_30_561">
<rect width="391" height="505" fill="white"/>
</clipPath>
</defs>
</svg>
