<svg width="34" height="36" viewBox="0 0 34 36" fill="none" xmlns="http://www.w3.org/2000/svg">
<g clip-path="url(#clip0_30_797)">
<path d="M4.16683 7.46363C6.34046 4.12412 9.53221 1.09192 13.2164 0.329829C16.9007 -0.453635 21.0775 1.03302 24.9086 3.22247C28.7396 5.41193 32.1823 8.32525 32.9417 11.7947C33.6798 15.264 31.692 19.3105 29.9817 23.2096C28.2501 27.1084 26.796 30.8812 23.9501 33.1892C21.1044 35.4758 16.8457 36.2975 12.683 35.7303C8.49881 35.1843 4.41062 33.2494 2.24556 30.0896C0.0806639 26.9084 -0.161095 22.5023 0.316955 18.4866C0.795173 14.4496 1.9932 10.8031 4.16683 7.46363Z" fill="#FFDBB4"/>
</g>
<defs>
<clipPath id="clip0_30_797">
<rect width="34" height="36" fill="white"/>
</clipPath>
</defs>
</svg>
