<svg width="532" height="625" viewBox="0 0 532 625" fill="none" xmlns="http://www.w3.org/2000/svg">
<path d="M421.184 59.212C470.952 91.2285 516.283 138.462 528.012 193.302C540.058 248.144 518.502 310.592 486.486 367.97C454.468 425.346 411.674 477.018 360.32 488.747C308.966 500.159 248.736 470.995 190.724 445.952C132.713 420.592 76.604 399.352 42.0511 357.192C7.8151 315.03 -4.8649 251.63 3.0601 189.498C10.6681 127.05 38.8811 65.8695 85.48 33.218C132.396 0.566963 197.698 -3.55404 257.294 3.10296C317.208 9.75996 371.414 27.1955 421.184 59.212Z" fill="#FFDBB4"/>
<path fill-rule="evenodd" clip-rule="evenodd" d="M222.948 412.378C229.004 383.681 250.482 361.412 279.368 350.318C284.92 347.177 290.303 333.699 297.765 331.231C298.961 330.835 297.073 333.983 297.765 334.171C300.232 334.842 302.998 334.913 305.723 332.491C310.593 328.161 312.121 315.513 315.082 309.796C330.697 279.648 369.685 291.444 374.908 324.772C378.55 327.147 383.699 329.238 387.663 331.152C391.745 333.123 395.336 337.894 399.543 339.601C403.296 341.123 409.481 340.044 413.264 341.371C430.661 347.475 445.395 355.177 456.947 370.782C459.381 374.073 462.125 378.12 464.34 381.445C475.759 394.594 483.692 409.332 490.997 425.143C511.435 471.554 516.994 522.94 521.982 572.945C521.869 581.694 527.673 605.955 519.088 610.149C519.602 610.682 519.416 611.75 518.464 611.741C496.696 611.521 474.978 613.47 453.548 617.258C443.208 619.086 432.924 621.592 422.392 622.005C400.529 621.854 378.744 618.189 356.91 621.656C330.661 621.656 298.762 620.892 269.561 619.769C242.27 618.72 214.833 621.089 187.88 616.447C185.746 616.11 184.704 613.507 185.151 611.642C188.314 600.116 189.866 588.255 191.64 576.459C191.287 568.892 191.919 560.993 194.718 553.946C202.029 506.372 211.404 459.108 222.948 412.378Z" fill="#FFDBB4"/>
<path fill-rule="evenodd" clip-rule="evenodd" d="M297.765 334.347C297.073 334.158 298.961 331.009 297.765 331.405C290.303 333.873 284.92 347.351 279.368 350.492C250.482 361.586 229.004 383.855 222.948 412.552C211.404 459.282 202.029 506.546 194.718 554.121C191.919 561.169 191.287 569.067 191.64 576.633L191.362 578.496C189.698 589.677 188.147 600.897 185.151 611.816C184.704 613.682 185.746 616.284 187.88 616.621C214.526 621.211 241.646 618.946 268.631 619.908L274.255 620.119C302.149 621.145 332.061 621.831 356.91 621.831C378.744 618.363 400.529 622.028 422.392 622.179C432.924 621.766 443.208 619.26 453.548 617.432C474.978 613.644 496.696 611.695 518.464 611.915C519.416 611.924 519.602 610.856 519.088 610.323C527.673 606.129 521.869 581.869 521.982 573.119L521.532 568.615C516.647 520.036 510.822 470.336 490.997 425.317L490.403 424.037C483.26 408.71 475.451 394.413 464.34 381.619L463.661 380.602C461.58 377.492 459.137 373.919 456.947 370.956C445.395 355.352 430.661 347.65 413.264 341.546C409.481 340.218 403.296 341.297 399.543 339.775C395.608 338.179 392.213 333.901 388.449 331.742V347.845L334 401.495L303.118 354.13L299.976 334.732C299.22 334.685 298.48 334.541 297.765 334.347Z" fill="#8FA7DF"/>
<path fill-rule="evenodd" clip-rule="evenodd" d="M231.756 474.912C232.331 477.709 233.139 480.506 234.212 483.156C235.246 485.713 236.804 488.004 237.876 490.531C238.02 490.871 238.256 491.128 238.54 491.324L238.451 492.012L238.37 492.7C237.835 497.338 237.233 501.963 236.712 506.6L236.458 508.92C235.434 518.603 233.815 528.239 232.558 537.897C231.328 547.353 230.075 556.81 228.736 566.253C227.353 575.989 225.944 585.712 224.299 595.408C223.605 599.503 222.88 603.595 222.125 607.684L221.542 610.813C215.539 612.257 213.898 620.627 220.011 623.717C222.785 625.113 226.35 624.777 228.636 622.583C231.012 620.295 231.111 616.171 231.662 613.073L232.194 610.194C236.169 588.547 239.619 566.652 241.232 544.699C241.646 539.031 241.995 533.358 242.222 527.68C242.438 522.34 242.335 517 242.417 511.66L242.445 510.203C242.571 504.508 242.467 498.822 242.318 493.127C242.301 492.433 242.27 491.739 242.235 491.041C242.436 490.806 242.58 490.526 242.641 490.256L242.72 489.898C242.916 488.977 242.693 487.899 241.986 487.24C241.681 483.36 241.28 479.486 241.171 475.61C241.162 475.292 240.704 475.301 240.677 475.61C240.42 478.909 239.906 482.217 239.391 485.521C236.079 482.859 233.632 478.468 232.187 474.794C232.083 474.527 231.694 474.624 231.756 474.912ZM310.105 320.682C309.556 323.196 308.468 325.453 307.012 327.551C306.318 328.555 305.529 329.489 304.582 330.27C303.77 330.938 302.845 331.373 301.981 331.955C300.725 331.758 299.412 332.234 298.53 333.159L298.67 331.806C298.714 331.37 297.989 331.283 297.906 331.705C294.088 350.96 290.608 370.227 287.595 389.621L286.273 398.185L285.031 406.225C282.967 419.623 280.971 433.015 279.468 446.511C277.466 464.522 275.782 482.579 274.552 500.663C273.317 518.874 272.557 537.098 272.016 555.343C271.881 559.943 271.737 564.538 271.598 569.138L270.666 563.639C269.736 558.139 268.824 552.634 268.042 547.109C265.237 527.336 262.994 507.423 261.899 487.48C260.895 469.23 261.231 450.618 265.873 432.839C267.043 428.367 268.474 423.963 270.201 419.673C271.877 415.501 274.163 411.635 275.965 407.525C278.059 402.742 278.688 398.229 277.61 393.08C276.667 388.594 275.014 384.374 274.717 379.757C274.163 371.186 276.951 362.885 280.89 355.385C281.929 353.408 283.024 351.457 284.168 349.523C287.627 343.68 291.527 338.05 295.576 332.653C295.794 332.365 295.332 332.046 295.096 332.282C291.406 335.931 287.37 339.518 284.049 343.502C282.435 345.439 280.86 347.416 279.368 349.446C262.998 352.182 248.932 362.379 239.317 375.847C228.405 391.129 222.886 409.524 218.802 427.637C214.26 447.769 210.429 468.083 206.35 488.313C202.127 509.248 197.926 530.182 193.676 551.11C191.564 561.5 189.452 571.891 187.346 582.286C186.277 587.549 185.155 592.799 183.982 598.044C183.379 600.732 182.733 603.417 182.175 606.114C181.547 609.155 182.132 611.1 184.191 613.335C184.95 614.165 186.15 614.151 187.092 613.711L187.387 613.571L187.672 613.434C188.838 612.861 189.752 612.268 190.478 610.991C191.276 609.592 191.403 608.038 191.677 606.48C192.184 603.612 192.685 600.745 193.191 597.874C193.948 593.58 194.77 589.298 195.607 585.018L199.805 563.624C200.925 557.921 202.046 552.217 203.174 546.515C207.201 526.127 211.233 505.743 215.263 485.359C219.134 465.787 222.559 446.08 226.965 426.621L227.215 425.525L227.47 424.43C231.41 407.654 236.915 391.427 246.904 377.213C254.591 366.281 265.267 356.519 277.841 351.579C276.955 352.853 276.104 354.154 275.293 355.481C270.197 363.807 266.476 373.691 267.348 383.606C267.776 388.45 269.617 393.211 269.443 398.095C269.281 402.432 266.598 406.242 264.743 410.016C260.534 418.57 257.488 427.66 255.524 436.984C251.585 455.711 251.598 474.978 252.955 493.987C254.43 514.65 257.23 535.309 260.42 555.771C262.056 566.265 264.233 576.674 265.9 587.152C266.724 592.318 267.846 597.473 268.827 602.614L269.295 605.069C269.557 606.433 269.829 607.791 270.143 609.135L270.337 609.94V610.084C270.345 611.075 270.616 611.895 271.052 612.55C271.65 614.465 272.392 616.334 273.377 618.127C273.884 619.043 274.617 619.557 275.415 619.746C276.218 621.584 278.038 622.997 280.21 622.988L308.783 622.879C325.38 622.814 341.976 622.705 358.572 622.612C362.76 622.591 366.945 622.513 371.128 622.403C375.051 622.294 378.812 621.823 382.69 621.335C387.071 620.785 389.444 617.681 388.789 613.305C388.646 612.34 388.489 611.381 388.34 610.42C389.213 610.709 390.251 610.573 390.954 609.888L391.613 609.243C392.526 608.34 393.341 607.453 393.921 606.248C394.518 605.009 395.003 603.7 395.531 602.434C396.669 599.711 397.778 596.979 398.856 594.234C401.015 588.745 403.175 583.233 405.181 577.686C409.156 566.702 412.673 555.552 415.731 544.276C421.184 524.159 425.129 503.653 427.616 482.964L428.211 478.033L428.383 476.576C429.327 468.557 430.12 460.414 429.745 452.411C429.513 447.402 428.737 442.353 426.865 437.674C425.138 433.358 422.472 429.667 419.937 425.809L419.648 425.364L419.356 424.908C417.139 421.404 415.375 417.741 415.287 413.486C415.196 409.168 416.455 404.966 417.861 400.923L418.212 399.925L418.447 399.265C421.438 390.911 424.843 382.674 423.72 373.582C422.062 360.194 413.947 349.402 403.737 341.08C412.817 342.877 421.804 346.43 429.736 350.933C439.103 356.257 447.537 363.283 454.81 371.212C468.553 386.197 478.365 404.177 486.398 422.742C494.805 442.169 501.039 462.527 505.738 483.152C510.463 503.893 513.626 524.966 515.786 546.123C516.863 556.652 517.71 567.208 518.412 577.769C518.77 583.181 519.04 588.601 519.459 594.003C519.879 599.401 520.067 604.882 521.384 610.137C521.999 612.585 526.148 612.833 526.593 610.137C527.579 604.114 527.303 597.885 527.028 591.786L527.003 591.232C526.732 585.158 526.379 579.088 525.961 573.018C525.106 560.611 523.963 548.221 522.47 535.872C517.239 492.52 507.593 449.396 488.67 409.824C479.761 391.186 468.326 373.076 452.419 359.617C444.845 353.216 436.307 348.105 427.106 344.405C418.876 341.093 410.517 339.526 401.774 339.53C397.389 336.17 392.681 333.242 387.979 330.742C387.696 330.589 387.399 330.956 387.634 331.191C387.756 331.308 387.874 331.43 387.996 331.545C387.464 331.579 386.914 331.828 386.422 332.348C384.693 334.159 383.236 336.423 381.932 338.775C379.947 341.254 378.053 343.816 376.072 346.268C372.9 350.195 369.655 354.066 366.369 357.906C360.851 364.36 355.153 370.692 349.211 376.769L348.22 377.78C345.139 380.9 342.02 384.635 338.377 387.105L338.183 387.234C336.645 388.236 335.556 388.419 334.245 386.923C333.053 385.561 332.062 383.981 331.042 382.48L330.806 382.136C325.602 374.573 320.777 366.731 316.409 358.658C314.418 354.984 312.525 351.256 310.728 347.488L310.192 346.355C309.215 344.279 308.155 342.24 307.348 340.102C307.16 339.601 306.977 339.099 306.798 338.601C309.546 336.799 311.675 332.898 312.447 329.843C313.25 326.67 312.844 323.414 311.414 320.512C311.144 319.967 310.236 320.102 310.105 320.682ZM445.7 449.605C446.08 461.667 446.311 473.742 446.878 485.796L447.074 489.91C446.189 490.897 445.669 492.036 446.084 493.598C446.246 494.197 446.721 494.737 447.314 494.939L447.5 498.764C448.342 515.978 449.328 533.155 451.132 550.325C453.388 571.813 455.997 593.265 458.601 614.715C458.972 617.752 461.084 620.16 464.369 619.716C467.693 619.266 469.041 616.372 468.605 613.357C466.89 601.527 465.242 589.687 463.797 577.817L462.153 564.295C460.09 547.39 457.979 530.488 455.547 513.637C454.531 506.595 453.475 499.555 452.415 492.516L452.785 492.036C454.3 490.068 455.866 488.143 457.415 486.207C460.389 482.47 463.326 478.766 466.053 474.855C466.188 474.659 465.913 474.371 465.717 474.519C461.896 477.343 458.278 480.362 454.639 483.431L451.455 486.127C449.622 473.965 447.807 461.799 446.189 449.605C446.149 449.301 445.691 449.278 445.7 449.605ZM390.723 334.171C393.022 336.34 395.373 338.462 397.691 340.617L398.54 341.411L399.385 342.207C403.456 346.07 407.358 350.09 410.609 354.708C416.578 363.188 420.134 373.525 417.651 383.876C415.591 392.451 410.866 400.224 409.597 409.013C408.96 413.415 409.269 417.841 410.928 422C412.621 426.242 415.325 429.876 417.756 433.704C423.035 442.021 423.755 451.151 423.231 460.787C422.681 470.849 421.525 480.917 420.098 490.889C417.21 511.093 412.856 531.089 407.093 550.67C404.208 560.476 400.802 570.072 397.412 579.707C395.723 584.504 393.755 589.186 391.726 593.846C390.658 596.299 389.562 598.738 388.449 601.172C388.86 597.734 388.86 594.204 389.061 590.787C389.349 585.89 389.715 581.004 390.051 576.111C390.735 566.183 391.346 556.247 391.892 546.31C393.825 510.875 395.247 475.409 395.142 439.918C395.09 422.17 394.728 404.422 393.965 386.691C393.607 378.342 392.913 370 392.287 361.661L392.153 359.876C391.6 352.391 390.937 344.89 389.798 337.471C390.135 336.71 390.428 335.94 390.645 335.15L390.723 334.853L390.666 334.861C390.718 334.629 390.735 334.399 390.723 334.171ZM370.837 303.677C370.788 303.472 370.497 303.489 370.444 303.677C369.148 308.041 369.607 312.84 370.723 317.231C371.325 319.609 372.18 321.918 373.214 324.144L373.576 324.922C374.462 326.817 375.46 328.77 377.184 329.952C377.904 330.444 379.192 330.475 379.912 329.952L380.278 329.673C380.339 329.626 380.399 329.577 380.457 329.528C381.129 328.965 381.46 327.721 381.151 326.901C380.352 324.785 378.541 323.231 377.289 321.346C376.181 319.67 375.2 317.902 374.384 316.065C372.626 312.09 371.836 307.871 370.837 303.677Z" fill="black"/>
<path fill-rule="evenodd" clip-rule="evenodd" d="M340.322 145.494C315.6 145.494 290.031 164.701 280.97 176.957C270.491 191.129 262.226 259.161 266.103 282.245C269.981 305.33 289.241 330.491 322.677 330.491C356.113 330.491 376.461 326.363 377.278 320.367C377.821 316.37 385.173 303.246 399.33 280.996C413.811 276.914 421.08 269.997 421.137 260.245C421.192 250.494 417.313 243.844 409.497 240.296C412.284 201.812 410.168 177.561 403.149 167.542C392.621 152.513 365.042 145.494 340.322 145.494Z" fill="#FFDBB4"/>
<path fill-rule="evenodd" clip-rule="evenodd" d="M356.99 108.22C353.665 104.299 347.801 108.005 347.933 112.291C346.607 112.651 345.041 113.894 344.436 115.513C343.129 115.428 341.812 115.689 340.626 116.369L340.376 116.06C336.264 111.028 330.822 106.71 325.207 110.415C323.679 111.424 322.994 113.091 323.331 114.897L323.358 115.025L323.233 114.467C323.107 113.937 323.296 114.998 323.366 115.222L323.375 115.248C323.523 115.626 323.671 115.816 323.806 116.101C318.057 112.008 309.303 114.404 313.916 122.329L312.04 121.595C305.551 119.082 297.481 116.382 291.565 120.902C288.92 123.452 291.856 126.852 294.55 127.676L294.087 127.598C288.916 126.718 278.129 124.543 276.588 131.29C276.034 133.717 277.65 135.492 279.69 136.468C275.374 136.452 271.119 137.165 267.385 139.276C263.833 141.806 266.704 145.992 270.418 145.81C269.267 147.237 268.884 149.653 269.996 151.194C267.885 151.75 265.938 152.464 264.143 153.577L263.65 153.641C260.062 154.09 255.969 154.357 253.996 157.888C251.091 165.552 261.434 165.246 265.874 162.555C265.61 162.984 265.415 163.453 265.305 163.953L263.867 164.358C258.439 165.871 252.297 167.542 248.803 172.121C247.201 174.756 249.43 179.233 252.779 178.433C243.704 182.765 247.182 194.176 256.057 188.24C256.472 188.625 256.977 188.911 257.506 189.037L255.633 190.055C250.877 192.665 245.157 196.238 246.15 202.164C247.094 205.3 251.434 204.727 253.641 203.527C249.786 206.849 246.149 210.446 242.846 214.336L241.931 215.425C239.362 218.512 234.892 224.194 239.734 227.163C245.703 230.209 248.678 221.216 252.15 218.007C249.374 224.553 258.398 229.119 261.548 222.525C262.077 222.618 262.609 222.628 263.131 222.558C260.415 225.442 253.07 245.185 262.206 240.856C263.661 239.313 264.938 237.626 266.112 235.856C264.645 247.168 263.572 258.533 262.878 269.906L262.632 274.028C262.379 278.305 262.188 282.599 262.668 286.861C263.221 291.823 264.644 296.479 266.799 300.975C268.785 305.12 271.345 308.96 274.275 312.491C275.842 314.381 277.505 316.218 279.551 317.6C281.18 318.7 283.083 319.425 284.915 320.123C287.897 323.108 291.724 325.365 295.464 327.166C301.629 330.13 308.312 331.766 315.073 332.586C321.987 333.42 328.971 333.219 335.828 332.028C342.38 330.893 349.403 327.991 353.438 322.462C353.787 321.986 353.138 321.537 352.712 321.733C341 327.166 327.839 328.584 315.073 326.87C309.118 326.071 303.257 324.422 297.82 321.86C293.231 319.7 289.36 316.558 285.242 313.713C284.441 312.643 283.631 311.591 282.708 310.614L281.267 309.1C280.19 307.962 279.133 306.809 278.172 305.565C275.202 301.729 272.742 297.378 271.118 292.801C267.959 283.89 268.814 274.217 269.372 264.931L269.42 264.112C269.995 254.18 270.931 244.282 272.228 234.42C272.768 230.316 273.368 226.218 274.025 222.13C275.079 220.412 276.204 218.75 277.463 217.193C276.438 221.184 279.987 226.734 284.339 224.1C289.321 219.83 289.081 212.938 293.257 207.71C297.586 201.007 327.456 187.972 336.337 186.141C334.906 188.227 332.293 189.68 331.683 192.143C320.761 201.815 338.564 206.964 344.123 193.179C344 197.769 343.537 202.318 342.518 206.797C341.034 210.911 339.87 222.832 347.309 219.234C350.869 220.265 353.584 217.225 354.031 213.795C356.603 221.546 354.171 233.929 358.886 239.641C360.333 241.143 362.568 240.143 363.32 238.427C367.682 237.282 367.309 232.185 367.839 228.537C371.817 243.078 376.796 253.172 377.481 268.34C374.403 272.733 381.155 275.963 384.053 272.443C388.12 266.554 384.37 258.502 383.413 252.054C384.557 251.995 385.689 251.486 386.634 250.374C387.149 252.397 386.853 255.063 386.68 257.258C389.259 267.364 399.064 260.891 398.657 252.692C399.082 255.006 399.402 257.342 399.605 259.695C397.712 261.879 396.309 264.493 395.478 267.268C394.881 269.272 396.914 270.474 398.465 270.183C399.291 273.007 402.873 275.044 405.228 272.345C407.556 269.985 407.96 266.575 408.146 263.18C408.47 262.834 408.667 262.382 408.635 261.834C408.605 261.319 408.479 260.884 408.279 260.516C408.319 259.822 408.368 259.141 408.444 258.483C410.246 264.101 409.073 269.989 408.916 275.744C405.733 277.54 402.099 278.308 398.45 279.066L397.92 279.176C396.793 279.412 396.436 281.097 397.285 281.803C395.025 284.02 393.075 286.665 391.172 289.104C388.646 292.341 386.23 295.706 383.88 299.077L382.499 301.057C378.47 306.81 372.899 314.603 375.394 321.689C375.734 322.662 377.153 323.012 377.706 321.991C379.522 318.63 380.536 314.93 382.26 311.53C383.953 308.196 386.061 305.107 388.15 302.017L389.356 300.227C391.364 297.236 393.352 294.214 395.195 291.134L396.479 289.001C397.685 286.987 398.878 284.906 399.767 282.742C402.931 283.507 406.244 282.958 409.279 281.635L409.318 281.846L409.395 282.227C409.828 284.056 412.346 285.306 413.954 284.11C417.804 281.201 419.371 276.871 419.78 272.242C420.556 270.933 421.213 269.553 421.749 268.123C422.002 270.974 423.1 273.739 426.481 273.653C432.349 273.171 432.926 267.615 431.339 262.09C438.286 264.217 439.1 254.369 436.908 249.179C437.721 248.936 438.476 248.45 438.907 247.795L439.267 248.428C440.602 250.745 442.116 252.994 444.225 254.198C447.172 255.877 451.457 253.797 451.262 250.096C450.63 244.068 445.358 239.475 442.148 234.644C442.719 234.725 443.313 234.704 443.896 234.596C450.312 238.183 453.373 229.74 451.114 224.848C449.458 220.454 446.461 216.676 443.249 213.343L444.191 213.907C445.89 214.911 447.784 215.879 449.653 215.485C461.874 223.535 465.885 209.997 452.172 205.766L452.176 205.703C453.552 204.372 454.149 202.267 453.079 200.163C458.11 201.934 465.291 197.927 460.858 192.45C457.965 189.721 454.553 187.373 450.77 186.144C450.959 185.139 451.02 184.116 450.941 183.087L451.168 183.118C453.556 183.462 456.5 184.44 457.972 181.862C458.72 180.565 458.632 178.426 457.408 177.417C453.192 173.942 448.382 171.052 443.157 169.881C442.965 169.243 442.765 168.609 442.553 167.978C447.011 167.895 452.015 161.961 446.895 158.599C442.394 156.3 437.757 154.822 432.675 154.959C435.655 152.014 433.896 146.676 429.933 145.855C432.528 140.317 426.118 137.46 421.336 138.333C421.512 135.873 420.198 133.131 417.669 132.513C418.996 124.727 410.77 125.464 405.617 127.309C407.343 124.308 405.569 120.776 402.525 119.724C397.54 118.593 392.769 123.353 388.973 126.272C390.267 123.226 389.176 120.419 386.093 119.205C382.917 117.96 379.496 120.367 376.845 122.003C375.404 120.189 372.944 119.598 370.737 119.71C370.502 119.029 370.156 118.461 369.712 118.011C369.724 113.815 362.596 111.507 360.107 115.417C359.684 112.698 358.568 110.083 356.99 108.22ZM267.801 184.342L267.719 184.794C267.613 184.887 267.514 184.986 267.413 185.082C267.095 185.157 266.788 185.236 266.497 185.318C266.921 184.974 267.358 184.656 267.801 184.342ZM262.298 173.328L262.395 173.462C262.411 173.484 262.428 173.506 262.446 173.527C262.177 173.629 261.909 173.733 261.642 173.841L261.242 174.005L261.101 174.067C261.499 173.817 261.897 173.57 262.298 173.328ZM326.471 117.881L326.711 117.941C326.788 117.96 326.86 117.977 326.927 117.993C326.951 117.999 326.974 118.002 326.996 118.011L326.934 117.997C327.047 118.084 327.197 118.186 327.321 118.268C327.199 118.258 327.077 118.246 326.956 118.239C326.795 118.12 326.633 118 326.471 117.881Z" fill="black"/>
<path fill-rule="evenodd" clip-rule="evenodd" d="M303.491 290.417C302.823 289.252 301.282 288.174 299.872 288.34C293.554 289.08 293.566 296.741 296.005 301.213C298.167 305.179 302.643 307.506 307.123 307.166C311.829 306.809 315.84 304.042 317.604 299.638C318.771 296.725 319.311 291.348 316.206 289.39C316.148 289.353 316.054 289.363 316.008 289.415C314.519 291.147 314.46 293.748 313.157 295.676C311.945 297.47 310.062 298.951 307.857 299.179C306.209 299.35 304.542 298.756 303.898 297.277C303.549 296.477 303.589 296.042 303.72 295.491L303.839 295.013C304.251 293.336 304.437 292.061 303.491 290.417ZM301.804 256.821C298.509 258.824 293.489 263.494 297.032 268.461C301.204 272.839 307.211 267.819 310.172 265.548C312.917 263.788 316 268.314 313.453 270.369C292.065 286.208 283.385 257.345 300.137 254.466C301.981 254.148 302.667 256.201 301.804 256.821ZM336.595 243.085C334.572 240.051 329.956 240.498 328.843 244.099C328.239 246.05 329.072 247.803 329.029 249.752C328.993 251.397 329.101 253.231 329.605 254.824C330.755 258.459 334.023 261.025 337.889 260.919C341.743 260.813 345.136 258.374 346.75 254.938C348.37 251.489 348.027 247.92 346.845 244.413C346.788 244.244 346.567 244.162 346.433 244.304C345.036 245.791 344.013 247.358 342.954 249.022L341.87 250.727C341.041 252.011 339.836 253.65 338.288 253.548L338.055 253.526C337.624 253.488 337.69 253.574 337.359 252.987C337.206 252.715 337.233 252.211 337.159 251.891L337.133 251.783L337.148 251.724C337.18 251.569 337.213 251.277 337.239 250.77L337.244 250.657C337.357 248.285 338.027 245.236 336.595 243.085ZM285.334 245.106C285.696 241.225 280.241 240.363 278.427 243.234C277.481 244.732 277.206 246.614 276.997 248.396L276.899 249.242C276.684 251.073 276.599 252.978 277.394 254.685C278.645 257.374 281.366 258.796 284.301 258.571C287.105 258.356 289.662 256.73 291.01 254.261C292.213 252.06 293.407 247.76 291.947 245.464C291.859 245.324 291.683 245.307 291.562 245.414C290.183 246.639 289.958 248.873 289.138 250.47C288.292 252.116 287.009 253.72 285.064 253.97C283.203 254.209 282.493 253.193 282.967 251.419C283.58 249.128 285.103 247.57 285.334 245.106ZM335.121 220.011L334.229 219.669C331.172 218.514 326.975 217.179 324.49 219.665C322.957 221.198 322.665 223.456 323.76 225.327C325.085 227.593 327.463 227.649 329.76 227.983C332.372 228.363 335.029 229.085 337.461 230.114C340.2 231.273 342.743 232.718 345.234 234.333C347.6 235.867 349.96 238.374 352.794 238.846C352.909 238.865 353.04 238.816 353.071 238.689C353.714 235.917 351.926 233.191 350.329 231.028C348.399 228.411 346.059 226.263 343.444 224.337C340.92 222.478 338.036 221.134 335.121 220.011ZM279.595 229.863L279.323 229.815C277.469 229.506 275.789 229.577 274.392 231.046C273.326 232.166 272.915 233.618 273.424 235.099C273.892 236.465 274.941 237.854 276.464 238.14C281.603 239.108 287.295 238.947 292.46 238.215C294.823 237.88 297.207 237.47 299.508 236.823L300.567 236.516C302.489 235.967 304.689 235.393 306.085 233.98C306.587 233.472 306.297 232.745 305.697 232.51C303.262 231.555 299.923 232.063 297.326 231.989C294.306 231.902 291.28 231.676 288.274 231.364C285.335 231.059 282.493 230.394 279.595 229.863Z" fill="black"/>
<path fill-rule="evenodd" clip-rule="evenodd" d="M262.757 259.479C268.054 264.954 276.897 266.524 283.944 263.588C302.04 256.026 293.183 232.439 279.227 226.105C277.484 225.67 275.155 224.639 273.032 224.405C272.84 224.311 272.422 224.584 271.915 224.325C256.527 226.044 253.022 249.937 262.757 259.479ZM321.123 260.88C327.065 268.761 338.109 271.194 347.133 267.529C364.961 260.507 358.639 239.591 346.441 231.392C320.675 221.707 310.034 246.348 321.123 260.88ZM359.77 243.417C359.787 243.409 359.804 243.404 359.82 243.397C359.726 243.355 359.631 243.314 359.538 243.272C359.568 243.352 359.602 243.431 359.631 243.51C359.678 243.479 359.719 243.441 359.77 243.417ZM250.492 234.897C251.947 234.9 254.048 235.139 255.252 236.148C258.221 226.132 269.182 216.861 278.714 223.621C286.22 226.035 291.791 231.39 294.956 238.51C300.664 235.114 309.64 236.564 314.589 241.055C317.831 230.342 325.809 226.59 335.305 226.035C345.669 224.338 356 234.405 359.223 242.483C361.904 242.177 365.908 241.325 368.43 242.979C384.794 238.687 413.404 236.32 416.73 238.704C419.101 239.615 420.402 245.212 417.091 245.513C414.204 245.104 417.428 241.413 414.518 241.01C399.02 240.049 383.975 243.171 368.64 244.48C367.271 246.323 362.847 246.939 360.488 246.199C364.204 259.9 356.182 269.221 344.159 272.014C325.544 276.29 309.348 259.634 314.216 242.309C308.577 239.503 302.09 239.624 295.947 241.102C306.213 278.889 245.368 277.193 254.871 237.444C248.547 240.59 247.174 235.532 250.492 234.897Z" fill="black"/>
</svg>
