<svg width="296" height="321" viewBox="0 0 296 321" fill="none" xmlns="http://www.w3.org/2000/svg">
<g clip-path="url(#clip0_30_204)">
<path d="M147.892 321C229.018 321 294.783 313.657 294.783 304.599C294.783 295.541 229.018 288.198 147.892 288.198C66.7657 288.198 1 295.541 1 304.599C1 313.657 66.7657 321 147.892 321Z" fill="#F7859C"/>
</g>
<path fill-rule="evenodd" clip-rule="evenodd" d="M222.526 186.359C219.111 170.156 207 157.584 190.711 151.32C187.58 149.547 184.545 141.937 180.337 140.543C179.663 140.32 180.728 142.098 180.337 142.204C178.946 142.583 177.387 142.622 175.85 141.255C173.104 138.811 172.243 131.67 170.573 128.442C161.768 111.42 139.783 118.081 136.837 136.898C134.784 138.238 131.881 139.419 129.645 140.499C127.343 141.612 125.318 144.306 122.946 145.269C120.829 146.129 117.342 145.52 115.209 146.269C105.399 149.715 97.0904 154.064 90.5765 162.874C89.204 164.732 87.6568 167.017 86.4077 168.894C79.9684 176.318 75.4957 184.639 71.3764 193.566C59.8513 219.769 56.7165 248.781 53.904 277.013C53.968 281.953 50.6949 295.651 55.5359 298.019C55.2465 298.319 55.3513 298.923 55.8882 298.917C68.1628 298.793 80.409 299.893 92.4933 302.032C98.3237 303.064 104.123 304.48 110.062 304.712C122.39 304.627 134.674 302.558 146.986 304.516C161.787 304.516 179.775 304.084 196.241 303.45C211.631 302.857 227.102 304.196 242.301 301.575C243.504 301.384 244.091 299.915 243.839 298.861C242.056 292.355 241.181 285.657 240.18 278.997C240.379 274.726 240.023 270.266 238.445 266.287C234.322 239.427 229.035 212.742 222.526 186.359Z" fill="#FFDBB4"/>
<path fill-rule="evenodd" clip-rule="evenodd" d="M180.337 142.303C180.728 142.196 179.663 140.419 180.337 140.642C184.545 142.036 187.58 149.645 190.711 151.419C207 157.682 219.111 170.255 222.526 186.458C229.035 212.841 234.322 239.526 238.445 266.386C240.023 270.365 240.379 274.824 240.18 279.096L240.337 280.148C241.275 286.46 242.15 292.796 243.839 298.96C244.091 300.013 243.504 301.482 242.301 301.673C227.275 304.264 211.982 302.986 196.766 303.529L193.595 303.648C177.866 304.227 160.998 304.614 146.986 304.614C134.674 302.656 122.39 304.725 110.062 304.811C104.123 304.578 98.3237 303.163 92.4933 302.131C80.409 299.992 68.1628 298.892 55.8882 299.016C55.3513 299.021 55.2465 298.418 55.5359 298.117C50.6949 295.749 53.968 282.052 53.904 277.112L54.1582 274.569C56.9121 247.142 60.1971 219.081 71.3764 193.664L71.7112 192.942C75.7389 184.288 80.1424 176.216 86.4077 168.992L86.7909 168.418C87.9645 166.663 89.3412 164.645 90.5765 162.973C97.0904 154.162 105.399 149.814 115.209 146.367C117.342 145.618 120.829 146.227 122.946 145.368C125.165 144.467 127.08 142.051 129.202 140.833L129.202 149.924L159.905 180.214L177.319 153.473L179.09 142.52C179.517 142.494 179.934 142.412 180.337 142.303Z" fill="#8FA7DF"/>
<path fill-rule="evenodd" clip-rule="evenodd" d="M217.56 221.665C217.235 223.244 216.78 224.824 216.175 226.32C215.592 227.763 214.713 229.057 214.108 230.483C214.027 230.675 213.894 230.821 213.734 230.932L213.784 231.32L213.83 231.708C214.132 234.326 214.471 236.938 214.765 239.556L214.908 240.866C215.486 246.333 216.399 251.773 217.107 257.226C217.801 262.565 218.507 267.904 219.262 273.235C220.042 278.732 220.837 284.222 221.764 289.696C222.156 292.008 222.564 294.319 222.99 296.627L223.319 298.394C226.704 299.209 227.629 303.935 224.183 305.679C222.618 306.468 220.608 306.278 219.319 305.039C217.979 303.747 217.923 301.419 217.612 299.67L217.313 298.044C215.071 285.823 213.126 273.461 212.216 261.067C211.982 257.866 211.786 254.663 211.658 251.458C211.536 248.443 211.594 245.428 211.548 242.412L211.532 241.59C211.461 238.375 211.52 235.164 211.604 231.949C211.613 231.557 211.631 231.166 211.65 230.771C211.537 230.638 211.456 230.481 211.422 230.328L211.377 230.126C211.267 229.606 211.392 228.997 211.791 228.625C211.963 226.435 212.189 224.247 212.251 222.059C212.256 221.879 212.514 221.885 212.529 222.059C212.674 223.922 212.964 225.79 213.254 227.655C215.122 226.152 216.502 223.673 217.316 221.599C217.375 221.448 217.594 221.502 217.56 221.665ZM173.379 134.588C173.689 136.008 174.302 137.282 175.124 138.467C175.515 139.033 175.96 139.561 176.494 140.002C176.952 140.378 177.473 140.625 177.96 140.953C178.669 140.842 179.409 141.11 179.906 141.632L179.828 140.869C179.803 140.623 180.212 140.573 180.258 140.812C182.411 151.683 184.374 162.561 186.073 173.51L186.818 178.346L187.518 182.885C188.682 190.449 189.808 198.011 190.655 205.63C191.784 215.799 192.734 225.994 193.428 236.204C194.124 246.486 194.552 256.774 194.857 267.076C194.933 269.673 195.015 272.267 195.093 274.864L195.619 271.759C196.143 268.654 196.657 265.546 197.098 262.427C198.68 251.263 199.945 240.02 200.562 228.761C201.128 218.457 200.939 207.949 198.321 197.911C197.662 195.386 196.855 192.9 195.881 190.478C194.936 188.123 193.647 185.939 192.63 183.619C191.45 180.918 191.095 178.371 191.703 175.463C192.235 172.931 193.167 170.548 193.334 167.941C193.647 163.102 192.074 158.416 189.853 154.181C189.267 153.065 188.65 151.964 188.005 150.872C186.055 147.573 183.855 144.394 181.572 141.347C181.449 141.184 181.71 141.004 181.843 141.137C183.924 143.197 186.199 145.222 188.072 147.472C188.982 148.566 189.87 149.682 190.712 150.828C199.942 152.373 207.874 158.13 213.296 165.734C219.449 174.362 222.561 184.747 224.864 194.974C227.425 206.34 229.585 217.809 231.886 229.231C234.267 241.051 236.636 252.87 239.032 264.686C240.223 270.552 241.414 276.419 242.602 282.288C243.205 285.259 243.837 288.223 244.499 291.185C244.839 292.702 245.203 294.218 245.518 295.74C245.872 297.457 245.542 298.556 244.381 299.818C243.953 300.286 243.276 300.279 242.745 300.03L242.579 299.951L242.418 299.874C241.761 299.55 241.245 299.215 240.836 298.494C240.385 297.704 240.314 296.827 240.159 295.947C239.874 294.328 239.591 292.71 239.306 291.088C238.879 288.664 238.416 286.247 237.944 283.83L235.576 271.751C234.945 268.531 234.312 265.311 233.676 262.092C231.406 250.581 229.132 239.072 226.86 227.564C224.677 216.513 222.746 205.387 220.261 194.4L220.12 193.781L219.976 193.163C217.755 183.692 214.65 174.531 209.018 166.505C204.683 160.333 198.663 154.822 191.573 152.032C192.072 152.752 192.552 153.486 193.01 154.235C195.883 158.936 197.981 164.517 197.489 170.115C197.249 172.849 196.21 175.537 196.308 178.294C196.399 180.743 197.913 182.894 198.958 185.025C201.332 189.855 203.05 194.987 204.157 200.252C206.378 210.824 206.371 221.702 205.606 232.434C204.774 244.101 203.195 255.765 201.396 267.317C200.474 273.243 199.246 279.119 198.306 285.035C197.841 287.952 197.209 290.862 196.655 293.764L196.392 295.151C196.244 295.92 196.091 296.687 195.914 297.446L195.804 297.901V297.982C195.799 298.542 195.647 299.005 195.401 299.374C195.064 300.456 194.646 301.51 194.09 302.523C193.804 303.041 193.391 303.331 192.94 303.437C192.488 304.474 191.462 305.272 190.237 305.268L174.125 305.206C164.766 305.169 155.408 305.107 146.049 305.056C143.687 305.044 141.328 304.999 138.969 304.938C136.757 304.876 134.636 304.61 132.449 304.334C129.979 304.024 128.641 302.272 129.01 299.801C129.091 299.256 129.179 298.714 129.263 298.172C128.771 298.335 128.186 298.258 127.79 297.871L127.418 297.507C126.903 296.997 126.443 296.497 126.117 295.816C125.78 295.117 125.506 294.378 125.209 293.663C124.566 292.126 123.942 290.583 123.334 289.034C122.116 285.934 120.899 282.822 119.767 279.691C117.526 273.489 115.542 267.194 113.818 260.828C110.743 249.469 108.519 237.892 107.116 226.211L106.781 223.427L106.683 222.605C106.152 218.077 105.704 213.479 105.916 208.962C106.046 206.133 106.484 203.283 107.54 200.641C108.514 198.205 110.017 196.12 111.446 193.942L111.61 193.691L111.774 193.433C113.024 191.455 114.019 189.387 114.069 186.984C114.119 184.546 113.41 182.174 112.617 179.891L112.419 179.328L112.287 178.956C110.6 174.239 108.68 169.588 109.313 164.455C110.248 156.896 114.824 150.803 120.581 146.105C115.461 147.12 110.393 149.125 105.921 151.668C100.639 154.674 95.883 158.64 91.7818 163.117C84.0322 171.578 78.4992 181.729 73.9702 192.21C69.2291 203.179 65.7135 214.673 63.0641 226.317C60.3997 238.027 58.6161 249.925 57.398 261.87C56.7906 267.815 56.3131 273.775 55.9172 279.738C55.7155 282.793 55.5629 285.853 55.3268 288.903C55.0906 291.951 54.9846 295.045 54.2416 298.012C53.8947 299.394 51.555 299.534 51.3043 298.012C50.748 294.611 50.9035 291.095 51.0587 287.651L51.0728 287.339C51.2256 283.909 51.4249 280.482 51.6608 277.055C52.1433 270.05 52.7876 263.055 53.629 256.082C56.5788 231.607 62.0185 207.259 72.6884 184.917C77.7122 174.394 84.1603 164.169 93.1302 156.571C97.4009 152.956 102.216 150.071 107.404 147.982C112.044 146.112 116.758 145.227 121.688 145.23C124.161 143.333 126.815 141.679 129.467 140.267C129.627 140.181 129.794 140.388 129.662 140.521C129.593 140.588 129.526 140.657 129.458 140.721C129.758 140.741 130.067 140.881 130.345 141.174C131.32 142.197 132.142 143.476 132.877 144.803C133.996 146.203 135.064 147.649 136.181 149.034C137.97 151.251 139.8 153.437 141.653 155.605C144.764 159.249 147.977 162.823 151.328 166.255L151.887 166.825C153.624 168.587 155.383 170.696 157.437 172.09L157.547 172.163C158.414 172.729 159.028 172.831 159.767 171.987C160.439 171.218 160.998 170.326 161.573 169.479L161.706 169.284C164.641 165.014 167.362 160.587 169.825 156.029C170.947 153.955 172.015 151.85 173.028 149.722L173.33 149.083C173.881 147.911 174.479 146.76 174.934 145.552C175.04 145.269 175.143 144.986 175.244 144.705C173.694 143.688 172.494 141.485 172.058 139.76C171.606 137.969 171.835 136.131 172.641 134.493C172.794 134.185 173.306 134.261 173.379 134.588ZM96.9192 207.377C96.7047 214.188 96.5746 221.005 96.2545 227.81L96.144 230.133C96.6432 230.69 96.936 231.333 96.7022 232.215C96.6115 232.553 96.3431 232.858 96.0085 232.972L95.9041 235.132C95.4294 244.85 94.8728 254.549 93.8558 264.243C92.5839 276.375 91.1127 288.486 89.6442 300.596C89.435 302.311 88.2441 303.671 86.3915 303.42C84.5171 303.166 83.7569 301.532 84.0029 299.83C84.9698 293.151 85.8995 286.466 86.7141 279.765L87.6415 272.13C88.8045 262.585 89.9949 253.043 91.3663 243.529C91.9395 239.553 92.5349 235.578 93.1325 231.604L92.9236 231.333C92.0697 230.222 91.1865 229.136 90.3131 228.042C88.6355 225.933 86.9798 223.841 85.4421 221.633C85.3656 221.522 85.5209 221.359 85.6313 221.444C87.7865 223.038 89.8262 224.742 91.878 226.475L93.674 227.997C94.7073 221.13 95.7307 214.261 96.6432 207.377C96.6656 207.205 96.9239 207.192 96.9192 207.377ZM127.92 142.204C126.623 143.429 125.297 144.626 123.991 145.843L123.512 146.291L123.036 146.741C120.74 148.922 118.54 151.192 116.706 153.799C113.341 158.586 111.336 164.423 112.735 170.267C113.897 175.108 116.561 179.497 117.277 184.459C117.636 186.945 117.462 189.443 116.527 191.791C115.572 194.186 114.047 196.239 112.676 198.399C109.699 203.095 109.294 208.25 109.589 213.69C109.899 219.371 110.551 225.055 111.355 230.685C112.984 242.093 115.439 253.382 118.689 264.437C120.315 269.973 122.237 275.391 124.148 280.832C125.1 283.539 126.21 286.183 127.354 288.814C127.957 290.199 128.574 291.576 129.202 292.951C128.97 291.01 128.97 289.016 128.857 287.087C128.695 284.323 128.488 281.563 128.299 278.801C127.913 273.196 127.568 267.586 127.261 261.976C126.171 241.97 125.369 221.946 125.428 201.908C125.457 191.887 125.662 181.867 126.092 171.856C126.294 167.142 126.685 162.432 127.038 157.725L127.113 156.716C127.425 152.491 127.799 148.255 128.441 144.067C128.251 143.637 128.086 143.203 127.964 142.756L127.92 142.589L127.952 142.594C127.922 142.463 127.913 142.332 127.92 142.204ZM139.134 124.987C139.16 124.871 139.325 124.881 139.355 124.987C140.085 127.451 139.827 130.161 139.198 132.64C138.858 133.982 138.376 135.286 137.793 136.542L137.589 136.982C137.089 138.052 136.527 139.155 135.554 139.822C135.148 140.1 134.422 140.117 134.016 139.822L133.809 139.664C133.775 139.638 133.741 139.611 133.709 139.583C133.33 139.265 133.143 138.563 133.317 138.099C133.768 136.905 134.789 136.027 135.495 134.963C136.12 134.017 136.673 133.019 137.133 131.982C138.125 129.737 138.57 127.355 139.134 124.987Z" fill="black"/>
<path fill-rule="evenodd" clip-rule="evenodd" d="M134.729 31.7554L136.85 34.2861C135.675 35.1165 134.567 35.9508 133.525 36.7892L133.524 36.7867C138.353 33.6245 143.701 31.7554 149.479 31.7554C160.607 31.7554 183.211 41.3488 188.321 48.2685C190.856 51.7025 195.569 62.2447 198.013 73.7058C199.977 82.9147 202.898 108.931 199.977 118.707C196.239 131.218 183.939 142.782 171.256 142.782C158.573 142.782 138.883 133.593 124.869 113.456C124.229 112.535 116.87 111.468 111.621 108.011L112.999 123.25L114.046 132.114L113.815 132.745C110.055 142.949 107.076 148.273 104.877 148.716C102.633 149.168 98.0639 145.477 91.1686 137.642L90.2875 133.931C88.0496 124.463 86.9307 119.381 86.9307 118.685L86.9322 118.558C86.9652 116.956 87.5152 107.887 87.5265 105.446L87.5267 68.8673C94.9424 44.126 102.019 31.7554 108.757 31.7554H134.729Z" fill="#FFDBB4"/>
<path fill-rule="evenodd" clip-rule="evenodd" d="M117.158 23.3296C119.338 22.482 121.864 22.6422 123.934 23.9184C127.997 23.7435 132.038 26.1285 134.157 29.6099C134.201 29.6592 134.248 29.7084 134.289 29.7577L134.738 30.2829C135.164 30.7844 135.612 31.3371 135.967 31.9079C134.227 31.9478 132.777 32.6596 131.765 34.0973C131.043 35.1231 132.697 36.0978 133.435 35.1276L133.461 35.0921C134.069 34.2291 134.986 33.8947 136.007 33.8772C136.3 33.8723 136.523 33.7597 136.68 33.5936C136.742 33.8225 136.798 34.0539 136.85 34.2862C141.991 32.2794 147.533 31.748 153.054 32.224C152.812 32.6172 152.609 33.0385 152.454 33.4813C152.277 33.9832 152.654 34.5595 153.14 34.6935C153.665 34.8384 154.14 34.5294 154.33 34.0518L154.347 34.0051C154.56 33.402 154.906 32.8843 155.371 32.483C157.97 32.8365 160.55 33.3988 163.067 34.1236C166.092 34.9956 169.089 36.0597 172.02 37.2781C171.523 37.4734 171.095 37.8036 170.794 38.3547C170.195 39.4549 171.843 40.4403 172.468 39.3885L172.49 39.3496C172.552 39.2369 172.606 39.169 172.646 39.1304L172.66 39.1173L172.746 39.0774L172.907 39.0311L172.969 39.0158C173.024 39.0035 173.046 39.0043 173.19 38.9963C173.381 38.9855 173.572 38.9865 173.763 38.9862C174.213 38.986 174.5 38.7344 174.63 38.4126C176.076 39.0678 177.504 39.7577 178.907 40.4803L179.24 40.6535C183.569 42.9236 187.671 45.9048 190.05 50.2913C190.207 50.5845 190.256 50.9048 190.217 51.2103C190.725 51.8213 191.216 52.452 191.687 53.0926C193.126 55.0538 194.179 57.2836 195.176 59.4937C197.182 63.9384 198.532 68.5039 199.585 73.264C200.604 77.8517 201.426 82.4886 202.19 87.1255C203.037 92.2774 203.742 97.4736 203.889 102.699C204.149 112.015 202.335 121.385 197.123 129.227C192.473 136.225 185.472 141.781 177.168 143.56C168.723 145.368 159.787 143.604 153.132 137.957C152.059 137.048 152.206 135.212 153.132 134.281C154.18 133.231 155.726 133.377 156.794 134.281C163.062 139.6 172.185 140.421 179.737 137.71C186.719 135.202 192.188 129.417 195.544 122.92C199.639 114.996 200.329 105.895 199.701 97.1286C199.357 92.3143 198.642 87.5394 197.906 82.7719L197.461 79.9021C196.976 76.7938 196.467 73.6897 195.802 70.6129L195.647 69.8961C194.834 66.1858 193.883 62.3804 192.412 58.8925C191.641 57.0619 190.713 55.2978 189.763 53.5558C189.579 53.2183 189.39 52.8758 189.196 52.5309C188.935 52.622 188.638 52.6368 188.326 52.5383C185.643 51.7006 182.886 51.1388 180.08 50.9516C178.802 50.8658 177.522 50.8525 176.243 50.9025C174.054 50.7747 171.804 50.9678 169.718 51.6414C169.514 51.4658 169.308 51.2938 169.101 51.1218C169.045 51.1174 168.989 51.1115 168.933 51.1004C168.401 50.9954 168.027 50.616 167.802 50.1368C167.79 50.1114 167.779 50.086 167.769 50.0606C167.502 49.8559 167.233 49.6544 166.962 49.4555C166.3 49.6278 165.72 49.0751 165.564 48.4695C165.417 48.3697 165.267 48.2731 165.118 48.1753C165.001 48.2039 164.886 48.2276 164.773 48.2359C164.285 48.2712 163.815 48.1963 163.383 47.9629C162.836 47.6675 162.487 47.191 162.253 46.6497C161.426 46.7007 160.59 46.4314 159.85 45.9446C159.25 45.5496 158.791 45.0044 158.334 44.4601C152.766 41.968 146.714 40.4966 140.648 40.1196C140.05 40.2349 139.457 40.3721 138.871 40.5318C138.732 40.5697 138.535 40.6441 138.309 40.7333C139.661 40.5692 141.031 40.553 142.42 40.7538C149.013 41.7105 154.148 46.6643 158.567 51.3404C159.618 51.1272 160.681 52.4934 159.708 53.3981L152.123 60.4523C152.309 61.2413 151.407 62.0188 150.617 61.8294C149.293 61.5101 147.967 61.1996 146.639 60.8943C145.255 61.5667 143.514 61.4517 142.258 60.477C142.199 60.4316 142.073 60.3592 141.962 60.2873C141.859 60.3728 141.721 60.4585 141.665 60.495C141.219 60.7916 140.675 60.8788 140.153 60.7955C139.616 60.7101 139.132 60.4368 138.714 60.0966C138.448 59.8798 137.829 58.9755 137.484 58.9089L137.451 58.9051C137.681 58.9117 136.941 59.6013 136.743 59.744C136.279 60.0759 135.767 60.2503 135.19 60.1867C134.185 60.0758 133.321 59.1565 132.829 58.3077L132.792 58.2425L132.777 58.2021L132.764 58.2458C132.761 58.2536 132.759 58.2618 132.755 58.2711C132.682 58.4709 132.45 58.6981 132.293 58.8378C131.845 59.2352 131.291 59.4099 130.699 59.3062C130.198 59.2186 129.776 58.9147 129.438 58.547L129.385 58.4884C129.285 58.3749 128.624 57.4846 128.729 57.2713L128.741 57.2533L128.708 57.2464C128.306 57.3454 127.969 57.2462 127.722 57.0385C126.344 56.7354 124.983 56.3823 123.667 55.9334C123.563 56.2242 123.463 56.5149 123.365 56.8081C124.084 57.254 124.749 57.8897 125.36 58.3431C126.519 59.2005 127.678 60.0579 128.834 60.9178L133.416 64.3095L133.94 64.1683C134.609 63.9879 135.183 64.379 135.429 64.9769L135.449 65.0287C135.547 65.2906 135.664 65.5328 135.802 65.7646C136.947 65.7188 137.917 66.4244 138.231 67.4366C138.514 67.4301 138.799 67.441 139.091 67.4733C139.892 67.5614 140.431 68.1577 140.286 68.9765L140.275 69.0326L140.256 69.1238C140.719 69.3214 141.056 69.703 141.13 70.2801C141.255 70.4676 141.355 70.6716 141.419 70.8987C141.753 72.0774 141.102 73.5345 140.756 74.6637L140.729 74.7522C140.506 75.4943 140.276 76.2328 140.043 76.971L139.463 78.8038C137.853 83.9119 136.284 89.2975 137.586 94.6525C137.864 95.7859 136.42 96.2983 135.794 95.4114C134.276 93.2639 132.637 91.2403 130.915 89.2979L130.832 89.2846C129.626 89.0414 129.158 88.1867 128.604 87.3155C128.278 87.4118 127.928 87.4345 127.589 87.3689C127.098 87.2741 126.659 86.9929 126.312 86.6379C126.018 86.3368 125.749 85.5647 125.402 85.3732C124.967 85.134 124.094 85.476 123.575 85.3991C123.153 85.3368 122.758 85.1914 122.376 85.0088C121.674 85.97 121.208 87.0999 121.094 88.318C121.049 88.7812 120.912 89.1729 120.713 89.4982C121.445 89.4711 122.179 89.5228 122.903 89.6583C125.584 90.1585 127.506 91.8191 128.586 94.2928C128.633 94.4012 128.493 94.4899 128.429 94.3864C126.826 91.9103 123.337 91.7846 120.804 92.6568C118.113 93.5832 116.603 95.9608 116.066 98.6735C115.477 101.647 116.233 104.853 117.846 107.386C118.594 108.563 119.616 109.638 120.973 110.071C122.586 110.586 124.076 109.665 125.729 110.14C126.853 110.463 127.349 111.554 127.145 112.646C127.064 113.075 126.914 113.449 126.713 113.774C127.307 114.957 127.857 116.174 128.557 117.293C129.637 119.02 130.943 120.449 132.367 121.89C133.837 123.378 135.335 124.837 136.909 126.217C138.416 127.54 140.145 128.481 141.726 129.693C142.835 130.543 143.385 131.736 142.838 133.101C142.386 134.229 140.864 135.19 139.631 134.68C137.272 133.704 135.207 132.044 133.327 130.334C131.584 128.747 130.067 126.85 128.92 124.79C127.839 122.848 127.042 120.643 126.369 118.519L126.286 118.254C125.969 117.243 125.636 116.108 125.419 114.962C124.126 115.671 122.37 115.775 120.986 115.583C118.749 115.275 116.709 114.144 115.167 112.496C114.449 111.729 113.813 110.854 113.265 109.905C113.315 110.483 113.344 111.041 113.376 111.549C114.658 112.958 115.172 114.991 114.717 116.846C115.79 117.954 116.09 119.617 115.53 121.033C116.704 122.201 116.66 124.06 116.153 125.749C117.54 127.305 117.671 129.73 116.588 131.486L116.555 131.612C117.649 133.449 117.403 135.823 116.032 137.446C116.968 139.268 116.823 141.719 114.484 142.426C113.631 142.683 112.805 142.464 112.186 141.984C112.751 144.803 113.004 147.664 112.251 150.495C111.951 151.619 110.856 152.439 109.705 152.439C108.742 152.439 108.043 151.954 107.559 151.239C107.616 152.661 107.53 154.09 107.228 155.531C107.046 156.402 106.241 157.081 105.387 157.291C105.695 157.639 105.818 158.144 105.523 158.669C104.27 160.894 101.244 159.971 101.04 157.839C100.185 157.199 99.7881 156.148 99.6237 155.013C99.3841 153.356 99.2971 151.728 99.0256 150.093L98.9218 150.19L98.8683 150.236L98.8511 150.355C98.6954 151.163 98.2412 151.729 97.6518 152.066C97.7799 153.476 97.5428 154.912 96.6516 155.982C96.058 156.696 95.0468 156.977 94.1799 156.822C94.1254 156.825 94.0697 156.825 94.0117 156.817C92.0485 156.555 90.9125 154.686 91.4293 152.971C90.6388 151.999 90.3059 150.765 90.5399 149.546C89.0101 148.529 89.0413 146.297 89.5711 144.503C87.9675 143.233 87.3643 140.859 88.17 138.972C86.7248 137.17 86.5237 134.66 87.5057 132.609C85.9156 131.298 85.9247 128.767 87.5018 127.426C86.6619 125.753 86.1555 123.748 86.9948 122.217C86.4027 121.561 86.0776 120.626 86.1461 119.723C86.2465 118.396 87.121 117.48 88.2061 116.869L88.2813 116.454C88.5361 116.486 88.8076 116.415 89.047 116.184C89.2839 115.956 89.5277 115.771 89.7798 115.62C90.0653 115.616 90.3111 115.488 90.4839 115.292C90.9567 115.131 91.4652 115.06 92.0291 115.053C93.247 115.04 93.29 113.212 92.1565 113.094C91.9775 112.912 91.731 112.798 91.4637 112.798L91.2543 112.799C90.7649 112.804 90.2707 112.834 89.8166 113.029C89.5215 113.156 89.2939 113.347 89.1272 113.581C89.0961 113.934 88.9046 114.286 88.4899 114.577C88.011 114.913 87.356 114.952 86.8434 114.648C86.1257 114.223 86.1184 113.558 86.2011 112.836C86.3823 111.256 85.4769 109.768 85.6924 108.152C85.7879 107.437 86.0251 106.82 86.4118 106.321C85.5964 105.096 85.4526 103.515 86.0803 102.171C84.7725 100.759 84.5464 98.5823 85.3804 96.883C85.3924 96.8419 85.4018 96.7997 85.4148 96.7591C85.5091 96.4703 85.6389 96.2099 85.782 95.9608C85.05 94.688 85.0554 93.1262 85.7995 91.8588C84.6724 90.5401 84.6365 88.4417 85.6389 87.021C85.6448 86.9033 85.6571 86.7855 85.6672 86.6677C85.2071 85.4691 85.3176 84.1063 85.9011 82.9917C85.6929 82.51 85.5324 81.9914 85.4298 81.439C85.1668 80.0149 85.3021 78.6302 85.6949 77.2406C85.7585 77.0213 85.8297 76.8021 85.9058 76.5828C85.9185 75.631 85.9546 74.6834 86.0023 73.7375C85.8156 72.9369 85.7855 72.057 85.7814 71.2401L85.7802 70.7104C85.7711 69.3624 85.6774 67.3887 86.5267 66.2428C85.9814 65.005 86.2055 63.4454 87.1156 62.4643C86.4768 61.3617 86.3428 60.0079 86.9848 58.7846C87.0879 58.5877 87.2074 58.4044 87.3385 58.2309C87.2855 57.1106 87.5204 55.9554 88.1153 54.842C88.5017 54.1171 89.0789 53.4896 89.7651 52.9874C89.7535 52.8389 89.7464 52.6905 89.7489 52.5444C89.7609 51.8925 89.905 51.2379 90.1476 50.6271C89.7123 49.8815 89.5105 49.0411 89.7651 48.1354C90.0498 47.1105 90.7989 46.2284 91.734 45.7307C91.8094 44.7644 91.9598 43.8038 92.1749 42.8559C91.6002 41.5715 92.0578 39.8764 93.3567 39.1198C93.1874 38.0933 93.3401 37.029 94.0844 36.2272C94.3665 35.9234 94.6989 35.6931 95.0566 35.5403C94.8843 34.5082 95.0787 33.4345 95.7899 32.5941C96.3708 31.9079 97.2315 31.491 98.1074 31.4297C98.4448 29.6345 100.154 28.2922 101.957 28.3992C102.182 27.6088 102.72 26.9196 103.556 26.5703C103.769 26.4808 103.985 26.4219 104.201 26.3892C105.667 24.905 107.85 23.899 109.739 23.3838C111.635 22.8691 113.556 22.8193 115.184 23.4177L115.302 23.4626L115.435 23.4454C116.009 23.3813 116.584 23.3444 117.158 23.3296ZM102.755 144.978C102.248 144.819 101.684 145.165 101.546 145.666C101.402 146.195 101.724 146.719 102.232 146.878C102.866 147.076 103.531 147.126 104.19 147.126C104.721 147.127 105.172 146.673 105.172 146.141C105.172 145.606 104.723 145.156 104.19 145.155C103.654 145.155 103.258 145.135 102.755 144.978ZM98.2513 134.512C97.4944 134.512 96.8453 134.694 96.2841 135.226C95.91 135.581 95.9006 136.267 96.2841 136.62C96.6714 136.976 97.2334 136.997 97.631 136.658L97.7075 136.589C97.7167 136.58 97.7238 136.574 97.7296 136.568C97.7615 136.547 97.7937 136.526 97.8276 136.509L97.7635 136.551C97.7148 136.586 97.8279 136.528 97.8913 136.501L97.9113 136.493L97.9177 136.491L97.9685 136.487C98.0625 136.482 98.157 136.483 98.2513 136.483C98.7649 136.482 99.2569 136.03 99.2333 135.497C99.2093 134.963 98.8017 134.511 98.2513 134.512ZM112.534 128.259C113.597 127.605 112.648 125.932 111.582 126.534L111.543 126.557C110.997 126.893 110.324 126.848 109.705 126.848C108.442 126.849 108.439 128.82 109.705 128.819L109.914 128.818C110.822 128.811 111.74 128.748 112.534 128.259ZM104.169 121.065C103.366 120.913 102.466 120.778 101.621 120.87L101.481 120.888H101.221C100.995 120.888 100.776 120.979 100.601 121.122C100.323 121.238 100.059 121.393 99.8193 121.602C98.8626 122.434 100.257 123.824 101.208 122.996C101.261 122.95 101.322 122.912 101.39 122.881L101.443 122.859H102.493C102.589 122.859 102.682 122.839 102.772 122.81C103.113 122.857 103.431 122.925 103.646 122.965C104.882 123.199 105.411 121.299 104.169 121.065ZM103.272 102.147C101.733 101.431 100.028 101.436 98.6041 102.431C97.5861 103.143 98.5317 104.82 99.5585 104.158L99.5952 104.133C99.7228 104.044 99.8539 103.969 99.9865 103.901C100.709 104.111 101.437 104.121 102.135 103.863L102.226 103.828L102.281 103.849C103.42 104.379 104.419 102.681 103.272 102.147ZM120.034 99.0591C118.479 98.8842 118.466 96.4189 120.034 96.5953C123.344 96.9678 126.347 98.4444 128.546 100.98C129.569 102.16 127.884 103.885 126.842 102.758L126.81 102.722C125.061 100.706 122.701 99.3592 120.034 99.0591ZM102.613 86.4019C102.268 86.3639 101.923 86.345 101.583 86.3615C100.768 86.4009 99.7744 86.9469 100.132 87.9334C100.419 88.7238 101.36 88.7551 101.825 88.3335C102.018 88.3382 102.211 88.351 102.403 88.3707C102.916 88.4237 103.424 88.5218 103.929 88.6218C105.164 88.8655 105.692 86.9661 104.451 86.7209L103.903 86.612C103.718 86.5756 103.531 86.5401 103.343 86.5076C103.231 86.4516 103.111 86.4139 102.983 86.4043L102.918 86.4019H102.613ZM92.8559 71.1101L92.7406 71.0944C91.0822 70.8815 88.4201 71.0774 88.2189 73.196C88.1077 74.3693 89.7967 74.4429 90.1301 73.4397C91.3547 73.2182 92.5893 73.1758 93.8055 73.3103C94.2695 72.8373 94.2732 71.9279 93.5009 71.7009C93.3919 71.4068 93.1643 71.1547 92.8559 71.1101ZM130.763 67.5319C130.379 67.1788 129.751 67.132 129.374 67.5319C129.156 67.762 128.975 68.0178 128.831 68.2991L128.736 68.4891C128.72 68.5207 128.703 68.552 128.686 68.583C128.654 68.6404 128.618 68.6951 128.583 68.7508L128.559 68.774C128.549 68.7836 128.538 68.7951 128.525 68.8092C128.172 69.1839 128.127 69.8361 128.525 70.2029C128.909 70.556 129.537 70.6028 129.914 70.2029C130.131 69.9728 130.313 69.7173 130.456 69.4357L130.552 69.2459C130.568 69.2144 130.584 69.1831 130.602 69.1521C130.634 69.0945 130.67 69.0398 130.705 68.9841L130.744 68.9449C130.75 68.9391 130.756 68.9327 130.763 68.9257C131.116 68.5512 131.161 67.8988 130.763 67.5319ZM110.625 64.9653C109.241 63.9813 107.596 63.9355 106.324 65.1193C105.406 65.9738 106.755 67.3429 107.68 66.5423L107.713 66.5131C107.747 66.4816 107.781 66.454 107.815 66.4276C107.981 66.5695 108.191 66.6595 108.432 66.6597C108.496 66.6599 108.558 66.6597 108.621 66.661L108.716 66.6644L108.766 66.6686L108.773 66.6698L108.817 66.6887C108.897 66.7252 109.009 66.7816 108.856 66.6856C108.89 66.7036 108.922 66.7248 108.954 66.7454L109.011 66.7969C109.381 67.1483 110.022 67.1946 110.389 66.8061C111.04 66.5853 111.385 65.5056 110.625 64.9653ZM124.153 61.7365L124.178 61.7286C125.391 61.381 124.875 59.4786 123.656 59.8278C122.362 60.1986 121.744 61.4071 121.485 62.6449C121.376 63.1655 121.637 63.7103 122.171 63.8573C122.659 63.9916 123.27 63.6923 123.379 63.169C123.456 62.8009 123.544 62.4887 123.685 62.199L123.769 62.0336C123.809 61.9582 123.823 61.9457 123.957 61.8284C123.979 61.8087 124.081 61.7609 124.153 61.7365ZM103.603 51.8095L103.413 51.766C102.231 51.5062 100.662 51.3705 99.9487 52.5464C99.2981 53.6177 100.939 54.5929 101.615 53.5802C101.625 53.5799 101.637 53.58 101.651 53.5811L101.673 53.5837L101.976 53.559C102.354 53.5563 102.715 53.6233 103.081 53.7103C104.31 54.0023 104.834 52.1022 103.603 51.8095ZM146.034 44.2322C146.929 43.3341 145.541 41.9399 144.646 42.8387C143.938 43.549 143.255 44.2642 142.795 45.1667C142.554 45.6403 142.672 46.236 143.148 46.5152C143.586 46.7727 144.249 46.6372 144.491 46.1616C144.89 45.3794 145.393 44.8763 146.034 44.2322ZM134.743 41.8748C133.859 42.4001 133.287 43.2654 132.939 44.267C132.765 44.7696 133.138 45.3449 133.625 45.4792C134.149 45.6236 134.627 45.3157 134.816 44.8376L134.833 44.7908C134.926 44.5229 135.075 44.2066 135.259 43.9678C135.416 43.7641 135.66 43.5601 135.844 43.4923C136.287 43.3292 136.601 42.9266 136.56 42.4565C135.832 42.7091 135.156 42.4053 134.743 41.8748ZM108.279 37.5878C107.387 36.757 106.19 36.6468 105.109 37.1497C104.627 37.3734 104.507 38.0699 104.757 38.4981C105.045 38.9936 105.617 39.0764 106.1 38.8517C105.976 38.9094 106.2 38.8332 106.297 38.8054C106.309 38.8111 106.471 38.8037 106.527 38.8045L106.594 38.8088C106.595 38.8093 106.578 38.809 106.545 38.8078C106.592 38.8185 106.639 38.8313 106.684 38.846L106.743 38.8663C106.713 38.8601 106.846 38.9469 106.883 38.9757L106.89 38.9813C107.815 39.8434 109.208 38.4528 108.279 37.5878Z" fill="black"/>
<path fill-rule="evenodd" clip-rule="evenodd" d="M177.108 117.501C177.486 116.844 178.355 116.235 179.15 116.328C182.712 116.746 182.706 121.071 181.33 123.596C180.111 125.835 177.587 127.15 175.061 126.958C172.407 126.756 170.146 125.193 169.15 122.707C168.492 121.062 168.188 118.026 169.939 116.921C169.971 116.9 170.025 116.906 170.051 116.935C170.89 117.913 170.923 119.382 171.658 120.47C172.342 121.483 173.403 122.319 174.647 122.448C175.576 122.545 176.516 122.209 176.879 121.374C177.076 120.922 177.054 120.677 176.98 120.366L176.913 120.096C176.68 119.149 176.575 118.429 177.108 117.501ZM178.06 98.5329C179.918 99.6638 182.749 102.301 180.75 105.105C178.398 107.577 175.011 104.742 173.342 103.46C171.794 102.467 170.055 105.022 171.491 106.182C183.552 115.125 188.447 98.8286 179 97.2032C177.96 97.0241 177.574 98.1831 178.06 98.5329ZM158.442 90.7781C159.582 89.0648 162.185 89.3171 162.813 91.3502C163.154 92.4516 162.684 93.4415 162.708 94.5414C162.729 95.4705 162.668 96.5058 162.383 97.4056C161.735 99.4575 159.892 100.907 157.712 100.847C155.539 100.787 153.626 99.4094 152.716 97.4696C151.802 95.5225 151.996 93.5073 152.662 91.5274C152.694 91.4323 152.819 91.3862 152.894 91.4663C153.682 92.305 154.259 93.1904 154.856 94.1297L155.468 95.0923C155.935 95.8172 156.615 96.7432 157.488 96.685L157.619 96.6721C157.861 96.6512 157.824 96.6995 158.011 96.3683C158.098 96.2151 158.082 95.9302 158.124 95.7494L158.138 95.6883L158.13 95.6554C158.112 95.5678 158.094 95.4028 158.079 95.1164L158.076 95.0531C158.012 93.7135 157.634 91.9921 158.442 90.7781ZM187.347 91.9188C187.143 89.7274 190.219 89.2408 191.242 90.8623C191.775 91.7078 191.931 92.77 192.049 93.7763L192.104 94.254C192.225 95.2876 192.273 96.3628 191.825 97.3269C191.119 98.8453 189.585 99.648 187.93 99.5209C186.349 99.3992 184.907 98.4814 184.146 97.0881C183.469 95.8449 182.795 93.4175 183.618 92.1208C183.668 92.0422 183.767 92.0321 183.835 92.0927C184.613 92.7843 184.74 94.0458 185.202 94.9468C185.679 95.8762 186.403 96.7819 187.5 96.923C188.549 97.0581 188.949 96.4842 188.682 95.4827C188.336 94.1897 187.477 93.3101 187.347 91.9188ZM159.273 77.7502L159.776 77.5573C161.5 76.9052 163.866 76.1514 165.268 77.5551C166.132 78.4206 166.297 79.6957 165.68 80.7519C164.932 82.0314 163.591 82.0629 162.296 82.2514C160.823 82.4657 159.325 82.8733 157.954 83.4542C156.409 84.1089 154.975 84.9249 153.571 85.8363C152.236 86.7023 150.906 88.1178 149.308 88.3846C149.243 88.3954 149.169 88.3673 149.152 88.2957C148.789 86.7311 149.797 85.1915 150.697 83.9709C151.786 82.4931 153.105 81.2801 154.58 80.1926C156.003 79.1428 157.629 78.3842 159.273 77.7502ZM190.583 83.3127L190.737 83.2857C191.782 83.1115 192.729 83.1516 193.517 83.9806C194.118 84.6131 194.35 85.4328 194.064 86.2691C193.799 87.0405 193.208 87.8242 192.349 87.9859C189.451 88.5318 186.242 88.4417 183.329 88.0282C181.997 87.839 180.652 87.6074 179.354 87.2423L178.757 87.0689C177.674 86.759 176.433 86.4351 175.646 85.6371C175.363 85.3503 175.526 84.9398 175.865 84.807C177.238 84.2684 179.121 84.555 180.585 84.5128C182.288 84.4641 183.994 84.3362 185.69 84.16C187.346 83.9875 188.95 83.6128 190.583 83.3127Z" fill="black"/>
<defs>
<clipPath id="clip0_30_204">
<rect width="294" height="33" fill="white" transform="translate(1 288)"/>
</clipPath>
</defs>
</svg>
