<svg width="295" height="321" viewBox="0 0 295 321" fill="none" xmlns="http://www.w3.org/2000/svg">
<g clip-path="url(#clip0_30_224)">
<path d="M146.892 321C228.018 321 293.783 313.657 293.783 304.599C293.783 295.541 228.018 288.198 146.892 288.198C65.7657 288.198 0 295.541 0 304.599C0 313.657 65.7657 321 146.892 321Z" fill="#F7859C"/>
</g>
<path d="M214.421 201.949H157.025V272.587H214.421V201.949Z" fill="#FDEA6B"/>
<path fill-rule="evenodd" clip-rule="evenodd" d="M140.285 132.858C146.472 128.149 162.005 126.032 168.608 130.566C175.13 135.118 175.841 142.481 178.88 149.253C181.748 147.902 186.483 149.837 187.315 152.497C188.346 153.751 188.392 157.274 189.103 158.96C220.042 163.882 224.739 187.989 228.463 215.357C233.39 243.129 244.573 270.839 239.718 299.417C240.351 300.331 240.85 301.221 241.311 302.277C242.416 304.156 240.993 306.816 238.764 306.713C235.879 306.46 233.022 306.114 230.123 306.006C222.088 305.727 214.045 305.76 206.007 305.863L204.911 305.877C164.4 306.381 123.891 307.374 83.3777 307.637C81.9079 307.64 81.1884 306.322 81.3846 305.023C81.7799 302.406 82.1465 299.789 82.5293 297.171C72.9469 299.701 62.76 300.337 53.2047 297.437C52.5363 296.757 54.7622 297.125 55.1153 297.022C46.3215 291.017 48.9476 278.365 49.7266 269.253C54.5704 238.029 56.278 203.482 74.9928 176.838C83.0892 165.965 94.9591 157.356 108.599 155.419L108.977 155.367C112.965 154.836 117.41 154.665 120.897 152.497C124.819 149.368 126.49 143.586 130.616 143.532C131.978 143.514 133.831 145.237 135.826 146.406C135.975 143.833 137.362 141.662 137.668 139.668L137.693 139.497C138.013 137.171 137.575 135.079 140.285 132.858ZM206.776 216.182C198.081 210.145 175.621 213.178 175.107 213.517C173.975 214.261 173.487 214.327 172.875 215.293C172.27 215.373 171.666 215.456 171.063 215.542C169.852 215.937 170.749 217.426 172.148 216.895C171.306 220.52 173.782 223.099 174.767 226.683C175.087 227.847 174.779 229.94 174.767 231.129C174.863 232.645 176.54 234.436 176.261 235.957C175.267 241.365 169.874 246.64 172.148 251.885C173.654 254.847 178.184 256.357 181.197 257.364C187.437 259.758 198.311 257.274 201.937 251.885C203.871 249.01 206.112 241.759 207.265 239.51L207.52 235.942C208.151 227.073 208.711 217.526 206.776 216.182Z" fill="#EDB98A"/>
<path fill-rule="evenodd" clip-rule="evenodd" d="M130.294 143.548L132.782 145.074L147.234 152.214C150.035 152.998 151.436 153.937 151.436 155.033V166.184C151.436 167.676 154.065 171.059 159.323 176.331L164.181 171.491L164.072 170.857C163.61 168.127 163.379 166.3 163.379 165.378C163.379 164.386 168.131 160.619 177.636 154.079L181.795 150.166L181.351 148.819C183.915 148.94 186.696 150.518 187.315 152.497C188.346 153.751 188.392 157.275 189.103 158.961C220.042 163.883 224.739 187.989 228.463 215.357C233.39 243.129 244.573 270.84 239.718 299.417C240.351 300.332 240.85 301.221 241.311 302.277C242.416 304.156 240.993 306.816 238.764 306.713C235.879 306.46 233.022 306.114 230.123 306.006C222.088 305.727 214.045 305.761 206.007 305.863L204.911 305.877C164.4 306.381 123.891 307.374 83.3777 307.638C81.9079 307.64 81.1884 306.322 81.3846 305.023C81.7799 302.407 82.1465 299.789 82.5293 297.171C72.9469 299.701 62.76 300.337 53.2047 297.437C52.5363 296.757 54.7622 297.126 55.1153 297.022C46.3215 291.017 48.9476 278.365 49.7266 269.253C54.5704 238.029 56.278 203.482 74.9928 176.839C83.0892 165.965 94.9591 157.356 108.599 155.419L108.977 155.368L109.358 155.318C113.246 154.823 117.521 154.596 120.897 152.497C124.715 149.45 126.4 143.89 130.294 143.548ZM164.921 209.003C163.504 209.003 160.601 211.202 156.213 215.602L155.826 215.781C150.521 218.243 147.007 220.379 145.284 222.189L145.222 222.254C143.481 224.121 140.032 229.086 134.877 237.148L127.411 241.561H124.586L122.575 256.14L127.411 266.55L138.365 262.863L156.213 258.161L166.454 247.777L172.232 245.839C171.531 247.863 171.277 249.876 172.148 251.885C173.654 254.847 178.184 256.358 181.197 257.365C187.437 259.758 198.311 257.274 201.937 251.885C203.871 249.011 206.112 241.76 207.265 239.51L207.596 234.876C208.192 226.323 208.634 217.472 206.776 216.182C198.081 210.146 175.621 213.179 175.107 213.517C173.975 214.261 173.487 214.327 172.875 215.293L172.558 215.336L174.34 212.92L173.709 212.583C169.206 210.196 166.276 209.003 164.921 209.003ZM172.148 216.895C171.342 220.366 173.577 222.877 174.634 226.23L171.933 221.064L171.933 216.962C172.003 216.945 172.075 216.922 172.148 216.895Z" fill="white"/>
<path fill-rule="evenodd" clip-rule="evenodd" d="M129.101 143.009C129.701 142.478 130.589 143.145 130.208 143.863C129.351 145.476 128.471 147.004 127.321 148.43C126.623 149.294 125.876 150.112 125.119 150.92C127.062 152.6 128.729 154.686 130.302 156.641C132.315 159.141 134.217 161.747 136.476 164.035C138.704 166.291 141.168 167.868 144.146 168.92L144.748 169.129C147.74 170.179 150.938 171.597 152.624 174.428C152.957 174.986 152.287 175.676 151.724 175.328C148.794 173.514 145.35 173.149 142.16 171.951C139.079 170.794 136.392 169.012 134.019 166.738C131.649 164.468 129.66 161.886 127.584 159.358C125.532 156.858 123.322 154.723 120.895 152.608C117.149 155.127 112.873 156.223 108.525 157.299L108.051 157.417C103.698 158.494 99.3681 159.745 95.2842 161.62C91.6835 163.274 88.142 165.248 85.2091 167.939C82.0957 170.795 79.6725 174.442 77.4546 178.009C72.4935 185.988 69.0056 194.73 65.9351 203.579C62.7415 212.782 60.0702 222.17 57.9137 231.669C56.8169 236.501 55.9261 241.367 55.194 246.268C54.8416 248.628 54.5286 250.993 54.2536 253.363C53.9601 255.895 53.8927 258.499 53.1157 260.932C52.7826 261.975 51.9961 262.408 51.2089 262.371L51.049 264.37C50.837 267.035 50.6393 269.7 50.5725 272.381C50.4618 276.84 50.512 281.285 50.8329 285.734L50.8783 286.34C51.1304 289.587 51.6939 293.235 54.1368 295.613C56.6668 298.075 60.5574 298.849 63.9673 298.894C71.9093 298.997 79.5542 295.247 86.5821 291.957C93.82 288.568 100.86 284.807 107.732 280.728C111.231 278.651 114.693 276.505 118.11 274.295C119.787 273.211 121.452 272.108 123.105 270.988C124.052 270.346 124.949 269.643 125.912 269.073C125.44 268.634 125.229 267.943 125.625 267.34C122.839 264.923 121.68 260.61 121.544 257.121C121.434 254.304 121.849 251.495 122.177 248.705C122.342 247.298 122.546 245.894 122.758 244.493C122.841 243.94 122.905 243.348 123.003 242.764C115.481 246.895 107.747 250.574 99.8094 253.843C95.7406 255.518 91.6196 257.025 87.4417 258.405L86.595 258.684C82.6364 259.979 78.5832 261.202 74.4908 261.942C74.272 261.982 74.0943 261.659 74.3279 261.556C78.316 259.797 82.4423 258.314 86.4903 256.694L87.1555 256.424C87.0791 256.419 86.9999 256.409 86.9172 256.389C84.5431 255.816 82.1876 254.934 79.8592 254.191C77.6982 253.501 75.2703 253.068 73.2504 252.027C73.095 251.947 73.182 251.731 73.3334 251.721C75.6037 251.564 78.0682 252.225 80.2941 252.614L81.1303 252.76C82.5311 253.007 83.963 253.272 85.3569 253.619C85.4073 253.152 85.6682 252.683 86.0394 252.408C90.1241 249.385 89.7093 243.279 90.1461 238.777L90.4701 235.434C91.0399 229.584 91.6427 223.734 92.5585 217.928C92.6074 217.618 93.0873 217.707 93.0894 217.999C93.1366 225.197 92.5929 232.362 92.3204 239.548L92.2782 240.727C92.1276 245.162 92.0095 249.766 89.215 253.178C89.6057 252.95 90.1341 252.95 90.4506 253.326C90.8396 253.789 91.0642 254.308 91.0572 254.818C93.5824 253.76 96.0965 252.674 98.5984 251.567C106.642 248.005 114.517 244.02 122.184 239.707C123.009 239.243 123.793 239.608 124.201 240.22L124.26 240.211C124.27 240.21 124.28 240.209 124.29 240.209L124.349 240.206C124.351 240.206 124.353 240.207 124.355 240.207C125.434 239.614 126.905 240.036 127.831 240.9C127.858 240.927 127.881 240.955 127.906 240.982C129.078 240.456 130.173 239.746 131.166 238.846C133.2 237.004 134.922 234.727 136.423 232.444C139.188 228.238 141.536 223.561 145.271 220.099C148.305 217.286 152.068 215.535 156.014 214.436C155.998 214.321 156.042 214.198 156.122 214.116C156.324 213.908 156.469 213.837 156.731 213.963C156.752 213.973 156.764 213.987 156.773 214.002L157.158 213.344C157.368 212.987 157.584 212.628 157.659 212.534C158.107 211.97 158.568 211.41 159.036 210.862C159.83 209.935 160.735 209.019 161.782 208.376C164.075 206.968 166.486 207.765 168.844 208.534C170.269 209 171.688 209.48 173.111 209.952L173.257 210C174.318 210.34 175.559 210.638 176.033 211.761C176.22 212.205 176.25 212.667 176.162 213.114C186.234 210.554 197.42 211.73 207.248 214.735C207.626 214.85 208.002 215.16 208.082 215.568C209.208 221.339 209.709 227.258 209.2 233.128C208.76 238.195 207.637 243.16 205.52 247.799L205.4 248.061C203.41 252.36 200.257 257.66 195.442 259.007C192.534 259.821 189.318 259.341 186.352 259.192C183.47 259.047 180.524 259.026 177.67 258.573C175.127 258.17 172.899 257.031 171.328 254.965C169.973 253.182 169.259 251.028 168.674 248.885C168.407 248.97 168.141 249.061 167.879 249.163C166.774 249.594 165.839 250.29 164.992 251.109C163.206 252.838 161.82 254.939 159.95 256.589C158.258 258.083 156.329 259.245 154.261 260.138C149.975 261.989 145.377 262.728 140.843 263.709L140.526 263.778C137.113 264.527 133.629 265.446 130.617 267.222C130.558 267.744 130.32 268.236 129.938 268.558C130.469 269.057 130.694 269.847 130.227 270.588C128.923 272.657 126.676 273.834 124.659 275.157L124.528 275.243C122.544 276.558 120.543 277.846 118.525 279.108C114.423 281.675 110.236 284.1 105.989 286.419C99.1593 290.148 92.1825 293.665 85.0795 296.856C85.5058 298.952 85.35 301.114 85.6705 303.224L85.7196 303.525C85.8565 304.308 85.6716 304.963 85.1318 305.475L85.0747 305.527L85.0757 305.52L85.0251 305.567L85.0082 305.581L85.0138 305.577C84.9516 305.633 84.8874 305.686 84.822 305.732L84.7386 305.785C84.2188 306.101 83.5494 306.098 83.0171 305.819L82.9563 305.785L82.8541 305.727C82.1508 305.323 81.6658 304.321 81.9576 303.525C82.6746 301.569 82.9456 299.482 83.6077 297.513L83.0824 297.748L82.39 298.049C74.9015 301.286 66.5833 304.011 58.424 301.805C54.8188 300.83 51.4492 298.767 49.6454 295.405C47.8704 292.097 47.6195 288.256 47.5253 284.577C47.409 280.035 47.6526 275.424 48.2519 270.921C48.6541 267.899 49.1406 264.819 49.891 261.828C49.5051 261.488 49.2213 261 49.1464 260.395C48.7922 257.538 49.4121 254.568 49.7915 251.726C50.1622 248.951 50.5718 246.182 51.0349 243.421C51.9701 237.845 53.0566 232.281 54.3215 226.771C56.5728 216.964 59.5456 207.332 63.1247 197.929L63.4381 197.11C66.7454 188.516 70.5747 180.105 75.9069 172.556C78.4577 168.944 81.154 165.669 84.7582 163.066C88.1348 160.627 91.9434 158.871 95.8739 157.529C99.8087 156.186 103.853 155.286 107.969 154.726C112.149 154.158 116.561 153.809 120.46 152.095C119.966 151.212 120.39 150.019 121.22 149.471C124.013 147.626 126.597 145.226 129.101 143.009ZM218.529 223.221C218.646 223.043 218.924 223.156 218.873 223.366C217.514 228.929 216.239 234.503 215.406 240.173C213.903 250.405 214.179 260.771 214.302 271.079L214.308 271.612C214.371 277.165 214.459 282.717 214.643 288.268C214.736 291.073 214.919 293.905 214.819 296.712C214.765 298.234 214.359 299.674 214.215 301.178C214.089 302.494 214.201 303.829 214.264 305.146C214.306 306.022 213.013 305.985 212.925 305.146L212.812 304.062C212.666 302.69 212.486 301.326 212.036 300.012C211.495 298.432 211.235 296.881 211.047 295.222C210.76 292.68 210.632 290.113 210.521 287.553L210.445 285.783C209.981 275.086 209.998 264.339 210.748 253.653L210.803 252.89C211.546 242.789 212.835 231.875 218.529 223.221ZM189.567 159.56C189.212 159.414 189.336 158.878 189.729 158.971L190.444 159.142C195.681 160.395 200.823 161.754 205.711 164.086C210.602 166.42 214.743 169.905 218.034 174.19C224.43 182.519 227.088 192.641 229.186 202.754C231.518 213.991 233.641 225.269 235.994 236.503L236.43 238.596C238.607 249.058 240.662 259.527 242.176 270.114L242.285 270.882C243.812 281.768 244.73 293.032 243.064 303.947C242.734 306.107 239.139 305.569 239.279 303.435C239.685 297.267 239.976 291.132 239.695 284.95C239.414 278.768 238.834 272.612 237.969 266.483C237.241 261.325 236.156 256.232 235.196 251.115L235.045 250.307C234.241 245.955 233.412 241.608 232.585 237.26L231.349 230.75C229.497 221.003 227.608 211.247 225.474 201.561L225.347 200.991C223.259 191.672 220.18 181.911 213.915 174.511C207.558 167.001 198.457 163.219 189.567 159.56ZM166.467 258.402C166.619 258.062 167.154 258.099 167.319 258.402C167.963 259.59 168.035 261.107 168.156 262.448L168.169 262.586C168.324 264.222 168.461 265.864 168.545 267.506C168.704 270.622 168.78 273.734 168.771 276.854C168.761 280.051 168.696 283.244 168.524 286.437L168.477 287.292C168.32 290.067 168.056 293.161 166.737 295.586C166.257 296.468 164.953 296.209 164.675 295.317C163.765 292.398 164.233 288.936 164.466 285.946L164.647 283.612C164.827 281.279 164.998 278.944 165.133 276.608C165.319 273.411 165.473 270.212 165.62 267.014C165.668 265.975 165.72 264.936 165.775 263.898L165.859 262.34C165.931 261.037 165.925 259.607 166.467 258.402ZM64.1696 262.54L64.5723 262.152C65.8087 260.942 67.3712 259.08 69.1989 259.196C69.9278 259.242 70.3922 259.846 70.2411 260.563C69.9183 262.095 68.3545 262.89 67.2289 263.825C65.9958 264.85 64.8336 265.944 63.6736 267.05C62.6446 268.03 61.6549 269.038 60.689 270.077L60.3279 270.469C59.9817 270.846 57.5161 273.075 57.7827 273.653L57.7972 273.679C57.8714 273.79 57.7478 273.942 57.6248 273.903C56.5601 273.567 56.6265 272.655 57.029 271.731C57.8025 269.956 59.1569 268.313 60.3397 266.797C61.5192 265.285 62.7959 263.876 64.1696 262.54ZM170.325 218.015C169.501 216.07 166.468 216.111 164.747 216.228C160.41 216.52 155.719 217.617 151.861 219.642C147.861 221.742 145.167 225.107 142.756 228.827L142.643 229.002C140.294 232.652 138.031 236.973 134.351 239.483C132.477 240.762 130.289 241.929 128.015 242.435C127.859 242.71 127.606 242.927 127.275 243.006L127.12 243.041C126.473 243.184 125.467 243.342 124.598 243.247C124.603 243.672 124.599 244.094 124.61 244.496C124.64 245.65 124.653 246.808 124.653 247.963C124.654 250.381 124.524 252.804 124.625 255.222C124.714 257.361 125.017 259.596 126.044 261.508C126.798 262.911 127.793 263.839 128.993 264.725C131.947 262.926 135.288 261.83 138.678 261.005C142.778 260.008 146.976 259.342 150.982 257.99C152.911 257.339 154.765 256.487 156.444 255.33C158.227 254.102 159.589 252.439 160.99 250.813L161.209 250.561C162.639 248.922 164.199 247.354 166.22 246.465C167.96 245.7 170.254 245.563 171.775 244.379C172.571 243.759 172.637 242.86 172.721 241.939C171.747 242.079 170.715 241.855 169.744 241.742L169.241 241.683C168.322 241.574 167.425 241.454 166.521 241.22C166.353 241.177 166.353 240.924 166.521 240.88C167.589 240.605 168.648 240.487 169.744 240.359L170.001 240.327C170.992 240.197 172.034 240.001 173.006 240.219C173.18 239.556 173.432 238.922 173.786 238.288C174.282 237.397 175.22 236.387 175.347 235.346C175.385 235.035 175.313 234.669 175.166 234.394L175.115 234.3C175.054 234.19 174.981 234.078 174.874 234.01C174.862 234.023 174.837 234.039 174.783 234.056C174.035 234.292 173.382 233.926 173.036 233.361C171.565 233.544 169.96 233.482 168.581 233.543L167.187 233.611C165.697 233.679 164.14 233.709 162.74 233.408C162.544 233.366 162.485 233.041 162.681 232.957C164.402 232.222 166.49 231.987 168.332 231.704C169.362 231.546 170.398 231.426 171.43 231.287C172.118 231.195 172.847 231.041 173.559 231.005C175.344 228.784 174.382 225.28 171.898 224.323C170.993 224.721 170.179 224.49 169.19 224.405C168.203 224.32 167.214 224.263 166.223 224.267C164.237 224.276 162.132 224.798 160.166 224.573C159.846 224.536 159.549 224.111 159.867 223.851C161.372 222.624 163.53 222.223 165.44 221.962L165.836 221.909C166.477 221.825 167.256 221.702 168.064 221.63C168.247 221.273 168.575 221.004 169.067 220.937C169.213 220.917 169.36 220.905 169.507 220.893L169.505 220.878C170.706 220.821 170.654 218.793 170.325 218.015ZM88.0984 255.946C88.0772 255.978 88.054 256.01 88.0293 256.04L87.9911 256.084L88.1886 256.003L88.0984 255.946ZM191.283 213.67C186.228 213.127 181.166 213.241 176.095 213.387C175.69 214.713 174.278 215.842 172.91 215.885C173.981 217.514 174.092 219.72 173.341 221.448C174.936 222.082 176.31 223.222 177.144 224.845C178.3 227.095 178.149 229.599 177.006 231.679C177.982 232.561 178.557 233.995 178.5 235.346C178.435 236.853 177.537 238.14 176.79 239.387C175.983 240.736 175.956 241.924 175.708 243.435C175.346 245.646 173.853 246.988 171.933 247.825L172.035 248.227C172.53 250.152 173.146 252.184 174.561 253.593C176.381 255.404 179.205 255.387 181.61 255.502L181.726 255.508C183.928 255.618 186.129 255.747 188.33 255.871L189.981 255.964C192.515 256.103 194.949 256.12 197.018 254.445C200.396 251.712 202.712 247.188 204.178 243.184C207.254 234.778 207.291 225.554 205.879 216.8C201.143 215.274 196.229 214.201 191.283 213.67ZM149.242 227.615L149.279 227.617C150.32 227.736 151.035 228.578 151.29 229.578C151.66 231.03 151.478 232.343 152.368 233.654C153.284 235.002 153.847 236.082 153.98 237.747C154.034 238.432 154.009 239.116 154.162 239.787L154.273 240.257C154.39 240.758 154.486 241.241 154.428 241.779C154.375 242.269 154.135 242.652 153.643 242.809C152.038 243.322 150.799 242.14 150.384 240.646C150.026 239.354 150.504 237.816 149.999 236.604C149.719 235.932 149.203 235.369 148.911 234.693C148.622 234.022 148.477 233.322 148.431 232.593C148.343 231.214 149.563 229.558 148.882 228.308C148.737 228.042 148.901 227.607 149.242 227.615ZM127.925 213.387C129.011 213.167 130.244 212.661 131.316 213.081C131.867 213.298 132.139 213.969 131.674 214.436C130.865 215.245 129.691 215.29 128.603 215.481L128.507 215.498C127.22 215.736 125.93 215.962 124.639 216.176C122.211 216.578 119.776 216.933 117.333 217.236C114.823 217.546 112.307 217.822 109.787 218.03L108.811 218.11C106.683 218.28 104.468 218.409 102.379 218.083C102.076 218.035 102.125 217.594 102.379 217.516C104.667 216.824 107.177 216.639 109.543 216.346C112.058 216.034 114.568 215.705 117.072 215.314C119.573 214.924 122.069 214.505 124.557 214.042C125.681 213.833 126.804 213.615 127.925 213.387ZM167.138 211.165C166.184 210.828 165.135 210.328 164.102 210.495C162.32 210.784 160.734 212.519 159.323 213.662L160.031 213.524C163.655 212.828 168.454 212.078 171.497 214.381C171.504 214.367 171.51 214.354 171.519 214.341C171.765 213.968 172.049 213.677 172.36 213.358C172.39 213.33 172.418 213.302 172.446 213.272L172.614 213.094L172.231 212.961C171.41 212.671 170.438 212.297 170.284 212.242L170.273 212.238C169.227 211.884 168.179 211.534 167.138 211.165ZM137.362 135.248C137.213 133.331 140.198 133.347 140.346 135.248C140.668 139.399 139.734 143.51 137.722 147.149C137.707 147.176 137.691 147.199 137.676 147.224C138.934 147.878 140.206 148.506 141.507 149.067C143.171 149.785 144.866 150.439 146.592 150.994C148.153 151.495 150.076 151.694 151.388 152.738C154.156 154.94 153.116 159.511 152.584 162.473L152.501 162.941C152.236 164.466 152.044 166.03 152.687 167.493C153.374 169.056 154.762 170.215 156.001 171.333L156.252 171.56C157.349 172.559 158.603 173.773 159.408 175.128C160.143 173.609 161.145 172.369 162.204 170.972C162.96 169.975 162.422 169.646 161.879 168.672C161.356 167.735 161.101 166.736 161.265 165.666C161.566 163.691 163.146 162.265 164.718 161.193C166.574 159.928 168.646 158.99 170.565 157.813C174.509 155.395 178.349 152.63 181.809 149.559C181.905 149.475 182.07 149.586 181.994 149.702C179.26 153.857 176.056 157.447 172.117 160.494C170.52 161.73 168.842 162.755 167.153 163.832L166.667 164.144C165.989 164.583 165.143 165.17 164.837 165.917C164.528 166.669 165.186 167.236 165.54 167.859C166.665 169.837 166.122 171.682 164.789 173.359L164.727 173.436C163.402 175.068 162.398 176.585 161.918 178.67C160.886 183.148 162.323 187.812 163.828 192.016L163.887 192.182C164.701 194.448 165.566 196.697 166.273 198.999L166.468 199.636C167.108 201.754 167.633 203.843 166.914 206.021C166.67 206.762 165.659 206.937 165.239 206.24C163.758 203.781 163.389 200.823 162.461 198.12C161.556 195.486 160.517 192.9 159.643 190.255C158.518 186.849 157.764 183.184 158.173 179.612C158.161 179.591 158.148 179.571 158.138 179.549L157.851 178.923C157.07 177.227 156.316 175.746 154.895 174.395C153.413 172.985 151.805 171.737 150.639 170.03C148.106 166.322 149.673 162.198 149.979 158.144L150.014 157.647C150.069 156.805 150.1 155.661 149.549 155.079C148.931 154.423 147.479 154.256 146.658 153.965C144.536 153.215 142.445 152.34 140.454 151.29C138.558 150.291 136.722 149.187 135.012 147.893L134.145 147.242C132.778 146.211 131.36 145.085 130.443 143.681C130.338 143.519 130.517 143.259 130.709 143.336C132.239 143.957 133.637 144.943 135.068 145.802C135.09 145.75 135.116 145.697 135.145 145.644C136.916 142.441 137.645 138.892 137.362 135.248ZM186.232 157.195C186.841 155.524 189.619 155.653 189.509 157.638C189.424 159.163 188.776 160.54 188.184 161.924L188.12 162.072C187.509 163.515 186.803 164.869 185.957 166.191C184.343 168.719 182.451 171.065 180.431 173.278C178.599 175.285 176.195 176.512 173.425 176.308C172.257 176.222 171.079 175.926 170.056 175.343C168.841 174.651 167.522 172.572 165.972 173.075C165.822 173.124 165.682 172.904 165.812 172.8C167.601 171.36 169.632 173.593 171.345 174.131C173.927 174.942 176.576 174.046 178.237 171.96C179.972 169.783 181.568 167.344 183.026 164.974C183.767 163.77 184.442 162.52 185.025 161.233C185.614 159.933 185.748 158.52 186.232 157.195ZM182.071 146.914C181.996 146.684 182.282 146.464 182.485 146.596C183.661 147.361 184.68 148.372 185.764 149.258C186.968 150.24 188.18 151.203 189.411 152.151C191.205 153.534 189.124 156.079 187.544 154.569C185.383 152.503 183.016 149.802 182.071 146.914ZM175.616 138.829C176.093 136.988 178.918 137.747 178.507 139.566L178.493 139.622C177.714 142.627 178.824 145.686 181.195 147.634L181.282 147.705C182.782 148.904 180.657 151.002 179.172 149.814C175.93 147.22 174.581 142.816 175.616 138.829Z" fill="black"/>
<path fill-rule="evenodd" clip-rule="evenodd" d="M199.938 80.228C199.01 72.8082 196.093 64.9305 193.026 58.0132C186.13 43.3882 170.341 41.3746 156.187 38.3592C142.22 36.3227 127.43 34.4839 113.674 38.5471C105.94 40.4445 102.919 49.669 104.14 56.9485C104.837 61.4846 106.898 65.7778 108.656 69.9817C112.15 78.6151 114.367 87.8579 114.371 97.2051C114.131 103.314 113.27 110.286 120.279 112.873C126.949 116.195 127.513 125.199 135.864 130.308C139.241 137.159 148.44 137.762 155.06 139.351C159.245 140.153 163.477 140.743 167.72 141.125C180.007 142.701 189.836 139.136 196.268 128.174C200.572 121.503 203.777 113.8 202.985 105.714C202.197 97.2001 200.883 88.7306 199.938 80.228Z" fill="#EDB98A"/>
<path fill-rule="evenodd" clip-rule="evenodd" d="M156.293 20.5849C156.994 19.7888 158.075 20.0618 158.731 20.6913C159.158 20.8173 159.571 21.0047 159.962 21.2527C160.845 21.1392 161.771 21.1392 162.636 21.171C162.846 21.053 163.072 20.9481 163.317 20.8579C165.067 20.2169 166.618 20.5425 167.897 21.4007C168.513 20.8171 169.29 20.4508 170.283 20.5062C171.17 20.5558 171.802 20.9736 172.343 21.5239C172.883 20.7442 173.756 20.1878 174.843 20.1104C176.363 20.0022 177.824 20.6127 179.036 21.5578C179.741 20.7472 180.703 20.2813 181.775 20.2768C182.48 20.1485 183.225 20.1991 183.897 20.4025C184.874 20.6978 185.731 21.2512 186.414 21.9693C187.494 20.9333 188.816 20.1878 190.341 20.2965C192.314 20.4393 193.95 21.8924 194.71 23.6809C196.046 24.2167 197.279 24.9809 198.309 26.0706C198.364 26.1279 198.417 26.188 198.472 26.2484C199.027 26.4536 199.55 26.7444 200.01 27.1274C201.468 28.3425 201.793 30.1009 201.311 31.8241C201.378 32.0998 201.436 32.3804 201.488 32.6607C202.854 32.8686 204.094 33.6579 204.8 34.9429C205.765 36.7063 205.575 39.0306 204.53 40.7142C204.08 41.4383 203.51 42.0485 202.869 42.5821C203.593 44.2303 203.246 46.1971 202.077 47.5302C201.793 47.9899 201.443 48.4047 201.05 48.7802C201.484 50.4843 200.712 52.2424 199.172 53.153L199.04 53.4833C199.018 53.5382 198.995 53.5928 198.972 53.6469C198.955 53.7171 198.934 53.785 198.913 53.8533C198.877 54.458 198.678 55.0514 198.283 55.6105C197.475 56.7563 196.474 57.5035 195.943 58.8411L195.889 58.9816C195.661 59.6146 194.924 60.0612 194.295 59.8658C197.784 67.0401 199.612 75.0229 200.868 82.8462C201.494 86.7492 201.977 90.6655 202.369 94.597L202.753 98.512C203.091 101.992 203.392 105.483 203.394 108.975C203.399 116.873 201.143 124.47 196.301 130.755C191.722 136.696 185.241 141.002 177.921 142.698C170.362 144.447 161.496 143.758 154.718 139.755C152.72 138.578 154.47 135.747 156.504 136.694C160.353 138.488 164.265 139.82 168.531 140.118C172.691 140.411 176.86 139.89 180.804 138.527C187.33 136.271 192.882 131.544 196.451 125.658C198.209 122.757 199.482 119.608 200.16 116.282C201.004 112.135 200.877 107.85 200.567 103.65L200.545 103.364C199.933 95.273 199.125 87.1321 197.819 79.1217C196.665 72.0381 194.891 65.0981 192.587 58.3115C191.684 57.516 190.675 56.8577 189.595 56.3577C181.685 56.0268 173.76 56.1235 165.86 56.6701C159.123 57.1393 152.418 57.9331 145.764 59.09L145.051 59.2153C143.578 59.4781 141.942 59.6284 140.554 60.2223C139.364 60.7333 138.881 61.7152 138.581 62.9223C137.826 65.9758 137.711 69.3175 137.583 72.4487C137.458 75.5094 137.741 78.5957 137.496 81.6464C137.288 84.1989 136.635 86.8115 134.747 88.6578C133.759 89.6245 132.543 90.153 131.403 90.8869C130.665 91.3606 130.352 91.8488 130.447 92.7255C130.653 94.6443 132.196 97.0615 130.462 98.7047C130.157 98.9928 129.63 99.0303 129.329 98.7047C128.614 97.9259 127.626 97.332 126.778 96.7033C126.423 96.443 126.718 95.937 127.121 96.1171C127.651 96.3553 128.191 96.6359 128.744 96.8814C127.524 95.8744 125.788 95.3807 124.342 95.0876C123.614 94.9423 122.849 94.8998 122.091 94.9676C121.531 95.2354 120.958 95.4837 120.386 95.7264C119.658 96.0322 118.922 96.31 118.182 96.5733C115.614 98.6696 114.388 102.079 114.923 105.413C115.216 107.254 116.064 109.256 117.662 110.33C119.555 111.603 122.091 111.056 124.137 112.001C126.053 112.885 127.219 114.671 128.091 116.52L128.455 117.289C129.265 118.993 130.098 120.652 131.205 122.203C132.486 123.999 134.054 125.612 135.765 126.998C136.595 127.668 137.479 128.271 138.393 128.821L138.643 128.969C139.569 129.513 140.232 130.031 140.294 131.181C140.314 131.581 140.062 131.947 139.736 132.155C138.336 133.044 136.943 131.932 135.777 131.156C134.519 130.319 133.316 129.377 132.203 128.35C130.087 126.402 128.256 124.087 126.848 121.574C125.775 119.661 125.165 116.968 123.469 115.485C122.434 114.581 120.971 114.573 119.678 114.408C118.475 114.253 117.337 114.002 116.266 113.409C111.912 110.986 110.681 105.122 111.714 100.591C111.889 99.8269 112.135 99.0829 112.437 98.3665C110.816 98.6371 108.996 96.959 109.653 95.2655C109.703 95.1377 109.761 95.0177 109.816 94.8947C108.748 94.1909 107.905 93.124 107.505 91.7286C107.3 91.0072 107.27 90.2782 107.377 89.5744C106.86 89.2264 106.432 88.7477 106.157 88.1591C105.297 87.7608 104.534 87.1649 104.079 86.3132C103.448 85.1382 103.528 84.0561 104.008 83.0817C103.941 82.9592 103.876 82.8339 103.813 82.7059C102.05 81.5865 100.82 79.6575 100.96 77.5183C101.005 76.8094 101.18 76.1707 101.45 75.5948C101.427 75.5222 101.405 75.4468 101.385 75.3741C99.9092 74.6227 98.6887 73.388 98.2535 71.7398C97.8183 70.0813 98.331 68.4281 99.3565 67.1556C97.8558 66.0562 96.9529 64.5207 97.5007 62.1984C97.7233 61.2543 98.171 60.3949 98.7762 59.6709C98.7737 59.6487 98.7687 59.6261 98.7637 59.6033L98.6233 59.4943C96.7708 58.0302 95.7058 56.1643 96.8429 53.8696C97.3531 52.8379 98.0809 52.1187 98.9363 51.6453L98.9788 51.51C98.366 50.1949 98.1585 48.7346 98.5811 47.1991C98.9263 45.9344 99.7441 44.9272 100.79 44.2586C100.72 43.6922 100.73 43.0888 100.842 42.4348C101.03 41.3304 101.577 40.366 102.378 39.6822C102.408 39.5366 102.445 39.3941 102.488 39.2511C102.758 38.3771 103.263 37.4278 103.848 36.7236C104.331 36.14 104.871 35.9271 105.532 35.9045C105.492 35.3662 105.519 34.8199 105.629 34.2663C105.967 32.5582 107.052 30.9524 108.661 30.2234C109.321 29.9254 110.016 29.8379 110.686 29.9103C111.257 28.708 112.37 27.8365 113.738 27.6487C114.27 27.5735 114.766 27.5783 115.221 27.6461C115.478 27.5257 115.746 27.4182 116.026 27.3203C116.211 27.2551 116.399 27.195 116.586 27.1351C117.219 26.3486 118.052 25.7196 119.025 25.3416C120.148 24.9033 121.291 24.9481 122.304 25.3163L122.627 25.2487C123.132 24.372 123.937 23.6932 125.175 23.3851C126.581 23.0369 128.024 23.5228 129.129 24.4073C129.134 24.4073 129.139 24.4073 129.147 24.4046C129.725 23.1095 130.713 22.2078 132.371 22.2704C133.404 22.3105 134.337 22.8242 135.057 23.5557C135.457 23.5053 135.857 23.4602 136.26 23.4154C136.685 22.9167 137.158 22.451 137.681 22.0327C138.536 21.3461 139.649 21.4015 140.279 22.3681C140.417 22.5785 140.544 22.7914 140.672 23.0043L141.25 22.9643C141.93 22.045 142.858 21.4237 144.128 21.3739C145.294 21.3261 146.124 21.8974 146.757 22.6962C147.272 22.6837 147.79 22.6739 148.308 22.6662C148.91 21.9673 149.621 21.3511 150.431 20.8401C151.051 20.4493 151.967 20.5824 152.469 21.1034C152.809 21.4576 153.125 21.8273 153.419 22.21C154.177 21.3594 155.2 20.799 156.293 20.5849ZM119.483 100.128C120.651 99.4613 122.221 100.183 123.352 100.749C124.73 101.438 126.098 102.477 126.941 103.78C128.089 105.553 125.39 106.986 124.182 105.395C123.439 104.416 122.847 103.429 121.946 102.572C121.123 101.786 119.93 101.26 119.458 100.223C119.44 100.188 119.445 100.148 119.483 100.128ZM120.303 57.0808L120.325 57.0183C120.657 56.1082 119.208 55.716 118.878 56.6185C118.379 57.9864 118.954 59.4736 120.304 60.0642C120.677 60.228 121.105 60.1712 121.33 59.7947C121.519 59.4778 121.432 58.9287 121.061 58.7667C120.302 58.4342 120.048 57.8475 120.303 57.0808ZM107.815 54.5362C108.54 53.8949 107.476 52.8351 106.754 53.4736C106.08 54.0693 105.58 54.8783 105.71 55.8089C105.842 56.7573 106.556 57.4268 107.338 57.9C108.166 58.4017 108.921 57.1027 108.095 56.6022L108.002 56.5454C107.656 56.3297 107.25 56.0331 107.191 55.6088C107.129 55.1579 107.51 54.806 107.815 54.5362ZM111.934 43.2211L111.985 43.1832C112.764 42.6262 112.016 41.3221 111.227 41.8855C110.505 42.4022 109.925 43.0735 109.864 43.9993C109.805 44.8991 110.262 45.6791 110.859 46.3121C111.524 47.0162 112.584 45.9522 111.921 45.2495C111.274 44.5647 111.147 43.8175 111.934 43.2211Z" fill="black"/>
<path fill-rule="evenodd" clip-rule="evenodd" d="M169.344 112.848C170.746 110.543 173.735 116.19 174.053 117.161C174.334 118.021 174.519 118.902 174.614 119.793C175.701 120.037 176.83 120.037 177.943 119.824C179.599 119.506 180.611 118.617 182.049 117.853C183.043 117.325 184.295 117.944 184.812 118.819C185.42 119.85 185.033 120.919 184.233 121.687C182.717 123.143 179.734 123.478 177.755 123.091C176.621 122.869 175.582 122.444 174.664 121.827C174.658 121.942 174.654 122.057 174.645 122.172L174.628 122.372C174.476 123.987 174.031 126.018 172.776 127.069C170.717 128.793 168.176 125.478 170.177 123.756L170.239 123.704C171.482 122.7 171.754 120.006 171.687 118.522C171.643 117.553 171.466 116.573 171.16 115.65L171.097 115.466C171.005 115.206 170.001 112.734 169.638 113.049L169.621 113.067C169.471 113.245 169.229 113.037 169.344 112.848ZM180.539 99.8416C182.432 100.991 185.315 103.672 183.279 106.523C180.883 109.036 177.432 106.154 175.732 104.851C174.155 103.841 172.384 106.439 173.846 107.618C186.134 116.71 191.12 100.142 181.496 98.4898C180.437 98.3077 180.043 99.4859 180.539 99.8416ZM160.329 89.2142C162.178 88.8863 164.073 89.3459 165.604 90.4275L165.72 90.5109C167.194 91.5887 168.844 93.4813 167.998 95.3391C167.659 96.0851 166.641 96.2021 165.996 95.8639C164.922 95.3008 164.727 93.9153 163.768 93.1486C162.982 92.5201 161.923 92.1389 160.911 92.2308C158.532 92.4467 157.069 94.7916 156.33 96.8123C156.235 97.0708 155.856 97.1712 155.707 96.8937C153.965 93.6393 157.049 89.7958 160.329 89.2142ZM189.957 87.986C193.5 87.6942 197.647 91.3654 196.714 95.1032C196.267 96.8967 193.605 96.8453 193.132 95.1032C192.871 94.1445 192.897 93.2964 192.207 92.5003C191.637 91.8431 190.827 91.4613 189.957 91.5199C188.997 91.5845 188.112 92.0637 187.44 92.7373C186.832 93.3455 186.469 94.2355 185.84 94.7738C185.685 94.906 185.478 94.9145 185.325 94.7738C184.242 93.7761 184.892 91.699 185.579 90.6575C186.561 89.1671 188.161 88.1341 189.957 87.986ZM153.581 82.5849C155.854 80.574 159.985 78.6319 163.05 79.6216C164.812 80.1905 165.58 83.0283 163.613 83.9278C161.335 84.9693 158.708 84.5455 156.39 85.6251C155.416 86.0787 154.5 86.6456 153.822 87.477C153.288 88.1323 152.745 88.9944 151.972 89.3722C151.769 89.4716 151.494 89.4741 151.332 89.2898C149.638 87.3755 152.103 83.8927 153.581 82.5849ZM186.05 79.5218C187.455 79.1278 189.013 79.1358 190.44 79.3833C191.867 79.6308 193.315 80.2217 194.48 81.0836L194.615 81.1845C195.887 82.1421 197.404 83.5354 197.323 85.2317C197.255 86.6482 195.764 87.6063 194.476 86.8639C193.427 86.2585 192.933 85.0456 192.045 84.238C191.312 83.5715 190.45 83.0459 189.532 82.6777C188.511 82.2687 187.489 82.077 186.393 82.0588C185.55 82.0447 184.702 82.3213 183.874 82.4097C183.942 82.5495 183.288 82.4843 182.913 82.3604C182.635 82.2421 182.634 81.8912 182.73 81.6635C183.208 80.5355 184.945 79.8314 186.05 79.5218Z" fill="black"/>
<path fill-rule="evenodd" clip-rule="evenodd" d="M202.97 101.367C199.927 104.51 194.847 105.411 190.799 103.726C180.403 99.3853 185.492 85.8464 193.509 82.2106C194.51 81.9611 195.848 81.3692 197.068 81.2349C197.178 81.1808 197.418 81.3374 197.709 81.1893C206.549 82.1757 208.562 95.8905 202.97 101.367ZM169.44 102.172C166.028 106.696 159.682 108.091 154.498 105.988C144.257 101.957 147.889 89.9517 154.896 85.245C169.698 79.6864 175.81 93.83 169.44 102.172ZM147.239 92.1475C147.23 92.143 147.22 92.1407 147.21 92.1362C147.264 92.1124 147.319 92.0886 147.372 92.0643C147.355 92.1101 147.336 92.1555 147.319 92.2013C147.292 92.183 147.269 92.1617 147.239 92.1475ZM210.016 87.2572C209.181 87.2589 207.973 87.3962 207.282 87.9756C205.576 82.2261 199.279 76.9049 193.803 80.785C189.491 82.171 186.291 85.2447 184.473 89.3312C181.194 87.3819 176.038 88.2143 173.194 90.7921C171.332 84.6423 166.749 82.4889 161.294 82.171C155.339 81.1963 149.405 86.9754 147.553 91.6114C146.013 91.4363 143.713 90.9466 142.264 91.8962C132.864 89.4324 116.428 88.074 114.517 89.4429C113.155 89.9652 112.408 93.178 114.31 93.3513C115.968 93.1161 114.117 90.9972 115.788 90.766C124.691 90.2144 133.334 92.0064 142.143 92.7584C142.93 93.8157 145.471 94.1694 146.827 93.7446C144.692 101.609 149.301 106.959 156.207 108.562C166.901 111.017 176.205 101.456 173.409 91.512C176.648 89.9013 180.374 89.9705 183.903 90.8189C178.006 112.509 212.959 111.536 207.5 88.7188C211.133 90.5248 211.922 87.6216 210.016 87.2572Z" fill="black"/>
<defs>
<clipPath id="clip0_30_224">
<rect width="294" height="33" fill="white" transform="translate(0 288)"/>
</clipPath>
</defs>
</svg>
