<svg width="295" height="321" viewBox="0 0 295 321" fill="none" xmlns="http://www.w3.org/2000/svg">
<g clip-path="url(#clip0_30_185)">
<path d="M146.892 321C228.018 321 293.783 313.657 293.783 304.599C293.783 295.541 228.018 288.198 146.892 288.198C65.7657 288.198 0 295.541 0 304.599C0 313.657 65.7657 321 146.892 321Z" fill="#F7859C"/>
</g>
<path fill-rule="evenodd" clip-rule="evenodd" d="M60.5046 291.325C60.169 291.336 60.2748 291.239 60.398 291.215C60.4336 291.252 60.4691 291.289 60.5046 291.325ZM70.4135 298.686C79.7902 299.796 89.1786 298.78 98.5093 297.761C117.412 296.361 136.182 300.44 155.122 299.196C178.792 298.2 202.527 296.328 226.118 299.482C232.643 299.632 243.051 301.391 240.684 291.299C237.576 265.35 233.42 239.532 228.968 213.783C225.195 199.348 224.923 174.379 214.591 164.341C213.081 162.963 207.663 158.505 206.231 157.907C199.11 155.258 186.272 153.19 180.976 147.575C176.686 140.322 178.681 130.424 172.011 124.585C166.164 119.816 153.404 120.824 147.153 124.405C142.221 127.6 141.449 133.806 138.376 138.396C137.618 139.495 135.817 142.146 134.801 143.001C132.326 145.382 123.634 147.883 121.123 148.343C106.958 151.243 99.8948 153.035 88.7535 162.441C59.6425 192.136 63.7691 244.657 55.714 283.489C55.3843 287.758 52.7871 293.551 57.4208 296.299C61.4117 298.209 66.1042 298.001 70.4135 298.686Z" fill="#AE5D29"/>
<path fill-rule="evenodd" clip-rule="evenodd" d="M177.728 137.703C177.763 137.602 177.926 137.584 177.95 137.703C178.348 139.518 179.092 141.509 179.847 143.212C180.613 144.937 181.661 146.521 182.986 147.866C185.76 150.685 189.328 151.971 193.241 151.973L193.335 151.976C193.353 151.844 193.373 151.713 193.392 151.582L193.418 151.384C193.776 148.684 196.984 148.763 197.61 150.8C197.928 150.901 198.247 151.003 198.562 151.108L198.625 151.131C199.157 151.333 200.956 152.229 201.287 151.991C202.014 151.468 202.845 152.067 203.121 152.735C203.573 153.828 203.648 155.179 203.795 156.365L203.814 156.519L203.837 156.704C214.131 159.377 219.909 169.668 222.858 179.149C224.456 184.289 225.501 189.591 226.552 194.864C227.676 200.503 228.712 206.158 229.809 211.8C231.972 222.919 234.018 234.063 235.796 245.249L236.312 248.497C237.94 258.783 239.527 269.063 240.861 279.395C241.581 284.966 242.256 290.541 242.907 296.122C243.024 297.117 243.14 298.113 243.254 299.109L243.426 300.604C243.578 301.944 243.837 303.27 243.174 304.524C241.736 307.244 237.382 307.224 237.135 303.74C237.086 303.048 237.32 302.518 237.707 302.149L237.702 302.09C237.698 302.055 237.694 302.029 237.692 302.018C237.564 301.326 237.53 300.594 237.451 299.894C237.278 298.401 237.11 296.908 236.94 295.412C236.612 292.564 236.282 289.716 235.939 286.87C235.246 281.098 234.514 275.332 233.737 269.572L232.968 263.876C230.393 244.891 227.71 225.909 224.18 207.074C223.218 201.947 222.229 196.827 221.216 191.71C220.254 186.864 219.174 182.039 217.561 177.361C214.928 169.718 210.324 162.56 203.933 157.544C204.031 158.502 204.103 159.466 204.194 160.424C204.428 162.886 204.677 165.344 204.929 167.803C205.844 176.713 207.084 185.607 209.2 194.319C210.248 198.636 211.525 202.896 213.081 207.057C213.848 209.107 214.684 211.13 215.601 213.116C216.508 215.079 218.099 217.178 218.195 219.366C218.239 220.379 217.179 221.278 216.198 221.17C216.656 225.201 216.915 229.273 217.189 233.294C217.588 239.119 217.907 244.953 218.373 250.773C219.206 261.197 220.252 271.607 221.346 282.007C221.563 284.068 221.799 286.129 222.033 288.188L222.228 289.918C222.36 291.039 222.558 292.383 221.963 293.377C222.495 294.661 222.86 295.979 223.073 297.354C223.341 299.064 222.362 300.981 220.365 300.907C220.138 300.899 219.911 300.879 219.684 300.855C217.833 301.284 215.986 301.661 214.062 301.673C211.606 301.69 209.145 301.641 206.689 301.624C201.938 301.592 197.186 301.56 192.435 301.52C175.233 301.382 158.024 301.39 140.825 301.114L133.944 301.005C127.635 300.903 121.326 300.786 115.02 300.557C110.678 300.399 106.336 300.239 101.996 300.064L101.112 300.031C97.2828 299.891 93.4488 299.82 89.6617 299.234C89.5668 299.218 89.5257 299.119 89.5404 299.033L89.5458 299.01L89.3806 298.973C89.2844 299.387 87.2871 297.647 87.3019 296.492C86.4734 295.415 86.8605 293.695 86.9493 292.448C87.0356 291.234 87.1441 290.017 87.2403 288.802C87.4449 286.208 87.62 283.611 87.8296 281.016C88.6754 270.555 89.4053 260.066 89.8787 249.583C90.1179 244.298 90.3102 239.01 90.5124 233.726C90.6035 231.319 90.7302 228.911 90.9664 226.516L91.0278 225.917C91.2867 223.488 91.262 220.877 92.1571 218.588C92.1694 218.556 92.2114 218.556 92.2237 218.588C93.1286 220.815 93.2149 223.405 93.3974 225.849C93.4295 225.839 93.4615 225.834 93.496 225.827C94.7462 225.233 96.0087 224.698 97.1923 223.964C97.3526 223.865 97.5079 223.762 97.6657 223.661C99.5274 217.969 101.685 212.372 103.67 206.717C110.084 188.433 113.625 168.961 114.409 149.601C109.516 152.752 104.188 155.204 99.009 157.836L98.5239 158.084C93.4221 160.69 88.5373 163.649 84.9051 168.17C81.739 172.108 79.6702 176.905 77.7345 181.529C75.6558 186.499 73.7818 191.557 72.0681 196.662C68.5913 207.02 65.8986 217.632 63.7977 228.352C61.724 238.932 60.242 249.59 59.2507 260.323C58.7453 265.797 58.2841 271.277 57.897 276.764C57.6997 279.54 57.5247 282.32 57.3619 285.101C57.283 286.451 57.2238 287.804 57.1351 289.154C57.0808 289.933 57.071 290.736 56.8145 291.475C56.6 292.091 56.2203 292.606 55.8652 293.151C55.2167 294.144 53.5794 294.323 52.9703 293.151L52.7066 292.643C52.3575 291.966 52.0387 291.285 51.9914 290.504C51.947 289.765 52.0382 288.994 52.0801 288.252C52.1615 286.752 52.2552 285.249 52.3489 283.749C52.5462 280.593 52.7656 277.436 53.0122 274.283C53.5029 267.965 54.1342 261.665 54.9282 255.378C57.7219 233.294 61.756 211.327 69.4543 190.37C71.3579 185.188 73.481 180.048 75.8778 175.074C78.1956 170.265 81.1275 165.724 85.3835 162.412C89.3012 159.364 93.8552 157.323 98.3801 155.342L98.9455 155.095C104.018 152.88 109.08 150.495 114.377 148.849C114.258 148.864 114.142 148.879 114.042 148.913C113.925 148.95 113.857 148.8 113.928 148.719C114.229 148.386 114.354 148.043 114.7 147.716C114.938 147.489 115.186 147.275 115.442 147.069L115.809 146.776C116.481 146.244 117.187 145.699 118.033 145.513C119.23 145.252 119.816 146.338 119.481 147.189C119.653 146.964 120.117 147.031 120.238 147.339C124.173 157.48 126.757 168.215 132.054 177.797C135.965 184.875 141.212 191.412 148.176 195.687C151.916 197.983 156.197 199.747 160.618 200.025C164.588 200.274 168.408 199.266 171.784 197.185C178.328 193.151 182.601 186.07 185.649 179.208C189 171.654 191.392 163.605 192.797 155.445C188.344 155.506 183.644 153.476 180.682 150.167C179.124 148.425 177.963 146.304 177.373 144.042C176.779 141.761 176.969 139.886 177.728 137.703ZM140.369 131.777C140.911 130.809 142.115 130.489 143.099 130.883C144.191 131.321 144.519 132.381 144.364 133.458C144.183 134.719 143.372 136.082 142.741 137.183C142.08 138.336 141.23 139.398 140.349 140.391C138.692 142.263 136.919 143.951 134.816 145.331C132.722 146.703 130.355 147.73 127.922 148.305L127.343 148.439C125.45 148.872 122.757 149.367 121.18 148.339C121.104 148.29 121.106 148.189 121.18 148.139C122.033 147.546 123.175 147.44 124.156 147.159C125.226 146.851 126.299 146.501 127.322 146.062C129.342 145.195 131.275 144.052 132.996 142.687C134.725 141.317 136.396 139.684 137.553 137.799C138.135 136.853 138.631 135.86 139.106 134.86C139.587 133.857 139.829 132.743 140.369 131.777Z" fill="#5B5353"/>
<path fill-rule="evenodd" clip-rule="evenodd" d="M205.107 86.9605C205.009 81.4352 204.901 75.7993 204.081 70.3277C203.279 64.9785 201.073 60.1433 197.283 56.2589C189.232 48.0078 177.561 45.9925 166.698 44.1456L148.125 40.9878C142.459 40.0247 136.414 38.4851 130.689 39.851C127.868 40.5241 125.473 42.0879 123.283 43.938C121.173 45.7212 118.903 47.6361 117.473 50.0353C116.041 52.4378 115.548 55.2464 115.082 57.9637C114.557 61.0273 114.149 64.1148 113.859 67.2097C113.278 73.4103 113.199 79.6576 113.62 85.8711C113.825 88.8848 114.149 91.89 114.564 94.8818C114.77 96.3653 115.002 97.8452 115.265 99.3199C115.342 99.7547 115.401 100.236 115.48 100.723C114.894 102.391 114.561 104.12 114.588 105.84C114.667 110.909 118.939 114.101 123.246 115.814C125.743 116.808 128.354 117.483 130.807 118.593C133.388 119.76 135.145 121.653 136.91 123.812C140.275 127.929 144.074 131.63 148.41 134.717C157.605 141.263 169.252 144.36 180.408 142.009C183.085 141.446 185.786 140.57 188.192 139.251C190.733 137.858 192.643 135.84 194.247 133.453C197.226 129.023 199.362 124.035 200.978 118.959C202.626 113.781 203.796 108.593 204.434 103.194C205.07 97.8121 205.204 92.3756 205.107 86.9605Z" fill="#AE5D29"/>
<path fill-rule="evenodd" clip-rule="evenodd" d="M145.784 21.7591C153.459 20.7014 164.054 24.139 167.876 31.0704C186.127 26.7604 209.145 26.6193 224.187 40.9672C239.882 57.9869 220.168 80.4276 207.095 85.4871C208.047 90.1206 206.563 119.805 196.063 133.045C187.729 144.264 168.323 149.441 159.343 136.042L159.273 135.931C158.311 134.384 159.139 134.433 160.127 135.584C168.92 143.331 180.876 143.463 190.089 135.288C207.356 120.346 205.576 83.7078 197.36 62.5123C173.963 59.9382 148.913 67.0418 132.754 84.6842L133.847 91.2741C134.033 92.3968 134.244 93.5185 134.406 94.6452C134.509 95.367 134.52 96.085 134.021 96.6694C132.373 98.5984 129.594 95.6996 127.308 94.5466C126.633 94.4515 125.957 94.4148 125.294 94.4616C114.311 95.8788 116.475 117.222 128.546 113.481C129.561 112.848 130.432 113.041 130.825 113.959C133.703 116.6 135.6 121.308 140.38 125.843C142.067 127.545 143.602 128.968 145.499 130.332C146.613 131.461 149.976 132.612 148.91 134.544C146.894 138.94 135.008 125.132 132.906 121.314C126.322 123.918 119.025 123.033 112.201 122.397C76.2027 120.522 81.0084 82.5094 110.515 58.5102C116.07 54.4141 122.198 51.0725 128.568 48.5012C129.437 48.1501 129.057 46.7197 128.175 47.0757C123.961 48.7774 119.852 50.8028 115.935 53.147L115.929 51.7455C115.923 49.3849 115.96 46.9274 116.369 44.7706C116.574 43.2761 116.918 41.6799 117.448 40.4791C118.103 36.7976 128.362 24.1607 145.784 21.7591ZM124.814 99.3616C125.37 98.8326 126.407 99.4633 126.902 99.4476C128.168 99.621 129.37 100.156 130.307 100.817C130.926 101.165 131.36 101.491 131.723 101.791L131.732 101.788C131.73 101.788 131.726 101.791 131.723 101.792L131.757 101.815C132.285 102.19 134.218 104.306 132.997 103.737C132.906 103.619 132.813 103.505 132.719 103.393C132.709 103.409 132.695 103.424 132.678 103.438L132.746 103.54C133.784 105.104 131.993 103.457 131.717 103.019C131.704 103.03 131.689 103.037 131.675 103.044L132.034 103.482C132.084 103.544 132.123 103.594 132.156 103.636L132.232 103.709C133.431 104.89 133.469 105.953 132.075 104.207C132.13 104.289 132.174 104.376 132.18 104.454L132.263 104.559C133.357 105.972 132.467 105.47 131.923 104.867L131.878 104.815L131.887 104.829C132.393 105.61 131.389 105.062 131.212 104.644L131.204 104.625C131.011 104.467 130.892 104.29 130.851 104.245L130.844 104.238C129.903 103.272 128.539 102.455 127.38 102.083C127.212 102.051 127.042 102.026 126.87 102.008C126.174 101.852 125.469 101.745 124.758 101.688C124.67 101.677 124.582 101.613 124.516 101.53C123.44 101.494 123.772 101.052 124.219 100.97L124.227 100.969L124.138 100.961C123.447 100.894 122.976 100.645 123.674 100.493L123.762 100.475C123.752 100.458 123.742 100.441 123.733 100.424C123.135 100.359 123.525 99.7762 123.857 99.9172C123.717 99.4596 124.356 99.688 124.435 99.62C124.496 99.5525 124.572 99.4929 124.615 99.4897C124.807 99.3537 124.714 99.366 124.814 99.3616ZM128.474 91.9543L128.333 92.0364C128.22 92.1026 128.103 92.1467 127.986 92.1726C128.152 92.2431 128.315 92.3192 128.477 92.4005C128.474 92.3011 128.472 92.2019 128.472 92.1028L128.474 91.9543Z" fill="black"/>
<path fill-rule="evenodd" clip-rule="evenodd" d="M172.348 111.326C173.728 109.059 176.668 114.613 176.98 115.568C177.257 116.414 177.44 117.28 177.533 118.157C178.602 118.397 179.712 118.397 180.808 118.187C182.437 117.875 183.432 117 184.848 116.249C185.825 115.73 187.058 116.339 187.566 117.199C188.164 118.213 187.783 119.264 186.996 120.02C185.505 121.452 182.57 121.781 180.623 121.401C179.508 121.183 178.485 120.765 177.582 120.157C177.576 120.271 177.572 120.384 177.563 120.497L177.546 120.694C177.397 122.282 176.96 124.28 175.725 125.314C173.699 127.01 171.199 123.748 173.168 122.055L173.229 122.004C174.452 121.016 174.719 118.366 174.653 116.907C174.61 115.954 174.436 114.989 174.135 114.082L174.073 113.901C173.982 113.645 172.995 111.214 172.638 111.524L172.62 111.541C172.473 111.717 172.235 111.512 172.348 111.326ZM183.362 98.5327C185.224 99.6636 188.061 102.301 186.058 105.104C183.7 107.576 180.305 104.742 178.632 103.46C177.081 102.467 175.338 105.022 176.778 106.182C188.866 115.124 193.772 98.8284 184.304 97.203C183.261 97.0239 182.874 98.1829 183.362 98.5327ZM163.479 88.0795C165.298 87.7569 167.162 88.2091 168.668 89.2729L168.782 89.3549C170.233 90.4151 171.856 92.2766 171.024 94.104C170.69 94.8377 169.689 94.9528 169.054 94.6202C167.997 94.0663 167.806 92.7036 166.862 91.9494C166.089 91.3312 165.047 90.9562 164.051 91.0466C161.711 91.259 160.271 93.5654 159.544 95.553C159.451 95.8073 159.078 95.9061 158.932 95.6331C157.218 92.4321 160.252 88.6516 163.479 88.0795ZM192.627 86.8714C196.113 86.5844 200.193 90.1954 199.276 93.8719C198.835 95.636 196.216 95.5855 195.751 93.8719C195.495 92.929 195.52 92.0948 194.841 91.3118C194.28 90.6652 193.484 90.2898 192.627 90.3474C191.683 90.411 190.813 90.8823 190.151 91.5448C189.554 92.1431 189.196 93.0184 188.577 93.5479C188.425 93.678 188.221 93.6864 188.071 93.5479C187.005 92.5666 187.645 90.5236 188.32 89.4991C189.287 88.0331 190.861 87.0171 192.627 86.8714ZM156.84 81.5589C159.077 79.5809 163.14 77.6707 166.155 78.6442C167.889 79.2037 168.645 81.995 166.71 82.8797C164.468 83.9042 161.884 83.4873 159.603 84.5492C158.645 84.9954 157.744 85.553 157.077 86.3707C156.552 87.0153 156.017 87.8633 155.257 88.2349C155.058 88.3327 154.787 88.3352 154.627 88.1538C152.961 86.271 155.386 82.8452 156.84 81.5589ZM188.784 78.546C190.166 78.1584 191.699 78.1663 193.103 78.4097C194.506 78.6532 195.931 79.2344 197.077 80.0822L197.21 80.1815C198.461 81.1233 199.954 82.4937 199.874 84.1623C199.807 85.5556 198.34 86.498 197.074 85.7677C196.041 85.1722 195.556 83.9792 194.682 83.1849C193.96 82.5293 193.113 82.0123 192.209 81.6502C191.205 81.2478 190.199 81.0593 189.122 81.0414C188.292 81.0276 187.457 81.2996 186.643 81.3865C186.71 81.524 186.066 81.46 185.698 81.338C185.424 81.2217 185.423 80.8765 185.518 80.6526C185.987 79.5431 187.696 78.8505 188.784 78.546Z" fill="black"/>
<defs>
<clipPath id="clip0_30_185">
<rect width="294" height="33" fill="white" transform="translate(0 288)"/>
</clipPath>
</defs>
</svg>
