<svg width="296" height="322" viewBox="0 0 296 322" fill="none" xmlns="http://www.w3.org/2000/svg">
<g clip-path="url(#clip0_30_145)">
<path d="M147.892 322C229.018 322 294.783 314.657 294.783 305.599C294.783 296.541 229.018 289.198 147.892 289.198C66.7657 289.198 1 296.541 1 305.599C1 314.657 66.7657 322 147.892 322Z" fill="#F7859C"/>
</g>
<path fill-rule="evenodd" clip-rule="evenodd" d="M226.203 205.586C225.441 203.495 226.553 201.409 227.17 199.386C229.361 192.371 223.368 174.676 219.177 174.417C217.644 170.45 213.554 168.805 210.334 166.52C206.681 164.239 203.127 161.619 199.327 159.619C199.116 157.73 196.825 157.261 195.425 158.613C191.578 156.219 186.965 156.664 182.841 155.096C179.708 150.029 179.473 144.702 178.643 139.814C178.281 137.683 178.666 135.628 177.21 133.728C172.321 126.85 153.004 123.867 145.882 127.943C142.048 125.551 141.956 129.883 141.347 132.557C140.67 133.894 140.304 135.409 140.417 137.005C138.602 140.798 137.063 145.541 133.249 148.373C128.409 151.967 120.963 153.333 116.244 155.096C115.538 154.416 115.078 153.586 114.862 152.604C107.549 154.194 100.451 156.99 94.3233 161.355C87.3618 163.392 82.4591 169.056 78.9139 175.129C78.5233 175.769 78.4312 176.422 78.5454 177.021C67.6434 193.007 62.4403 212.145 61.7094 231.475C54.6987 235.683 65.0416 273.494 67.4493 281.344C67.4518 281.343 67.4542 281.342 67.4566 281.341C69.0186 284.107 70.7922 292.001 74.7014 291.39C77.3829 294.423 81.6563 293.827 85.2953 294.06C84.7026 296.334 84.9939 298.936 85.6993 301.184C86.5336 303.859 90.6279 303.95 91.2085 301.033C127.447 308.076 164.629 302.456 201.274 303.513C211.869 303.589 222.464 303.917 233.034 304.672C234.522 304.778 236.031 303.256 235.93 301.774C233.657 277.589 231.523 245.772 228.982 221.823C228.379 216.362 227.903 210.84 226.203 205.586Z" fill="#EDB98A"/>
<path fill-rule="evenodd" clip-rule="evenodd" d="M114.862 152.604C114.874 152.658 114.886 152.711 114.9 152.764L114.761 153.079C113.883 155.104 113.444 156.782 113.444 158.11C113.444 161.14 126.923 191.119 156.826 188.364C176.761 186.527 188.913 177.468 193.28 161.185L193.536 157.667C194.181 157.923 194.813 158.232 195.425 158.613C196.825 157.261 199.116 157.73 199.327 159.619C203.127 161.619 206.681 164.239 210.334 166.52L210.558 166.677C213.74 168.882 217.68 170.541 219.177 174.417L219.777 174.455C223.779 174.718 229.36 192.371 227.17 199.386C226.553 201.409 225.441 203.495 226.203 205.586C227.902 210.84 228.379 216.361 228.982 221.823C231.523 245.772 233.657 277.588 235.93 301.774C236.031 303.256 234.519 304.535 233.034 304.672C202.282 307.493 86.5336 305.313 85.6992 302.638C84.9938 300.391 84.7026 296.334 85.2953 294.06C81.6563 293.827 77.3829 294.423 74.7014 291.39C70.7922 292.001 69.0186 284.107 67.4566 281.34L67.4493 281.344C65.0416 273.494 54.6987 235.683 61.7094 231.474C62.4403 212.145 67.6434 193.007 78.5454 177.021C78.436 176.447 78.516 175.823 78.8666 175.209L78.9139 175.129C82.4591 169.056 87.3618 163.392 94.3233 161.355C100.451 156.99 107.549 154.194 114.862 152.604ZM203.422 203.213C201.857 201.999 189.561 204.427 180.626 206.609C174.669 208.064 170.519 210.031 168.177 212.51L157.691 224.023L155.037 225.739C155.037 229.323 155.242 233.092 155.651 237.047C156.06 241.001 157.864 245.185 161.063 249.6C170.487 247.01 176.122 245.54 177.968 245.19C180.738 244.666 182.931 240.118 184.233 238.554C185.534 236.991 190.526 236.817 194.33 235.613C196.866 234.81 198.629 232.759 199.621 229.459C205.163 228.263 208.827 227.465 210.612 227.065C212.397 226.666 212.397 225.652 210.612 224.023L189.856 223.297C198.14 221.526 203.17 220.518 204.944 220.274C207.606 219.908 214.756 217.688 214.756 215.967C214.756 214.281 203.871 214.312 198.069 214.314L197.602 214.314C193.793 214.321 187.72 214.678 179.385 215.385L184.233 213.062C195.171 210.944 201.37 209.884 202.828 209.884C204.287 209.884 205.32 208.792 205.928 206.609C205.301 205.154 204.466 204.022 203.422 203.213Z" fill="#FFCF77"/>
<path fill-rule="evenodd" clip-rule="evenodd" d="M189.994 203.615L200.645 179.481C201.718 176.747 203.165 175.38 204.987 175.38C206.809 175.38 215.98 175.639 232.501 176.157C235.881 176.588 237.026 177.696 235.934 179.481C234.843 181.266 226.18 198.764 209.948 231.977H199.621V229.46L211.118 226.244C212.513 224.764 212.123 224.023 209.948 224.023C207.773 224.023 200.358 223.781 187.703 223.297L205.803 220.64L214.756 217.196L213.439 215.385L205.803 214.294L180.935 215.385L187.703 213.095L202.828 209.884C204.811 208.487 205.803 207.104 205.803 205.734C205.803 204.364 203.147 203.415 197.834 202.888L189.994 203.615Z" fill="white"/>
<path fill-rule="evenodd" clip-rule="evenodd" d="M141.945 129.436C142.049 129.152 142.472 129.19 142.48 129.509C142.647 136.309 140.955 144.619 135.515 149.212C132.723 151.57 129.031 152.649 125.641 153.889L125.258 154.03L119.268 156.263C117.68 156.854 115.966 157.765 114.563 156.929C115.698 159.746 116.652 162.64 118.035 165.355C119.756 168.734 121.837 171.826 124.385 174.638C134.476 185.779 150.448 189.178 164.781 185.913C172.161 184.232 179.343 181.046 184.378 175.236C188.205 170.819 190.404 164.891 190.922 159.044C190.77 159.068 190.612 159.067 190.448 159.032C188.635 158.636 186.804 157.663 185.208 156.71L185.055 156.618C183.519 155.693 181.919 154.634 180.817 153.197C180.088 152.246 179.34 150.219 178.575 147.117C178.262 145.368 177.968 141.884 178.018 140.116C178.023 139.949 178.763 139.851 178.842 140.024C179.525 141.525 179.746 144.822 180.274 146.384L180.381 146.696C180.944 148.327 181.427 150.314 182.595 151.632C184.789 154.108 188.098 155.157 191.052 156.398C191.264 153.6 195.732 153.665 195.675 156.584C195.672 156.742 195.665 156.9 195.66 157.058C196.012 157.251 196.351 157.473 196.668 157.687L196.977 157.897C198.147 158.693 199.326 159.449 200.572 160.125C202.983 161.433 205.537 162.469 208.008 163.656C210.508 164.858 212.846 166.289 215.029 168.001C216.055 168.805 217.038 169.662 217.97 170.572L218.223 170.822C219.111 171.706 220.266 172.695 220.772 173.857C220.883 174.113 221.442 174.709 221.745 174.729C226.44 175.037 231.125 175.472 235.791 176.124C236.999 176.292 237.476 176.915 237.03 177.922C235.495 181.383 229.489 195.206 227.891 198.915C228.078 201.64 227.826 204.849 227.994 207.575C228.24 211.553 228.562 215.529 228.948 219.496C230.329 233.686 232.423 247.807 234.315 261.934C235.262 269.005 236.126 276.086 236.978 283.168C237.408 286.748 237.773 290.33 238.054 293.925C238.172 295.423 238.278 296.921 238.371 298.421L238.452 299.751C238.563 301.424 238.82 303.023 237.784 304.459C237.315 305.111 236.243 305.478 235.626 304.738C234.85 303.807 234.561 303.112 234.487 301.889C234.43 300.954 234.417 300.013 234.374 299.077C234.282 297.046 234.166 295.017 234.031 292.989C233.76 288.934 233.451 284.88 233.093 280.833C231.839 266.639 229.454 252.552 227.868 238.393C227.068 231.255 226.5 224.104 226.199 216.926C226.049 213.342 225.994 209.758 226.03 206.171C226.043 204.831 226.107 203.497 226.199 202.166C223.822 207.567 221.323 212.916 218.711 218.194L218.092 219.444C216.436 222.78 214.736 226.129 212.747 229.274L212.405 229.81C211.599 231.087 210.498 233.101 209.028 233.504C208.004 233.785 206.753 233.588 205.703 233.567C204.661 233.548 203.618 233.543 202.577 233.501C201.409 233.454 200.295 233.301 199.167 232.996C198.979 232.946 198.802 232.891 198.64 232.821C197.503 234.682 195.571 236.1 193.596 236.926C192.014 237.587 190.356 238.041 188.695 238.461L188.109 238.608C186.328 239.051 184.291 239.262 183.287 240.982L183.054 241.381C182.307 242.65 181.591 243.764 180.355 244.674C179.025 245.654 177.449 246.27 175.879 246.749C174.272 247.24 172.627 247.616 170.995 248.018L170.551 248.128C169.473 248.398 168.386 248.646 167.315 248.939C166.858 249.064 166.393 249.193 165.945 249.348C165.42 249.528 165.039 249.81 164.624 250.116C164.252 251.417 162.661 252.123 161.353 252.032C160.666 251.985 160.05 251.752 159.489 251.41C158.511 252.243 157.433 252.99 156.435 253.762C155.038 254.843 153.636 255.917 152.225 256.981C149.318 259.173 146.388 261.337 143.427 263.457C138.172 267.222 132.804 270.814 127.344 274.274C125.067 275.716 122.775 277.156 120.461 278.561L120.708 278.653L121.198 278.838C122.356 279.271 123.646 279.969 123.87 281.321C124.048 282.393 123.45 283.132 122.392 283.263C121.134 283.418 120.156 282.529 119.373 281.681C119.027 281.307 118.641 280.959 118.31 280.574C118.175 280.417 118.071 280.235 117.98 280.045C115.695 281.392 113.387 282.693 111.042 283.909L110.455 284.212C104.64 287.186 98.9801 290.445 93.1156 293.335C91.5858 294.089 89.7207 294.905 87.7765 295.461C88.2924 297.462 88.2844 299.658 88.2975 301.688C88.3099 303.667 85.1667 303.657 85.2331 301.688L85.2651 300.737C85.3223 299.138 85.4158 297.478 85.795 295.922C80.0668 296.873 74.3444 294.807 73.279 294.187C72.103 293.503 71.0356 292.408 70.1472 291.393C68.2462 289.219 66.927 286.614 65.7565 283.993C63.2494 278.379 61.4732 272.379 60.1746 266.379C55.387 244.255 57.4463 220.576 65.2212 199.369C67.1637 194.07 69.4571 188.888 72.0851 183.893L72.4114 183.276C75.0338 178.337 77.9485 173.417 81.6508 169.214C85.5071 164.836 90.2642 161.432 95.4436 158.789C97.9713 157.499 100.572 156.382 103.23 155.391C103.657 155.232 104.087 155.089 104.518 154.953C107.288 153.186 110.65 151.496 114.014 151.563C114.242 151.567 114.427 151.654 114.565 151.784C114.728 151.813 114.89 151.847 115.052 151.894C115.41 151.998 115.789 152.391 115.738 152.795L115.72 152.929C115.711 152.995 115.699 153.058 115.678 153.12C115.798 153.138 115.916 153.166 116.032 153.206C119.25 152.297 122.416 150.907 125.556 149.785L126.271 149.533C128.901 148.611 131.599 147.707 133.756 145.883C135.903 144.067 137.516 141.716 138.683 139.175C140.121 136.043 140.764 132.651 141.945 129.436ZM206.369 294.594C207.006 294.12 207.759 294.67 207.998 295.257C208.78 297.183 208.394 300.176 207.29 301.879C206.147 303.643 203.41 302.947 203.344 300.81C203.275 298.581 204.57 295.934 206.369 294.594ZM212.95 241.413C213.007 241.162 213.396 241.165 213.454 241.413C213.984 243.673 213.972 246.106 214.128 248.424L214.146 248.681C214.332 251.236 214.49 253.798 214.601 256.358C214.821 261.394 215.084 266.43 215.378 271.462C215.524 273.958 215.681 276.453 215.848 278.947C216.371 278.655 216.91 278.399 217.468 278.173C218.304 277.835 219.119 277.797 220.018 277.806C221.112 277.817 221.936 278.78 221.791 279.853C221.633 281.021 220.605 281.521 219.538 281.355C218.355 281.169 217.167 280.883 215.973 280.764C216.107 282.692 216.244 284.621 216.39 286.547C216.583 289.099 216.834 291.647 217.011 294.199C217.028 294.443 217.047 294.687 217.065 294.931C217.777 294.561 218.533 294.371 219.39 294.138L219.613 294.075C220.857 293.718 222.188 293.224 223.339 294.06C224.113 294.623 224.268 295.549 223.627 296.291C222.655 297.417 221.216 297.199 219.873 297.141L219.151 297.115C218.47 297.088 217.842 297.045 217.212 296.873C217.328 298.535 217.389 300.204 217.185 301.843C217.075 302.728 215.91 302.961 215.601 302.057C214.795 299.696 214.629 297.15 214.334 294.677C214.059 292.368 213.891 290.042 213.711 287.722L213.656 287.026C213.251 281.922 212.926 276.816 212.689 271.702C212.452 266.589 212.309 261.476 212.253 256.358C212.227 254.034 212.265 251.701 212.356 249.377L212.385 248.681C212.49 246.291 212.417 243.755 212.95 241.413ZM106.467 294.971C106.498 294.645 106.759 294.239 107.148 294.289C107.507 294.336 107.876 294.314 108.231 294.373C108.698 294.45 109.075 294.727 109.51 294.901C110.218 295.184 110.989 295.33 111.714 295.562C113.076 295.996 113.818 297.43 113.254 298.769C112.661 300.177 111.171 300.496 109.884 299.906C108.869 299.44 108.112 298.696 107.43 297.835L107.237 297.589C106.943 297.219 106.609 296.806 106.486 296.358C106.366 295.921 106.425 295.415 106.467 294.971ZM172.621 288.353C174.317 288.115 175.765 288.694 177.335 289.241L177.462 289.285C179.059 289.837 181.39 290.219 182.208 291.854C182.702 292.84 182.319 294.15 181.156 294.441C179.316 294.903 177.665 293.557 176.143 292.652L176.063 292.604C174.594 291.743 173.078 291.02 172.14 289.535C171.89 289.139 172.107 288.426 172.621 288.353ZM113.416 153.43C112.737 153.582 112.057 153.717 111.379 153.846C108.797 155.231 106.291 156.667 103.625 157.901C100.796 159.209 97.9784 160.561 95.2917 162.144C89.8639 165.343 85.3894 169.502 81.692 174.599C75.3053 183.405 70.5545 193.56 67.1545 203.863C66.2809 206.51 65.4992 209.187 64.8076 211.887C66.0304 210.755 67.478 210.06 69.1013 209.464C69.7893 209.212 70.6457 209.639 70.9944 210.235C71.1511 210.502 71.2396 210.767 71.2234 211.081C71.1873 211.774 70.7365 212.561 69.9926 212.698C68.2583 213.018 66.572 213.64 64.8997 214.188C64.6462 214.271 64.4284 214.24 64.2544 214.142C62.5942 221.176 61.5556 228.356 61.1878 235.578C60.8766 241.693 61.0685 247.855 61.7456 253.961C62.2659 253.727 62.7747 253.508 63.3452 253.375C64.085 253.203 64.8127 252.994 65.5343 252.757C67.6169 252.074 68.5668 255.513 66.4382 256.037C65.646 256.232 64.849 256.394 64.0418 256.513C63.3384 256.616 62.7161 256.57 62.0529 256.462C62.5596 260.272 63.2516 264.054 64.1332 267.782L64.3277 268.597C65.4729 273.359 66.8075 278.165 68.7376 282.664C69.6844 284.872 70.9379 286.968 72.4856 288.809C73.246 289.714 74.0901 290.489 75.0104 291.224C75.7766 291.836 78.3812 293.163 81.4659 293.163C84.5506 293.163 85.3857 292.872 86.9419 292.336C90.0197 291.276 92.9419 289.584 95.8283 288.077L96.1268 287.922C97.4031 287.262 98.6745 286.592 99.9426 285.915C99.7825 284.622 100.063 283.536 100.736 282.341C101.465 281.049 103.269 281.693 103.403 283.014L103.407 283.065C103.428 283.363 103.478 283.666 103.54 283.969C112.019 279.323 120.318 274.351 128.486 269.17C133.747 265.833 138.952 262.396 144.081 258.858C146.645 257.09 149.187 255.29 151.704 253.454C153.022 252.493 154.334 251.524 155.64 250.546C156.184 250.139 156.718 249.711 157.263 249.302C157.13 249.136 157.001 248.97 156.876 248.806C154.84 246.14 153.519 242.962 152.861 239.682C152.464 237.704 152.272 235.65 152.213 233.633L152.188 232.756C152.147 231.278 152.137 229.731 152.409 228.299C152.039 228.503 151.66 228.703 151.283 228.916C149.929 229.684 148.574 230.449 147.217 231.211C144.499 232.736 141.773 234.244 139.012 235.69C134.081 238.275 129.102 240.733 123.988 242.936L121.5 244.008C117.182 245.867 112.828 247.691 108.338 249.072C105.805 249.851 102.008 250.816 99.4392 251.41C101.503 253.355 101.788 254.663 100.295 255.332C98.0541 256.336 96.1979 252.485 96.124 252.136C95.3351 252.302 93.8142 252.584 91.5613 252.983C88.35 253.603 85.2364 254.83 82.3659 256.402C81.3681 256.948 81.0901 255.887 82.1473 255.147C85.2388 252.985 88.8448 251.762 92.5655 250.735L92.7483 250.685C94.1133 250.311 95.4759 249.921 96.8355 249.517C96.686 248.976 96.5998 248.415 96.617 247.796C96.6553 246.417 96.7771 245.033 96.8503 243.655C97.004 240.762 97.2 237.879 97.4297 234.992C97.5179 233.88 97.6168 232.765 97.73 231.65C97.0009 231.259 96.372 230.74 95.5591 230.485L95.4218 230.445C94.5524 230.21 94.8458 229.09 95.6181 228.994C96.3177 228.907 97.0139 228.947 97.7036 229.095C97.8104 229.118 97.9115 229.144 98.0079 229.174C98.1347 228.141 98.2752 227.112 98.4349 226.088C98.8573 223.383 99.156 220.534 100.035 217.935C100.1 217.742 100.386 217.673 100.492 217.875C101.771 220.309 101.815 223.295 101.96 226.005L101.977 226.329C102.147 229.286 102.157 232.272 102.102 235.233C102.046 238.284 101.942 241.328 101.805 244.376C101.75 245.604 101.752 246.878 101.543 248.052C109.154 245.577 116.63 242.614 123.796 239.106C128.851 236.632 133.863 234.059 138.817 231.388C141.3 230.051 143.794 228.735 146.273 227.392C147.142 226.921 148.01 226.449 148.878 225.976L150.18 225.267C151.397 224.602 152.414 223.94 153.833 223.894C154.255 223.88 154.635 224.078 154.904 224.378C155.666 223.837 156.547 223.505 157.472 223.513C158.864 221.589 160.277 219.682 161.747 217.816L162.832 216.434C164.711 214.051 166.702 211.631 169.098 209.816C170.167 209.007 171.343 208.4 172.57 207.898C172.281 207.827 171.999 207.686 171.747 207.452C170.575 206.365 170.414 204.347 170.176 202.83C169.929 201.258 170.024 199.85 170.268 198.283C170.363 197.674 171.371 197.547 171.618 198.106C172.136 199.286 172.686 200.417 173.158 201.61L173.297 201.969C173.804 203.312 174.883 204.725 174.812 206.182C174.793 206.581 174.659 206.929 174.452 207.209C175.482 206.867 176.526 206.562 177.555 206.244C180.792 205.243 184.041 204.271 187.34 203.495C188.218 203.288 189.1 203.097 189.987 202.921C190.451 200.716 191.127 198.551 191.925 196.426C191.17 196.039 190.681 195.39 190.03 194.813C189.422 194.272 189.003 193.614 188.484 192.994C188.011 192.429 188.277 191.409 189.127 191.442L189.367 191.452C190.247 191.493 191.1 191.584 191.898 191.995L192.182 192.142C192.572 192.344 192.999 192.576 193.379 192.851C193.876 191.707 194.393 190.574 194.916 189.452L195.593 188.002C197.351 184.227 199.103 180.309 201.31 176.794C202.291 175.231 203.596 174.255 205.47 174.104C207.399 173.949 209.405 174.15 211.337 174.219C213.577 174.299 215.816 174.394 218.054 174.512C217.48 173.911 216.956 173.242 216.38 172.665C215.424 171.709 214.414 170.802 213.352 169.964C211.251 168.306 208.94 166.939 206.539 165.763C204.139 164.586 201.668 163.56 199.414 162.106C197.988 161.186 196.713 160.028 195.55 158.775C194.818 166.675 191.005 174.015 185.276 179.529C179.325 185.256 171.102 188.403 163.058 189.741C154.853 191.106 146.29 190.605 138.44 187.752C134.393 186.281 130.512 184.179 127.05 181.543C127.012 181.772 126.966 181.999 126.876 182.212C126.756 182.498 126.608 182.742 126.439 182.994L126.137 183.435C125.947 183.713 125.753 183.988 125.537 184.245C125.014 184.868 124.272 185.141 123.474 185.139C121.945 185.133 120.787 183.634 121.199 182.151C121.457 181.219 122.011 180.658 122.874 180.293C123.147 180.178 123.425 180.081 123.705 179.986L123.915 179.915C124.198 179.818 124.479 179.726 124.77 179.672C123.131 178.225 121.61 176.651 120.248 174.953C115.976 169.627 111.763 162.168 113.191 155.094C113.216 154.973 113.325 154.897 113.443 154.877C113.526 154.381 113.79 153.9 114.152 153.578C113.908 153.514 113.663 153.464 113.416 153.43ZM157.771 275.724C158.617 275.254 159.491 276.372 158.803 277.063L157.777 278.09C156.824 279.047 155.897 280.015 155.082 281.107L154.884 281.373C153.784 282.871 152.61 284.607 150.806 285.167C148.625 285.844 146.529 283.186 147.792 281.244C148.895 279.547 151.02 278.907 152.852 278.206C154.585 277.542 156.151 276.625 157.771 275.724ZM87.3999 267.894C87.8969 267.243 89.1929 267.586 88.8534 268.507C87.7506 271.498 87.3011 275.576 84.5158 277.563C83.6172 278.204 82.2057 277.909 81.4659 277.169C80.6253 276.328 80.5916 275.144 81.0724 274.118C81.6587 272.867 83.1009 271.96 84.1118 271.006L84.2025 270.92C85.29 269.863 86.4662 269.117 87.3999 267.894ZM203.809 271.336C204.696 270.953 207.008 270.21 207.694 271.09C207.726 271.122 207.753 271.157 207.775 271.196C207.943 271.489 207.968 271.9 207.775 272.19C206.977 273.391 206.145 274.287 205.01 275.141L204.882 275.236C203.647 276.145 202.486 277.212 200.98 277.622C198.893 278.19 197.435 275.576 198.901 274.05C200.082 272.82 201.884 272.182 203.449 271.496L203.809 271.336ZM119.993 254.246C119.644 253.615 120.357 252.841 121.004 253.236C122.846 254.362 124.993 255.208 127.063 255.815C127.901 256.061 128.657 256.91 128.594 257.827L128.585 257.966C128.56 258.289 128.515 258.611 128.31 258.88C127.589 259.823 126.557 260.187 125.456 259.628C123.001 258.384 121.321 256.647 119.993 254.246ZM173.856 252.335C173.812 252.069 174.006 251.865 174.275 251.916C175.833 252.211 177.271 252.963 178.609 253.828C179.326 254.292 180.018 254.802 180.733 255.27C181.617 255.849 181.948 256.327 182.079 257.388C182.165 258.089 181.511 258.729 180.911 258.922C179.277 259.45 177.404 257.719 176.297 256.595L176.247 256.545C175.087 255.363 174.131 253.965 173.856 252.335ZM220.632 250.499C220.277 249.54 221.501 248.744 222.301 249.215C223.054 249.659 223.872 250.027 224.583 250.535C225.236 251.002 225.831 251.555 226.457 252.062L226.767 252.307C227.916 253.23 229.812 255.515 228.169 256.84C226.606 258.101 224.534 256.49 223.485 255.313L223.411 255.229C222.808 254.532 222.064 253.774 221.626 252.959C221.214 252.193 220.934 251.313 220.632 250.499ZM205.218 176.261C203.26 176.642 202.462 179.059 201.638 180.635C199.692 184.353 197.903 188.14 196.106 191.931C195.553 193.098 195.014 194.273 194.471 195.446C194.437 195.538 194.395 195.628 194.345 195.717C193.231 198.116 192.084 200.498 190.744 202.774C191.971 202.545 193.204 202.349 194.441 202.195C194.379 201.029 195.177 199.469 195.571 198.488L195.604 198.405C196.096 197.147 196.612 195.166 197.879 194.514C198.301 194.297 198.753 194.569 198.785 195.034C198.881 196.418 197.528 198.002 196.866 199.177C196.466 199.888 196.076 200.602 195.696 201.323C195.554 201.593 195.435 201.859 195.289 202.097C195.927 202.028 196.566 201.966 197.207 201.921L197.624 201.893C199.999 201.736 202.522 201.691 204.668 202.863C206.659 203.95 207.677 206.27 206.583 208.382C205.221 211.014 202.22 211.363 199.581 211.576C196.285 211.842 192.981 212.322 189.708 212.791C186.323 213.275 183.135 214.524 179.8 215.165C179.49 215.225 179.297 214.819 179.581 214.646C182.212 213.044 185.41 212.163 188.351 211.265L188.589 211.192C190.184 210.702 191.743 210.142 193.393 209.864C194.995 209.594 196.607 209.375 198.223 209.209L198.38 209.194C200.159 209.045 204.698 209.096 204.506 206.461C204.379 204.717 201.545 204.416 200.252 204.395C194.321 204.3 188.348 205.875 182.712 207.562L181.453 207.94C179.145 208.634 176.834 209.349 174.57 210.163C172.003 211.086 169.982 212.525 168.113 214.494C166.04 216.677 164.033 218.91 161.883 221.019C160.528 222.349 159.155 223.656 157.771 224.952C157.459 225.356 157.209 225.797 157.035 226.368C156.743 227.333 156.81 228.231 156.921 229.222C157.199 231.726 157.261 234.256 157.61 236.752C157.934 239.064 158.386 241.461 159.346 243.606C159.726 244.456 160.221 245.29 160.784 246.036L161.239 246.628C161.437 246.884 161.659 247.166 161.892 247.43C162.233 247.013 162.728 246.742 163.302 246.81C164.523 246.953 165.483 246.919 166.681 246.638C167.608 246.421 168.528 246.167 169.451 245.932C171.263 245.469 173.092 245.048 174.886 244.517L175.195 244.424C176.532 244.014 177.869 243.5 178.982 242.637C180.274 241.633 180.672 240.186 181.63 238.934C183.675 236.262 188.093 236.318 191.085 235.586C193.627 234.964 196.074 233.982 197.834 232.137L197.936 232.027C197.858 231.698 197.985 231.326 198.291 231.155L198.357 231.118C198.476 231.052 198.605 231.024 198.731 231.027C198.894 230.787 199.052 230.539 199.195 230.275C199.313 230.058 199.607 230.218 199.569 230.433C199.546 230.561 199.514 230.686 199.483 230.811C201.188 230.373 203.059 230.456 204.79 230.458L207.036 230.45C207.424 230.445 208.003 230.425 208.055 230.402L208.108 230.379C208.248 230.318 208.049 230.418 208.147 230.288C208.255 230.145 208.36 230 208.465 229.854C208.837 229.333 209.189 228.796 209.534 228.255C205.773 229.213 201.878 229.809 198.038 230.307C193.918 230.841 189.744 231.211 185.588 231.215C184.442 231.216 184.453 229.486 185.588 229.442C189.989 229.274 194.367 229.041 198.739 228.477C200.999 228.185 203.251 227.819 205.489 227.39C206.353 227.225 207.216 227.05 208.076 226.864L208.72 226.724C209.125 226.634 210.268 226.505 210.825 226.131C210.935 225.943 211.044 225.755 211.153 225.567C211.099 224.906 209.42 224.995 209.027 224.994C207.911 224.992 206.795 225.001 205.679 225.004C203.447 225.01 201.215 224.991 198.983 224.973C194.523 224.936 190.046 224.781 185.59 224.971C184.508 225.017 183.94 223.282 185.009 222.826C189.729 220.81 194.969 220.372 200.009 219.752C202.659 219.426 205.311 219.05 207.902 218.391L208.542 218.228C210.17 217.81 211.967 217.301 213.338 216.307C211.278 215.473 208.717 215.569 206.582 215.451L206.418 215.441C203.428 215.257 200.433 215.163 197.437 215.159C191.308 215.15 185.177 215.368 179.054 215.658C178.9 215.666 178.869 215.423 179.018 215.39C185.311 214.017 191.707 213.355 198.147 213.253C201.146 213.206 204.147 213.248 207.143 213.381L208.243 213.432C210.798 213.542 213.633 213.572 215.771 215.115C216.096 215.35 216.268 215.651 216.295 215.968C219.162 210.252 221.81 204.415 224.469 198.618C226.535 194.11 228.525 189.564 230.667 185.092L231.361 183.645C232.289 181.714 233.241 179.783 234.297 177.922C230.347 177.394 226.375 177.027 222.4 176.747C218.778 176.49 206.962 175.923 205.218 176.261ZM203.469 238.22C203.919 237.97 204.61 238.174 204.721 238.729C204.803 239.143 204.944 239.602 204.944 240.026C204.944 240.533 204.763 241.084 204.666 241.58C204.444 242.721 204.17 243.648 203.591 244.664C203.228 245.3 202.495 245.731 201.759 245.714C201.176 245.701 200.659 245.544 200.259 245.093C199.78 244.552 199.451 243.757 199.714 243.029C200.403 241.121 201.668 239.22 203.469 238.22ZM107.921 236.317C108.975 234.47 111.474 232.819 113.654 232.983C116.928 233.228 117.597 237.638 114.427 238.69C112.532 239.319 109.925 238.673 108.268 237.638C107.821 237.359 107.657 236.779 107.921 236.317ZM74.2724 230.007C74.033 229.659 74.4287 229.261 74.7854 229.339C75.5766 229.513 76.4296 229.589 77.2045 229.825C77.9982 230.067 78.7663 230.467 79.5524 230.743C81.1993 231.32 82.9583 231.609 84.5521 232.306C85.1891 232.585 85.6903 233.507 85.6314 234.188L85.6163 234.347C85.5811 234.685 85.5226 234.979 85.3338 235.288C84.8266 236.116 83.8217 236.545 82.8732 236.29C81.1137 235.817 79.3944 234.602 77.8942 233.593L77.617 233.409C76.9615 232.977 76.2567 232.525 75.7286 231.969C75.1773 231.388 74.7241 230.664 74.2724 230.007ZM134.756 223.29C134.553 222.56 135.461 222.078 135.99 222.571C137.047 223.556 138.152 224.47 139.187 225.48L139.257 225.549C139.998 226.294 141.077 227.73 140.112 228.694C138.877 229.93 137.157 228.096 136.494 227.141C135.653 225.929 135.149 224.707 134.756 223.29ZM215.645 217.257C214.077 218.919 211.661 219.683 209.534 220.315C207.012 221.065 204.413 221.513 201.812 221.882C199.298 222.238 196.804 222.556 194.33 222.964C196.201 222.988 198.072 223.001 199.939 223.035C202.092 223.074 204.244 223.12 206.396 223.183C207.964 223.228 209.803 223.013 211.293 223.596C211.561 223.701 211.812 223.846 212.031 224.023C213.283 221.796 214.484 219.538 215.645 217.257ZM118.923 201.72C120.56 201.2 122.099 200.51 123.834 200.689C124.295 200.737 124.626 201.186 124.374 201.629C123.552 203.077 122.215 203.894 120.898 204.862L120.782 204.948C119.342 206.02 117.795 206.997 116.228 207.876C113.531 209.39 111.114 205.057 113.838 203.785C115.477 203.02 117.199 202.269 118.923 201.72ZM148.39 197.958C150.894 198.123 153.396 198.235 155.903 198.336C158.807 198.454 157.831 202.924 155.405 202.019C153.009 201.125 150.612 200.243 148.194 199.409C147.458 199.155 147.517 197.946 148.343 197.956L148.39 197.958ZM84.1677 190.005C84.8166 189.96 85.4711 190.101 86.1211 190.164L86.8126 190.231C88.2382 190.373 89.5748 190.548 90.9343 191.129C93.4429 192.2 92.0956 196.234 89.5773 196.141C87.716 196.073 86.1244 195.273 84.5527 194.342C83.1788 193.528 82.3364 192.51 81.4086 191.232C81.1013 190.809 81.5295 190.335 81.948 190.292C82.6851 190.217 83.4303 190.057 84.1677 190.005ZM209.914 181.767C209.499 184.358 208.468 186.787 206.916 188.901C206.135 189.964 204.766 190.004 203.992 188.901C202.898 187.341 203.573 185.554 204.397 184.056L204.641 183.617C205.01 182.959 205.577 182 206.224 181.337L206.235 181.269C206.582 178.556 210.342 179.098 209.914 181.767ZM108.638 165.138C109.263 164.576 110.412 164.745 110.615 165.66C110.898 166.942 111.071 168.386 110.885 169.688C110.785 170.393 110.747 171.185 110.47 171.842C110.171 172.549 109.598 173.092 109.058 173.623C107.98 174.684 105.706 174.333 105.418 172.662L105.381 172.457C105.236 171.666 105.05 170.821 105.265 170.037C105.427 169.446 105.79 168.842 106.09 168.294L106.154 168.177C106.755 167.057 107.693 165.99 108.638 165.138ZM196.382 167.866L196.607 167.868C198.35 167.902 201.535 168.327 201.552 170.48C201.556 170.988 201.18 171.514 200.677 171.631C199.635 171.872 198.962 171.257 198.22 170.635C197.613 170.126 196.905 169.72 196.17 169.428C195.376 169.112 195.428 167.864 196.382 167.866Z" fill="black"/>
<path fill-rule="evenodd" clip-rule="evenodd" d="M193.703 64.8175C192.769 59.155 195.834 57.9801 193.703 52.5975C188.968 42.6239 176.063 43.0536 166.594 42.2868C156.032 41.881 145.342 43.2788 135.605 47.5224C133.28 48.5359 131.043 49.7279 128.898 51.0822C127.044 52.2534 127.299 54.4801 128.468 55.6948C120.037 67.663 124.859 83.7278 118.132 96.3258C116.89 98.5777 115.246 100.597 114.166 102.94C112.524 106.502 112.419 111.605 116.142 113.97C121.386 116.792 124.313 111.205 126.889 119.304C139.758 147.542 165.632 149.133 190.194 134.41C192.319 133.225 194.488 131.886 196.093 130.024C199.735 125.915 199.306 120.137 199.387 115.005C199.432 111.998 199.439 108.99 199.41 105.983C199.295 93.7998 195.268 76.9 193.703 64.8175Z" fill="#EDB98A"/>
<path fill-rule="evenodd" clip-rule="evenodd" d="M141.387 30.9496C156.218 24.2058 173.038 21.6484 189.216 23.3259C197.2 24.1525 205.08 25.9261 212.579 28.807L213.236 29.0617C215.087 29.7759 217.083 30.4848 218.489 31.9387C220.127 33.6282 220.586 36.1832 219.416 38.2704C218.506 39.8921 216.872 41.0554 215.128 41.6762C215.742 42.1804 216.325 42.7428 216.872 43.3707C217.793 44.4227 217.863 45.923 216.872 46.9607C214.961 48.9606 212.483 50.4076 209.813 51.1011C210.113 52.5531 209.951 54.1603 209.308 55.6075C207.462 59.7616 202.263 60.2567 198.262 60.01L198.141 60.0023L197.918 62.5549C197.8 63.9148 196.987 64.9693 195.609 65.1778C195.561 65.185 195.512 65.1899 195.464 65.1945C197.645 73.1021 198.963 81.2541 200.179 89.3581C200.815 93.5883 201.384 97.8284 201.928 102.071L202.109 103.486C202.689 108.06 203.415 112.68 203.666 117.288C203.891 121.47 203.096 125.462 200.525 128.837C198.218 131.862 195.072 134.129 191.689 135.811C184.046 139.614 176.001 142.446 167.547 143.759L166.983 143.846C163.72 144.346 160.358 144.767 157.129 143.861C154.293 143.066 151.319 141.015 151.96 137.721C152.175 136.608 153.727 136.56 154.259 137.42L154.382 137.618C155.02 138.632 155.719 139.575 156.832 140.099C158.135 140.715 159.647 140.887 161.071 140.904C165.049 140.95 169.191 139.956 173.021 138.96C180.174 137.098 187.521 134.063 193.38 129.465C195.873 127.511 197.875 125.067 198.581 121.923C199.454 118.047 198.651 113.81 198.255 109.914C197.438 101.876 196.467 93.853 195.442 85.8387L195.237 84.236C194.374 77.5358 193.467 70.8332 193.036 64.0942C192.857 63.8494 192.736 63.5706 192.688 63.2652L192.621 62.8264C192.562 62.4507 192.553 62.1064 192.594 61.7889C192.596 60.572 192.63 59.3624 192.7 58.1452C192.712 57.9273 192.722 57.7091 192.729 57.4934C191.467 57.7722 190.195 57.9976 188.918 58.1891C179.942 59.5442 170.826 59.8836 161.777 59.2097C157.262 58.8725 152.782 58.2934 148.315 57.5686C146.042 57.2001 143.777 56.7928 141.518 56.3371C139.886 56.0099 138.287 55.5663 136.682 55.1493C135.025 57.5661 134.131 60.5405 134.305 63.4615C134.501 66.7946 136.716 69.8175 136.094 73.2233C135.511 76.4108 132.787 77.3991 130.097 78.1885L128.954 78.5198C128.074 78.7773 127.435 79.0258 127.275 80.0859C127.002 81.9064 127.338 83.9548 127.408 85.785C127.493 87.9497 127.604 90.1144 127.655 92.2791C127.682 93.399 127.725 94.5238 127.723 95.6437C127.72 96.4388 127.602 96.9818 127.295 97.4955C127.532 97.7939 127.744 98.1163 127.933 98.4581C127.993 98.5696 127.844 98.6881 127.754 98.5963C127.515 98.3466 127.261 98.1211 126.992 97.9197C126.857 98.0872 126.7 98.2569 126.516 98.4387L126.502 98.4193C125.926 98.9938 125.012 99.0496 124.298 98.4387L124.111 98.2761C123.589 97.8171 123.23 97.4349 123.085 96.6764C123.077 96.6376 123.07 96.5988 123.065 96.56C121.738 96.514 120.388 96.8289 119.194 97.4909C117.301 98.5405 115.968 100.036 115.18 101.883C115.494 102.252 115.862 102.581 116.29 102.858C116.35 102.899 116.297 102.989 116.232 102.957C115.794 102.751 115.402 102.497 115.052 102.198C114.769 102.926 114.57 103.706 114.45 104.533C114.024 107.451 114.783 111.017 117.414 112.68C118.553 113.4 119.854 113.79 121.203 113.795C121.861 113.797 122.429 113.686 123.068 113.529C123.501 113.422 123.931 113.267 124.383 113.267C124.77 113.267 125.128 113.364 125.459 113.558L125.367 113.566C125.144 113.587 125.187 113.596 125.498 113.596C126.465 113.638 127.019 114.622 126.574 115.478L126.516 115.61C126.503 115.637 126.493 115.659 126.485 115.676L126.45 115.903C126.446 115.925 126.443 115.947 126.439 115.97L126.425 116.016C126.423 116.023 126.42 116.03 126.417 116.038L127.868 118.255C129.646 120.968 131.464 123.671 133.533 126.148C134.984 127.887 136.522 129.591 138.147 131.169C139.608 132.587 141.358 133.27 143.012 134.386C143.895 134.977 144.154 136.216 143.351 137.013C140.996 139.357 137.661 137.496 135.729 135.59C133.901 133.784 132.322 131.612 130.961 129.438C128.545 125.572 126.622 121.46 125.781 116.998C125.43 117.32 124.983 117.521 124.531 117.679C123.624 117.994 122.625 118.125 121.668 118.159C119.832 118.219 117.995 117.773 116.343 116.983C109.623 113.771 108.636 104.152 112.745 98.4799C112.191 96.8694 111.881 95.122 111.545 93.6319L111.392 92.9658C109.694 85.5256 108.553 77.6922 111.565 70.4017C111.952 69.4611 112.387 68.5448 112.902 67.6673C113.315 66.9619 114.026 66.2104 114.222 65.4081C114.658 63.6457 111.971 61.7937 111.188 60.395C110.266 58.7539 110.136 56.8171 111.391 55.3163C111.55 55.1275 111.724 54.9527 111.913 54.8002C110.723 52.638 110.668 49.9181 112.235 47.7849C113.265 46.379 114.836 45.3948 116.553 45.0966C117.603 44.9148 118.865 44.9827 120.019 45.3075C126.334 39.4291 133.541 34.5179 141.387 30.9496ZM117.134 104.504C118.819 103.013 120.681 102.232 122.978 102.429C125.288 102.627 128.069 103.585 129.425 105.57C130.496 107.139 128.313 109.439 126.741 108.261C125.309 107.187 124.354 105.975 122.577 105.398C120.981 104.882 119.005 104.55 117.334 104.846C117.15 104.877 116.967 104.649 117.134 104.504Z" fill="black"/>
<path fill-rule="evenodd" clip-rule="evenodd" d="M169.603 115.498C170.959 113.267 173.848 118.732 174.155 119.671C174.427 120.504 174.607 121.356 174.698 122.219C175.749 122.454 176.84 122.455 177.917 122.248C179.518 121.941 180.496 121.08 181.887 120.341C182.848 119.831 184.059 120.43 184.558 121.277C185.146 122.273 184.772 123.308 183.999 124.051C182.533 125.461 179.649 125.784 177.735 125.41C176.639 125.196 175.634 124.785 174.747 124.187C174.741 124.298 174.737 124.41 174.728 124.521L174.712 124.715C174.564 126.278 174.135 128.243 172.921 129.26C170.931 130.928 168.474 127.72 170.408 126.053L170.468 126.003C171.671 125.032 171.933 122.425 171.868 120.989C171.826 120.051 171.655 119.102 171.359 118.209L171.298 118.032C171.209 117.78 170.238 115.388 169.888 115.692L169.871 115.709C169.726 115.882 169.492 115.681 169.603 115.498ZM180.427 102.911C182.257 104.024 185.045 106.618 183.076 109.377C180.759 111.809 177.423 109.02 175.779 107.759C174.255 106.781 172.542 109.295 173.956 110.437C185.836 119.235 190.657 103.202 181.352 101.603C180.328 101.426 179.947 102.567 180.427 102.911ZM160.887 92.6263C162.675 92.309 164.507 92.7538 165.987 93.8005L166.099 93.8812C167.525 94.9243 169.12 96.7558 168.302 98.5537C167.974 99.2756 166.99 99.3888 166.366 99.0615C165.327 98.5166 165.139 97.1758 164.212 96.4338C163.452 95.8256 162.428 95.4567 161.449 95.5456C159.15 95.7546 157.735 98.0238 157.021 99.9793C156.929 100.229 156.562 100.327 156.419 100.058C154.734 96.9087 157.716 93.1892 160.887 92.6263ZM189.532 91.4378C192.958 91.1554 196.968 94.7081 196.066 98.3253C195.633 100.061 193.059 100.011 192.602 98.3253C192.35 97.3976 192.375 96.5768 191.708 95.8065C191.157 95.1704 190.374 94.8009 189.532 94.8577C188.604 94.9202 187.749 95.3839 187.099 96.0358C186.511 96.6243 186.16 97.4856 185.552 98.0066C185.402 98.1346 185.202 98.1428 185.054 98.0066C184.007 97.041 184.636 95.031 185.299 94.0231C186.249 92.5807 187.796 91.581 189.532 91.4378ZM154.363 86.2109C156.561 84.2648 160.554 82.3854 163.517 83.3432C165.221 83.8937 165.964 86.64 164.062 87.5104C161.86 88.5184 159.32 88.1082 157.078 89.153C156.137 89.592 155.252 90.1406 154.596 90.9451C154.08 91.5793 153.554 92.4137 152.807 92.7792C152.611 92.8754 152.345 92.8779 152.188 92.6995C150.551 90.847 152.934 87.4765 154.363 86.2109ZM185.755 83.2466C187.113 82.8653 188.62 82.873 190 83.1125C191.379 83.352 192.779 83.9239 193.905 84.758L194.036 84.8557C195.265 85.7824 196.732 87.1307 196.654 88.7723C196.588 90.1431 195.147 91.0703 193.902 90.3518C192.887 89.7659 192.41 88.5922 191.551 87.8107C190.842 87.1656 190.009 86.657 189.121 86.3007C188.134 85.9049 187.146 85.7194 186.087 85.7017C185.272 85.6881 184.451 85.9558 183.651 86.0413C183.717 86.1766 183.085 86.1136 182.722 85.9936C182.454 85.8792 182.452 85.5395 182.545 85.3192C183.007 84.2276 184.686 83.5462 185.755 83.2466Z" fill="black"/>
<defs>
<clipPath id="clip0_30_145">
<rect width="294" height="33" fill="white" transform="translate(1 289)"/>
</clipPath>
</defs>
</svg>
