<svg width="295" height="322" viewBox="0 0 295 322" fill="none" xmlns="http://www.w3.org/2000/svg">
<g clip-path="url(#clip0_30_124)">
<path d="M146.892 322C228.018 322 293.783 314.657 293.783 305.599C293.783 296.541 228.018 289.198 146.892 289.198C65.7657 289.198 0 296.541 0 305.599C0 314.657 65.7657 322 146.892 322Z" fill="#F7859C"/>
</g>
<path d="M215.421 202.949H158.025V273.587H215.421V202.949Z" fill="#FDEA6B"/>
<path fill-rule="evenodd" clip-rule="evenodd" d="M141.285 133.857C147.472 129.149 163.005 127.032 169.608 131.565C176.13 136.118 176.841 143.48 179.88 150.253C182.748 148.901 187.483 150.837 188.315 153.496C189.346 154.75 189.392 158.274 190.103 159.96C221.042 164.882 225.739 188.989 229.463 216.357C234.39 244.128 245.573 271.839 240.718 300.416C241.351 301.331 241.85 302.22 242.311 303.276C243.416 305.155 241.993 307.815 239.764 307.712C236.879 307.459 234.022 307.114 231.123 307.006C223.088 306.727 215.045 306.76 207.007 306.862L205.911 306.876C165.4 307.38 124.891 308.374 84.3777 308.637C82.9079 308.639 82.1884 307.322 82.3846 306.022C82.7799 303.406 83.1465 300.788 83.5293 298.171C73.9469 300.7 63.76 301.337 54.2047 298.437C53.5363 297.756 55.7622 298.125 56.1153 298.022C47.3215 292.016 49.9476 279.365 50.7266 270.252C55.5704 239.029 57.278 204.482 75.9928 177.838C84.0892 166.965 95.9591 158.356 109.599 156.419L109.977 156.367C113.965 155.836 118.41 155.664 121.897 153.496C125.819 150.367 127.49 144.586 131.616 144.532C132.978 144.514 134.831 146.236 136.826 147.406C136.975 144.833 138.362 142.662 138.668 140.667L138.693 140.497C139.013 138.171 138.575 136.079 141.285 133.857ZM207.776 217.181C199.081 211.145 176.621 214.178 176.107 214.516C174.975 215.26 174.487 215.326 173.875 216.292C173.27 216.373 172.666 216.456 172.063 216.541C170.852 216.937 171.749 218.425 173.148 217.894C172.306 221.52 174.782 224.098 175.767 227.683C176.087 228.846 175.779 230.939 175.767 232.129C175.863 233.645 177.54 235.436 177.261 236.957C176.267 242.365 170.874 247.64 173.148 252.884C174.654 255.846 179.184 257.357 182.197 258.364C188.437 260.758 199.311 258.274 202.937 252.884C204.871 250.01 207.112 242.759 208.265 240.51L208.52 236.942C209.151 228.073 209.711 218.525 207.776 217.181Z" fill="#EDB98A"/>
<path fill-rule="evenodd" clip-rule="evenodd" d="M131.294 144.547L133.782 146.073L148.234 153.213C151.035 153.997 152.436 154.936 152.436 156.032V167.183C152.436 168.675 155.065 172.058 160.323 177.33L165.181 172.49L165.072 171.856C164.61 169.126 164.379 167.299 164.379 166.377C164.379 165.385 169.131 161.618 178.636 155.078L182.795 151.165L182.351 149.818C184.915 149.939 187.696 151.517 188.315 153.496C189.346 154.75 189.392 158.274 190.103 159.96C221.042 164.882 225.739 188.988 229.463 216.356C234.39 244.128 245.573 271.839 240.718 300.416C241.351 301.331 241.85 302.22 242.311 303.276C243.416 305.155 241.993 307.815 239.764 307.712C236.879 307.459 234.022 307.113 231.123 307.005C223.088 306.727 215.045 306.76 207.007 306.862L205.911 306.876C165.4 307.38 124.891 308.373 84.3777 308.637C82.9079 308.639 82.1884 307.322 82.3846 306.022C82.7799 303.406 83.1465 300.788 83.5293 298.17C73.9469 300.7 63.76 301.336 54.2047 298.436C53.5363 297.756 55.7622 298.125 56.1153 298.021C47.3215 292.016 49.9476 279.364 50.7266 270.252C55.5704 239.028 57.278 204.481 75.9928 177.838C84.0892 166.964 95.9591 158.356 109.599 156.418L109.977 156.367L110.358 156.317C114.246 155.822 118.521 155.595 121.897 153.496C125.715 150.449 127.4 144.889 131.294 144.547ZM165.921 210.002C164.504 210.002 161.601 212.201 157.213 216.601L156.826 216.78C151.521 219.242 148.007 221.378 146.284 223.188L146.222 223.253C144.481 225.12 141.032 230.085 135.877 238.147L128.411 242.56H125.586L123.575 257.139L128.411 267.549L139.365 263.862L157.213 259.16L167.454 248.776L173.232 246.838C172.531 248.862 172.277 250.875 173.148 252.884C174.654 255.846 179.184 257.357 182.197 258.364C188.437 260.757 199.311 258.273 202.937 252.884C204.871 250.01 207.112 242.759 208.265 240.509L208.596 235.875C209.192 227.322 209.634 218.471 207.776 217.181C199.081 211.145 176.621 214.178 176.107 214.516C174.975 215.26 174.487 215.326 173.875 216.292L173.558 216.335L175.34 213.919L174.709 213.582C170.206 211.195 167.276 210.002 165.921 210.002ZM173.148 217.894C172.342 221.365 174.577 223.876 175.634 227.229L172.933 222.063L172.933 217.961C173.003 217.944 173.075 217.921 173.148 217.894Z" fill="#9DDADB"/>
<path fill-rule="evenodd" clip-rule="evenodd" d="M130.101 144.008C130.701 143.477 131.589 144.145 131.208 144.862C130.351 146.475 129.471 148.004 128.321 149.429C127.623 150.294 126.876 151.111 126.119 151.92C128.062 153.6 129.729 155.686 131.302 157.641C133.315 160.141 135.217 162.747 137.476 165.035C139.704 167.291 142.168 168.868 145.146 169.92L145.748 170.128C148.74 171.178 151.938 172.596 153.624 175.427C153.957 175.986 153.287 176.676 152.724 176.327C149.794 174.514 146.35 174.149 143.16 172.951C140.079 171.793 137.392 170.012 135.019 167.738C132.649 165.468 130.66 162.885 128.584 160.357C126.532 157.858 124.322 155.723 121.895 153.608C118.149 156.127 113.873 157.222 109.525 158.299L109.051 158.416C104.698 159.493 100.368 160.744 96.2842 162.62C92.6835 164.273 89.142 166.248 86.2091 168.939C83.0957 171.794 80.6725 175.441 78.4546 179.008C73.4935 186.988 70.0056 195.73 66.9351 204.578C63.7415 213.782 61.0702 223.169 58.9137 232.669C57.8169 237.501 56.9261 242.367 56.194 247.267C55.8416 249.627 55.5286 251.992 55.2536 254.363C54.9601 256.894 54.8927 259.498 54.1157 261.932C53.7826 262.975 52.9961 263.408 52.2089 263.371L52.049 265.37C51.837 268.034 51.6393 270.7 51.5725 273.381C51.4618 277.839 51.512 282.285 51.8329 286.733L51.8783 287.34C52.1304 290.587 52.6939 294.235 55.1368 296.612C57.6668 299.075 61.5574 299.849 64.9673 299.893C72.9093 299.997 80.5542 296.246 87.5821 292.956C94.82 289.568 101.86 285.807 108.732 281.728C112.231 279.65 115.693 277.504 119.11 275.295C120.787 274.211 122.452 273.108 124.105 271.987C125.052 271.346 125.949 270.642 126.912 270.073C126.44 269.633 126.229 268.943 126.625 268.339C123.839 265.923 122.68 261.61 122.544 258.12C122.434 255.304 122.849 252.495 123.177 249.705C123.342 248.298 123.546 246.893 123.758 245.492C123.841 244.939 123.905 244.347 124.003 243.763C116.481 247.894 108.747 251.574 100.809 254.842C96.7406 256.518 92.6196 258.024 88.4417 259.405L87.595 259.683C83.6364 260.978 79.5832 262.201 75.4908 262.942C75.272 262.981 75.0943 262.659 75.3279 262.556C79.316 260.797 83.4423 259.313 87.4903 257.694L88.1555 257.423C88.0791 257.419 87.9999 257.408 87.9172 257.388C85.5431 256.816 83.1876 255.933 80.8592 255.19C78.6982 254.501 76.2703 254.068 74.2504 253.027C74.095 252.947 74.182 252.731 74.3334 252.72C76.6037 252.563 79.0682 253.224 81.2941 253.613L82.1303 253.76C83.5311 254.007 84.963 254.272 86.3569 254.618C86.4073 254.151 86.6682 253.683 87.0394 253.408C91.1241 250.385 90.7093 244.279 91.1461 239.776L91.4701 236.434C92.0399 230.583 92.6427 224.734 93.5585 218.927C93.6074 218.617 94.0873 218.706 94.0894 218.999C94.1366 226.197 93.5929 233.361 93.3204 240.548L93.2782 241.727C93.1276 246.161 93.0095 250.766 90.215 254.178C90.6057 253.95 91.1341 253.95 91.4506 254.326C91.8396 254.788 92.0642 255.308 92.0572 255.818C94.5824 254.76 97.0965 253.674 99.5984 252.566C107.642 249.005 115.517 245.019 123.184 240.707C124.009 240.243 124.793 240.607 125.201 241.219L125.26 241.211C125.27 241.21 125.28 241.209 125.29 241.208L125.349 241.206C125.351 241.206 125.353 241.206 125.355 241.206C126.434 240.613 127.905 241.036 128.831 241.9C128.858 241.926 128.881 241.954 128.906 241.982C130.078 241.456 131.173 240.745 132.166 239.845C134.2 238.004 135.922 235.727 137.423 233.443C140.188 229.237 142.536 224.561 146.271 221.099C149.305 218.286 153.068 216.535 157.014 215.435C156.998 215.32 157.042 215.197 157.122 215.116C157.324 214.908 157.469 214.836 157.731 214.962C157.752 214.972 157.764 214.986 157.773 215.001L158.158 214.344C158.368 213.987 158.584 213.627 158.659 213.533C159.107 212.969 159.568 212.41 160.036 211.862C160.83 210.934 161.735 210.019 162.782 209.376C165.075 207.968 167.486 208.764 169.844 209.534C171.269 209.999 172.688 210.479 174.111 210.952L174.257 210.999C175.318 211.34 176.559 211.638 177.033 212.761C177.22 213.205 177.25 213.666 177.162 214.113C187.234 211.554 198.42 212.73 208.248 215.735C208.626 215.85 209.002 216.16 209.082 216.567C210.208 222.339 210.709 228.258 210.2 234.128C209.76 239.194 208.637 244.16 206.52 248.799L206.4 249.061C204.41 253.36 201.257 258.659 196.442 260.007C193.534 260.82 190.318 260.34 187.352 260.191C184.47 260.046 181.524 260.025 178.67 259.572C176.127 259.169 173.899 258.03 172.328 255.964C170.973 254.182 170.259 252.028 169.674 249.885C169.407 249.97 169.141 250.06 168.879 250.163C167.774 250.594 166.839 251.29 165.992 252.108C164.206 253.838 162.82 255.938 160.95 257.588C159.258 259.082 157.329 260.244 155.261 261.137C150.975 262.988 146.377 263.728 141.843 264.709L141.526 264.778C138.113 265.526 134.629 266.445 131.617 268.221C131.558 268.744 131.32 269.236 130.938 269.558C131.469 270.057 131.694 270.847 131.227 271.587C129.923 273.656 127.676 274.833 125.659 276.156L125.528 276.243C123.544 277.557 121.543 278.846 119.525 280.108C115.423 282.674 111.236 285.1 106.989 287.418C100.159 291.147 93.1825 294.665 86.0795 297.856C86.5058 299.952 86.35 302.113 86.6705 304.223L86.7196 304.525C86.8565 305.308 86.6716 305.963 86.1318 306.475L86.0747 306.527L86.0757 306.52L86.0251 306.566L86.0082 306.58L86.0138 306.576C85.9516 306.633 85.8874 306.686 85.822 306.731L85.7386 306.785C85.2188 307.101 84.5494 307.097 84.0171 306.818L83.9563 306.785L83.8541 306.726C83.1508 306.322 82.6658 305.32 82.9576 304.525C83.6746 302.569 83.9456 300.481 84.6077 298.513L84.0824 298.747L83.39 299.049C75.9015 302.285 67.5833 305.01 59.424 302.804C55.8188 301.829 52.4492 299.766 50.6454 296.405C48.8704 293.097 48.6195 289.256 48.5253 285.576C48.409 281.034 48.6526 276.423 49.2519 271.921C49.6541 268.898 50.1406 265.819 50.891 262.828C50.5051 262.487 50.2213 261.999 50.1464 261.395C49.7922 258.538 50.4121 255.568 50.7915 252.726C51.1622 249.951 51.5718 247.181 52.0349 244.42C52.9701 238.845 54.0566 233.281 55.3215 227.771C57.5728 217.964 60.5456 208.331 64.1247 198.929L64.4381 198.11C67.7454 189.516 71.5747 181.105 76.9069 173.555C79.4577 169.943 82.154 166.668 85.7582 164.065C89.1348 161.627 92.9434 159.871 96.8739 158.529C100.809 157.185 104.853 156.285 108.969 155.726C113.149 155.157 117.561 154.808 121.46 153.095C120.966 152.211 121.39 151.018 122.22 150.47C125.013 148.626 127.597 146.226 130.101 144.008ZM219.529 224.221C219.646 224.043 219.924 224.155 219.873 224.365C218.514 229.928 217.239 235.503 216.406 241.172C214.903 251.405 215.179 261.771 215.302 272.079L215.308 272.612C215.371 278.164 215.459 283.717 215.643 289.267C215.736 292.072 215.919 294.905 215.819 297.711C215.765 299.234 215.359 300.674 215.215 302.178C215.089 303.493 215.201 304.829 215.264 306.146C215.306 307.021 214.013 306.984 213.925 306.146L213.812 305.061C213.666 303.689 213.486 302.325 213.036 301.012C212.495 299.432 212.235 297.88 212.047 296.221C211.76 293.68 211.632 291.112 211.521 288.553L211.445 286.782C210.981 276.085 210.998 265.338 211.748 254.652L211.803 253.889C212.546 243.788 213.835 232.875 219.529 224.221ZM190.567 160.559C190.212 160.414 190.336 159.877 190.729 159.971L191.444 160.141C196.681 161.395 201.823 162.753 206.711 165.086C211.602 167.42 215.743 170.904 219.034 175.189C225.43 183.518 228.088 193.641 230.186 203.753C232.518 214.991 234.641 226.269 236.994 237.503L237.43 239.595C239.607 250.058 241.662 260.527 243.176 271.113L243.285 271.881C244.812 282.768 245.73 294.032 244.064 304.947C243.734 307.106 240.139 306.568 240.279 304.435C240.685 298.267 240.976 292.131 240.695 285.95C240.414 279.767 239.834 273.611 238.969 267.483C238.241 262.325 237.156 257.231 236.196 252.115L236.045 251.307C235.241 246.955 234.412 242.607 233.585 238.259L232.349 231.75C230.497 222.002 228.608 212.247 226.474 202.561L226.347 201.991C224.259 192.672 221.18 182.91 214.915 175.51C208.558 168.001 199.457 164.218 190.567 160.559ZM167.467 259.402C167.619 259.062 168.154 259.099 168.319 259.402C168.963 260.59 169.035 262.106 169.156 263.447L169.169 263.585C169.324 265.222 169.461 266.864 169.545 268.506C169.704 271.621 169.78 274.733 169.771 277.853C169.761 281.05 169.696 284.244 169.524 287.436L169.477 288.292C169.32 291.066 169.056 294.161 167.737 296.586C167.257 297.468 165.953 297.209 165.675 296.317C164.765 293.397 165.233 289.935 165.466 286.945L165.647 284.612C165.827 282.278 165.998 279.944 166.133 277.607C166.319 274.411 166.473 271.212 166.62 268.014C166.668 266.975 166.72 265.936 166.775 264.897L166.859 263.339C166.931 262.036 166.925 260.607 167.467 259.402ZM65.1696 263.54L65.5723 263.151C66.8087 261.942 68.3712 260.08 70.1989 260.195C70.9278 260.241 71.3922 260.846 71.2411 261.562C70.9183 263.094 69.3545 263.889 68.2289 264.825C66.9958 265.849 65.8336 266.944 64.6736 268.049C63.6446 269.029 62.6549 270.038 61.689 271.077L61.3279 271.468C60.9817 271.846 58.5161 274.075 58.7827 274.653L58.7972 274.679C58.8714 274.79 58.7478 274.942 58.6248 274.903C57.5601 274.567 57.6265 273.655 58.029 272.731C58.8025 270.955 60.1569 269.313 61.3397 267.797C62.5192 266.284 63.7959 264.876 65.1696 263.54ZM171.325 219.015C170.501 217.07 167.468 217.111 165.747 217.227C161.41 217.52 156.719 218.616 152.861 220.642C148.861 222.742 146.167 226.106 143.756 229.827L143.643 230.001C141.294 233.652 139.031 237.973 135.351 240.483C133.477 241.761 131.289 242.929 129.015 243.435C128.859 243.709 128.606 243.926 128.275 244.005L128.12 244.04C127.473 244.183 126.467 244.341 125.598 244.247C125.603 244.672 125.599 245.093 125.61 245.496C125.64 246.649 125.653 247.808 125.653 248.962C125.654 251.38 125.524 253.804 125.625 256.222C125.714 258.361 126.017 260.596 127.044 262.508C127.798 263.91 128.793 264.839 129.993 265.725C132.947 263.926 136.288 262.829 139.678 262.004C143.778 261.007 147.976 260.342 151.982 258.99C153.911 258.339 155.765 257.487 157.444 256.33C159.227 255.101 160.589 253.439 161.99 251.813L162.209 251.56C163.639 249.921 165.199 248.353 167.22 247.465C168.96 246.699 171.254 246.563 172.775 245.379C173.571 244.759 173.637 243.86 173.721 242.939C172.747 243.078 171.715 242.855 170.744 242.741L170.241 242.682C169.322 242.573 168.425 242.453 167.521 242.22C167.353 242.176 167.353 241.923 167.521 241.88C168.589 241.604 169.648 241.487 170.744 241.358L171.001 241.326C171.992 241.196 173.034 241 174.006 241.218C174.18 240.555 174.432 239.922 174.786 239.288C175.282 238.397 176.22 237.386 176.347 236.346C176.385 236.035 176.313 235.668 176.166 235.394L176.115 235.3C176.054 235.189 175.981 235.078 175.874 235.009C175.862 235.023 175.837 235.039 175.783 235.056C175.035 235.291 174.382 234.925 174.036 234.361C172.565 234.543 170.96 234.482 169.581 234.543L168.187 234.61C166.697 234.679 165.14 234.708 163.74 234.408C163.544 234.366 163.485 234.041 163.681 233.957C165.402 233.221 167.49 232.987 169.332 232.704C170.362 232.546 171.398 232.426 172.43 232.287C173.118 232.194 173.847 232.041 174.559 232.004C176.344 229.783 175.382 226.279 172.898 225.323C171.993 225.72 171.179 225.489 170.19 225.404C169.203 225.32 168.214 225.262 167.223 225.266C165.237 225.275 163.132 225.797 161.166 225.573C160.846 225.536 160.549 225.11 160.867 224.851C162.372 223.623 164.53 223.223 166.44 222.961L166.836 222.908C167.477 222.824 168.256 222.702 169.064 222.629C169.247 222.273 169.575 222.004 170.067 221.937C170.213 221.917 170.36 221.905 170.507 221.892L170.505 221.878C171.706 221.82 171.654 219.793 171.325 219.015ZM89.0984 256.945C89.0772 256.978 89.054 257.009 89.0293 257.039L88.9911 257.083L89.1886 257.003L89.0984 256.945ZM192.283 214.669C187.228 214.126 182.166 214.241 177.095 214.386C176.69 215.712 175.278 216.842 173.91 216.884C174.981 218.514 175.092 220.719 174.341 222.447C175.936 223.082 177.31 224.221 178.144 225.845C179.3 228.095 179.149 230.599 178.006 232.678C178.982 233.561 179.557 234.994 179.5 236.346C179.435 237.852 178.537 239.139 177.79 240.387C176.983 241.736 176.956 242.924 176.708 244.435C176.346 246.646 174.853 247.987 172.933 248.825L173.035 249.226C173.53 251.152 174.146 253.184 175.561 254.592C177.381 256.404 180.205 256.387 182.61 256.502L182.726 256.507C184.928 256.617 187.129 256.746 189.33 256.871L190.981 256.963C193.515 257.102 195.949 257.119 198.018 255.445C201.396 252.711 203.712 248.188 205.178 244.183C208.254 235.778 208.291 226.553 206.879 217.799C202.143 216.274 197.229 215.2 192.283 214.669ZM150.242 228.614L150.279 228.617C151.32 228.736 152.035 229.578 152.29 230.577C152.66 232.029 152.478 233.343 153.368 234.654C154.284 236.002 154.847 237.081 154.98 238.747C155.034 239.432 155.009 240.116 155.162 240.786L155.273 241.256C155.39 241.757 155.486 242.24 155.428 242.778C155.375 243.269 155.135 243.651 154.643 243.808C153.038 244.321 151.799 243.14 151.384 241.645C151.026 240.354 151.504 238.815 150.999 237.603C150.719 236.931 150.203 236.369 149.911 235.692C149.622 235.022 149.477 234.321 149.431 233.592C149.343 232.214 150.563 230.557 149.882 229.308C149.737 229.041 149.901 228.606 150.242 228.614ZM128.925 214.387C130.011 214.166 131.244 213.66 132.316 214.081C132.867 214.297 133.139 214.968 132.674 215.435C131.865 216.245 130.691 216.29 129.603 216.481L129.507 216.498C128.22 216.736 126.93 216.962 125.639 217.175C123.211 217.578 120.776 217.933 118.333 218.235C115.823 218.545 113.307 218.822 110.787 219.03L109.811 219.11C107.683 219.28 105.468 219.408 103.379 219.082C103.076 219.035 103.125 218.593 103.379 218.516C105.667 217.824 108.177 217.638 110.543 217.345C113.058 217.033 115.568 216.704 118.072 216.313C120.573 215.923 123.069 215.504 125.557 215.041C126.681 214.832 127.804 214.614 128.925 214.387ZM168.138 212.165C167.184 211.827 166.135 211.327 165.102 211.495C163.32 211.783 161.734 213.518 160.323 214.661L161.031 214.523C164.655 213.827 169.454 213.077 172.497 215.38C172.504 215.367 172.51 215.354 172.519 215.34C172.765 214.968 173.049 214.677 173.36 214.358C173.39 214.33 173.418 214.301 173.446 214.272L173.614 214.093L173.231 213.961C172.41 213.671 171.438 213.296 171.284 213.242L171.273 213.238C170.227 212.884 169.179 212.534 168.138 212.165ZM138.362 136.248C138.213 134.331 141.198 134.347 141.346 136.248C141.668 140.398 140.734 144.51 138.722 148.149C138.707 148.175 138.691 148.199 138.676 148.224C139.934 148.878 141.206 149.506 142.507 150.067C144.171 150.785 145.866 151.438 147.592 151.993C149.153 152.495 151.076 152.693 152.388 153.738C155.156 155.94 154.116 160.51 153.584 163.473L153.501 163.941C153.236 165.465 153.044 167.029 153.687 168.492C154.374 170.055 155.762 171.214 157.001 172.332L157.252 172.559C158.349 173.559 159.603 174.773 160.408 176.127C161.143 174.609 162.145 173.368 163.204 171.971C163.96 170.974 163.422 170.645 162.879 169.672C162.356 168.734 162.101 167.735 162.265 166.666C162.566 164.691 164.146 163.264 165.718 162.192C167.574 160.927 169.646 159.99 171.565 158.813C175.509 156.395 179.349 153.63 182.809 150.559C182.905 150.474 183.07 150.585 182.994 150.701C180.26 154.856 177.056 158.446 173.117 161.494C171.52 162.73 169.842 163.755 168.153 164.832L167.667 165.143C166.989 165.582 166.143 166.169 165.837 166.917C165.528 167.668 166.186 168.236 166.54 168.859C167.665 170.836 167.122 172.681 165.789 174.358L165.727 174.436C164.402 176.067 163.398 177.585 162.918 179.669C161.886 184.147 163.323 188.812 164.828 193.016L164.887 193.181C165.701 195.447 166.566 197.697 167.273 199.999L167.468 200.635C168.108 202.754 168.633 204.843 167.914 207.021C167.67 207.761 166.659 207.936 166.239 207.239C164.758 204.781 164.389 201.823 163.461 199.12C162.556 196.486 161.517 193.899 160.643 191.254C159.518 187.849 158.764 184.183 159.173 180.611C159.161 180.59 159.148 180.571 159.138 180.549L158.851 179.923C158.07 178.227 157.316 176.746 155.895 175.394C154.413 173.984 152.805 172.736 151.639 171.029C149.106 167.322 150.673 163.197 150.979 159.143L151.014 158.646C151.069 157.805 151.1 156.661 150.549 156.078C149.931 155.422 148.479 155.255 147.658 154.965C145.536 154.214 143.445 153.34 141.454 152.29C139.558 151.29 137.722 150.186 136.012 148.893L135.145 148.241C133.778 147.21 132.36 146.084 131.443 144.68C131.338 144.519 131.517 144.258 131.709 144.336C133.239 144.956 134.637 145.943 136.068 146.802C136.09 146.749 136.116 146.696 136.145 146.643C137.916 143.44 138.645 139.891 138.362 136.248ZM187.232 158.194C187.841 156.524 190.619 156.653 190.509 158.638C190.424 160.163 189.776 161.539 189.184 162.924L189.12 163.072C188.509 164.515 187.803 165.869 186.957 167.191C185.343 169.718 183.451 172.064 181.431 174.278C179.599 176.285 177.195 177.512 174.425 177.308C173.257 177.222 172.079 176.925 171.056 176.342C169.841 175.65 168.522 173.571 166.972 174.075C166.822 174.123 166.682 173.904 166.812 173.8C168.601 172.36 170.632 174.593 172.345 175.131C174.927 175.941 177.576 175.045 179.237 172.96C180.972 170.782 182.568 168.344 184.026 165.973C184.767 164.769 185.442 163.52 186.025 162.232C186.614 160.932 186.748 159.52 187.232 158.194ZM183.071 147.914C182.996 147.683 183.282 147.464 183.485 147.595C184.661 148.36 185.68 149.371 186.764 150.257C187.968 151.24 189.18 152.203 190.411 153.151C192.205 154.533 190.124 157.078 188.544 155.568C186.383 153.502 184.016 150.801 183.071 147.914ZM176.616 139.828C177.093 137.987 179.918 138.746 179.507 140.566L179.493 140.621C178.714 143.626 179.824 146.685 182.195 148.634L182.282 148.704C183.782 149.904 181.657 152.001 180.172 150.813C176.93 148.22 175.581 143.815 176.616 139.828Z" fill="black"/>
<path fill-rule="evenodd" clip-rule="evenodd" d="M137.395 32.9512L139.555 35.5241C138.359 36.3683 137.23 37.2166 136.168 38.0689L136.167 38.0663C141.087 34.8515 146.536 32.9512 152.422 32.9512C163.759 32.9512 186.787 42.7045 191.992 49.7395C194.576 53.2308 199.377 63.9486 201.867 75.6008C203.868 84.9632 206.844 111.413 203.868 121.352C200.059 134.072 187.528 145.828 174.608 145.828C161.687 145.828 141.627 136.486 127.35 116.013C126.698 115.077 119.201 113.992 113.853 110.478L115.257 125.97L116.324 134.982L116.089 135.624C112.258 145.998 109.223 151.411 106.983 151.861C104.697 152.321 100.042 148.568 93.0171 140.602L92.1195 136.829C89.8397 127.204 88.6997 122.038 88.6997 121.33L88.7013 121.201C88.7349 119.572 89.2952 110.352 89.3068 107.87L89.3069 70.6816C96.8617 45.528 104.071 32.9512 110.935 32.9512H137.395Z" fill="#EDB98A"/>
<path fill-rule="evenodd" clip-rule="evenodd" d="M119.494 24.3847C121.715 23.5231 124.289 23.6859 126.397 24.9834C130.537 24.8056 134.653 27.2303 136.812 30.7697C136.857 30.8198 136.904 30.8699 136.947 30.92L137.404 31.4539C137.837 31.9638 138.294 32.5257 138.656 33.106C136.883 33.1466 135.407 33.8703 134.376 35.3319C133.64 36.3748 135.325 37.3658 136.077 36.3794L136.103 36.3434C136.722 35.4659 137.657 35.126 138.697 35.1082C138.996 35.1032 139.222 34.9887 139.382 34.8199C139.446 35.0526 139.503 35.2878 139.555 35.524C144.793 33.4838 150.44 32.9435 156.063 33.4274C155.817 33.8272 155.611 34.2555 155.452 34.7057C155.272 35.2159 155.656 35.8018 156.151 35.9381C156.686 36.0854 157.17 35.7712 157.363 35.2857L157.381 35.2382C157.597 34.625 157.95 34.0987 158.424 33.6907C161.071 34.0501 163.7 34.6217 166.264 35.3587C169.347 36.2452 172.4 37.327 175.385 38.5657C174.88 38.7643 174.443 39.1 174.137 39.6603C173.526 40.7788 175.205 41.7806 175.842 40.7114L175.865 40.6718C175.927 40.5571 175.982 40.4882 176.023 40.449L176.037 40.4356L176.125 40.395L176.29 40.3479L176.353 40.3324C176.408 40.3199 176.431 40.3207 176.577 40.3126C176.772 40.3016 176.967 40.3026 177.162 40.3023C177.62 40.3021 177.912 40.0463 178.045 39.7192C179.518 40.3853 180.973 41.0866 182.401 41.8213L182.741 41.9974C187.152 44.3053 191.33 47.3362 193.754 51.7958C193.914 52.0939 193.964 52.4195 193.924 52.7301C194.442 53.3513 194.942 53.9926 195.422 54.6439C196.888 56.6377 197.961 58.9047 198.976 61.1516C201.019 65.6704 202.395 70.312 203.468 75.1514C204.506 79.8155 205.344 84.5297 206.122 89.2439C206.985 94.4817 207.702 99.7645 207.853 105.077C208.118 114.548 206.269 124.074 200.959 132.048C196.223 139.161 189.09 144.81 180.631 146.619C172.027 148.457 162.923 146.664 156.143 140.922C155.05 139.998 155.2 138.132 156.143 137.185C157.211 136.118 158.786 136.266 159.874 137.185C166.259 142.593 175.553 143.427 183.247 140.672C190.36 138.122 195.932 132.24 199.351 125.635C203.523 117.579 204.226 108.326 203.586 99.4138C203.236 94.5192 202.508 89.6648 201.757 84.8178L201.304 81.9002C200.81 78.74 200.291 75.5842 199.614 72.4561L199.456 71.7274C198.628 67.9553 197.659 64.0865 196.16 60.5404C195.375 58.6792 194.429 56.8857 193.461 55.1148C193.274 54.7716 193.081 54.4234 192.883 54.0727C192.618 54.1654 192.316 54.1804 191.998 54.0803C189.264 53.2286 186.456 52.6575 183.597 52.4671C182.295 52.3799 180.991 52.3664 179.688 52.4173C177.458 52.2872 175.165 52.4836 173.041 53.1685C172.833 52.9899 172.622 52.815 172.411 52.6402C172.355 52.6357 172.298 52.6297 172.241 52.6184C171.699 52.5117 171.318 52.1259 171.088 51.6387C171.076 51.6129 171.065 51.5871 171.055 51.5613C170.783 51.3532 170.509 51.1483 170.232 50.9461C169.558 51.1212 168.967 50.5594 168.808 49.9437C168.658 49.8422 168.506 49.744 168.354 49.6446C168.235 49.6736 168.117 49.6977 168.002 49.7062C167.506 49.742 167.026 49.6659 166.586 49.4287C166.029 49.1283 165.673 48.6439 165.435 48.0936C164.593 48.1454 163.741 47.8716 162.987 47.3767C162.376 46.9751 161.908 46.4208 161.443 45.8675C155.771 43.3338 149.605 41.8378 143.425 41.4546C142.816 41.5718 142.211 41.7113 141.614 41.8737C141.473 41.9122 141.273 41.9879 141.042 42.0786C142.42 41.9117 143.815 41.8952 145.231 42.0993C151.947 43.072 157.178 48.1083 161.68 52.8624C162.751 52.6457 163.834 54.0347 162.842 54.9545L155.115 62.1262C155.304 62.9283 154.386 63.7188 153.581 63.5262C152.232 63.2016 150.881 62.8859 149.529 62.5756C148.118 63.2592 146.345 63.1422 145.065 62.1513C145.005 62.1052 144.876 62.0315 144.764 61.9584C144.659 62.0453 144.517 62.1325 144.461 62.1696C144.006 62.4711 143.452 62.5598 142.921 62.4751C142.374 62.3882 141.88 62.1104 141.455 61.7645C141.184 61.5442 140.553 60.6247 140.202 60.557L140.168 60.5531C140.402 60.5599 139.649 61.261 139.446 61.4061C138.974 61.7435 138.452 61.9208 137.865 61.8562C136.841 61.7434 135.96 60.8088 135.46 59.9458L135.422 59.8796L135.406 59.8385L135.393 59.8829C135.39 59.8908 135.387 59.8992 135.384 59.9086C135.309 60.1118 135.073 60.3427 134.913 60.4848C134.457 60.8888 133.892 61.0664 133.289 60.9609C132.778 60.8719 132.349 60.563 132.004 60.1891L131.95 60.1296C131.848 60.0142 131.176 59.1091 131.282 58.8921L131.294 58.8739L131.26 58.8668C130.851 58.9675 130.508 58.8666 130.256 58.6554C128.852 58.3473 127.466 57.9884 126.125 57.532C126.02 57.8276 125.917 58.1231 125.817 58.4212C126.55 58.8746 127.227 59.5209 127.85 59.9818C129.031 60.8535 130.211 61.7252 131.389 62.5994L136.057 66.0476L136.591 65.9041C137.273 65.7207 137.858 66.1184 138.108 66.7262L138.129 66.7788C138.228 67.0451 138.348 67.2913 138.488 67.527C139.655 67.4804 140.643 68.1978 140.962 69.2268C141.25 69.2203 141.541 69.2313 141.839 69.2642C142.654 69.3538 143.204 69.96 143.056 70.7924L143.045 70.8495L143.025 70.9422C143.498 71.1431 143.84 71.5311 143.916 72.1177C144.043 72.3084 144.145 72.5158 144.21 72.7467C144.551 73.9451 143.888 75.4264 143.535 76.5744L143.507 76.6644C143.281 77.4188 143.046 78.1697 142.808 78.9202L142.217 80.7836C140.577 85.9767 138.979 91.4521 140.306 96.8964C140.589 98.0486 139.118 98.5697 138.48 97.6679C136.934 95.4846 135.263 93.4274 133.509 91.4525L133.424 91.439C132.196 91.1917 131.719 90.3228 131.155 89.4371C130.823 89.535 130.466 89.5581 130.121 89.4914C129.621 89.395 129.173 89.1092 128.82 88.7482C128.521 88.4421 128.246 87.6571 127.892 87.4625C127.45 87.2192 126.56 87.5669 126.031 87.4888C125.601 87.4254 125.2 87.2776 124.81 87.092C124.094 88.0691 123.62 89.2179 123.504 90.4563C123.458 90.9272 123.318 91.3255 123.116 91.6562C123.861 91.6286 124.609 91.6812 125.347 91.819C128.078 92.3275 130.036 94.0158 131.137 96.5307C131.184 96.6409 131.042 96.7311 130.977 96.6259C129.344 94.1084 125.789 93.9807 123.208 94.8674C120.467 95.8093 118.929 98.2265 118.381 100.984C117.781 104.008 118.551 107.267 120.195 109.842C120.957 111.039 121.998 112.131 123.381 112.572C125.024 113.096 126.542 112.159 128.225 112.642C129.371 112.97 129.876 114.08 129.669 115.19C129.586 115.625 129.433 116.006 129.228 116.337C129.834 117.539 130.394 118.777 131.107 119.914C132.207 121.67 133.538 123.123 134.988 124.588C136.486 126.101 138.012 127.584 139.615 128.987C141.151 130.332 142.912 131.289 144.523 132.521C145.653 133.385 146.213 134.598 145.655 135.985C145.196 137.132 143.645 138.109 142.389 137.591C139.986 136.599 137.882 134.911 135.967 133.172C134.191 131.559 132.645 129.63 131.477 127.536C130.375 125.562 129.563 123.32 128.878 121.16L128.793 120.891C128.471 119.864 128.131 118.709 127.911 117.544C126.592 118.266 124.804 118.371 123.394 118.175C121.115 117.862 119.036 116.713 117.466 115.037C116.734 114.257 116.087 113.368 115.528 112.403C115.579 112.99 115.609 113.558 115.641 114.075C116.947 115.507 117.471 117.574 117.008 119.46C118.1 120.586 118.406 122.277 117.836 123.716C119.032 124.904 118.987 126.794 118.47 128.511C119.883 130.093 120.017 132.558 118.913 134.344L118.88 134.472C119.995 136.34 119.743 138.753 118.347 140.403C119.301 142.255 119.153 144.747 116.77 145.466C115.901 145.728 115.059 145.504 114.429 145.017C115.004 147.882 115.262 150.791 114.495 153.67C114.189 154.812 113.074 155.646 111.901 155.646C110.92 155.646 110.208 155.153 109.715 154.426C109.773 155.872 109.685 157.324 109.377 158.79C109.192 159.675 108.372 160.365 107.502 160.579C107.816 160.933 107.941 161.446 107.64 161.98C106.364 164.241 103.282 163.303 103.074 161.136C102.203 160.486 101.798 159.417 101.631 158.263C101.387 156.579 101.298 154.923 101.021 153.26L100.916 153.36L100.861 153.407L100.844 153.527C100.685 154.349 100.222 154.924 99.6218 155.267C99.7523 156.7 99.5107 158.16 98.6028 159.248C97.9981 159.974 96.9679 160.259 96.0847 160.102C96.0292 160.105 95.9724 160.105 95.9134 160.097C93.9133 159.831 92.756 157.931 93.2825 156.187C92.4772 155.198 92.138 153.944 92.3764 152.705C90.8179 151.671 90.8497 149.401 91.3894 147.578C89.7557 146.287 89.1412 143.873 89.9621 141.954C88.4897 140.123 88.2848 137.571 89.2853 135.486C87.6653 134.153 87.6746 131.579 89.2813 130.216C88.4257 128.515 87.9097 126.477 88.7648 124.92C88.1615 124.253 87.8304 123.303 87.9002 122.385C88.0025 121.036 88.8934 120.104 89.9988 119.483L90.0754 119.061C90.335 119.094 90.6116 119.021 90.8555 118.787C91.0968 118.554 91.3452 118.367 91.602 118.213C91.8929 118.209 92.1433 118.08 92.3193 117.88C92.8011 117.716 93.319 117.644 93.8935 117.637C95.1343 117.624 95.1781 115.765 94.0233 115.645C93.841 115.461 93.5899 115.345 93.3175 115.345L93.1042 115.346C92.6056 115.35 92.1022 115.381 91.6395 115.58C91.3389 115.708 91.1071 115.903 90.9372 116.14C90.9055 116.499 90.7104 116.857 90.288 117.153C89.8 117.495 89.1327 117.535 88.6105 117.226C87.8794 116.793 87.8719 116.117 87.9562 115.383C88.1408 113.776 87.2184 112.264 87.438 110.62C87.5353 109.894 87.7769 109.266 88.1708 108.76C87.3402 107.514 87.1936 105.907 87.8331 104.54C86.5008 103.105 86.2705 100.892 87.1201 99.1641C87.1323 99.1222 87.1418 99.0794 87.1551 99.0381C87.2511 98.7445 87.3835 98.4797 87.5293 98.2265C86.7834 96.9325 86.7889 95.3446 87.547 94.0561C86.3988 92.7155 86.3623 90.5821 87.3835 89.1377C87.3895 89.018 87.402 88.8983 87.4122 88.7785C86.9435 87.5599 87.0561 86.1744 87.6506 85.0412C87.4385 84.5515 87.2749 84.0242 87.1704 83.4626C86.9025 82.0148 87.0403 80.6071 87.4405 79.1943C87.5053 78.9714 87.5778 78.7484 87.6553 78.5255C87.6683 77.5579 87.7051 76.5945 87.7536 75.6328C87.5634 74.8188 87.5328 73.9242 87.5286 73.0938L87.5274 72.5553C87.5181 71.1848 87.4227 69.1782 88.2878 68.0132C87.7324 66.7548 87.9607 65.1692 88.8879 64.1717C88.2371 63.0508 88.1005 61.6743 88.7545 60.4307C88.8596 60.2305 88.9814 60.0441 89.115 59.8678C89.0609 58.7288 89.3003 57.5543 89.9063 56.4223C90.3 55.6854 90.888 55.0474 91.587 54.5369C91.5753 54.3858 91.568 54.2351 91.5705 54.0865C91.5828 53.4237 91.7296 52.7582 91.9767 52.1372C91.5333 51.3792 91.3277 50.5248 91.587 49.604C91.8771 48.562 92.6402 47.6652 93.5929 47.1592C93.6697 46.1768 93.823 45.2002 94.0421 44.2365C93.4566 42.9307 93.9228 41.2074 95.2461 40.4381C95.0735 39.3946 95.2291 38.3125 95.9874 37.4974C96.2748 37.1885 96.6135 36.9543 96.9779 36.799C96.8023 35.7497 97.0004 34.6581 97.7249 33.8036C98.3167 33.106 99.1936 32.6822 100.086 32.6198C100.43 30.7948 102.171 29.4301 104.007 29.5388C104.237 28.7352 104.785 28.0346 105.636 27.6794C105.854 27.5885 106.074 27.5286 106.294 27.4953C107.787 25.9864 110.011 24.9636 111.936 24.4399C113.867 23.9166 115.825 23.8659 117.483 24.4743L117.603 24.52L117.738 24.5025C118.324 24.4373 118.909 24.3998 119.494 24.3847ZM104.82 148.06C104.305 147.899 103.729 148.251 103.589 148.76C103.442 149.298 103.771 149.831 104.288 149.993C104.933 150.194 105.611 150.244 106.283 150.245C106.824 150.245 107.284 149.784 107.284 149.243C107.284 148.699 106.826 148.241 106.283 148.241C105.736 148.24 105.333 148.22 104.82 148.06ZM100.233 137.42C99.4614 137.421 98.8002 137.605 98.2284 138.146C97.8472 138.507 97.8377 139.204 98.2284 139.563C98.623 139.926 99.1955 139.947 99.6005 139.602L99.6785 139.532C99.6879 139.523 99.6952 139.516 99.701 139.511C99.7336 139.49 99.7663 139.468 99.8008 139.45L99.7356 139.493C99.6859 139.529 99.8011 139.47 99.8658 139.442L99.8861 139.434L99.8926 139.432L99.9444 139.428C100.04 139.423 100.136 139.424 100.233 139.424C100.756 139.423 101.257 138.963 101.233 138.422C101.208 137.879 100.793 137.419 100.233 137.42ZM114.783 131.063C115.866 130.398 114.899 128.697 113.813 129.309L113.774 129.332C113.217 129.675 112.532 129.628 111.901 129.629C110.614 129.629 110.612 131.633 111.901 131.632L112.114 131.632C113.039 131.625 113.974 131.56 114.783 131.063ZM106.261 123.749C105.443 123.595 104.526 123.457 103.665 123.551L103.522 123.569H103.258C103.027 123.569 102.805 123.661 102.626 123.807C102.343 123.925 102.075 124.083 101.83 124.295C100.855 125.141 102.276 126.554 103.245 125.712C103.299 125.665 103.361 125.627 103.431 125.595L103.484 125.573H104.554C104.651 125.573 104.746 125.552 104.839 125.523C105.186 125.571 105.51 125.64 105.729 125.681C106.987 125.918 107.527 123.987 106.261 123.749ZM105.347 104.516C103.779 103.788 102.042 103.793 100.592 104.805C99.5548 105.528 100.518 107.234 101.564 106.56L101.602 106.535C101.732 106.444 101.865 106.368 102 106.3C102.737 106.513 103.478 106.523 104.19 106.261L104.282 106.225L104.338 106.246C105.498 106.785 106.515 105.059 105.347 104.516ZM122.424 101.376C120.84 101.199 120.827 98.6922 122.424 98.8716C125.796 99.2503 128.855 100.751 131.096 103.33C132.138 104.529 130.422 106.283 129.36 105.137L129.327 105.101C127.545 103.051 125.141 101.682 122.424 101.376ZM104.676 88.5083C104.324 88.4697 103.973 88.4504 103.627 88.4672C102.796 88.5072 101.784 89.0623 102.149 90.0653C102.441 90.8689 103.4 90.9007 103.873 90.4721C104.07 90.4768 104.266 90.4899 104.462 90.5099C104.985 90.5638 105.502 90.6635 106.017 90.7652C107.275 91.0129 107.813 89.0819 106.549 88.8326L105.99 88.7218C105.801 88.6849 105.611 88.6488 105.42 88.6157C105.306 88.5588 105.183 88.5205 105.053 88.5107L104.986 88.5083H104.676ZM94.7359 72.9616L94.6184 72.9457C92.9289 72.7292 90.2169 72.9284 90.0118 75.0823C89.8985 76.2751 91.6193 76.35 91.9589 75.33C93.2065 75.1048 94.4643 75.0617 95.7033 75.1985C96.176 74.7176 96.1798 73.793 95.3929 73.5623C95.2819 73.2632 95.05 73.007 94.7359 72.9616ZM133.354 69.3238C132.963 68.9648 132.323 68.9172 131.939 69.3238C131.718 69.5577 131.533 69.8177 131.387 70.1038L131.289 70.297C131.273 70.329 131.256 70.3609 131.238 70.3924C131.205 70.4507 131.169 70.5063 131.133 70.5629L131.109 70.5866C131.099 70.5963 131.088 70.608 131.075 70.6223C130.715 71.0033 130.669 71.6664 131.075 72.0393C131.465 72.3983 132.105 72.4459 132.49 72.0393C132.711 71.8054 132.895 71.5456 133.042 71.2593L133.139 71.0663C133.156 71.0343 133.172 71.0025 133.19 70.971C133.223 70.9124 133.26 70.8568 133.295 70.8002L133.335 70.7604C133.341 70.7544 133.347 70.7479 133.354 70.7408C133.714 70.3601 133.759 69.6968 133.354 69.3238ZM112.838 66.7144C111.429 65.714 109.753 65.6674 108.457 66.871C107.522 67.7397 108.896 69.1316 109.839 68.3177L109.872 68.288C109.906 68.2559 109.941 68.2279 109.975 68.2011C110.144 68.3454 110.359 68.4368 110.605 68.437C110.669 68.4372 110.733 68.437 110.797 68.4384L110.893 68.4418L110.945 68.4461L110.951 68.4473L110.996 68.4665C111.078 68.5036 111.192 68.561 111.036 68.4633C111.071 68.4816 111.103 68.5032 111.137 68.5242L111.194 68.5766C111.571 68.9338 112.224 68.9809 112.598 68.5858C113.261 68.3614 113.613 67.2638 112.838 66.7144ZM126.62 63.4318L126.646 63.4238C127.882 63.0703 127.356 61.1363 126.114 61.4912C124.795 61.8682 124.166 63.0969 123.902 64.3553C123.791 64.8846 124.057 65.4384 124.601 65.588C125.098 65.7245 125.72 65.4202 125.832 64.8881C125.91 64.514 126 64.1966 126.143 63.902L126.229 63.7338C126.27 63.6572 126.284 63.6445 126.42 63.5252C126.443 63.5052 126.547 63.4566 126.62 63.4318ZM105.685 53.3393L105.491 53.2951C104.287 53.031 102.689 52.893 101.962 54.0885C101.299 55.1776 102.971 56.1691 103.66 55.1396C103.67 55.1392 103.682 55.1393 103.696 55.1405L103.719 55.1431L104.027 55.118C104.412 55.1153 104.78 55.1834 105.153 55.2718C106.405 55.5687 106.939 53.6369 105.685 53.3393ZM148.912 45.6358C149.824 44.7227 148.41 43.3052 147.498 44.219C146.777 44.9411 146.081 45.6683 145.612 46.5859C145.367 47.0673 145.487 47.673 145.971 47.9568C146.418 48.2186 147.093 48.0808 147.34 47.5973C147.746 46.802 148.259 46.2905 148.912 45.6358ZM137.409 43.2391C136.508 43.7731 135.925 44.6528 135.571 45.6711C135.394 46.1821 135.774 46.767 136.27 46.9035C136.804 47.0503 137.291 46.7373 137.483 46.2512L137.501 46.2036C137.595 45.9313 137.747 45.6097 137.934 45.367C138.094 45.1598 138.343 44.9524 138.531 44.8835C138.982 44.7177 139.301 44.3084 139.26 43.8305C138.518 44.0872 137.83 43.7784 137.409 43.2391ZM110.448 38.8806C109.539 38.0359 108.32 37.9239 107.219 38.4352C106.728 38.6626 106.606 39.3708 106.86 39.8061C107.154 40.3099 107.737 40.394 108.228 40.1656C108.102 40.2242 108.33 40.1468 108.429 40.1185C108.441 40.1243 108.607 40.1168 108.664 40.1176L108.732 40.122C108.733 40.1224 108.716 40.1221 108.682 40.121C108.73 40.1318 108.777 40.1448 108.824 40.1597L108.884 40.1804C108.854 40.1742 108.989 40.2624 109.026 40.2917L109.033 40.2973C109.976 41.1738 111.394 39.76 110.448 38.8806Z" fill="black"/>
<path fill-rule="evenodd" clip-rule="evenodd" d="M170.344 113.848C171.746 111.543 174.735 117.189 175.053 118.16C175.334 119.02 175.519 119.901 175.614 120.793C176.701 121.036 177.83 121.037 178.943 120.823C180.599 120.506 181.611 119.616 183.049 118.853C184.043 118.325 185.295 118.944 185.812 119.819C186.42 120.849 186.033 121.918 185.233 122.686C183.717 124.143 180.734 124.477 178.755 124.09C177.621 123.869 176.582 123.444 175.664 122.826C175.658 122.942 175.654 123.057 175.645 123.172L175.628 123.372C175.476 124.987 175.031 127.018 173.776 128.069C171.717 129.793 169.176 126.477 171.177 124.755L171.239 124.703C172.482 123.699 172.754 121.005 172.687 119.521C172.643 118.553 172.466 117.572 172.16 116.65L172.097 116.466C172.005 116.205 171.001 113.734 170.638 114.049L170.621 114.066C170.471 114.245 170.229 114.037 170.344 113.848ZM181.539 100.841C183.432 101.991 186.315 104.672 184.279 107.522C181.883 110.036 178.432 107.154 176.732 105.851C175.155 104.841 173.384 107.438 174.846 108.618C187.134 117.709 192.12 101.142 182.496 99.4893C181.437 99.3072 181.043 100.485 181.539 100.841ZM161.329 90.2137C163.178 89.8858 165.073 90.3454 166.604 91.427L166.72 91.5104C168.194 92.5883 169.844 94.4808 168.998 96.3386C168.659 97.0846 167.641 97.2016 166.996 96.8634C165.922 96.3003 165.727 94.9149 164.768 94.1481C163.982 93.5196 162.923 93.1384 161.911 93.2303C159.532 93.4462 158.069 95.7911 157.33 97.8118C157.235 98.0703 156.856 98.1707 156.707 97.8932C154.965 94.6388 158.049 90.7953 161.329 90.2137ZM190.957 88.9855C194.5 88.6937 198.647 92.3649 197.714 96.1027C197.267 97.8962 194.605 97.8448 194.132 96.1027C193.871 95.1441 193.897 94.2959 193.207 93.4998C192.637 92.8426 191.827 92.4608 190.957 92.5194C189.997 92.5841 189.112 93.0632 188.44 93.7368C187.832 94.345 187.469 95.235 186.84 95.7733C186.685 95.9055 186.478 95.9141 186.325 95.7733C185.242 94.7756 185.892 92.6985 186.579 91.657C187.561 90.1666 189.161 89.1336 190.957 88.9855ZM154.581 83.5844C156.854 81.5735 160.985 79.6315 164.05 80.6211C165.812 81.19 166.58 84.0278 164.613 84.9273C162.335 85.9688 159.708 85.545 157.39 86.6246C156.416 87.0783 155.5 87.6451 154.822 88.4765C154.288 89.1318 153.745 89.9939 152.972 90.3717C152.769 90.4711 152.494 90.4736 152.332 90.2893C150.638 88.375 153.103 84.8922 154.581 83.5844ZM187.05 80.5213C188.455 80.1273 190.013 80.1353 191.44 80.3828C192.867 80.6303 194.315 81.2212 195.48 82.0831L195.615 82.184C196.887 83.1416 198.404 84.5349 198.323 86.2312C198.255 87.6477 196.764 88.6059 195.476 87.8634C194.427 87.258 193.933 86.0451 193.045 85.2375C192.312 84.571 191.45 84.0455 190.532 83.6772C189.511 83.2682 188.489 83.0766 187.393 83.0583C186.55 83.0442 185.702 83.3208 184.874 83.4092C184.942 83.549 184.288 83.4839 183.913 83.3599C183.635 83.2416 183.634 82.8907 183.73 82.663C184.208 81.535 185.945 80.8309 187.05 80.5213Z" fill="black"/>
<defs>
<clipPath id="clip0_30_124">
<rect width="294" height="33" fill="white" transform="translate(0 289)"/>
</clipPath>
</defs>
</svg>
