<svg width="1440" height="112" viewBox="0 0 1440 112" fill="none" xmlns="http://www.w3.org/2000/svg">
<g clip-path="url(#clip0_75_93)">
<path d="M-1155.18 194.265L-1081.12 176.501C-1007.05 159.402 -858.918 122.878 -710.786 79.2151C-562.653 34.8884 -414.52 -18.2373 -266.388 -18.2373C-118.255 -18.2373 29.8774 34.8884 178.01 52.6523C326.143 69.7521 474.275 53.1503 622.408 34.8884C770.541 16.6264 918.673 0.024671 1066.81 26.0895C1214.94 53.1503 1363.07 122.878 1511.2 96.813C1659.34 69.7521 1807.47 -53.101 1955.6 -80.1624C2103.73 -106.227 2251.87 -36.4992 2325.93 -0.472885L2400 34.8884V-336.991H2325.93C2251.87 -336.991 2103.73 -336.991 1955.6 -336.991C1807.47 -336.991 1659.34 -336.991 1511.2 -336.991C1363.07 -336.991 1214.94 -336.991 1066.81 -336.991C918.673 -336.991 770.541 -336.991 622.408 -336.991C474.275 -336.991 326.143 -336.991 178.01 -336.991C29.8774 -336.991 -118.255 -336.991 -266.388 -336.991C-414.52 -336.991 -562.653 -336.991 -710.786 -336.991C-858.918 -336.991 -1007.05 -336.991 -1081.12 -336.991H-1155.18V194.265Z" fill="#FDDBE2"/>
<path d="M1504.72 0.418213H-549V-213.552H1504.72V0.418213Z" fill="#FDDBE2"/>
</g>
<defs>
<clipPath id="clip0_75_93">
<rect width="1440" height="112" fill="white" transform="matrix(1 0 0 -1 0 112)"/>
</clipPath>
</defs>
</svg>
