<svg width="1440" height="140" viewBox="0 0 1440 140" fill="none" xmlns="http://www.w3.org/2000/svg">
<g clip-path="url(#clip0_39_1661)">
<path d="M-512 225L-460.541 207.212C-409.084 190.088 -306.167 153.513 -203.25 109.789C-100.334 65.4 2.58241 12.2 105.499 12.2C208.415 12.2 311.331 65.4 414.249 83.1888C517.165 100.313 620.081 83.6875 722.998 65.4C825.914 47.1125 928.83 30.4875 1031.75 56.5888C1134.67 83.6875 1237.58 153.513 1340.5 127.411C1443.41 100.313 1546.33 -22.7125 1649.24 -49.8113C1752.16 -75.9125 1855.08 -6.0875 1906.54 29.9887L1958 65.4V-307H1906.54C1855.08 -307 1752.16 -307 1649.24 -307C1546.33 -307 1443.41 -307 1340.5 -307C1237.58 -307 1134.67 -307 1031.75 -307C928.83 -307 825.914 -307 722.998 -307C620.081 -307 517.165 -307 414.249 -307C311.331 -307 208.415 -307 105.499 -307C2.58241 -307 -100.334 -307 -203.25 -307C-306.167 -307 -409.084 -307 -460.541 -307H-512V225Z" fill="#FBF1E6"/>
<path d="M1337 0.522461H-99V-266.941H1337V0.522461Z" fill="#FBF1E6"/>
</g>
<defs>
<clipPath id="clip0_39_1661">
<rect width="1440" height="140" fill="white"/>
</clipPath>
</defs>
</svg>
