<svg width="1440" height="101" viewBox="0 0 1440 101" fill="none" xmlns="http://www.w3.org/2000/svg">
<g clip-path="url(#clip0_54_45)">
<path d="M-1191.18 -90.9062L-1117.12 -72.9837C-1043.05 -55.7312 -894.918 -18.8813 -746.786 25.1712C-598.653 69.8937 -450.52 123.494 -302.388 123.494C-154.255 123.494 -6.12259 69.8938 142.01 51.9713C290.143 34.7188 438.275 51.4688 586.408 69.8938C734.541 88.3188 882.673 105.069 1030.81 78.7712C1178.94 51.4687 1327.07 -18.8812 1475.2 7.41625C1623.34 34.7188 1771.47 158.669 1919.6 185.972C2067.73 212.269 2215.87 141.919 2289.93 105.571L2364 69.8938V445.094H2289.93C2215.87 445.094 2067.73 445.094 1919.6 445.094C1771.47 445.094 1623.34 445.094 1475.2 445.094C1327.07 445.094 1178.94 445.094 1030.81 445.094C882.673 445.094 734.541 445.094 586.408 445.094C438.275 445.094 290.143 445.094 142.01 445.094C-6.12259 445.094 -154.255 445.094 -302.388 445.094C-450.52 445.094 -598.653 445.094 -746.786 445.094C-894.918 445.094 -1043.05 445.094 -1117.12 445.094H-1191.18V-90.9062Z" fill="#D3D4ED"/>
<path d="M1468.72 99.7207H-585V290.766H1468.72V99.7207Z" fill="#D3D4ED"/>
<path d="M1403 99.3477H-36V178.079H1403V99.3477Z" fill="#D3D4ED"/>
</g>
<defs>
<clipPath id="clip0_54_45">
<rect width="1440" height="100" fill="white" transform="translate(0 0.09375)"/>
</clipPath>
</defs>
</svg>
