<svg width="530" height="477" viewBox="0 0 530 477" fill="none" xmlns="http://www.w3.org/2000/svg">
<g clip-path="url(#clip0_30_260)">
<path d="M400.035 37.3889C452.992 63.4983 503.267 105.188 521.09 158.211C539.226 211.196 524.908 275.517 499.648 335.991C474.387 396.466 437.796 452.502 388.208 469.923C338.584 487.03 275.579 464.929 215.238 446.661C154.862 428.079 96.8367 413.366 57.8189 375.487C19.1155 337.571 -0.616283 276.174 0.222958 213.707C0.712119 150.962 21.7722 87.1476 64.2826 49.5299C107.107 11.8765 171.382 0.420086 231.218 0.288714C291.367 0.121559 347.077 11.2795 400.035 37.3889Z" fill="#FDDBE2"/>
</g>
<defs>
<clipPath id="clip0_30_260">
<rect width="530" height="477" fill="white"/>
</clipPath>
</defs>
</svg>
