<svg width="186" height="424" viewBox="0 0 186 424" fill="none" xmlns="http://www.w3.org/2000/svg">
<path fill-rule="evenodd" clip-rule="evenodd" d="M151.524 143.78L151.73 146.236L151.883 145.948C151.905 150.901 152.638 155.909 153.446 160.852C155.56 159.112 157.297 157.578 156.795 154.607C155.525 150.374 153.895 146.245 152.577 142.035L152.356 143.139L151.486 143.314L151.524 143.78ZM0.58632 404.741C0.975467 403.02 1.40021 401.197 1.79808 399.471C1.83731 399.326 2.20161 399.293 2.31902 399.254C4.42286 394.096 6.26382 392.92 10.3385 392.218C16.9091 391.028 23.3931 388.449 29.6001 384.625C29.4553 384.056 29.0592 383.073 28.6991 382.024C28.746 382.04 28.7934 382.054 28.8422 382.064C28.9255 382.08 29.0038 382.084 29.0785 382.079C29.4995 383.068 29.9576 383.938 30.2 384.258C30.9753 383.757 31.838 383.207 32.5977 382.675L32.5945 382.665C33.2706 382.196 34.1063 381.617 34.7683 381.255C34.8924 380.569 35.8966 380.356 36.4211 379.903C37.4395 379.175 38.0043 378.799 38.9384 379.729C40.9531 377.11 42.5758 374.339 44.1711 370.758C45.1694 368.665 45.6598 366.347 47.0021 364.478C46.9763 364.464 46.1231 364.198 46.1021 364.174C61.3556 330.342 63.7995 292.696 67.0532 256.533C67.7709 248.446 68.5217 240.284 69.9208 232.434C70.1127 231.245 70.2851 230.075 70.9996 229.127C62.4276 222.055 62.344 208.349 66.4961 198.182C56.9496 172.399 75.6622 145.015 74.2813 118.702C73.5072 100.853 76.7163 80.1719 96.8545 75.8893C99.3518 74.4502 102.346 74.2354 104.729 74.1965C106.874 73.1115 107.212 70.7157 107.976 68.7463L108.722 68.751C108.941 67.8596 109.158 66.8823 109.346 65.9843C109.63 65.4149 109.462 64.6728 110.354 64.8306C112.376 61.8994 128.559 60.4258 128.743 65.1455C129.327 65.4903 129.443 66.1635 129.579 66.9809C130.476 72.7775 136.659 77.4001 142.23 76.4679L142.32 76.3863C166.037 75.5063 175.373 92.3986 180.008 115.42C183.629 133.308 185.931 152.693 183.095 170.61C180.324 178.729 171.933 182.636 165.441 187.638C166.19 189.526 166.259 191.609 166.282 193.653C166.368 196.011 166.539 198.388 166.748 200.715C167.174 203.664 167.866 208.74 163.856 209.085C162.303 244.33 159.059 279.483 164.016 314.831C168.131 334.379 166.556 358.033 161.467 377.159C161.174 378.104 160.42 378.955 159.457 378.652C158.968 378.969 158.586 379.167 158.181 378.869C157.943 379.31 157.682 379.735 157.399 380.147C157.293 385.402 156.698 390.557 156.968 395.846C157.372 395.799 158.261 395.354 158.606 395.645L158.656 396.048L158.984 396.161C159.672 398.104 160.104 400.144 160.424 401.79C161.816 404.611 163.595 409.603 162.603 412.746C162.651 412.802 162.918 413.113 162.96 413.16C163.197 413.296 163.241 413.477 163.298 413.686C163.974 413.94 164.043 414.713 164.113 415.503C164.451 417.419 163.949 419.16 163.776 421.034L163.766 421.021C163.766 421.021 163.198 421.679 163.198 421.68C156.068 422.115 149.047 422.226 141.949 422.482C141.413 421.454 141.252 420.066 140.849 418.938C132.434 425.101 117.854 422.743 107.285 421.23C102.992 420.61 98.9367 420.025 95.3412 419.83C95.1072 419.797 95.0905 419.696 95.0844 419.603C95.0491 418.192 94.7841 416.746 94.9163 415.377C94.1739 414.655 94.5123 413.339 95.0225 412.184C96.8986 408.115 101.998 407.67 106.13 406.976C113.902 405.465 120.153 402.625 125.209 398.282C124.869 397.974 124.56 397.671 124.278 397.375C124.388 397.302 124.498 397.229 124.608 397.155C124.874 397.038 125.128 396.918 125.362 396.767C125.48 396.834 125.629 396.848 125.776 396.765C126.285 396.479 126.699 396.059 127.181 395.738C127.277 395.876 127.373 396.016 127.47 396.163C127.933 395.674 128.457 395.121 128.915 394.609C128.931 394.468 128.894 394.115 129.067 394.076C130.368 394.208 131.876 394.647 133.238 395.135C134.777 390.071 135.669 384.591 135.566 379.415C134.052 379.415 132.726 379.401 131.598 378.681C131.289 378.764 130.86 378.943 130.78 378.458C130.322 376.476 130.203 374.377 130.087 372.348C127.745 333.963 124.175 303.118 112.336 270.602C111.199 275.117 109.29 279.812 107.553 284.307C99.6506 303.09 93.9572 323.347 89.0769 343.063C87.1567 350.442 85.0695 358.551 83.0079 365.854C82.2084 369.365 80.5832 370.65 77.1775 370.622C74.5532 370.746 71.9198 370.707 69.2849 370.522C65.6926 373.801 64.2196 378.227 63.1701 382.212C64.0445 382.863 65.4322 382.618 66.4545 382.833C67.336 384.255 67.0309 386.244 67.0103 387.999C66.872 390.279 66.9898 392.725 66.3269 394.877C66.2085 397.232 66.1938 399.811 66.017 402.548C67.9644 403.679 67.6077 406.177 66.9609 408.567C66.6719 409.175 56.205 409.055 53.6086 409.029C50.5576 408.852 46.2068 409.632 45.2063 406.283C37.9426 410.323 26.8918 408.958 18.4294 407.769C12.2878 407.02 6.72374 406.322 0.692537 405.051C0.630198 405.024 0.542581 404.83 0.58632 404.741Z" fill="#D08B5B"/>
<path d="M162.176 205.318C160.332 205.121 141.565 206.582 139.69 206.145L139.607 206.125L138.877 205.95L138.454 206.57C136.361 209.633 135.306 211.644 134.779 213.685L134.743 213.831L134.728 213.892C134.284 215.732 134.249 217.435 134.49 220.891L134.515 221.242L134.543 221.624L134.61 222.517L134.609 222.523C134.492 222.897 134.13 223.008 133.68 222.755L133.648 222.737L133.634 222.728L133.586 222.694C132.621 222.016 131.972 221.121 131.54 219.945L131.511 219.862L131.482 219.779C131.135 218.769 130.955 217.683 130.802 215.942L130.775 215.624L130.69 214.556C130.569 213.062 130.478 212.267 130.308 211.42L130.285 211.309L129.8 209.039L128.367 210.725C127.649 211.57 127.21 212.722 126.937 214.231L126.905 214.413C126.757 215.28 126.672 216.148 126.583 217.541L126.558 217.944L126.48 219.262L126.45 219.744C126.331 221.529 126.213 222.458 125.976 223.334L125.951 223.425L125.933 223.488C125.624 224.551 125.205 225.093 124.595 225.264L124.558 225.273L124.544 225.277L124.52 225.275C123.825 225.229 123.65 224.892 123.699 223.768L123.704 223.658L123.707 223.603L123.715 223.479L123.733 223.25L123.721 223.11C123.674 222.58 123.58 222.137 123.374 221.386L123.352 221.305L123.149 220.581L123.104 220.408C122.603 218.459 122.499 216.306 122.776 214.113L122.795 213.967L123.516 208.596L120.775 213.269C118.96 216.365 117.886 219.895 117.601 223.577L117.588 223.742L117.579 223.878C117.44 224.126 117.172 224.183 116.947 224.014L116.924 223.996L116.902 223.978C116.315 223.443 115.954 222.477 115.616 220.772L115.599 220.683L115.467 219.991L115.406 219.678L115.37 219.522C114.727 216.733 114.593 214.517 115.077 212.51L115.101 212.413L115.977 208.937L113.315 211.335C112.89 211.718 112.457 212.088 112.019 212.443C111.183 213.115 110.517 213.193 110.13 212.898C109.715 212.582 109.529 211.811 109.796 210.787L109.812 210.729L110.289 208.99L108.529 209.374C102.608 210.664 97.1745 211.295 92.1156 211.152C86.2941 210.987 81.116 209.793 76.6244 207.426L76.4797 207.349L75.1941 206.663L74.8992 208.091C74.4702 210.17 74.5773 212.307 75.1366 214.644L75.1764 214.808C75.5655 216.389 76.0755 217.829 77.0194 220.163L77.1186 220.408L77.5659 221.503L77.8994 222.326L78.0557 222.719C78.5314 223.933 78.6837 224.832 78.5795 225.371C78.5241 225.658 78.433 225.753 78.2146 225.802C77.4092 225.981 75.8096 225.321 74.3475 224.071L74.285 224.017L72.7847 222.699L72.2914 225.014L72.4085 225.317C72.6875 226.04 72.7849 226.729 72.6697 227.278L72.6574 227.332L72.5442 227.804L72.8183 228.204C72.8398 228.236 72.8381 228.274 72.7829 228.359C72.7128 228.466 72.6038 228.533 72.5228 228.54L72.5047 228.541L71.5647 228.51L71.3966 229.436L71.3039 229.952C70.8342 232.597 69.7395 243.05 68.0197 261.31C67.4548 268.471 60.7557 316.443 59.4965 322.566C56.6531 337.322 53.2557 350.126 48.8424 361.989L48.7083 362.349L48.3472 363.313L49.2887 363.729C57.9238 367.545 67.8467 369.279 77.8735 368.861L78.1548 368.849L78.2642 368.848C80.4785 368.814 81.5882 367.875 82.1468 365.736L82.1805 365.603L82.1961 365.538L82.2155 365.455L82.5827 364.207C83.7512 360.218 97.0317 311.091 99.1939 304.273L99.3353 303.828L99.5964 303.012L99.8254 302.303C102.844 292.991 106.02 284.785 109.648 277.155L109.773 276.894L109.797 276.849C110.205 276.103 110.53 275.326 110.897 274.277L110.937 274.163L111.014 273.938L111.072 273.766L111.422 272.711L111.543 272.35L111.593 272.185C112.021 270.747 112.255 269.37 112.272 268.022L112.273 267.883L112.273 267.865L112.34 268.017C113.764 271.241 115.378 275.5 117.038 280.563L117.104 280.766L117.316 281.418C121.84 295.453 125.075 310.482 127.426 327.429L127.554 328.353C129.308 341.217 130.465 354.003 131.717 372.601L131.834 374.343L131.97 376.415L132.813 376.563C133.777 376.733 134.609 376.962 135.348 377.272L135.449 377.315L135.621 377.39L135.809 377.403L138.271 377.58C138.474 377.594 138.66 377.606 138.839 377.618L139.365 377.649C146.656 378.126 152.727 377.772 158.35 376.295L158.522 376.249L158.738 376.196L160.78 375.685L166.637 342.244L163.007 310.897L162.876 309.956C160.724 294.18 163.24 223.023 163.412 218.321L163.448 217.32L163.482 216.353L163.527 215.644L163.687 212.873L163.713 212.463C163.867 210.092 164.052 208.482 164.389 206.894L164.651 205.679L163.515 205.497C163.074 205.426 162.628 205.366 162.176 205.318Z" fill="#E86BBB"/>
<path fill-rule="evenodd" clip-rule="evenodd" d="M96.451 414.243C95.6015 415.224 95.3109 416.775 95.5791 418.897C95.6585 418.928 116.079 422.526 129.873 422.388C135.498 422.332 139.427 418.461 141.353 418.461C141.934 418.461 141.634 422.166 143.823 421.806L163.895 420.918L164.312 414.243L162.278 412.061C152.535 414.002 145.173 414.73 140.19 414.243C131.343 413.378 98.3401 412.061 96.451 414.243ZM3.01502 399.407C2.035 400.221 1.43078 401.702 1.20234 403.851C12.2734 406.395 19.6695 407.706 23.3908 407.783L24.4702 407.804L25.7131 407.822C27.3166 407.842 37.89 409.297 44.7197 406.097C45.9878 405.503 48.2598 408.226 50.2679 408.234C54.8756 408.252 60.4856 408.121 67.0979 407.843C67.1242 407.382 67.505 405.106 67.5413 404.395C66.6969 402.681 66.2585 401.357 66.226 400.425C66.1605 398.543 53.9947 400.592 40.5057 400.425C23.6051 400.215 4.4966 398.175 3.01502 399.407Z" fill="white"/>
<path fill-rule="evenodd" clip-rule="evenodd" d="M128.843 63.9405C128.374 63.8458 127.97 63.9854 127.685 64.243C127.624 64.8787 127.631 65.5127 127.683 66.1469C127.736 66.192 127.794 66.2357 127.858 66.2763L127.809 66.2452C127.765 66.2167 127.735 66.1957 127.715 66.1803C128.334 70.3136 131.2 73.8297 134.916 75.6987C135.145 76.0783 135.665 76.0526 136.039 76.2238L136.564 76.3892C138.009 76.8428 139.471 77.2716 141 77.3001C137.113 88.231 121.915 94.1697 111.163 94.9767C101.877 95.4667 96.7248 87.7564 99.1744 79.1083C104.553 78.4113 109.842 72.6816 107.892 67.1451L107.831 66.9774C107.818 66.9208 107.742 66.941 107.736 66.9905C107.677 67.5548 107.341 68.1761 107.191 68.7273L107.123 68.9231C106.605 70.4159 106.146 72.1959 104.685 72.9904L104.435 72.9961C101.806 73.0647 99.061 73.4124 96.7463 74.7156C94.1652 75.2234 91.6981 76.2472 89.4013 77.5157C71.2629 87.3756 74.166 108.348 73.6009 125.813C71.841 149.745 57.2782 173.662 65.8673 197.688C61.9455 207.694 61.6422 221.142 70.2018 228.776C70.1078 228.923 70.0286 229.086 69.9622 229.252C69.5547 230.27 69.4286 231.436 69.2364 232.517L69.2139 232.641C68.7509 235.155 68.4178 237.694 68.0923 240.228C67.4503 245.227 66.9839 250.248 66.5395 255.269L66.4762 255.986C65.3637 268.606 64.3919 281.254 62.9327 293.841L62.6603 295.707C60.685 309.182 58.5338 322.69 55.2935 335.895C55.1979 336.249 55.1028 336.603 55.0053 336.957C53.8376 341.193 52.4631 345.358 51.1714 349.555C50.7623 350.883 50.3093 352.192 49.8316 353.49L49.238 354.965C49.1388 355.211 49.0395 355.457 48.9398 355.703C47.8866 358.296 46.7648 360.861 45.5837 363.399C45.3707 363.857 45.6809 364.278 46.0465 364.396C44.9682 366.108 44.5616 368.148 43.6606 369.966C42.3721 372.865 40.8456 375.685 38.9409 378.228C37.8872 377.434 36.7102 378.459 35.8341 379.044C35.2717 379.394 34.5423 379.657 34.3214 380.276C33.8971 380.52 33.4844 380.789 33.0935 381.058L33.0545 380.931C32.5797 379.41 31.6505 377.368 30.1409 376.689C28.3758 375.946 26.9677 377.427 27.4961 379.199C27.82 380.783 28.3255 382.299 28.8649 383.826C23.4351 387.109 17.4973 389.598 11.251 390.847L11.0379 390.889C9.53105 391.189 7.99947 391.397 6.61754 392.114C4.32843 393.372 2.85016 395.764 1.92539 398.155C1.60425 398.233 1.30927 398.514 1.23806 398.822L0.628663 401.46C0.42577 402.339 0.223786 403.218 0.0247075 404.098C-0.084277 404.575 0.170019 405.176 0.696051 405.282C4.3216 406.008 7.96458 406.643 11.6236 407.181C22.0104 408.143 35.3745 411.528 45.0193 406.776C46.5582 409.943 50.8432 409.037 53.7511 409.276C55.5174 409.145 67.9152 409.82 67.7971 408.32L67.8657 408.062C68.4138 405.967 68.9079 403.151 66.9107 401.708C67.0359 399.343 67.1291 396.976 67.1679 394.61C67.8636 392.364 67.7429 389.88 67.8844 387.535C67.8661 385.788 68.273 383.77 67.319 382.207C67.2353 381.172 64.9357 381.724 64.1744 381.345L64.2416 381.099C65.2919 377.287 66.7518 373.577 69.7007 370.786C72.2502 370.956 74.8068 370.986 77.3585 370.866C81.2443 370.882 83.0167 369.196 83.8628 365.536C84.4688 363.389 85.0602 361.238 85.6429 359.083C90.189 342.136 94.3171 325.039 99.3411 308.223C101.262 302.587 103.386 297.02 105.529 291.467C106.98 287.704 108.435 283.941 109.888 280.178C110.634 278.245 111.37 276.3 112.018 274.332C112.218 273.727 112.399 273.119 112.57 272.508C123.839 303.859 127.414 337.167 129.408 370.243C129.59 372.884 129.622 375.554 130.219 378.139C130.402 378.935 131.073 379.154 131.666 378.98C132.758 379.559 133.565 379.627 134.971 379.649L134.96 380.102C134.88 383.353 134.682 386.594 133.945 389.768C133.653 391.093 133.13 392.382 132.846 393.701C131.701 393.311 130.531 393.017 129.328 392.873C128.721 392.801 128.374 393.31 128.349 393.832C128.125 394.079 127.9 394.323 127.67 394.566L127.554 394.417C126.474 393.02 125.089 391.105 123.211 390.948C122.356 390.895 121.576 391.378 121.39 392.248C121.211 394.247 122.865 396.436 124.261 397.762C119.09 402.044 112.681 404.518 106.139 405.779L105.884 405.822C101.687 406.509 96.5108 407.051 94.5099 411.397L94.4678 411.49C93.9984 412.549 93.5548 414.154 94.3195 415.125C94.2292 416.45 94.4739 417.814 94.5055 419.152C94.539 419.696 94.9051 420.012 95.4239 420.072C108.777 420.789 129.131 427.046 140.568 419.602C140.804 420.426 141.046 421.25 141.272 422.077C141.37 422.442 141.738 422.741 142.123 422.726C149.203 422.472 156.306 422.356 163.376 421.925C163.582 421.928 163.754 421.836 163.897 421.67C164.063 421.874 164.487 421.818 164.544 421.529C164.644 421.02 164.644 420.505 164.69 419.99C164.743 419.393 164.902 418.843 164.995 418.261C165.167 417.184 165.09 416.029 164.983 414.949L164.956 414.676C164.881 413.962 164.749 413.151 164.104 412.746L164.061 412.721C164.059 412.719 164.057 412.718 164.054 412.717C163.983 412.489 163.814 412.293 163.6 412.137L163.587 412.122C163.924 411.318 163.794 410.299 163.696 409.461C163.425 406.543 162.609 403.656 161.264 401.065C160.88 399.095 160.416 397.056 159.725 395.182C159.744 395.096 159.636 395.023 159.553 395.061C159.525 395.046 159.496 395.034 159.469 395.025C159.465 394.996 159.459 394.968 159.45 394.94C159.331 394.588 158.962 394.395 158.617 394.34C158.324 394.294 158.071 394.372 157.808 394.438C157.619 389.346 158.22 384.262 158.282 379.172C158.765 379.407 159.308 379.198 159.754 378.929C161.047 379.128 161.964 378.024 162.319 376.863L162.527 375.922C164.391 367.451 166.071 358.905 166.974 350.269C168.223 338.215 166.715 326.15 164.882 314.237C159.909 282.87 163.512 251.162 163.866 219.622C164.163 216.179 164.285 212.697 164.662 209.256C166.065 209.089 167.125 207.775 167.599 206.516C168.342 204.52 167.806 202.217 167.618 200.167C167.41 197.893 167.258 195.615 167.159 193.336L167.147 192.671C167.113 190.893 167.036 189.104 166.447 187.412C172.732 182.569 181.068 178.764 183.728 170.667C184.938 169.576 184.694 164.52 184.891 162.665C185.699 146.619 184.331 130.466 180.865 114.781C176.526 93.4056 167.639 74.2512 142.729 75.1664C142.748 75.152 142.768 75.1358 142.787 75.1198C142.524 75.0325 142.252 75.1184 142.059 75.2929C137.818 75.8381 133.763 73.3299 131.645 69.725C131.124 68.8261 130.738 67.8879 130.531 66.8683L130.515 66.7869C130.3 65.6656 130.239 64.2215 128.843 63.9405ZM161.024 413.019C161.626 413.352 162.285 413.392 162.839 413.836C163.228 415.968 163.196 418.181 162.728 420.297C156.088 420.368 149.438 420.704 142.8 420.933C142.533 419.904 142.28 418.87 142.001 417.845L141.994 417.823L141.98 417.783C141.291 417.806 140.602 417.826 139.913 417.843C129.718 425.157 108.598 418.942 96.2914 418.332L96.165 416.282C96.2895 416.369 96.4129 416.417 96.5313 416.434C96.417 416.135 96.6203 415.746 97.026 415.859C97.6809 416.043 98.339 416.211 98.9995 416.37C99.0496 416.35 99.1064 416.341 99.1701 416.346C104.947 416.84 110.748 416.794 116.54 416.811C122.313 416.829 128.08 417.072 133.853 417.056C136.208 417.049 138.562 417.014 140.916 416.944C147.696 415.684 154.427 414.196 161.024 413.019ZM2.77955 400.523C3.06528 400.73 3.43853 400.748 3.83535 400.802L3.8922 400.81C4.25505 400.863 4.61862 400.912 4.98379 400.94C5.88603 401.524 7.68311 401.445 8.5531 401.611C27.6502 403.521 46.88 401.254 65.9966 402.789C66.9091 404.092 66.6867 405.705 66.2015 407.161C60.8635 407.362 55.5202 407.471 50.1794 407.24L49.7525 407.224C49.093 407.198 48.4164 407.15 47.8064 406.901C47.2616 406.678 46.5922 406.126 46.6775 405.465L46.6831 405.427C46.8139 404.668 46.0176 403.779 45.2431 404.319C37.9387 409.17 28.014 406.731 19.7843 406.254C13.8541 405.625 7.95586 404.731 2.10267 403.597C2.3295 402.573 2.55489 401.548 2.77955 400.523ZM136.183 379.035C136.795 379.105 137.409 379.168 138.023 379.224C140.486 379.446 142.957 379.558 145.429 379.629L146.582 379.661C148.886 379.723 151.203 379.778 153.502 379.652C154.665 379.589 155.857 379.452 156.981 379.136C155.992 384.328 155.483 389.615 155.499 394.899C155.19 395.167 155.253 395.609 155.335 395.947L155.257 396.177C155.077 396.714 154.905 397.26 154.836 397.81C147.701 402.058 141.776 397.707 135.27 394.661C136.342 391.869 136.669 388.808 136.848 385.844C136.948 383.538 136.776 381.287 136.183 379.035ZM123.212 392.747C123.509 392.781 123.785 392.968 124.026 393.132C125.018 393.844 125.876 394.686 126.659 395.596C126.358 395.893 126.051 396.185 125.739 396.472C124.567 395.526 123.646 394.209 123.212 392.747ZM47.3676 365.751L48.3337 366.077C54.2981 368.08 60.3861 369.96 66.7218 370.522C66.3817 370.859 66.0955 371.259 65.8441 371.684C65.6249 371.87 65.4041 372.108 65.4663 372.391C65.2628 372.802 65.0826 373.22 64.9112 373.614C63.9089 376 62.7521 378.348 61.9074 380.804C61.6623 381.829 60.6984 383.263 61.1476 384.255C54.412 387.191 46.0334 385.884 40.8881 380.513L41.0695 380.245C44.0263 375.86 46.6248 371.044 47.3676 365.751ZM29.0989 378.145C29.5072 377.793 30.2236 378.765 30.4052 379.006C31.0766 379.9 31.5387 380.879 31.8816 381.903C31.4503 382.2 31.0157 382.478 30.5767 382.761L30.5526 382.721C30.1443 382.015 28.6755 378.592 29.0989 378.145ZM157.191 378.069L157.183 378.106C156.822 378.162 156.46 378.212 156.096 378.253C155.212 378.354 154.317 378.399 153.424 378.417C154.68 378.236 155.936 378.089 157.191 378.069ZM147.618 207.378L147.915 207.348L148.297 207.301C153.199 206.691 158.138 205.876 163.074 206.668C162.391 209.834 162.345 213.15 162.124 216.393C161.071 247.627 157.277 279.038 161.527 310.198L161.659 311.142C163.208 322.224 165.051 333.345 164.309 344.574C163.731 354.81 161.65 364.872 159.582 374.888C159.085 375.013 158.588 375.138 158.09 375.261C158.075 375.122 157.989 375.201 157.972 375.29C151.849 376.926 145.459 377.067 139.167 376.656C137.981 376.587 136.8 376.491 135.614 376.41C134.701 376.012 133.724 375.758 132.733 375.584C130.643 343.799 127.907 311.651 118.084 281.178C111.831 261.818 104.021 242.967 99.3997 223.112C99.2398 222.555 98.397 222.789 98.5339 223.352L98.6782 224.113C99.8515 230.331 100.909 236.569 102.736 242.647C101.349 241.135 99.7672 239.8 98.458 238.217C98.0497 237.718 97.6748 237.193 97.3521 236.633C97.0462 235.939 96.5549 235.396 95.7945 235.234C95.4457 235.093 95.1217 235.389 95.0069 235.682C94.687 236.489 94.8219 237.064 95.2877 237.775L95.4042 237.95C97.4588 240.99 100.747 242.766 103.461 245.152C105.733 252.744 108.348 260.228 110.911 267.723C110.943 269.215 110.673 270.687 110.237 272.109C109.741 273.57 109.296 275.119 108.534 276.49C97.9345 298.669 92.5932 322.835 86.153 346.435C84.4577 352.729 82.741 359.02 80.8925 365.271L80.8659 365.385C80.4449 367.146 79.7878 367.855 77.8585 367.853C68.1919 368.298 58.2663 366.718 49.4601 362.826C54.3107 349.868 57.6789 336.458 60.2978 322.867C61.6191 316.443 62.6898 309.968 63.5914 303.468C64.8471 295.168 65.9549 286.85 67.0773 278.574C69.3742 262.353 69.2732 245.847 72.2 229.725C73.1996 229.758 74.0564 228.569 73.4483 227.682C73.6603 226.799 73.4711 225.834 73.1562 225.019L73.194 224.841C76.6229 227.89 81.098 228.275 78.8015 222.415L78.6429 222.017C76.9184 217.717 74.7243 213.123 75.6977 208.406C85.6441 213.721 97.802 212.864 108.492 210.534C107.659 213.565 109.902 215.423 112.433 213.388C112.889 213.019 113.337 212.636 113.775 212.241C113.132 214.794 113.478 217.471 114.072 220.002L114.129 220.294C114.418 221.812 114.746 223.828 115.9 224.879C116.741 225.644 118.008 225.318 118.386 224.226C118.597 220.613 119.604 217.058 121.447 213.916C121.138 216.213 121.214 218.572 121.779 220.774C121.997 221.617 122.299 222.476 122.371 223.347L122.36 223.49C122.251 225.025 122.455 226.435 124.368 226.466C128.902 225.666 126.041 214.923 128.929 211.526C129.806 215.626 128.784 221.016 132.771 223.737C133.872 224.427 135.216 224.027 135.44 222.688L135.361 221.637C134.885 215.22 134.974 213.296 139.085 207.281C141.872 207.949 144.791 207.663 147.618 207.378ZM66.8409 372.298C66.838 372.322 66.8366 372.346 66.8351 372.37C66.7876 372.419 66.7402 372.468 66.6931 372.518L66.6229 372.593L66.7043 372.392C66.7494 372.363 66.7959 372.33 66.8409 372.298ZM70.5832 229.107L70.77 229.265C70.8014 229.291 70.8328 229.317 70.8646 229.343C70.6988 230.083 70.5438 230.825 70.3934 231.568L70.4226 231.078C70.4498 230.597 70.3735 229.724 70.5832 229.107ZM73.6102 163.328C75.0127 156.794 76.4106 154.037 74.6344 163.448L74.4416 164.465C73.6723 168.54 72.8616 173.16 72.1003 178.133L71.9415 179.174C71.1469 184.331 69.8977 191.88 69.8054 197.927C69.7007 204.789 73.1803 206.825 74.5556 207.714C74.8129 208.469 74.4862 209.098 74.2693 209.823C73.9772 210.987 73.9016 212.105 73.9848 213.301C74.2735 217.38 76.4506 221.065 77.44 224.936C76.1722 224.587 74.7578 223.443 73.6503 222.537C71.6836 220.97 70.3111 218.65 69.7181 216.188C69.4362 215.026 69.6411 213.59 68.8506 212.638C68.6181 212.357 68.1153 212.385 67.8784 212.638C67.2333 213.326 67.2943 214.169 67.3989 215.049C67.7504 218.043 69.0656 220.978 71.1843 223.133C71.2841 224.239 71.6137 225.225 71.8324 226.277C71.7481 226.512 71.6638 226.748 71.5839 226.985C70.1488 225.744 68.949 224.243 68.0194 222.589C63.8707 215.295 65.3195 206.895 66.3934 198.94C66.6088 199.473 67.1 199.685 67.5777 199.633C67.8522 200.321 68.5696 199.882 68.5981 198.993C68.7756 193.45 69.5111 185.57 70.8646 177.498C71.6711 172.688 72.6479 167.812 73.6102 163.328ZM126.001 188.497C128.058 194.89 136.168 196.137 140.905 200.037C138.526 206.321 131.866 213.051 133.826 221.157L133.837 221.218C133.896 221.528 134.089 222.404 133.881 222.569C133.749 222.674 132.935 221.878 132.792 221.721C129.943 218.326 131.601 213.525 129.998 209.654C129.787 209.139 129.131 208.835 128.686 209.308C126.682 211.434 126.198 214.3 125.891 217.1L125.88 217.196C125.633 219.374 125.769 221.618 125.124 223.736L125.1 223.81C124.963 224.22 124.707 224.797 124.421 224.901C123.632 225.187 123.928 223.922 123.901 223.422C123.818 221.976 123.205 220.622 122.99 219.198C122.531 216.143 122.988 212.939 124.001 210.043C124.322 209.123 123.058 208.798 122.57 209.439C120.543 212.104 118.918 215.065 117.847 218.243C117.416 219.525 117.186 220.822 116.898 222.128C115.103 216.673 115.155 210.938 119.22 206.466C120.182 205.31 118.579 203.643 117.543 204.789C116.469 206.071 115.417 207.367 114.249 208.567C113.097 209.729 111.987 211.16 110.563 211.989C110.794 206.767 116.39 204.408 119.374 200.833C122.417 197.232 124.081 192.741 126.001 188.497ZM152.895 144.402C153.985 147.719 155.261 150.978 156.246 154.33C156.45 156.599 155.753 157.54 154.088 158.98C153.368 154.865 153.069 150.691 152.684 146.531C152.743 145.82 152.755 145.103 152.895 144.402ZM152.357 142.771L152.466 143.107L152.43 143.171L152.395 143.237L152.357 142.771ZM85.9404 101.256L85.5243 104.003C83.9956 114.074 82.4185 124.143 80.2488 134.098C80.1292 134.647 79.4235 133.91 79.5533 132.848C80.8877 121.925 85.9216 101.127 85.9413 101.246L85.9404 101.256ZM98.785 79.1708C98.6876 79.287 98.5961 79.4092 98.5074 79.533C98.5263 79.4223 98.5452 79.3103 98.5656 79.1983C98.6397 79.1896 98.7123 79.181 98.785 79.1708Z" fill="black"/>
<path fill-rule="evenodd" clip-rule="evenodd" d="M116.427 12.9771C108.193 12.9771 99.6771 19.3787 96.6591 23.4637C93.1692 28.1873 90.4163 50.8628 91.7078 58.5571C92.9992 66.2514 99.4142 74.6377 110.55 74.6377C121.687 74.6377 128.464 73.2618 128.736 71.2633C128.917 69.931 131.365 65.5568 136.081 58.1407C140.904 56.78 143.325 54.4746 143.344 51.2243C143.362 47.9741 142.07 45.7577 139.467 44.5751C140.395 31.7483 139.69 23.6651 137.352 20.3256C133.846 15.3163 124.66 12.9771 116.427 12.9771Z" fill="#D08B5B"/>
<path fill-rule="evenodd" clip-rule="evenodd" d="M121.978 0.553364C120.871 -0.753771 118.918 0.481772 118.962 1.91015C118.52 2.03017 117.999 2.44429 117.797 2.98419C117.362 2.95588 116.924 3.04261 116.528 3.26935L116.445 3.16638C115.075 1.48914 113.263 0.0498752 111.393 1.28503C110.884 1.62118 110.656 2.1767 110.768 2.77885L110.777 2.82148L110.735 2.63557C110.693 2.45892 110.756 2.81237 110.78 2.88716L110.783 2.89564C110.832 3.02157 110.881 3.08499 110.926 3.1802C109.011 1.8157 106.096 2.61442 107.632 5.25578L107.007 5.01139C104.846 4.17352 102.158 3.27379 100.188 4.78021C99.3073 5.63009 100.285 6.76332 101.182 7.03803L101.028 7.01215C99.3059 6.7188 95.713 5.99373 95.1997 8.24255C95.0151 9.05171 95.5534 9.64307 96.2327 9.96864C94.7955 9.96335 93.3781 10.201 92.1345 10.9045C90.9516 11.7477 91.9076 13.1431 93.1447 13.0822C92.7612 13.558 92.6339 14.363 93.0042 14.8769C92.3012 15.062 91.6526 15.3001 91.0548 15.6712L90.8905 15.6924C89.6956 15.842 88.3323 15.931 87.675 17.1081C86.7076 19.6623 90.1525 19.5606 91.6312 18.6635C91.5434 18.8065 91.4783 18.9627 91.4418 19.1295L90.9627 19.2644C89.1551 19.7687 87.1093 20.3258 85.9454 21.8518C85.412 22.73 86.1544 24.2224 87.2698 23.9557C84.2473 25.3995 85.4058 29.203 88.3616 27.2245C88.4998 27.3528 88.668 27.4482 88.8441 27.4902L88.2204 27.8294C86.6362 28.6994 84.731 29.8904 85.0618 31.8656C85.3764 32.9109 86.822 32.7198 87.5567 32.3198C86.273 33.4271 85.0617 34.626 83.9613 35.9222L83.6568 36.2855C82.8011 37.3143 81.3123 39.2082 82.925 40.1979C84.9131 41.2129 85.9039 38.2157 87.0602 37.1459C86.1357 39.328 89.1414 40.8498 90.1905 38.6519C90.3667 38.6829 90.5439 38.6861 90.7176 38.6627C89.8131 39.6244 87.3668 46.2047 90.4096 44.7618C90.8942 44.2475 91.3195 43.6855 91.7104 43.0955C91.2219 46.8656 90.8646 50.6536 90.6335 54.4442L90.5513 55.8184C90.4673 57.2437 90.4037 58.6751 90.5633 60.0957C90.7476 61.7495 91.2216 63.3014 91.9394 64.7996C92.6008 66.1814 93.4534 67.4614 94.4292 68.6381C94.9512 69.2679 95.5051 69.8802 96.1866 70.3412C96.7291 70.7079 97.3628 70.9493 97.9733 71.182C98.9664 72.1769 100.241 72.9289 101.487 73.5296C103.54 74.5172 105.766 75.0627 108.018 75.3361C110.32 75.6138 112.646 75.547 114.93 75.15C117.112 74.7718 119.452 73.8045 120.796 71.9616C120.912 71.8031 120.696 71.6533 120.554 71.7187C116.653 73.5296 112.269 74.0023 108.018 73.4307C106.034 73.1645 104.082 72.6147 102.271 71.7609C100.743 71.0409 99.4538 69.9937 98.082 69.0453C97.815 68.689 97.5455 68.3384 97.2379 68.0126L96.7581 67.5079C96.3995 67.1288 96.0473 66.7446 95.7271 66.3297C94.738 65.0512 93.9189 63.6011 93.3779 62.0753C92.3258 59.1052 92.6103 55.8812 92.7962 52.786L92.8123 52.5132C93.0037 49.2027 93.3157 45.9039 93.7476 42.6167C93.9273 41.2487 94.1272 39.883 94.3461 38.5203C94.697 37.9477 95.0717 37.3937 95.4912 36.8747C95.1498 38.2052 96.3318 40.0549 97.7811 39.1767C99.4408 37.7536 99.3605 35.4566 100.751 33.714C102.193 31.4799 112.142 27.135 115.1 26.5249C114.623 27.2202 113.753 27.7046 113.55 28.5252C109.912 31.749 115.842 33.4651 117.693 28.8708C117.652 30.4004 117.498 31.9167 117.158 33.4097C116.664 34.7808 116.277 38.7541 118.754 37.555C119.94 37.8986 120.844 36.8854 120.993 35.7422C121.85 38.3256 121.04 42.4528 122.61 44.3568C123.092 44.8576 123.836 44.5242 124.087 43.9523C125.54 43.5706 125.416 41.8719 125.592 40.6559C126.917 45.5026 128.575 48.8667 128.803 53.9227C127.778 55.3866 130.027 56.4632 130.992 55.29C132.347 53.3269 131.098 50.6432 130.779 48.4942C131.16 48.4745 131.537 48.3048 131.852 47.9341C132.023 48.6086 131.925 49.4971 131.867 50.2286C132.726 53.5972 135.992 51.4395 135.857 48.707C135.998 49.4779 136.104 50.2566 136.172 51.0411C135.541 51.7689 135.074 52.6402 134.797 53.5649C134.599 54.233 135.276 54.6336 135.793 54.5367C136.068 55.4778 137.26 56.1569 138.045 55.2573C138.82 54.4707 138.955 53.334 139.017 52.2023C139.125 52.0872 139.19 51.9365 139.18 51.754C139.17 51.5825 139.128 51.437 139.061 51.3146C139.074 51.0833 139.091 50.8563 139.116 50.6368C139.716 52.5096 139.326 54.472 139.273 56.3901C138.213 56.9889 137.003 57.2448 135.787 57.4976L135.611 57.5342C135.235 57.6128 135.116 58.1742 135.399 58.4099C134.647 59.1488 133.997 60.0302 133.363 60.8433C132.522 61.9219 131.717 63.0434 130.934 64.1672L130.475 64.8274C129.133 66.7448 127.277 69.3423 128.108 71.7042C128.221 72.0286 128.694 72.1449 128.878 71.8046C129.483 70.6846 129.821 69.4511 130.395 68.3181C130.959 67.2068 131.661 66.177 132.357 65.1472L132.759 64.5504C133.427 63.5537 134.089 62.5463 134.703 61.5196L135.131 60.8088C135.532 60.1375 135.93 59.4439 136.226 58.7226C137.28 58.9775 138.383 58.7946 139.394 58.3537L139.407 58.4242L139.433 58.5509C139.577 59.1606 140.415 59.5774 140.951 59.1786C142.233 58.209 142.755 56.7657 142.891 55.2226C143.15 54.7868 143.369 54.3265 143.548 53.8502C143.632 54.8005 143.997 55.7219 145.124 55.6933C147.078 55.5324 147.27 53.6808 146.741 51.8392C149.055 52.548 149.326 49.2658 148.596 47.5361C148.867 47.4548 149.118 47.2928 149.262 47.0746L149.382 47.2855C149.827 48.0578 150.331 48.8076 151.033 49.2084C152.015 49.7683 153.442 49.0748 153.377 47.8417C153.167 45.8322 151.411 44.3017 150.342 42.6912C150.532 42.7182 150.73 42.7114 150.924 42.675C153.06 43.8706 154.08 41.0567 153.328 39.4264C152.776 37.9617 151.778 36.7021 150.708 35.5917L151.022 35.7797C151.588 36.1139 152.219 36.4366 152.841 36.3055C156.912 38.9884 158.248 34.4762 153.68 33.066L153.681 33.045C154.14 32.6015 154.339 31.8996 153.982 31.1985C155.658 31.7888 158.05 30.4533 156.573 28.6279C155.61 27.718 154.473 26.9354 153.213 26.5258C153.276 26.1908 153.296 25.85 153.27 25.507L153.346 25.5172C154.141 25.6321 155.122 25.9579 155.612 25.0988C155.861 24.6662 155.832 23.9533 155.424 23.617C154.02 22.4589 152.418 21.4957 150.677 21.1052C150.614 20.8927 150.547 20.6814 150.477 20.4711C151.961 20.4434 153.628 18.4656 151.923 17.345C150.424 16.5788 148.879 16.086 147.186 16.1317C148.179 15.1501 147.593 13.3709 146.273 13.0974C147.138 11.2516 145.003 10.2992 143.41 10.5903C143.469 9.77021 143.031 8.85616 142.189 8.65031C142.63 6.05526 139.891 6.30076 138.175 6.91589C138.749 5.9154 138.159 4.73844 137.145 4.38759C135.484 4.01055 133.895 5.5971 132.631 6.57003C133.062 5.55502 132.698 4.61917 131.672 4.21474C130.614 3.79956 129.474 4.60191 128.592 5.14711C128.112 4.54258 127.292 4.34551 126.557 4.3829C126.479 4.15586 126.364 3.96651 126.216 3.81681C126.22 2.41795 123.846 1.6489 123.017 2.95195C122.876 2.04591 122.504 1.17409 121.978 0.553364ZM92.273 25.9252L92.2457 26.0758C92.2105 26.107 92.1775 26.1398 92.1438 26.1718C92.0379 26.1969 91.9357 26.2234 91.8389 26.2505C91.98 26.1359 92.1254 26.0298 92.273 25.9252ZM90.4402 22.2541L90.4725 22.2989C90.478 22.3063 90.4836 22.3136 90.4895 22.3206C90.3999 22.3546 90.3107 22.3893 90.2218 22.4252L90.0886 22.4798L90.0416 22.5006C90.1739 22.4173 90.3067 22.3348 90.4402 22.2541ZM111.814 3.77337L111.894 3.7933C111.919 3.79952 111.944 3.80531 111.966 3.81061C111.974 3.81273 111.981 3.81363 111.989 3.81666L111.968 3.81212C112.006 3.84103 112.055 3.87509 112.097 3.90233C112.056 3.899 112.016 3.89507 111.975 3.8928C111.922 3.85284 111.868 3.81303 111.814 3.77337Z" fill="black"/>
<path fill-rule="evenodd" clip-rule="evenodd" d="M102.767 57.6421C102.269 56.7615 100.781 56.9047 100.554 57.9317C100.092 60.0137 102.573 61.9363 104.456 61.9843C106.328 62.0318 108.429 60.437 108.158 58.4224C108.091 57.9241 107.426 57.9846 107.199 58.2971L107.111 58.4169C106.496 59.2449 105.683 60.1018 104.54 59.9C104.067 59.8165 103.637 59.5203 103.351 59.1391C103.005 58.679 103.043 58.1297 102.767 57.6421ZM114.671 42.4102C114.417 42.3403 114.161 42.3673 113.937 42.463C113.435 42.5551 113.015 42.974 112.868 43.4523C112.856 43.4937 112.843 43.5346 112.829 43.575L112.807 43.6354L112.867 43.4821C112.839 43.6331 112.716 43.7917 112.672 43.9433C112.618 44.1296 112.605 44.3413 112.623 44.5464C112.463 44.548 112.304 44.5533 112.145 44.5672L111.991 44.581C111.13 44.661 110.185 44.8079 109.675 45.5523C109.388 45.9706 109.657 46.7238 110.184 46.8044C110.994 46.9284 111.692 46.4796 112.5 46.3897C113.263 46.3046 114.062 46.3533 114.816 46.4913C116.372 46.7761 117.801 47.4073 119.318 47.8034L119.524 47.8558L119.524 47.8548C119.783 47.9176 120.078 47.5561 119.821 47.3446C118.607 46.3457 117.052 45.5363 115.52 45.0434C115.743 44.688 115.812 44.22 115.659 43.8384C115.636 43.7594 115.606 43.6825 115.575 43.6059L115.511 43.4482C115.505 43.3739 115.49 43.3004 115.47 43.2284L115.466 43.2064L115.464 43.2078C115.35 42.8367 115.053 42.5156 114.671 42.4102ZM99.1742 42.4677C98.842 42.135 98.3752 42.1842 98.0285 42.446L97.9825 42.4821C97.6557 42.6274 97.3852 42.9449 97.2077 43.2391C97.0233 43.5447 96.9008 43.856 96.896 44.1924C96.0918 44.1951 95.3215 44.4365 94.7311 45.0864C94.5405 45.2961 94.4103 45.6196 94.5152 45.904L94.5777 46.0731C94.7759 46.6102 95.6672 46.9194 95.9702 46.2878L95.9841 46.257C96.306 45.507 97.5416 45.5857 98.1983 45.6624C98.656 45.7161 99.1081 45.8299 99.5501 45.9575C99.7059 46.0024 99.8602 46.0512 100.014 46.1011L100.169 46.1511C100.251 46.1777 100.679 46.4106 100.413 46.3555C100.341 46.3406 100.287 46.4451 100.36 46.4801C100.678 46.6321 101.017 46.3294 100.996 45.9879C100.959 45.3951 100.018 45.07 99.5657 44.8656L99.5386 44.8532C99.3651 44.7729 99.1833 44.696 98.9957 44.6246C99.1012 44.4675 99.1884 44.2929 99.2609 44.1056C99.3295 43.9287 99.3753 43.7568 99.4004 43.5687C99.4251 43.4768 99.4251 43.3849 99.4004 43.2928L99.3967 43.2665C99.4095 43.2057 99.4156 43.1429 99.4147 43.0796L99.4173 43.055H99.4147C99.4058 42.8335 99.3179 42.6115 99.1742 42.4677ZM104.482 48.781C103.206 49.1758 101.1 50.2511 101.765 51.9108C102.694 53.4352 105.157 52.3149 106.351 51.8224C107.423 51.4669 107.981 52.971 106.944 53.4244C98.3767 56.8171 98.4083 47.8632 104.172 47.9947C104.806 48.0091 104.826 48.6498 104.482 48.781ZM115.817 37.1059L115.6 37.0424C114.468 36.7144 113.314 36.148 112.309 37.0317C111.915 37.3788 111.834 38.0999 112.116 38.5328C112.759 39.5191 113.712 39.3684 114.75 39.4525C115.541 39.5165 116.32 39.7489 117.057 40.0394C117.66 40.2769 118.22 40.6113 118.748 40.9843C119.267 41.3509 119.621 41.9242 120.153 42.2542C120.348 42.3752 120.573 42.2507 120.643 42.0545C120.892 41.3585 120.472 40.4915 120.117 39.8985C119.684 39.175 119.026 38.5833 118.319 38.1356C117.544 37.6452 116.687 37.3621 115.817 37.1059ZM99.3334 36.3571C97.4212 36.3565 95.5812 37.421 94.5117 38.9816C94.1483 39.5118 94.4147 40.2972 94.9363 40.6025C95.5216 40.9452 96.1473 40.6984 96.533 40.2074L96.5559 40.1777C97.1692 39.3601 97.9599 38.7161 98.8971 38.297C99.3544 38.0923 99.8601 37.9263 100.355 37.8421L100.515 37.8147C100.739 37.7771 100.999 37.7412 101.201 37.7764C101.31 37.7906 101.409 37.8266 101.501 37.8813C101.457 37.9778 101.571 38.0942 101.677 38.0363C102.152 37.7751 102.093 37.309 101.701 36.9469C101.146 36.4344 100.05 36.3572 99.3334 36.3571Z" fill="black"/>
</svg>
