<svg width="230" height="370" viewBox="0 0 230 370" fill="none" xmlns="http://www.w3.org/2000/svg">
<path fill-rule="evenodd" clip-rule="evenodd" d="M2.92448 186.964C4.16072 186.608 5.70522 186.517 7.05771 186.452C11.8381 186.171 16.7125 188.452 21.3997 189.48C23.4515 189.988 25.6241 190.586 27.8197 191.031C29.769 191.296 31.7842 191.494 33.8103 191.621C35.448 191.67 37.3536 191.544 37.9127 193.268C41.2045 193.906 44.1184 194.172 47.2562 193.629C46.9623 192.628 46.7949 191.582 47.0988 190.504C46.9454 190.249 46.7367 189.904 46.6251 189.671H47.0023C52.5099 187.464 58.4657 185.957 64.0023 183.671C71.2287 181.064 81.8717 176.027 90.2214 172.588C89.6554 169.485 89.4457 166.332 89.6857 163.267L89.3502 162.996C89.2399 162.394 89.0686 161.673 88.7582 161.127C88.3643 160.081 88.3551 158.653 88.1987 157.471C87.8725 155.158 87.6548 151.676 88.2484 148.93C88.5076 145.207 91.0154 142.336 93.7194 140.034C97.0394 136.747 100.364 133.541 103.605 130.128C121.542 111.824 122.961 88.7713 151.042 81.7649L151.055 81.6561C151.277 81.4091 151.367 81.2131 151.619 81.6036C152.546 81.2479 153.702 81.2777 154.479 80.6765C155.857 79.418 156.835 77.9652 157.475 76.241C157.967 72.9819 157.619 67.9588 160.471 65.8735C163.64 63.9738 180.475 62.6212 181.926 66.7746C182.827 67.6214 183.237 68.6971 183.518 70.0142C184.456 71.79 185.048 73.7592 185.993 75.5623C188.002 79.6066 189.304 78.7103 192.851 79.6346C193.236 78.7758 194.404 78.9488 195.256 79.0735C205.57 80.5243 218.145 84.4836 222.561 94.187L222.185 94.139C229.808 108.474 224.865 126.703 223.501 141.894C222.399 155.397 223.66 168.965 226.657 181.56C230.335 194.921 230.546 209.868 223.248 221.962C222.506 223.347 221.603 225.303 220.005 224.435C219.129 225.097 218.145 225.555 216.786 225.954C216.411 226.226 216.024 226.683 215.631 226.878C215.613 226.904 214.981 226.54 214.948 226.53C213.755 228.235 148.237 233.931 141.438 234.815C135.448 235.538 127.533 237.384 122.651 233.059C118.617 231.905 114.396 228.902 111.172 225.92C109.216 254.317 108.134 312.475 106.388 312.88C105.625 313.139 104.593 313.45 103.729 313.698C103.724 315.738 103.572 318.056 103.732 320.062C104 322.327 104.679 325.002 104.986 327.383C106.307 327.295 106.695 328.621 106.849 329.521C107.989 336.961 107.955 342.959 107.873 351.136C94.4689 359.039 78.7589 363.385 63.6759 368.492C62.2313 369.579 59.1008 368.404 57.4327 368.11C51.6414 366.969 45.0607 363.593 46.5226 357.403C47.5929 352.742 52.0869 350.061 55.8699 347.319C60.0087 344.317 64.3717 341.319 68.178 337.745C71.2316 334.866 73.512 332.632 76.0586 329.383C77.1881 327.872 78.3926 325.389 79.912 324.275C78.3068 322.369 81.5502 324.156 82.778 324.266C83.5005 320.863 84.3948 317.595 85.4673 314.331L84.4248 314.378C81.0019 311.178 79.083 295.818 78.8447 291.261C77.1289 261.555 77.1697 227.317 84.0526 202.299C78.8245 205.521 73.0914 208.213 67.892 211.4C64.6134 213.322 61.2869 215.992 57.6118 216.924C57.3725 217.612 56.4962 217.88 56.018 217.206C55.3601 217.287 54.5126 217.014 54.4402 216.714C53.7674 215.337 52.7926 213.853 52.9099 212.356C52.91 212.356 53.8126 210.261 53.8126 210.261C51.7904 211.083 49.5917 212.815 47.433 212.973C43.0728 227.547 34.482 219.383 26.2154 213.711C21.2264 210.222 15.7691 206.369 10.5187 202.649C6.06418 199.102 -2.63249 195.736 1.63071 188.711" fill="#FFDBB4"/>
<path d="M194.077 79.9358C193.689 80.0165 193.436 80.4255 193.226 80.8485L193.184 80.9361L193.095 81.1219C191.016 87.4117 184.418 90.9209 178.47 93.2557L178.106 93.3972L177.738 93.5386C168.02 97.8574 151.894 95.8437 150.389 83.2243C127.618 89.2817 121.449 114.926 106.949 130.543C103.551 134.359 99.9803 138.014 96.5021 141.754C95.405 142.832 94.4018 144.451 92.8687 144.831C91.9495 146.277 91.2906 147.913 91.1774 149.622C96.1013 147.419 101.659 148.466 106.871 150.134C108.392 150.62 124.033 158.359 133.141 156.519C133.607 156.425 132.728 174.863 133.636 175.111C141.517 177.261 165.571 179.401 170.393 178.124C186.841 173.771 211.813 234.012 220.99 223.145C223.301 220.408 229.244 209.455 229.158 197.47C229.064 184.414 222.823 169.865 222.68 156.519C222.463 136.381 225.206 124.433 225.323 122.847C227.321 108.09 224.925 88.6175 208.308 83.8151C203.812 81.753 198.968 80.4184 194.077 79.9358ZM91.9914 152.553C90.6907 153.48 90.4163 154.916 90.5667 156.519C90.6262 157.143 90.7039 157.766 90.7832 158.388C92.4173 156.688 94.8416 156.086 97.1695 155.901C97.0798 155.741 96.9804 155.523 96.9861 155.319C95.2176 154.59 93.5483 153.665 91.9914 152.553Z" fill="#E86BBB"/>
<path fill-rule="evenodd" clip-rule="evenodd" d="M79.721 324.819L79.5011 325.128C71.4794 336.394 62.6042 344.875 53.1859 349.218L52.8694 349.363L52.84 349.38C50.1545 350.95 47.9258 353.44 47.0516 355.996C46.0283 358.988 46.8939 361.809 49.8 363.872L49.8887 363.934L49.9036 363.944C53.5614 366.337 57.8783 367.825 62.1187 368.122L62.2757 368.133L62.4814 368.146L62.6567 368.037C63.7816 367.342 64.8632 366.943 67.1745 366.279L68.1482 366L68.5502 365.883L68.7499 365.823C69.5932 365.57 70.1587 365.377 70.7511 365.137L70.9391 365.059L71.5684 364.847C82.8782 361.013 94.0504 356.619 105.045 351.689L105.691 351.398L106.682 350.95L106.705 350.559C107.208 341.991 107.187 335.152 106.471 328.709L106.447 328.499L105.158 328.621C105.347 331.133 102.835 333.259 100.463 332.457L100.392 332.432L100.358 332.421L100.259 332.39C99.591 332.175 99.0352 331.862 98.0473 331.189L97.3154 330.687L97.1293 330.562L96.9944 330.473C96.929 330.43 96.8657 330.39 96.8014 330.349L96.7109 330.292C92.6493 327.747 88.2774 326.032 83.8379 325.303C83.4715 325.236 83.0932 325.178 82.6797 325.126L82.2224 325.072L81.7521 325.023L80.293 324.88L79.721 324.819ZM4.75043 186.648L4.45972 186.96C3.49757 187.991 2.76775 189.001 2.30603 190.043C1.73 191.344 1.6082 192.631 2.03751 193.877L2.07191 193.973L2.0799 193.991C2.80224 195.651 4.49538 197.118 7.73657 199.258L8.22902 199.58C8.74838 199.917 10.1497 200.823 10.5732 201.104L10.7598 201.228C11.5219 201.738 12.0952 202.151 12.5534 202.526L12.629 202.588L13.7124 203.342L15.9418 204.896L17.5958 206.05L18.734 206.845C23.0837 209.885 27.2825 212.836 31.3843 215.736L31.5927 215.878L31.7567 215.991L31.9921 216.156L32.3244 216.391L33.428 217.182L33.6485 217.338L33.8661 217.491L34.0861 217.644L34.3089 217.797L34.5279 217.945C36.7712 219.449 38.4242 220.193 40.1848 220.296C41.438 220.369 42.6193 220.06 43.718 219.329L43.7963 219.276L43.8305 219.253L43.9486 219.146L44.0474 219.056L44.1441 218.965L44.2393 218.874C44.7438 218.387 45.2024 217.858 45.9227 216.966L46.5292 216.21L46.7714 215.911L46.9502 215.693L47.0779 215.54C47.4719 215.069 47.7716 214.742 48.1099 214.412L48.2219 214.304L48.9874 213.574L47.99 213.223C43.9672 211.807 40.6784 207.305 39.3269 202.152L39.2792 201.967L39.2691 201.938C39.0249 201.25 38.9369 200.546 38.9129 199.395L38.9012 198.517L38.8956 198.228L38.8904 198.033L38.884 197.842C38.8325 196.464 38.6806 195.68 38.2455 194.811L38.1903 194.703L38.1721 194.668L38.1497 194.636C38.1225 194.596 38.1195 194.59 38.1307 194.57L38.3598 194.181L38.0882 193.833C37.968 193.679 37.8357 193.527 37.6814 193.364L37.6139 193.294L37.4633 193.138L37.2493 193.104C30.5193 192.039 23.6114 190.468 15.3803 188.223L14.5518 187.996L14.1394 187.885L13.8608 187.811L13.585 187.738C10.8628 187.03 9.20016 186.757 7.29883 186.781L7.13747 186.784C6.96133 186.787 6.8118 186.797 6.55714 186.82L6.29396 186.844L6.17287 186.854L6.05657 186.863C5.62871 186.892 5.40111 186.876 5.17839 186.801L5.15144 186.792L4.75043 186.648Z" fill="white"/>
<path fill-rule="evenodd" clip-rule="evenodd" d="M190.317 78.7443C186.106 77.7199 185.387 67.6142 182.844 69.0533C181.374 70.3329 183.779 72.7471 184.204 74.1914L184.391 74.5582C185.253 76.2404 186.229 77.917 187.929 78.8869C189.022 80.0386 192.289 78.9078 191.808 80.7422C190.131 86.2707 181.23 90.0988 175.984 91.8202C167.83 94.8863 154.639 93.8489 152.723 83.5709C157.195 82.7511 160.502 74.6723 157.745 71.3088C157.651 74.5761 156.76 77.948 154.198 80.1616L154.056 80.2916C153.606 80.7034 153.022 81.195 152.44 81.1035C151.873 80.3124 150.771 80.7624 150.447 81.5974C124.982 86.0042 119.309 113.499 103.272 129.683C100.068 133.06 96.7193 136.292 93.4136 139.566C90.0375 142.247 87.6485 145.986 87.4819 150.375C87.1802 152.817 87.3296 155.26 87.6525 157.705L87.6749 157.926C87.8245 159.442 87.9133 161.07 88.6338 162.415C88.7581 162.871 88.7078 163.447 89.1019 163.769C88.9297 166.559 89.0935 169.399 89.5649 172.18L88.3362 172.729C74.8162 178.757 61.1401 184.439 47.0426 188.958C45.8378 188.739 45.9361 190.141 46.5193 190.779C46.3655 191.528 46.3488 192.308 46.5294 193.05C43.9479 193.421 41.3257 193.112 38.7775 192.641C37.9714 190.864 35.8296 190.959 34.1736 190.909C32.1161 190.78 30.0624 190.579 28.0199 190.293C22.9873 189.168 18.0453 187.687 13.0612 186.385C9.72588 185.446 6.12914 185.491 2.78333 186.355C2.21494 186.993 1.69002 187.674 1.24701 188.397C-1.81143 193.144 1.20219 197.495 5.47148 199.988C12.3209 204.848 19.1722 209.702 26.0523 214.518L26.5521 214.875C34.7377 220.74 43.9465 228.164 48.3181 213.889C49.7874 213.716 51.075 212.729 52.444 212.147C52.0757 213.86 53.1754 215.59 53.9335 217.059C54.26 217.895 55.1524 218.171 55.9763 218.163C56.6818 218.856 58.0058 218.583 58.4673 217.761C62.2093 216.689 65.3008 214.186 68.613 212.241C73.3225 209.377 78.2628 206.936 83.0401 204.194C75.1039 237.086 77.045 271.349 79.1569 304.83L79.1718 305.133C79.4335 310.021 80.5533 312.334 84.6035 315.33C83.8981 317.484 83.2668 319.648 82.7855 321.864C82.6155 322.378 81.8333 321.894 81.827 322.6C80.3881 322.263 77.4637 322.624 78.484 324.616C75.595 327.043 73.6391 330.331 71.1068 333.098C66.6467 338.449 60.8167 342.432 55.1004 346.356C41.9595 353.059 41.2064 364.675 56.5812 368.643L56.7353 368.679C58.8526 369.189 61.4024 370.355 63.4549 369.374C66.5252 368.782 69.5723 367.584 72.5762 366.671C84.6718 362.665 96.502 357.973 107.965 352.581C108.38 352.386 108.616 351.938 108.626 351.49C108.499 347.791 109.502 327.517 105.67 327.081C104.814 322.939 104.68 318.663 104.835 314.436C106.078 314.045 107.335 313.667 108.623 313.423C109.873 313.029 111.828 312.94 112.665 311.926C112.966 311.818 113.187 311.548 113.141 311.123C112.464 304.77 111.951 298.401 111.577 292.023C110.294 270.633 110.73 249.177 112.19 227.811C115.2 230.417 118.63 232.698 122.448 233.911C124.556 236.025 127.935 236.479 130.812 236.735C134.511 236.964 138.146 236.224 141.797 235.764C147.996 234.983 154.153 235.674 160.308 236.441L162.411 236.703C177.479 238.358 193.763 238.7 207.807 232.253C210.451 232.488 213.734 229.627 215.383 227.716C216.112 228.166 216.827 227.287 217.408 226.824C218.366 226.533 219.452 226.114 220.322 225.503C222.527 226.226 223.717 223.36 224.554 221.801C237.85 199.01 223.043 176.323 224.157 152.154C223.482 133.206 232.116 113.465 223.772 95.2924C222.084 87.602 212.21 82.2871 204.779 80.3325C202.384 79.9367 193.318 76.6555 192.32 79.4147C191.847 78.7937 191.041 78.7471 190.317 78.7443ZM80.0286 325.504C81.2746 325.638 82.4896 325.715 83.721 325.941C88.2163 326.679 92.5042 328.421 96.3672 330.842C97.6181 331.622 98.7348 332.606 100.17 333.041C103.121 334.114 106.02 331.451 105.804 328.573C106.626 335.807 106.485 343.25 106.058 350.521C94.5189 355.746 82.721 360.405 70.7088 364.453C68.0037 365.588 64.8007 365.951 62.3165 367.485C58.0802 367.218 53.8161 365.729 50.258 363.401C44.3561 359.302 48.2742 352.8 53.1668 349.94C63.937 345.074 73.1046 335.229 80.0286 325.504ZM103.626 314.806C103.851 316.95 102.224 320.291 102.453 324.565C102.63 325.899 103.046 327.297 102.901 328.637C102.238 333.607 96.8623 327.291 94.6407 326.599C91.487 324.863 88.0597 323.681 84.5374 323.034C84.5589 321.888 85.3169 321.43 85.4164 320.298C85.5593 318.629 85.5521 317.026 85.6273 315.341C90.2086 317.427 98.7666 315.952 103.626 314.806ZM78.9424 325.18C79.0222 325.233 79.1066 325.278 79.1931 325.319C78.5564 326.091 78.0049 326.947 77.2497 327.611L77.5712 327.111C78.0013 326.444 78.4413 325.78 78.9424 325.18ZM221.226 147.366C221.457 148.305 221.877 149.188 222.507 149.939C219.255 176.334 235.987 198.338 220.603 222.88C220.409 222.97 220.231 223.083 220.061 223.224C219.97 223.164 219.88 223.1 219.791 223.037C212.58 210.265 202.316 199.248 194.138 187.025C192.568 183.957 189.984 180.869 188.994 177.325C205.43 170.829 211.995 161.35 221.226 147.366ZM4.93312 187.402C5.63 187.652 6.40543 187.446 7.14908 187.432C9.78935 187.376 12.3696 188.065 14.8949 188.762C22.2397 190.773 29.6232 192.553 37.1481 193.744C37.3002 193.902 37.4456 194.062 37.5776 194.232C37.4472 194.453 37.4272 194.729 37.6164 195.004C38.7516 197.174 37.834 199.832 38.6587 202.156C39.8535 206.859 43.0319 212.165 47.775 213.834C46.1929 215.343 45.0596 217.285 43.43 218.741C39.4252 221.489 35.0147 217.394 31.7452 215.198C25.5205 210.796 19.2794 206.425 13.0212 202.072C10.2175 199.746 4.01532 196.814 2.67371 193.732C1.81422 191.37 3.3786 189.068 4.93312 187.402ZM47.8318 193.399C50.5111 198.869 52.0579 204.685 53.6052 210.558C51.9959 211.001 50.5135 211.695 48.9315 212.162C46.7034 212.663 43.5577 208.353 42.4405 206.642C41.2889 204.729 40.4826 202.627 40.1086 200.424C39.7929 198.267 40.1292 196.026 39.1917 194.028C42.0944 194.325 45.0389 194.387 47.8318 193.399ZM207.122 182.113C204.606 181.408 210.33 187.106 210.66 187.714C214.381 192.112 217.791 196.758 221.175 201.418L222.201 202.833C222.299 202.976 222.979 203.981 222.487 203.853C222.442 203.841 222.421 203.9 222.457 203.925C225.587 204.479 208.631 182.501 207.122 182.113ZM145.782 179.424C145.579 178.81 146.545 178.548 146.748 179.158L147.389 181.091C149.81 188.397 152.216 195.713 155.109 202.848C155.351 203.446 154.383 203.707 154.143 203.115C150.996 195.351 148.425 187.372 145.782 179.424ZM117.646 176.866C118.529 181.057 120.758 184.836 122.11 188.842C119.571 188.282 117.616 185.915 116.136 183.878L116.092 183.81C115.394 182.735 114.583 181.055 112.997 181.814C110.591 183.213 112.315 188.175 112.36 190.528C112.665 193.752 113.712 196.768 114.426 199.9C112.591 198.645 112.064 196.171 111.17 194.243L107.729 185.979C105.2 182.51 106.374 192.899 106.505 193.88C106.711 196.034 107.617 198.201 107.262 200.369C105.835 198.833 104.936 196.902 104.181 194.942C103.134 192.217 102.178 189.457 101.181 186.714C100.837 185.836 99.5305 186.144 99.7199 187.112C99.7841 190.225 99.8352 193.338 99.8848 196.451L99.922 198.786C99.9287 199.229 100.148 200.521 99.3836 200.164C95.3724 195.949 94.3439 187.522 94.8658 181.86C102.751 182.051 110.796 181.027 117.646 176.866ZM47.4787 192.589C47.5111 192.692 47.5483 192.795 47.5855 192.898C47.5629 192.902 47.5386 192.907 47.5159 192.913C47.5013 192.804 47.4884 192.697 47.4787 192.589ZM222.48 192.589C223.355 191.942 208.654 173.047 209.606 178.502C213.708 183.359 218.49 187.616 222.48 192.589ZM92.65 150.836C106.398 147.603 118.506 159.681 132.312 157.856C132.152 162.182 131.93 166.537 132.018 170.865C113.683 172.379 115.769 180.191 94.662 179.404C91.9345 177.575 90.8143 166.368 91.0447 162.984C90.8684 158.984 94.3073 157.188 97.7327 156.486C98.9706 157.234 101.191 155.002 99.3533 154.217C96.9342 153.489 94.6707 152.343 92.65 150.836ZM194.077 79.9355C198.968 80.4181 203.812 81.7527 208.308 83.8149C224.925 88.6172 227.321 108.09 225.323 122.847C224.495 134.068 221.298 145.043 214.577 154.169C196.683 181.487 167.046 177.161 138.974 173.548C137.962 172.843 136.247 173.343 135.272 172.412C135.374 172.377 135.466 172.329 135.545 172.269C135.076 171.902 134.713 171.26 134.605 170.578L134.403 170.598C134.205 166.361 134.363 162.208 134.299 158.004C143.523 155.472 153.416 154.178 162.764 151.655C163.827 152.397 165.052 151.543 166.09 151.14C168.781 149.995 171.496 148.906 174.231 147.87L174.915 147.612C176.697 146.943 178.479 146.257 180.245 145.542L180.906 145.273C181.918 144.858 184.472 143.325 185.576 144.282L185.487 144.475C184.833 145.904 182.578 151.193 185.35 150.147C187.6 148.565 188.766 137.534 190.995 137.437C191.762 139.49 192.311 141.622 192.436 143.817C192.482 144.311 193.13 144.728 193.52 144.266C196.163 140.781 192.17 136.985 192.064 133.307C191.812 129.029 193.702 125.027 194.644 120.933L194.702 120.651C195.254 117.995 196.113 114.774 195.885 112.392L195.337 114.46C194.787 116.529 194.223 118.599 193.577 120.639C191.972 125.734 189.074 130.983 190.684 136.435C187.454 136.543 186.908 141.647 185.695 143.978C183.732 141.428 169.918 147.542 166.766 148.523L166.158 147.833C156.285 136.626 149.158 129.042 133.857 137.906C136.5 129.37 136.756 120.303 137.206 111.438C137.052 109.751 138.026 105.303 136.652 104.382C136.414 104.417 136.182 104.489 135.964 104.585L135.964 105.459C135.957 107.152 135.878 109.958 135.169 110.596L134.844 113.947C133.992 122.662 133.026 131.371 130.426 139.769C124.186 143.262 118.493 147.635 113.136 152.353L112.526 152.13C105.908 149.704 97.9441 146.594 91.1773 149.622C91.2905 147.913 91.9494 146.277 92.8686 144.831C94.4017 144.45 95.405 142.832 96.502 141.754C99.9802 138.014 103.551 134.358 106.949 130.542C121.449 114.925 127.618 89.2814 150.389 83.2241C151.894 95.8435 168.02 97.8571 177.738 93.5383L178.106 93.3969C184.147 91.0627 190.974 87.5398 193.095 81.1216L193.184 80.9358C193.402 80.4832 193.662 80.0218 194.077 79.9355ZM190.493 151.749C190.475 151.729 190.441 151.755 190.456 151.777C193.287 155.334 195.591 160.186 192.777 164.435C192.257 165.391 193.472 166.31 194.251 165.581C198.156 161.141 193.823 155.122 190.493 151.749ZM91.9913 152.552C93.5482 153.665 95.2175 154.59 96.986 155.319C96.9803 155.523 97.0797 155.741 97.1694 155.901C94.8415 156.086 92.4172 156.688 90.7831 158.388C90.7038 157.766 90.6261 157.143 90.5666 156.519C90.4162 154.915 90.6906 153.48 91.9913 152.552ZM199.047 136.829L199.029 136.743C199.016 136.646 198.869 136.639 198.873 136.743C198.927 138.014 199.852 138.919 200.634 139.824C201.796 141.168 202.957 142.51 204.119 143.853C206.062 146.193 208.924 148.546 208.28 151.936C208.268 153.14 209.775 153.398 210.387 152.512C212.819 147.869 205.163 143.918 202.583 140.922C201.371 139.626 199.462 138.672 199.047 136.829ZM162.597 150.769C162.56 150.827 162.535 150.89 162.521 150.954C162.113 150.997 161.707 151.044 161.301 151.094L162.597 150.769ZM223.489 139.909C223.417 140.394 223.349 140.881 223.284 141.368L223.22 141.854L223.21 141.812C223.176 141.686 223.114 141.576 223.032 141.488L223.004 141.46C223.172 140.945 223.334 140.429 223.489 139.909ZM111.723 134.887C110.748 134.783 115.168 137.965 115.412 138.358C115.768 138.669 116.185 138.117 115.805 137.849C114.431 136.879 113.078 135.883 111.723 134.887ZM120.323 125.527C119.644 125.249 119.183 126.38 119.827 126.695C122.172 127.844 124.652 128.657 126.812 130.168C126.907 130.234 127.026 130.08 126.936 130.008L126.676 129.803C124.686 128.22 122.698 126.501 120.323 125.527ZM222.68 111.219C222.024 114.309 218.478 115.324 215.726 116.147L214.866 116.475C212.436 117.406 209.918 118.454 208.17 120.422C207.485 122.641 212.375 118.775 213.057 118.579C216.396 116.506 222.43 116.154 222.68 111.219ZM150.289 82.3669C150.27 82.524 150.261 82.6845 150.256 82.8449C150.051 82.8449 149.847 82.8466 149.641 82.8532C149.88 82.7126 150.1 82.5522 150.289 82.3669Z" fill="black"/>
<path fill-rule="evenodd" clip-rule="evenodd" d="M135.877 38.6117C136.49 28.5293 139.751 17.0985 149.352 12.1482C170.515 3.629 198.342 25.0827 199.815 46.9994C200.328 54.5017 196.175 62.6994 188.586 64.7852C186.899 67.0274 184.347 68.3968 181.828 69.5852C151.83 85.1957 132.452 72.5061 135.877 38.6117Z" fill="#FFDBB4"/>
<path fill-rule="evenodd" clip-rule="evenodd" d="M129.043 32.34C130.103 29.3867 131.223 26.4561 132.401 23.5481C133.548 20.718 134.585 17.8267 136.01 15.1307C144.52 -0.971397 159.995 -0.971398 167.995 1.13255C172.143 -0.660183 179.914 -0.154501 184.233 1.46321C191.226 4.08212 199.751 14.3843 202.665 19.013C209.1 29.2327 213.116 42.8349 208.842 54.6442C208.283 56.1876 207.571 57.6171 206.768 58.9947C207.274 59.6817 207.855 60.3323 208.5 60.9716C210.414 62.8716 212.329 64.7091 213.983 66.8521C215.627 68.9818 216.99 71.2466 218.004 73.7436C219.917 78.4526 220.009 83.7848 217.48 88.2781C215.28 92.1878 211.383 95.0991 206.991 95.3767C206.766 95.4082 206.54 95.437 206.314 95.4599C205.732 96.4211 205.022 97.3061 204.213 98.0777C201.732 100.444 195.819 101.658 192.446 101.736C192.273 101.875 192.099 102.015 191.924 102.153C189.86 103.782 187.695 105.425 185.326 106.584C183.721 107.37 181.617 108.027 179.942 107.46C179.183 107.968 177.937 107.861 177.184 107.445C175.946 106.761 174.939 105.529 174.327 104.268C172.841 101.206 173.199 97.8556 173.58 94.5846C174 90.9716 174.404 87.357 174.815 83.7439C175.136 80.9187 175.472 78.0464 176.329 75.3249C176.772 73.9147 177.352 72.5597 178.102 71.2856C178.082 71.1786 178.086 71.0717 178.116 70.9712C178.362 70.1704 178.869 69.7506 179.471 69.206C179.548 69.1363 179.626 69.065 179.702 68.992C180.002 68.6484 180.324 68.3291 180.668 68.0584C180.801 67.9239 180.932 67.7877 181.062 67.6515C182.15 66.5088 183.178 65.3077 184.091 64.0207C184.977 62.7726 185.777 61.4694 186.538 60.1418C187.312 58.7916 187.824 57.302 188.597 55.9615C188.663 55.8464 188.831 55.8237 188.925 55.9194C189.164 56.1674 189.317 56.4429 189.288 56.7331L189.408 56.7509C189.453 56.3133 189.855 55.9567 190.402 56.0523C191.219 56.1949 191.892 56.2484 192.6 55.9761C192.475 55.1478 192.36 54.3179 192.247 53.4864C192.04 51.9562 191.848 50.4212 191.683 48.8862C191.284 48.9819 190.888 49.1196 190.5 49.2947C189.948 49.5427 189.426 49.8766 188.98 50.2867C188.54 50.6919 188.236 51.2382 187.7 51.5202C187.082 51.8428 186.337 51.3095 186.518 50.6093C186.885 49.1942 188.962 48.3838 190.247 48.1163C190.688 48.0239 191.139 47.985 191.59 47.9947C191.488 47.0092 191.397 46.0237 191.323 45.0366C191.287 44.5697 191.255 44.1029 191.224 43.6345C190.226 43.3314 189.156 43.2406 188.117 43.3832C187.774 43.6572 187.431 43.9279 187.1 44.2018C186.048 45.0739 185.001 45.9508 183.967 46.8439C183.873 46.9233 183.781 47.0027 183.687 47.0838C183.073 47.6138 182.307 47.0886 182.41 46.3382C183.254 40.1884 179.498 35.2965 175.101 31.5068C170.233 27.3103 161.384 26.8216 155.595 19.5526C152.929 20.0968 146.976 21.7133 144.52 25.6391C141.081 31.1405 141.53 36.0697 141.268 42.3102C141.006 48.5556 140.341 55.07 141.755 61.2279C143.059 66.9059 146.59 71.7573 152.068 73.9877C152.204 74.0428 152.342 74.0963 152.479 74.1481C155.312 75.2196 158.403 75.5227 161.384 74.9586C164.682 74.3329 167.436 72.819 170.18 70.9566C170.338 70.8512 170.569 71.0684 170.45 71.2273C166.833 76.0349 159.729 77.6412 154.093 76.372C153.83 76.3121 153.568 76.2472 153.308 76.1759C154.569 79.8116 154.315 83.8023 152.673 87.3424C151.685 89.4723 150.179 91.3152 148.345 92.7692C146.323 94.3707 143.815 95.6641 142.412 97.9123C141.128 99.9725 141.509 102.287 143.709 103.477C144.263 103.778 144.476 104.753 143.927 105.181C143.717 105.343 143.507 105.508 143.292 105.67C142.06 106.602 138.678 108.353 138.13 108.417C133.266 108.996 129.995 105.414 127.899 101.188C125.437 96.2282 126.077 90.1838 128.789 85.4605C130.964 81.6708 135.248 77.9362 133.545 73.1399C132.937 71.4266 131.695 69.9662 130.487 68.6468C129.111 67.1442 127.63 65.7372 126.31 64.1812C124.998 62.6364 123.834 60.9555 123.184 59.0169C122.236 56.1836 122.708 53.1201 123.42 50.2916C124.948 44.2196 126.931 38.2287 129.043 32.34Z" fill="black"/>
<path fill-rule="evenodd" clip-rule="evenodd" d="M152.889 60.8666C152.64 60.4343 152.068 60.0337 151.545 60.0952C149.2 60.3704 149.204 63.2157 150.109 64.8769C150.912 66.3498 152.574 67.2144 154.237 67.0881C155.983 66.9553 157.472 65.9274 158.127 64.2917C158.56 63.2097 158.76 61.2123 157.608 60.4853C157.587 60.4717 157.551 60.4751 157.534 60.4947C156.982 61.1381 156.96 62.104 156.476 62.8202C156.026 63.4864 155.327 64.0366 154.509 64.1215C153.897 64.185 153.278 63.9643 153.039 63.4148C152.91 63.1176 152.925 62.9562 152.973 62.7516L153.017 62.5739C153.171 61.9512 153.239 61.4771 152.889 60.8666ZM152.262 48.388C151.039 49.132 149.176 50.8669 150.491 52.7114C152.04 54.3377 154.269 52.473 155.368 51.6297C156.387 50.9761 157.531 52.657 156.586 53.4202C148.647 59.3034 145.425 48.5825 151.643 47.5132C152.328 47.3954 152.582 48.1578 152.262 48.388ZM165.176 43.2863C164.425 42.1591 162.712 42.3251 162.299 43.6626C162.075 44.3872 162.384 45.0385 162.368 45.762C162.354 46.3733 162.394 47.0544 162.582 47.6463C163.009 48.9962 164.222 49.9497 165.657 49.9101C167.087 49.8707 168.347 48.9646 168.946 47.6885C169.547 46.4075 169.42 45.0817 168.981 43.7792C168.96 43.7166 168.878 43.6863 168.828 43.739C168.31 44.2908 167.93 44.8733 167.537 45.4912L167.134 46.1245C166.826 46.6014 166.379 47.2106 165.804 47.1723L165.718 47.1638C165.559 47.1501 165.583 47.1818 165.46 46.9639C165.403 46.8631 165.413 46.6757 165.386 46.5568L165.376 46.5166L165.381 46.4949C165.393 46.4373 165.406 46.3287 165.415 46.1403L165.417 46.0987C165.459 45.2174 165.708 44.0849 165.176 43.2863ZM146.148 44.0367C146.283 42.595 144.258 42.2749 143.585 43.3416C143.234 43.8979 143.131 44.5967 143.054 45.2587L143.017 45.573C142.938 46.2529 142.906 46.9603 143.201 47.5946C143.666 48.5935 144.676 49.1216 145.765 49.038C146.806 48.9579 147.755 48.3541 148.256 47.4375C148.702 46.6196 149.145 45.0227 148.603 44.1696C148.571 44.1179 148.505 44.1112 148.46 44.1511C147.948 44.6061 147.865 45.436 147.56 46.0288C147.246 46.6402 146.77 47.236 146.048 47.3289C145.358 47.4177 145.094 47.0402 145.27 46.3813C145.497 45.5306 146.063 44.952 146.148 44.0367ZM164.629 34.7154L164.298 34.5885C163.163 34.1595 161.606 33.6636 160.683 34.587C160.114 35.1565 160.006 35.9953 160.412 36.6902C160.904 37.5319 161.787 37.5527 162.639 37.6767C163.609 37.8177 164.595 38.0858 165.498 38.468C166.515 38.8987 167.458 39.4355 168.383 40.0351C169.261 40.6048 170.137 41.536 171.189 41.7116C171.232 41.7187 171.281 41.7002 171.292 41.6531C171.531 40.6238 170.867 39.6109 170.274 38.8079C169.558 37.8357 168.689 37.0377 167.718 36.3222C166.782 35.6316 165.711 35.1325 164.629 34.7154ZM144.018 38.3749L143.917 38.3571C143.229 38.2425 142.606 38.2689 142.087 38.8143C141.691 39.2304 141.539 39.7697 141.727 40.3198C141.901 40.8273 142.291 41.3429 142.856 41.4493C144.763 41.8085 146.876 41.7491 148.794 41.4771C149.671 41.3526 150.556 41.2003 151.41 40.9601L151.803 40.846C152.516 40.6421 153.333 40.4291 153.851 39.904C154.037 39.7154 153.93 39.4453 153.707 39.358C152.803 39.0036 151.564 39.1921 150.6 39.1644C149.479 39.1323 148.356 39.0482 147.24 38.9323C146.149 38.8188 145.094 38.5723 144.018 38.3749Z" fill="black"/>
</svg>
